<svg width="16" height="17" viewBox="0 0 16 17" fill="none" xmlns="http://www.w3.org/2000/svg">
<path d="M8.37904 7.55664V7.53236C8.374 7.54056 8.36864 7.54876 8.36328 7.55664H8.37904Z" fill="black"/>
<path d="M14.4291 0.484375H1.15096C0.515425 0.484375 0 0.987506 0 1.60759V15.0411C0 15.6609 0.515425 16.164 1.15096 16.164H14.4291C15.0656 16.164 15.581 15.6606 15.581 15.0411V1.60759C15.581 0.98719 15.0652 0.484375 14.4291 0.484375ZM4.72268 13.6102H2.36938V6.53014H4.72268V13.6102ZM3.54619 5.56297H3.53043C2.74105 5.56297 2.23036 5.01917 2.23036 4.33982C2.23036 3.64534 2.75682 3.11667 3.56164 3.11667C4.36677 3.11667 4.86202 3.64534 4.87778 4.33982C4.87778 5.01917 4.36646 5.56297 3.54619 5.56297ZM13.2088 13.6102H10.8555V9.82161C10.8555 8.8702 10.515 8.2208 9.66352 8.2208C9.01348 8.2208 8.62636 8.65867 8.45581 9.08173C8.39371 9.23274 8.37858 9.44395 8.37858 9.65579V13.6099H6.02528C6.02528 13.6099 6.05617 7.19342 6.02528 6.52983H8.37858V7.53199C8.6913 7.04967 9.25055 6.36275 10.4999 6.36275C12.048 6.36275 13.2091 7.375 13.2091 9.54987V13.6102H13.2088Z" fill="black"/>
</svg>
