<svg width="36" height="24" viewBox="0 0 36 24" fill="none" xmlns="http://www.w3.org/2000/svg">
<path fill-rule="evenodd" clip-rule="evenodd" d="M0 2.11341V22.0375C0 23.1215 0.80308 24 1.90947 24H33.3846C34.4899 24 35.2941 23.1113 35.2941 22.0375V2.11341C35.2941 0.923907 34.5749 0 33.3846 0H1.90947C0.673254 0 0 0.946607 0 2.11341ZM2.90211 3.84885C2.90211 3.36874 3.19623 3.09407 3.66613 3.09407C3.9568 3.09407 15.3941 10.2538 16.0869 10.6737L17.8768 11.7736C18.4444 11.3979 19.0142 11.0767 19.6025 10.6874C20.8031 9.92916 31.4855 3.09407 31.7796 3.09407C32.2507 3.09407 32.5437 3.36874 32.5437 3.84885C32.5437 4.35734 31.5522 4.86243 30.9065 5.25174C26.8497 7.6943 22.7941 10.3571 18.7776 12.8904C18.5432 13.0471 18.0894 13.3819 17.7493 13.3308C17.3702 13.2729 5.73185 5.88621 3.61443 4.65585C3.29619 4.47084 2.90211 4.30173 2.90211 3.84885Z" fill="white"/>
</svg>
