<svg width="19" height="16" viewBox="0 0 19 16" fill="none" xmlns="http://www.w3.org/2000/svg">
<path d="M19 1.89399C18.3015 2.21572 17.5498 2.43273 16.7611 2.52985C17.5664 2.03027 18.1839 1.23895 18.4751 0.294949C17.7218 0.758156 16.888 1.09427 15.9998 1.27572C15.2889 0.490783 14.2757 0 13.1546 0C11.002 0 9.25683 1.80846 9.25683 4.03937C9.25683 4.3555 9.29115 4.66364 9.35787 4.95978C6.11812 4.79113 3.24554 3.18329 1.3229 0.739371C0.987354 1.33566 0.795283 2.02947 0.795283 2.77044C0.795283 4.17165 1.48334 5.4082 2.52932 6.13239C1.89063 6.11121 1.28934 5.92936 0.763656 5.62682C0.763271 5.6436 0.763271 5.66079 0.763271 5.67797C0.763271 7.63471 2.107 9.26692 3.8904 9.63861C3.56334 9.73053 3.21893 9.78009 2.86333 9.78009C2.61186 9.78009 2.36772 9.75491 2.12975 9.70735C2.62613 11.312 4.06551 12.4802 5.77101 12.5126C4.43692 13.596 2.75649 14.2419 0.929887 14.2419C0.615553 14.2419 0.305077 14.2227 0 14.1851C1.72555 15.3318 3.77431 16 5.97542 16C13.1457 16 17.0662 9.84523 17.0662 4.50737C17.0662 4.33232 17.0627 4.15767 17.0554 3.98421C17.8167 3.4159 18.4778 2.7041 19 1.89399Z" fill="black"/>
</svg>
