<svg width="131" height="138" viewBox="0 0 131 138" fill="none" xmlns="http://www.w3.org/2000/svg">
<path opacity="0.1" d="M4 101.5L65.5 66L126.5 101.5L65.5 137.5L4 101.5Z" fill="#26D7A0"/>
<path d="M61.2378 2.71019C63.52 1.37533 67.2201 1.37534 69.5023 2.7102L126.867 36.2628C128.008 36.9302 128.008 38.0124 126.867 38.6798L65.37 74.6494L4.90631 39.284C3.19466 38.2829 3.19467 36.6597 4.90631 35.6586L61.2378 2.71019Z" fill="black"/>
<path fill-rule="evenodd" clip-rule="evenodd" d="M59.1716 1.50172C62.5949 -0.500577 68.1452 -0.50057 71.5685 1.50172L128.933 35.0543C131.215 36.3892 131.215 38.5534 128.933 39.8883L65.37 77.0664L2.84017 40.4925C-0.0125778 38.824 -0.0125701 36.1187 2.84017 34.4501L59.1716 1.50172ZM67.4362 3.9187C66.2951 3.25127 64.445 3.25127 63.3039 3.9187L6.97246 36.8671C6.40191 37.2008 6.40191 37.7418 6.97246 38.0756L65.37 72.2324L124.801 37.4713L67.4362 3.9187Z" fill="white"/>
<path d="M2.06528 39.8646C2.06528 38.5428 2.99032 38.0123 4.13142 38.6797L65.6282 74.6493V90.845C65.6282 92.1668 64.7032 92.6973 63.5621 92.0299L4.13142 57.2688C2.99032 56.6013 2.06528 54.9887 2.06528 53.6669L2.06528 39.8646Z" fill="black"/>
<path fill-rule="evenodd" clip-rule="evenodd" d="M3.00141e-07 38.6561C3.5763e-07 36.0125 1.85009 34.9515 4.13229 36.2864L67.6952 73.4645V92.0535C67.6952 94.6971 65.8452 95.758 63.563 94.4232L4.13228 59.6621C1.85008 58.3272 -5.7488e-08 55.102 0 52.4584L3.00141e-07 38.6561ZM63.563 75.8342L4.13229 41.0731L4.13229 54.8754L63.563 89.6365V75.8342Z" fill="white"/>
<path d="M65.37 74.6494L126.867 38.6798C128.008 38.0124 128.933 38.5428 128.933 39.8646V53.667C128.933 54.9888 128.008 56.6014 126.867 57.2688L67.4362 92.0299C66.2951 92.6973 65.37 92.1669 65.37 90.8451V74.6494Z" fill="black"/>
<path fill-rule="evenodd" clip-rule="evenodd" d="M63.3048 73.4645L126.868 36.2864C129.15 34.9516 131 36.0125 131 38.6561V52.4585C131 55.1021 129.15 58.3273 126.868 59.6621L67.437 94.4232C65.1548 95.7581 63.3048 94.6971 63.3048 92.0535V73.4645ZM67.437 75.8342V89.6366L126.868 54.8755V41.0731L67.437 75.8342Z" fill="white"/>
<path d="M34.0208 26.9769L49.2756 18.1709L51.5171 19.4648L38.3378 27.0727L41.3058 28.786L39.2303 29.9841L34.0208 26.9769Z" fill="white"/>
<path d="M40.2456 30.5702L55.5004 21.7642L60.6269 24.7235L58.3231 26.0534L55.4382 24.3881L51.3287 26.7603L53.4042 27.9584L51.1627 29.2523L49.0872 28.0542L44.791 30.5343L47.6759 32.1996L45.3721 33.5295L40.2456 30.5702Z" fill="white"/>
<path d="M48.945 35.592L61.8752 25.4442L64.0545 26.7022L56.1677 32.5489L54.7771 33.4474L54.9016 33.5193L56.4582 32.7166L66.5866 28.1638L68.7658 29.4218L51.1865 36.8859L48.945 35.592Z" fill="white"/>
<path d="M54.7627 38.9503L70.0174 30.1443L72.259 31.4383L57.0042 40.2443L54.7627 38.9503Z" fill="white"/>
<path d="M60.2726 42.131L73.2236 34.6549L71.1066 33.4328L73.4104 32.1029L79.8859 35.841L77.5821 37.1709L75.4651 35.9488L62.5141 43.4249L60.2726 42.131Z" fill="white"/>
<path d="M64.2726 44.44L81.8311 36.9639L84.5708 38.5454L71.6198 48.6813L69.4405 47.4233L72.1386 45.3865L69.9802 44.1405L66.4518 45.698L64.2726 44.44ZM72.6575 42.9544L74.1934 43.841L78.6764 40.5103L79.4236 40.0071L79.2991 39.9352L78.4274 40.3665L72.6575 42.9544Z" fill="white"/>
<path d="M73.3708 49.6921L86.3218 42.216L84.2048 40.9939L86.5086 39.664L92.9841 43.4021L90.6803 44.732L88.5633 43.5099L75.6123 50.986L73.3708 49.6921Z" fill="white"/>
<path d="M78.8715 52.8674L94.1263 44.0614L99.2527 47.0207L96.9489 48.3506L94.064 46.6852L89.9546 49.0575L92.03 50.2555L89.7885 51.5495L87.713 50.3514L83.4168 52.8314L86.3017 54.4968L83.9979 55.8267L78.8715 52.8674Z" fill="white"/>
</svg>
