<svg version="1.2" xmlns="http://www.w3.org/2000/svg" viewBox="0 0 615 517" width="615" height="517">
	<title>lavitate-svg</title>
	<defs>
		<radialGradient id="g1" cx="307.5" cy="186.5" r="307.5" gradientUnits="userSpaceOnUse">
			<stop offset="0" stop-color="#2bc7b3" stop-opacity=".1"/>
			<stop offset="1" stop-color="#26d7a0" stop-opacity="0"/>
		</radialGradient>
		<clipPath clipPathUnits="userSpaceOnUse" id="cp1">
			<path d="m486 71.8v137h-330v-137z"/>
		</clipPath>
	</defs>
	<style>
		.s0 { fill: url(#g1) } 
		.s1 { fill: #26d7a0 } 
		.s2 { fill: none;stroke: #000000 } 
		.s3 { fill: #ffffff } 
		.s4 { fill: #f85e60;stroke: #f85e60 } 
		.s5 { fill: #000000 } 
		.s6 { fill: #f85e60 } 
	</style>
	<path id="Layer" class="s0" d="m0 186.5c0-165.1 137.5-298.5 307.5-298.5 170 0 307.5 133.4 307.5 298.5 0 165.1-137.5 298.5-307.5 298.5-170 0-307.5-133.4-307.5-298.5z"/>
	<path id="Layer" class="s1" d="m184 156c0-69.7 56.5-126 126.5-126 70 0 126.5 56.3 126.5 126 0 69.7-56.5 126-126.5 126-70 0-126.5-56.3-126.5-126z"/>
	<path id="Layer" class="s2" d="m319.5 280.5c-69.6 0-126-56.2-126-125.5 0-69.3 56.4-125.5 126-125.5 69.6 0 126 56.2 126 125.5 0 69.3-56.4 125.5-126 125.5z"/>
	<g id="Layer">
		<path id="Layer" class="s3" d="m503 54.8v167h-363v-167z"/>
		<path id="Layer" class="s2" d="m502.5 55.3v166h-362v-166z"/>
	</g>
	<g id="Clip-Path" clip-path="url(#cp1)">
		<g id="Layer">
			<path id="Layer" class="s2" d="m476.5 76.8c0-2.5 2-4.5 4.5-4.5 2.5 0 4.5 2 4.5 4.5 0 2.5-2 4.5-4.5 4.5-2.5 0-4.5-2-4.5-4.5z"/>
			<path id="Layer" class="s2" d="m456.5 76.8c0-2.5 2-4.5 4.5-4.5 2.5 0 4.5 2 4.5 4.5 0 2.5-2 4.5-4.5 4.5-2.5 0-4.5-2-4.5-4.5z"/>
			<path id="Layer" class="s2" d="m436.5 76.8c0-2.5 2-4.5 4.5-4.5 2.5 0 4.5 2 4.5 4.5 0 2.5-2 4.5-4.5 4.5-2.5 0-4.5-2-4.5-4.5z"/>
			<path id="Layer" class="s2" d="m416.5 76.8c0-2.5 2-4.5 4.5-4.5 2.5 0 4.5 2 4.5 4.5 0 2.5-2 4.5-4.5 4.5-2.5 0-4.5-2-4.5-4.5z"/>
			<path id="Layer" class="s2" d="m396.5 76.8c0-2.5 2-4.5 4.5-4.5 2.5 0 4.5 2 4.5 4.5 0 2.5-2 4.5-4.5 4.5-2.5 0-4.5-2-4.5-4.5z"/>
			<path id="Layer" class="s2" d="m376.5 76.8c0-2.5 2-4.5 4.5-4.5 2.5 0 4.5 2 4.5 4.5 0 2.5-2 4.5-4.5 4.5-2.5 0-4.5-2-4.5-4.5z"/>
			<path id="Layer" class="s2" d="m356.5 76.8c0-2.5 2-4.5 4.5-4.5 2.5 0 4.5 2 4.5 4.5 0 2.5-2 4.5-4.5 4.5-2.5 0-4.5-2-4.5-4.5z"/>
			<path id="Layer" class="s2" d="m336.5 76.8c0-2.5 2-4.5 4.5-4.5 2.5 0 4.5 2 4.5 4.5 0 2.5-2 4.5-4.5 4.5-2.5 0-4.5-2-4.5-4.5z"/>
			<path id="Layer" class="s2" d="m316.5 76.8c0-2.5 2-4.5 4.5-4.5 2.5 0 4.5 2 4.5 4.5 0 2.5-2 4.5-4.5 4.5-2.5 0-4.5-2-4.5-4.5z"/>
			<path id="Layer" class="s2" d="m296.5 76.8c0-2.5 2-4.5 4.5-4.5 2.5 0 4.5 2 4.5 4.5 0 2.5-2 4.5-4.5 4.5-2.5 0-4.5-2-4.5-4.5z"/>
			<path id="Layer" class="s2" d="m276.5 76.8c0-2.5 2-4.5 4.5-4.5 2.5 0 4.5 2 4.5 4.5 0 2.5-2 4.5-4.5 4.5-2.5 0-4.5-2-4.5-4.5z"/>
			<path id="Layer" class="s2" d="m256.5 76.8c0-2.5 2-4.5 4.5-4.5 2.5 0 4.5 2 4.5 4.5 0 2.5-2 4.5-4.5 4.5-2.5 0-4.5-2-4.5-4.5z"/>
			<path id="Layer" class="s2" d="m236.5 76.8c0-2.5 2-4.5 4.5-4.5 2.5 0 4.5 2 4.5 4.5 0 2.5-2 4.5-4.5 4.5-2.5 0-4.5-2-4.5-4.5z"/>
			<path id="Layer" class="s2" d="m216.5 76.8c0-2.5 2-4.5 4.5-4.5 2.5 0 4.5 2 4.5 4.5 0 2.5-2 4.5-4.5 4.5-2.5 0-4.5-2-4.5-4.5z"/>
			<path id="Layer" class="s2" d="m196.5 76.8c0-2.5 2-4.5 4.5-4.5 2.5 0 4.5 2 4.5 4.5 0 2.5-2 4.5-4.5 4.5-2.5 0-4.5-2-4.5-4.5z"/>
			<path id="Layer" class="s2" d="m176.5 76.8c0-2.5 2-4.5 4.5-4.5 2.5 0 4.5 2 4.5 4.5 0 2.5-2 4.5-4.5 4.5-2.5 0-4.5-2-4.5-4.5z"/>
			<path id="Layer" class="s2" d="m156.5 76.8c0-2.5 2-4.5 4.5-4.5 2.5 0 4.5 2 4.5 4.5 0 2.5-2 4.5-4.5 4.5-2.5 0-4.5-2-4.5-4.5z"/>
			<path id="Layer" class="s2" d="m476.5 96.8c0-2.5 2-4.5 4.5-4.5 2.5 0 4.5 2 4.5 4.5 0 2.5-2 4.5-4.5 4.5-2.5 0-4.5-2-4.5-4.5z"/>
			<path id="Layer" class="s2" d="m456.5 96.8c0-2.5 2-4.5 4.5-4.5 2.5 0 4.5 2 4.5 4.5 0 2.5-2 4.5-4.5 4.5-2.5 0-4.5-2-4.5-4.5z"/>
			<path id="Layer" class="s2" d="m436.5 96.8c0-2.5 2-4.5 4.5-4.5 2.5 0 4.5 2 4.5 4.5 0 2.5-2 4.5-4.5 4.5-2.5 0-4.5-2-4.5-4.5z"/>
			<path id="Layer" class="s2" d="m416.5 96.8c0-2.5 2-4.5 4.5-4.5 2.5 0 4.5 2 4.5 4.5 0 2.5-2 4.5-4.5 4.5-2.5 0-4.5-2-4.5-4.5z"/>
			<path id="Layer" class="s2" d="m396.5 96.8c0-2.5 2-4.5 4.5-4.5 2.5 0 4.5 2 4.5 4.5 0 2.5-2 4.5-4.5 4.5-2.5 0-4.5-2-4.5-4.5z"/>
			<path id="Layer" class="s2" d="m376.5 96.8c0-2.5 2-4.5 4.5-4.5 2.5 0 4.5 2 4.5 4.5 0 2.5-2 4.5-4.5 4.5-2.5 0-4.5-2-4.5-4.5z"/>
			<path id="Layer" class="s2" d="m356.5 96.8c0-2.5 2-4.5 4.5-4.5 2.5 0 4.5 2 4.5 4.5 0 2.5-2 4.5-4.5 4.5-2.5 0-4.5-2-4.5-4.5z"/>
			<path id="Layer" class="s2" d="m336.5 96.8c0-2.5 2-4.5 4.5-4.5 2.5 0 4.5 2 4.5 4.5 0 2.5-2 4.5-4.5 4.5-2.5 0-4.5-2-4.5-4.5z"/>
			<path id="Layer" class="s2" d="m316.5 96.8c0-2.5 2-4.5 4.5-4.5 2.5 0 4.5 2 4.5 4.5 0 2.5-2 4.5-4.5 4.5-2.5 0-4.5-2-4.5-4.5z"/>
			<path id="Layer" class="s2" d="m296.5 96.8c0-2.5 2-4.5 4.5-4.5 2.5 0 4.5 2 4.5 4.5 0 2.5-2 4.5-4.5 4.5-2.5 0-4.5-2-4.5-4.5z"/>
			<path id="Layer" class="s2" d="m276.5 96.8c0-2.5 2-4.5 4.5-4.5 2.5 0 4.5 2 4.5 4.5 0 2.5-2 4.5-4.5 4.5-2.5 0-4.5-2-4.5-4.5z"/>
			<path id="Layer" class="s2" d="m256.5 96.8c0-2.5 2-4.5 4.5-4.5 2.5 0 4.5 2 4.5 4.5 0 2.5-2 4.5-4.5 4.5-2.5 0-4.5-2-4.5-4.5z"/>
			<path id="Layer" class="s2" d="m236.5 96.8c0-2.5 2-4.5 4.5-4.5 2.5 0 4.5 2 4.5 4.5 0 2.5-2 4.5-4.5 4.5-2.5 0-4.5-2-4.5-4.5z"/>
			<path id="Layer" class="s2" d="m216.5 96.8c0-2.5 2-4.5 4.5-4.5 2.5 0 4.5 2 4.5 4.5 0 2.5-2 4.5-4.5 4.5-2.5 0-4.5-2-4.5-4.5z"/>
			<path id="Layer" class="s2" d="m196.5 96.8c0-2.5 2-4.5 4.5-4.5 2.5 0 4.5 2 4.5 4.5 0 2.5-2 4.5-4.5 4.5-2.5 0-4.5-2-4.5-4.5z"/>
			<path id="Layer" class="s2" d="m176.5 96.8c0-2.5 2-4.5 4.5-4.5 2.5 0 4.5 2 4.5 4.5 0 2.5-2 4.5-4.5 4.5-2.5 0-4.5-2-4.5-4.5z"/>
			<path id="Layer" class="s2" d="m156.5 96.8c0-2.5 2-4.5 4.5-4.5 2.5 0 4.5 2 4.5 4.5 0 2.5-2 4.5-4.5 4.5-2.5 0-4.5-2-4.5-4.5z"/>
			<path id="Layer" class="s2" d="m476.5 116.8c0-2.5 2-4.5 4.5-4.5 2.5 0 4.5 2 4.5 4.5 0 2.5-2 4.5-4.5 4.5-2.5 0-4.5-2-4.5-4.5z"/>
			<path id="Layer" class="s2" d="m456.5 116.8c0-2.5 2-4.5 4.5-4.5 2.5 0 4.5 2 4.5 4.5 0 2.5-2 4.5-4.5 4.5-2.5 0-4.5-2-4.5-4.5z"/>
			<path id="Layer" class="s2" d="m436.5 116.8c0-2.5 2-4.5 4.5-4.5 2.5 0 4.5 2 4.5 4.5 0 2.5-2 4.5-4.5 4.5-2.5 0-4.5-2-4.5-4.5z"/>
			<path id="Layer" class="s2" d="m416.5 116.8c0-2.5 2-4.5 4.5-4.5 2.5 0 4.5 2 4.5 4.5 0 2.5-2 4.5-4.5 4.5-2.5 0-4.5-2-4.5-4.5z"/>
			<path id="Layer" class="s2" d="m396.5 116.8c0-2.5 2-4.5 4.5-4.5 2.5 0 4.5 2 4.5 4.5 0 2.5-2 4.5-4.5 4.5-2.5 0-4.5-2-4.5-4.5z"/>
			<path id="Layer" class="s2" d="m376.5 116.8c0-2.5 2-4.5 4.5-4.5 2.5 0 4.5 2 4.5 4.5 0 2.5-2 4.5-4.5 4.5-2.5 0-4.5-2-4.5-4.5z"/>
			<path id="Layer" class="s2" d="m356.5 116.8c0-2.5 2-4.5 4.5-4.5 2.5 0 4.5 2 4.5 4.5 0 2.5-2 4.5-4.5 4.5-2.5 0-4.5-2-4.5-4.5z"/>
			<path id="Layer" class="s2" d="m336.5 116.8c0-2.5 2-4.5 4.5-4.5 2.5 0 4.5 2 4.5 4.5 0 2.5-2 4.5-4.5 4.5-2.5 0-4.5-2-4.5-4.5z"/>
			<path id="Layer" class="s2" d="m316.5 116.8c0-2.5 2-4.5 4.5-4.5 2.5 0 4.5 2 4.5 4.5 0 2.5-2 4.5-4.5 4.5-2.5 0-4.5-2-4.5-4.5z"/>
			<path id="Layer" class="s2" d="m296.5 116.8c0-2.5 2-4.5 4.5-4.5 2.5 0 4.5 2 4.5 4.5 0 2.5-2 4.5-4.5 4.5-2.5 0-4.5-2-4.5-4.5z"/>
			<path id="Layer" class="s2" d="m276.5 116.8c0-2.5 2-4.5 4.5-4.5 2.5 0 4.5 2 4.5 4.5 0 2.5-2 4.5-4.5 4.5-2.5 0-4.5-2-4.5-4.5z"/>
			<path id="Layer" class="s2" d="m256.5 116.8c0-2.5 2-4.5 4.5-4.5 2.5 0 4.5 2 4.5 4.5 0 2.5-2 4.5-4.5 4.5-2.5 0-4.5-2-4.5-4.5z"/>
			<path id="Layer" class="s2" d="m236.5 116.8c0-2.5 2-4.5 4.5-4.5 2.5 0 4.5 2 4.5 4.5 0 2.5-2 4.5-4.5 4.5-2.5 0-4.5-2-4.5-4.5z"/>
			<path id="Layer" class="s2" d="m216.5 116.8c0-2.5 2-4.5 4.5-4.5 2.5 0 4.5 2 4.5 4.5 0 2.5-2 4.5-4.5 4.5-2.5 0-4.5-2-4.5-4.5z"/>
			<path id="Layer" class="s2" d="m196.5 116.8c0-2.5 2-4.5 4.5-4.5 2.5 0 4.5 2 4.5 4.5 0 2.5-2 4.5-4.5 4.5-2.5 0-4.5-2-4.5-4.5z"/>
			<path id="Layer" class="s2" d="m176.5 116.8c0-2.5 2-4.5 4.5-4.5 2.5 0 4.5 2 4.5 4.5 0 2.5-2 4.5-4.5 4.5-2.5 0-4.5-2-4.5-4.5z"/>
			<path id="Layer" class="s2" d="m156.5 116.8c0-2.5 2-4.5 4.5-4.5 2.5 0 4.5 2 4.5 4.5 0 2.5-2 4.5-4.5 4.5-2.5 0-4.5-2-4.5-4.5z"/>
			<path id="Layer" class="s2" d="m476.5 136.8c0-2.5 2-4.5 4.5-4.5 2.5 0 4.5 2 4.5 4.5 0 2.5-2 4.5-4.5 4.5-2.5 0-4.5-2-4.5-4.5z"/>
			<path id="Layer" class="s2" d="m456.5 136.8c0-2.5 2-4.5 4.5-4.5 2.5 0 4.5 2 4.5 4.5 0 2.5-2 4.5-4.5 4.5-2.5 0-4.5-2-4.5-4.5z"/>
			<path id="Layer" class="s2" d="m436.5 136.8c0-2.5 2-4.5 4.5-4.5 2.5 0 4.5 2 4.5 4.5 0 2.5-2 4.5-4.5 4.5-2.5 0-4.5-2-4.5-4.5z"/>
			<path id="Layer" class="s2" d="m416.5 136.8c0-2.5 2-4.5 4.5-4.5 2.5 0 4.5 2 4.5 4.5 0 2.5-2 4.5-4.5 4.5-2.5 0-4.5-2-4.5-4.5z"/>
			<path id="Layer" class="s2" d="m396.5 136.8c0-2.5 2-4.5 4.5-4.5 2.5 0 4.5 2 4.5 4.5 0 2.5-2 4.5-4.5 4.5-2.5 0-4.5-2-4.5-4.5z"/>
			<path id="Layer" class="s2" d="m376.5 136.8c0-2.5 2-4.5 4.5-4.5 2.5 0 4.5 2 4.5 4.5 0 2.5-2 4.5-4.5 4.5-2.5 0-4.5-2-4.5-4.5z"/>
			<path id="Layer" class="s2" d="m356.5 136.8c0-2.5 2-4.5 4.5-4.5 2.5 0 4.5 2 4.5 4.5 0 2.5-2 4.5-4.5 4.5-2.5 0-4.5-2-4.5-4.5z"/>
			<path id="Layer" class="s2" d="m336.5 136.8c0-2.5 2-4.5 4.5-4.5 2.5 0 4.5 2 4.5 4.5 0 2.5-2 4.5-4.5 4.5-2.5 0-4.5-2-4.5-4.5z"/>
			<path id="Layer" class="s2" d="m316.5 136.8c0-2.5 2-4.5 4.5-4.5 2.5 0 4.5 2 4.5 4.5 0 2.5-2 4.5-4.5 4.5-2.5 0-4.5-2-4.5-4.5z"/>
			<path id="Layer" class="s2" d="m296.5 136.8c0-2.5 2-4.5 4.5-4.5 2.5 0 4.5 2 4.5 4.5 0 2.5-2 4.5-4.5 4.5-2.5 0-4.5-2-4.5-4.5z"/>
			<path id="Layer" class="s2" d="m276.5 136.8c0-2.5 2-4.5 4.5-4.5 2.5 0 4.5 2 4.5 4.5 0 2.5-2 4.5-4.5 4.5-2.5 0-4.5-2-4.5-4.5z"/>
			<path id="Layer" class="s2" d="m256.5 136.8c0-2.5 2-4.5 4.5-4.5 2.5 0 4.5 2 4.5 4.5 0 2.5-2 4.5-4.5 4.5-2.5 0-4.5-2-4.5-4.5z"/>
			<path id="Layer" class="s2" d="m236.5 136.8c0-2.5 2-4.5 4.5-4.5 2.5 0 4.5 2 4.5 4.5 0 2.5-2 4.5-4.5 4.5-2.5 0-4.5-2-4.5-4.5z"/>
			<path id="Layer" class="s2" d="m216.5 136.8c0-2.5 2-4.5 4.5-4.5 2.5 0 4.5 2 4.5 4.5 0 2.5-2 4.5-4.5 4.5-2.5 0-4.5-2-4.5-4.5z"/>
			<path id="Layer" class="s2" d="m196.5 136.8c0-2.5 2-4.5 4.5-4.5 2.5 0 4.5 2 4.5 4.5 0 2.5-2 4.5-4.5 4.5-2.5 0-4.5-2-4.5-4.5z"/>
			<path id="Layer" class="s2" d="m176.5 136.8c0-2.5 2-4.5 4.5-4.5 2.5 0 4.5 2 4.5 4.5 0 2.5-2 4.5-4.5 4.5-2.5 0-4.5-2-4.5-4.5z"/>
			<path id="Layer" class="s2" d="m156.5 136.8c0-2.5 2-4.5 4.5-4.5 2.5 0 4.5 2 4.5 4.5 0 2.5-2 4.5-4.5 4.5-2.5 0-4.5-2-4.5-4.5z"/>
			<path id="Layer" class="s2" d="m476.5 156.8c0-2.5 2-4.5 4.5-4.5 2.5 0 4.5 2 4.5 4.5 0 2.5-2 4.5-4.5 4.5-2.5 0-4.5-2-4.5-4.5z"/>
			<path id="Layer" class="s2" d="m456.5 156.8c0-2.5 2-4.5 4.5-4.5 2.5 0 4.5 2 4.5 4.5 0 2.5-2 4.5-4.5 4.5-2.5 0-4.5-2-4.5-4.5z"/>
			<path id="Layer" class="s2" d="m436.5 156.8c0-2.5 2-4.5 4.5-4.5 2.5 0 4.5 2 4.5 4.5 0 2.5-2 4.5-4.5 4.5-2.5 0-4.5-2-4.5-4.5z"/>
			<path id="Layer" class="s2" d="m416.5 156.8c0-2.5 2-4.5 4.5-4.5 2.5 0 4.5 2 4.5 4.5 0 2.5-2 4.5-4.5 4.5-2.5 0-4.5-2-4.5-4.5z"/>
			<path id="Layer" class="s2" d="m396.5 156.8c0-2.5 2-4.5 4.5-4.5 2.5 0 4.5 2 4.5 4.5 0 2.5-2 4.5-4.5 4.5-2.5 0-4.5-2-4.5-4.5z"/>
			<path id="Layer" class="s2" d="m376.5 156.8c0-2.5 2-4.5 4.5-4.5 2.5 0 4.5 2 4.5 4.5 0 2.5-2 4.5-4.5 4.5-2.5 0-4.5-2-4.5-4.5z"/>
			<path id="Layer" class="s2" d="m356.5 156.8c0-2.5 2-4.5 4.5-4.5 2.5 0 4.5 2 4.5 4.5 0 2.5-2 4.5-4.5 4.5-2.5 0-4.5-2-4.5-4.5z"/>
			<path id="Layer" class="s2" d="m336.5 156.8c0-2.5 2-4.5 4.5-4.5 2.5 0 4.5 2 4.5 4.5 0 2.5-2 4.5-4.5 4.5-2.5 0-4.5-2-4.5-4.5z"/>
			<path id="Layer" class="s2" d="m316.5 156.8c0-2.5 2-4.5 4.5-4.5 2.5 0 4.5 2 4.5 4.5 0 2.5-2 4.5-4.5 4.5-2.5 0-4.5-2-4.5-4.5z"/>
			<path id="Layer" class="s2" d="m296.5 156.8c0-2.5 2-4.5 4.5-4.5 2.5 0 4.5 2 4.5 4.5 0 2.5-2 4.5-4.5 4.5-2.5 0-4.5-2-4.5-4.5z"/>
			<path id="Layer" class="s2" d="m276.5 156.8c0-2.5 2-4.5 4.5-4.5 2.5 0 4.5 2 4.5 4.5 0 2.5-2 4.5-4.5 4.5-2.5 0-4.5-2-4.5-4.5z"/>
			<path id="Layer" class="s2" d="m256.5 156.8c0-2.5 2-4.5 4.5-4.5 2.5 0 4.5 2 4.5 4.5 0 2.5-2 4.5-4.5 4.5-2.5 0-4.5-2-4.5-4.5z"/>
			<path id="Layer" class="s2" d="m236.5 156.8c0-2.5 2-4.5 4.5-4.5 2.5 0 4.5 2 4.5 4.5 0 2.5-2 4.5-4.5 4.5-2.5 0-4.5-2-4.5-4.5z"/>
			<path id="Layer" class="s2" d="m216.5 156.8c0-2.5 2-4.5 4.5-4.5 2.5 0 4.5 2 4.5 4.5 0 2.5-2 4.5-4.5 4.5-2.5 0-4.5-2-4.5-4.5z"/>
			<path id="Layer" class="s2" d="m196.5 156.8c0-2.5 2-4.5 4.5-4.5 2.5 0 4.5 2 4.5 4.5 0 2.5-2 4.5-4.5 4.5-2.5 0-4.5-2-4.5-4.5z"/>
			<path id="Layer" class="s2" d="m176.5 156.8c0-2.5 2-4.5 4.5-4.5 2.5 0 4.5 2 4.5 4.5 0 2.5-2 4.5-4.5 4.5-2.5 0-4.5-2-4.5-4.5z"/>
			<path id="Layer" class="s2" d="m156.5 156.8c0-2.5 2-4.5 4.5-4.5 2.5 0 4.5 2 4.5 4.5 0 2.5-2 4.5-4.5 4.5-2.5 0-4.5-2-4.5-4.5z"/>
			<path id="Layer" class="s2" d="m476.5 176.8c0-2.5 2-4.5 4.5-4.5 2.5 0 4.5 2 4.5 4.5 0 2.5-2 4.5-4.5 4.5-2.5 0-4.5-2-4.5-4.5z"/>
			<path id="Layer" class="s2" d="m456.5 176.8c0-2.5 2-4.5 4.5-4.5 2.5 0 4.5 2 4.5 4.5 0 2.5-2 4.5-4.5 4.5-2.5 0-4.5-2-4.5-4.5z"/>
			<path id="Layer" class="s2" d="m436.5 176.8c0-2.5 2-4.5 4.5-4.5 2.5 0 4.5 2 4.5 4.5 0 2.5-2 4.5-4.5 4.5-2.5 0-4.5-2-4.5-4.5z"/>
			<path id="Layer" class="s2" d="m416.5 176.8c0-2.5 2-4.5 4.5-4.5 2.5 0 4.5 2 4.5 4.5 0 2.5-2 4.5-4.5 4.5-2.5 0-4.5-2-4.5-4.5z"/>
			<path id="Layer" class="s2" d="m396.5 176.8c0-2.5 2-4.5 4.5-4.5 2.5 0 4.5 2 4.5 4.5 0 2.5-2 4.5-4.5 4.5-2.5 0-4.5-2-4.5-4.5z"/>
			<path id="Layer" class="s2" d="m376.5 176.8c0-2.5 2-4.5 4.5-4.5 2.5 0 4.5 2 4.5 4.5 0 2.5-2 4.5-4.5 4.5-2.5 0-4.5-2-4.5-4.5z"/>
			<path id="Layer" class="s2" d="m356.5 176.8c0-2.5 2-4.5 4.5-4.5 2.5 0 4.5 2 4.5 4.5 0 2.5-2 4.5-4.5 4.5-2.5 0-4.5-2-4.5-4.5z"/>
			<path id="Layer" class="s2" d="m336.5 176.8c0-2.5 2-4.5 4.5-4.5 2.5 0 4.5 2 4.5 4.5 0 2.5-2 4.5-4.5 4.5-2.5 0-4.5-2-4.5-4.5z"/>
			<path id="Layer" class="s4" d="m316.5 176.8c0-2.5 2-4.5 4.5-4.5 2.5 0 4.5 2 4.5 4.5 0 2.5-2 4.5-4.5 4.5-2.5 0-4.5-2-4.5-4.5z"/>
			<path id="Layer" class="s2" d="m296.5 176.8c0-2.5 2-4.5 4.5-4.5 2.5 0 4.5 2 4.5 4.5 0 2.5-2 4.5-4.5 4.5-2.5 0-4.5-2-4.5-4.5z"/>
			<path id="Layer" class="s2" d="m276.5 176.8c0-2.5 2-4.5 4.5-4.5 2.5 0 4.5 2 4.5 4.5 0 2.5-2 4.5-4.5 4.5-2.5 0-4.5-2-4.5-4.5z"/>
			<path id="Layer" class="s2" d="m256.5 176.8c0-2.5 2-4.5 4.5-4.5 2.5 0 4.5 2 4.5 4.5 0 2.5-2 4.5-4.5 4.5-2.5 0-4.5-2-4.5-4.5z"/>
			<path id="Layer" class="s2" d="m236.5 176.8c0-2.5 2-4.5 4.5-4.5 2.5 0 4.5 2 4.5 4.5 0 2.5-2 4.5-4.5 4.5-2.5 0-4.5-2-4.5-4.5z"/>
			<path id="Layer" class="s2" d="m216.5 176.8c0-2.5 2-4.5 4.5-4.5 2.5 0 4.5 2 4.5 4.5 0 2.5-2 4.5-4.5 4.5-2.5 0-4.5-2-4.5-4.5z"/>
			<path id="Layer" class="s2" d="m196.5 176.8c0-2.5 2-4.5 4.5-4.5 2.5 0 4.5 2 4.5 4.5 0 2.5-2 4.5-4.5 4.5-2.5 0-4.5-2-4.5-4.5z"/>
			<path id="Layer" class="s2" d="m176.5 176.8c0-2.5 2-4.5 4.5-4.5 2.5 0 4.5 2 4.5 4.5 0 2.5-2 4.5-4.5 4.5-2.5 0-4.5-2-4.5-4.5z"/>
			<path id="Layer" class="s2" d="m156.5 176.8c0-2.5 2-4.5 4.5-4.5 2.5 0 4.5 2 4.5 4.5 0 2.5-2 4.5-4.5 4.5-2.5 0-4.5-2-4.5-4.5z"/>
			<path id="Layer" class="s2" d="m476.5 196.8c0-2.5 2-4.5 4.5-4.5 2.5 0 4.5 2 4.5 4.5 0 2.5-2 4.5-4.5 4.5-2.5 0-4.5-2-4.5-4.5z"/>
			<path id="Layer" class="s2" d="m456.5 196.8c0-2.5 2-4.5 4.5-4.5 2.5 0 4.5 2 4.5 4.5 0 2.5-2 4.5-4.5 4.5-2.5 0-4.5-2-4.5-4.5z"/>
			<path id="Layer" class="s2" d="m436.5 196.8c0-2.5 2-4.5 4.5-4.5 2.5 0 4.5 2 4.5 4.5 0 2.5-2 4.5-4.5 4.5-2.5 0-4.5-2-4.5-4.5z"/>
			<path id="Layer" class="s2" d="m416.5 196.8c0-2.5 2-4.5 4.5-4.5 2.5 0 4.5 2 4.5 4.5 0 2.5-2 4.5-4.5 4.5-2.5 0-4.5-2-4.5-4.5z"/>
			<path id="Layer" class="s2" d="m396.5 196.8c0-2.5 2-4.5 4.5-4.5 2.5 0 4.5 2 4.5 4.5 0 2.5-2 4.5-4.5 4.5-2.5 0-4.5-2-4.5-4.5z"/>
			<path id="Layer" class="s2" d="m376.5 196.8c0-2.5 2-4.5 4.5-4.5 2.5 0 4.5 2 4.5 4.5 0 2.5-2 4.5-4.5 4.5-2.5 0-4.5-2-4.5-4.5z"/>
			<path id="Layer" class="s2" d="m356.5 196.8c0-2.5 2-4.5 4.5-4.5 2.5 0 4.5 2 4.5 4.5 0 2.5-2 4.5-4.5 4.5-2.5 0-4.5-2-4.5-4.5z"/>
			<path id="Layer" class="s2" d="m336.5 196.8c0-2.5 2-4.5 4.5-4.5 2.5 0 4.5 2 4.5 4.5 0 2.5-2 4.5-4.5 4.5-2.5 0-4.5-2-4.5-4.5z"/>
			<path id="Layer" class="s2" d="m316.5 196.8c0-2.5 2-4.5 4.5-4.5 2.5 0 4.5 2 4.5 4.5 0 2.5-2 4.5-4.5 4.5-2.5 0-4.5-2-4.5-4.5z"/>
			<path id="Layer" class="s2" d="m296.5 196.8c0-2.5 2-4.5 4.5-4.5 2.5 0 4.5 2 4.5 4.5 0 2.5-2 4.5-4.5 4.5-2.5 0-4.5-2-4.5-4.5z"/>
			<path id="Layer" class="s2" d="m276.5 196.8c0-2.5 2-4.5 4.5-4.5 2.5 0 4.5 2 4.5 4.5 0 2.5-2 4.5-4.5 4.5-2.5 0-4.5-2-4.5-4.5z"/>
			<path id="Layer" class="s2" d="m256.5 196.8c0-2.5 2-4.5 4.5-4.5 2.5 0 4.5 2 4.5 4.5 0 2.5-2 4.5-4.5 4.5-2.5 0-4.5-2-4.5-4.5z"/>
			<path id="Layer" class="s2" d="m236.5 196.8c0-2.5 2-4.5 4.5-4.5 2.5 0 4.5 2 4.5 4.5 0 2.5-2 4.5-4.5 4.5-2.5 0-4.5-2-4.5-4.5z"/>
			<path id="Layer" class="s2" d="m216.5 196.8c0-2.5 2-4.5 4.5-4.5 2.5 0 4.5 2 4.5 4.5 0 2.5-2 4.5-4.5 4.5-2.5 0-4.5-2-4.5-4.5z"/>
			<path id="Layer" class="s2" d="m196.5 196.8c0-2.5 2-4.5 4.5-4.5 2.5 0 4.5 2 4.5 4.5 0 2.5-2 4.5-4.5 4.5-2.5 0-4.5-2-4.5-4.5z"/>
			<path id="Layer" class="s2" d="m176.5 196.8c0-2.5 2-4.5 4.5-4.5 2.5 0 4.5 2 4.5 4.5 0 2.5-2 4.5-4.5 4.5-2.5 0-4.5-2-4.5-4.5z"/>
			<path id="Layer" class="s2" d="m156.5 196.8c0-2.5 2-4.5 4.5-4.5 2.5 0 4.5 2 4.5 4.5 0 2.5-2 4.5-4.5 4.5-2.5 0-4.5-2-4.5-4.5z"/>
		</g>
	</g>
	<path id="Layer" class="s5" d="m316 451.7c0-2.8 2.2-5 5-5 2.8 0 5 2.2 5 5 0 2.8-2.2 5-5 5-2.8 0-5-2.2-5-5z"/>
	<path id="Layer" fill-rule="evenodd" class="s5" d="m387.3 281.7c-0.1 0.1-0.5 0.1-0.7 0l-3.1-3.2c-0.2-0.2-0.2-0.5 0-0.7 0.2-0.2 0.5-0.2 0.7 0l2.3 2.3v-8.8c0.1-4-1.4-10-6.3-15.1-4.9-5-13.3-9.1-27-9.1-17.3 0-25.6-5.1-29.5-12.3-1.9-3.6-2.7-7.6-3-11.7-0.3-4.1-0.2-8.3-0.2-12.1q0-0.1 0-0.1 0-0.1 0-0.1 0 0 0-0.1 0 0 0 0 0-0.1 0-0.1 0 0 0-0.1 0 0 0 0 0-0.1 0-0.1 0-0.1 0-0.1 0 0 0-0.1 0 0 0 0 0-0.1 0-0.1 0 0 0-0.1 0 0 0 0 0-0.1 0-0.1 0 0 0-0.1 0 0 0-0.1 0 0 0 0 0-0.1 0-0.1 0 0 0-0.1 0 0 0 0 0-0.1 0-0.1 0 0 0-0.1 0 0 0 0 0-0.1 0-0.1 0 0 0-0.1 0 0 0 0 0-0.1 0-0.1 0 0 0-0.1 0 0 0-0.1 0 0 0 0 0-0.1 0-0.1 0 0 0-0.1 0 0 0 0 0-0.1 0-0.1 0 0 0-0.1 0 0 0 0 0-0.1 0-0.1 0 0 0-0.1 0 0 0 0 0-0.1 0-0.1 0 0 0-0.1 0 0 0 0 0-0.1 0-0.1 0 0 0-0.1 0 0 0 0 0-0.1 0-0.1 0 0 0-0.1 0 0 0 0 0-0.1 0-0.1 0 0 0 0 0-0.1 0-0.1 0 0 0-0.1 0 0 0 0 0-0.1 0-0.1 0 0 0-0.1 0 0 0 0 0-0.1 0-0.1 0 0 0-0.1 0 0 0 0 0-0.1 0-0.1 0 0 0-0.1 0 0 0 0 0-0.1 0-0.1 0 0 0 0 0-0.1 0-0.1 0 0 0-0.1 0 0 0 0 0-0.1 0-0.1 0 0 0-0.1 0 0 0 0 0-0.1 0-0.1 0 0 0 0 0-0.1 0-0.1 0 0 0-0.1 0 0 0 0 0-0.1 0-0.1 0 0 0-0.1 0 0 0 0 0-0.1 0-0.1 0 0 0 0 0-0.1 0-0.1 0 0 0-0.1 0 0 0 0 0-0.1 0-0.1 0 0 0 0 0-0.1 0-0.1 0 0 0-0.1 0 0 0 0 0-0.1 0-0.1 0 0 0 0 0-0.1 0-0.1 0 0 0-0.1 0 0 0 0 0-0.1 0-0.1 0 0 0 0 0-0.1 0-0.1 0 0 0-0.1 0 0 0 0 0-0.1 0-0.1 0 0 0 0 0-0.1 0-0.1 0 0 0-0.1 0 0 0 0 0 0 0-0.1 0 0 0 0 0-0.1 0-0.1 0 0 0-0.1 0 0 0 0 0 0 0-0.1 0 0 0 0 0-0.1 0-0.1 0 0 0 0 0-0.1 0-0.1 0 0 0-0.1 0 0 0 0 0 0 0-0.1 0 0 0 0 0-0.1 0-0.1 0 0 0 0 0-0.1 0-0.1 0 0 0-0.1 0 0 0 0 0 0 0-0.1 0 0 0 0 0 0 0-0.1 0 0 0 0 0-0.1 0-0.1 0 0 0 0 0-0.1 0-0.1 0 0 0-0.1 0 0 0 0 0 0 0-0.1 0 0 0 0 0 0 0-0.1 0 0 0 0 0-0.1 0-0.1 0 0 0 0 0-0.1 0-0.1 0 0 0 0 0-0.1 0-0.1 0 0 0-0.1 0 0 0 0 0 0 0-0.1 0 0 0 0 0 0 0-0.1 0 0 0 0 0 0 0-0.1 0 0 0 0 0-0.1 0-0.1 0 0 0 0 0-0.1 0-0.1 0 0 0 0 0-0.1 0-0.1 0 0 0 0 0-0.1 0-0.1 0 0 0-0.1 0 0 0 0 0 0 0-0.1 0 0 0 0 0 0 0-0.1 0 0 0 0 0 0 0-0.1 0 0 0 0 0 0 0-0.1 0 0 0 0 0 0 0-0.1 0 0 0 0 0 0 0-0.1 0 0 0 0 0 0 0-0.1 0 0 0 0 0-0.1 0-0.1 0 0 0 0 0-0.1 0-0.1 0 0 0 0 0-0.1 0-0.1 0 0 0 0 0-0.1 0-0.1 0 0 0 0 0-0.1 0-0.1 0 0 0 0 0-0.1 0-0.1 0 0 0 0 0-0.1 0-0.1 0 0 0 0 0-0.1 0-0.1 0 0 0 0 0-0.1 0-0.1 0 0 0 0 0-0.1 0-0.1 0 0 0 0 0-0.1 0-0.1 0 0 0 0 0 0 0-0.1 0 0 0 0 0 0 0-0.1 0 0 0 0 0 0 0-0.1 0 0 0 0 0 0 0-0.1 0 0 0 0 0 0 0-0.1 0 0 0 0 0 0 0-0.1 0 0 0 0 0 0 0-0.1 0 0 0 0 0 0 0 0 0-0.1 0-0.1 0 0 0 0 0-0.1 0-0.1 0 0 0 0 0-0.1 0-0.1 0 0 0 0 0-0.1 0-0.1 0 0 0 0 0 0 0-0.1 0 0 0 0 0 0 0-0.1 0 0 0 0 0 0 0-0.1 0 0 0 0 0 0 0 0 0-0.1 0-0.1 0 0 0 0 0-0.1 0-0.1 0 0 0 0 0-0.1 0-0.1 0 0 0 0 0 0 0-0.1 0 0 0 0 0 0 0-0.1 0 0 0 0 0 0 0-0.1 0 0 0 0 0 0 0 0 0-0.1 0-0.1 0 0 0 0 0-0.1 0-0.1 0 0 0 0 0 0 0-0.1 0 0 0 0 0 0 0-0.1 0 0 0 0 0 0 0 0 0-0.1 0-0.1 0 0 0 0 0-0.1 0-0.1 0 0 0 0 0 0 0-0.1 0 0 0 0 0 0 0-0.1 0 0 0 0 0 0 0 0 0-0.1 0-0.1 0 0 0 0 0-0.1 0-0.1 0 0 0 0 0 0 0-0.1 0 0 0 0 0 0 0 0 0-0.1 0-0.1 0 0 0 0 0-0.1 0-0.1 0 0 0 0 0 0 0-0.1 0 0 0 0 0 0 0-0.1 0 0 0 0 0 0 0 0 0-0.1 0-0.1 0 0 0 0 0 0 0-0.1 0 0 0 0 0 0 0-0.1 0 0 0 0 0 0 0 0 0-0.1 0-0.1 0 0 0 0 0 0 0-0.1 0 0 0 0 0 0 0 0 0-0.1 0-0.1 0 0 0 0 0-0.1 0-0.1 0 0 0 0 0 0 0-0.1 0 0 0 0 0 0 0 0 0-0.1 0-0.1 0 0 0 0 0 0 0-0.1 0 0 0 0 0 0 0 0 0-0.1 0-0.1 0 0 0 0 0 0 0-0.1 0 0 0 0 0 0 0 0 0-0.1 0-0.1 0 0 0 0 0-0.1 0-0.1 0 0 0 0 0 0 0-0.1 0 0 0 0 0 0 0 0 0-0.1 0-0.1 0 0 0 0 0 0 0-0.1 0 0 0 0 0 0 0 0 0-0.1 0-0.1 0 0 0 0 0 0 0-0.1 0 0 0 0 0 0 0 0 0-0.1 0-0.1 0 0 0 0 0 0 0-0.1 0 0 0 0 0 0 0 0 0-0.1 0-0.1 0 0 0 0 0 0 0-0.1 0 0 0 0 0 0 0 0 0-0.1 0-0.1 0 0 0 0 0 0 0-0.1 0 0 0 0 0 0 0 0 0 0 0-0.1 0 0 0 0 0 0 0 0 0-0.1 0-0.1 0 0 0 0 0 0 0-0.1 0 0 0 0 0 0 0 0 0-0.1 0-0.1 0 0 0 0 0 0 0-0.1 0 0 0 0 0 0 0 0 0-0.1 0-0.1 0 0 0 0 0 0 0 0 0-0.1 0-0.1 0 0 0 0 0 0 0-0.1 0 0 0 0 0 0 0 0 0-0.1 0-0.1 0 0 0 0 0 0 0-0.1 0 0 0 0 0 0 0 0 0-0.1 0-0.1 0 0 0 0 0 0 0 0 0-0.1 0-0.1 0 0 0 0 0 0 0-0.1 0 0 0 0 0 0 0 0 0-0.1 0-0.1 0 0 0 0 0 0 0 0 0-0.1 0-0.1 0 0 0 0 0 0 0-0.1 0 0 0 0 0 0 0 0 0-0.1 0-0.1 0 0 0 0 0 0 0 0 0-0.1 0-0.1 0 0 0 0 0 0 0-0.1 0 0 0 0 0 0 0 0 0-0.1 0-0.1 0 0 0 0 0 0 0 0 0-0.1 0-0.1 0 0 0 0 0 0 0-0.1 0 0 0 0 0 0 0 0 0 0 0-0.1 0 0 0 0 0 0 0 0 0-0.1 0-0.1 0 0 0 0 0 0 0-0.1 0 0 0 0 0 0 0 0 0 0 0-0.1 0 0 0 0 0 0 0 0 0-0.1 0-0.1 0 0 0 0 0 0 0 0 0-0.1 0-0.1 0 0 0 0 0 0 0-0.1 0 0 0 0 0 0 0 0 0 0 0-0.1 0 0 0 0 0 0 0 0 0-0.1 0-0.1 0 0 0 0 0 0 0 0 0-0.1 0-0.1 0 0 0 0 0 0 0-0.1 0 0 0 0 0 0 0 0 0 0 0-0.1 0 0 0 0 0 0 0 0 0-0.1 0-0.1 0 0 0 0 0 0 0 0 0-0.1 0-0.1 0 0 0 0 0 0 0 0 0-0.1 0-0.1 0 0 0 0 0 0 0-0.1 0 0 0 0 0 0 0 0 0 0 0-0.1 0 0 0 0 0 0 0 0 0-0.1 0-0.1 0 0 0 0 0 0 0 0 0-0.1 0-0.1 0 0 0 0 0 0 0-0.1 0 0 0 0 0 0 0 0 0 0 0-0.1 0 0 0 0 0 0 0 0 0 0 0-0.1 0 0 0 0 0 0 0 0 0-0.1 0-0.1 0 0 0 0 0 0 0 0 0-0.1 0-0.1 0 0 0 0 0 0 0-0.1 0 0 0 0 0 0 0 0 0 0 0-0.1 0 0 0 0 0 0 0 0 0 0 0-0.1 0 0 0 0 0 0 0 0 0-0.1 0-0.1 0 0 0 0 0 0 0 0 0-0.1 0-0.1 0 0 0 0 0 0 0 0 0-0.1 0-0.1 0 0 0 0 0 0 0-0.1 0 0 0 0 0 0 0 0 0 0 0-0.1 0 0 0 0 0 0 0 0 0 0 0-0.1 0 0 0 0 0 0 0 0 0-0.1 0-0.1 0 0 0 0 0 0 0 0 0-0.1 0-0.1 0 0 0 0 0 0 0-0.1 0 0 0 0 0 0 0 0 0 0 0-0.1 0 0 0 0 0 0 0 0 0 0 0-0.1 0 0 0 0 0 0 0 0 0-0.1 0-0.1 0 0 0 0 0 0 0 0 0-0.1 0-0.1 0 0 0 0 0 0 0 0 0-0.1 0-0.1 0 0 0 0 0 0 0-0.1 0 0 0 0 0 0 0 0 0 0 0-0.1 0 0 0 0 0 0 0 0 0 0 0-0.1 0 0 0 0h1q0 0 0 0 0 0.1 0 0.1 0 0 0 0 0 0 0 0 0 0.1 0 0.1 0 0 0 0 0 0 0 0 0 0.1 0 0.1 0 0 0 0 0 0 0 0.1 0 0 0 0 0 0 0 0 0 0 0 0.1 0 0 0 0 0 0 0 0 0 0 0 0.1 0 0 0 0 0 0 0 0 0 0.1 0 0.1 0 0 0 0 0 0 0 0 0 0.1 0 0.1 0 0 0 0 0 0 0 0 0 0.1 0 0.1 0 0 0 0 0 0 0 0.1 0 0 0 0 0 0 0 0 0 0 0 0.1 0 0 0 0 0 0 0 0 0 0.1 0 0.1 0 0 0 0 0 0 0 0 0 0.1 0 0.1 0 0 0 0 0 0 0 0 0 0.1 0 0.1 0 0 0 0 0 0 0 0.1 0 0 0 0 0 0 0 0 0 0 0 0.1 0 0 0 0 0 0 0 0 0 0 0 0.1 0 0 0 0 0 0 0 0 0 0.1 0 0.1 0 0 0 0 0 0 0 0 0 0.1 0 0.1 0 0 0 0 0 0 0 0 0 0.1 0 0.1 0 0 0 0 0 0 0 0.1 0 0 0 0 0 0 0 0 0 0 0 0.1 0 0 0 0 0 0 0 0 0 0.1 0 0.1 0 0 0 0 0 0 0 0 0 0.1 0 0.1 0 0 0 0 0 0 0 0 0 0.1 0 0.1 0 0 0 0 0 0 0 0.1 0 0 0 0 0 0 0 0 0 0 0 0.1 0 0 0 0 0 0 0 0 0 0.1 0 0.1 0 0 0 0 0 0 0 0 0 0.1 0 0.1 0 0 0 0 0 0 0 0.1 0 0 0 0 0 0 0 0 0 0 0 0.1 0 0 0 0 0 0 0 0 0 0 0 0.1 0 0 0 0 0 0 0 0 0 0.1 0 0.1 0 0 0 0 0 0 0 0 0 0.1 0 0.1 0 0 0 0 0 0 0 0.1 0 0 0 0 0 0 0 0 0 0 0 0.1 0 0 0 0 0 0 0 0 0 0.1 0 0.1 0 0 0 0 0 0 0 0 0 0.1 0 0.1 0 0 0 0 0 0 0 0.1 0 0 0 0 0 0 0 0 0 0 0 0.1 0 0 0 0 0 0 0 0 0 0.1 0 0.1 0 0 0 0 0 0 0 0 0 0.1 0 0.1 0 0 0 0 0 0 0 0.1 0 0 0 0 0 0 0 0 0 0.1 0 0.1 0 0 0 0 0 0 0 0 0 0.1 0 0.1 0 0 0 0 0 0 0 0.1 0 0 0 0 0 0 0 0 0 0 0 0.1 0 0 0 0 0 0 0 0 0 0.1 0 0.1 0 0 0 0 0 0 0 0.1 0 0 0 0 0 0 0 0 0 0 0 0.1 0 0 0 0 0 0 0 0 0 0.1 0 0.1 0 0 0 0 0 0 0 0.1 0 0 0 0 0 0 0 0 0 0 0 0.1 0 0 0 0 0 0 0 0 0 0.1 0 0.1 0 0 0 0 0 0 0 0.1 0 0 0 0 0 0 0 0 0 0 0 0.1 0 0 0 0 0 0 0 0 0 0.1 0 0.1 0 0 0 0 0 0 0 0.1 0 0 0 0 0 0 0 0 0 0.1 0 0.1 0 0 0 0 0 0 0 0.1 0 0 0 0 0 0 0 0 0 0 0 0.1 0 0 0 0 0 0 0 0 0 0.1 0 0.1 0 0 0 0 0 0 0 0.1 0 0 0 0 0 0 0 0 0 0.1 0 0.1 0 0 0 0 0 0 0 0.1 0 0 0 0 0 0 0 0 0 0.1 0 0.1 0 0 0 0 0 0 0 0 0 0.1 0 0.1 0 0 0 0 0 0 0 0.1 0 0 0 0 0 0 0 0 0 0.1 0 0.1 0 0 0 0 0 0 0 0.1 0 0 0 0 0 0 0 0 0 0.1 0 0.1 0 0 0 0 0 0 0 0.1 0 0 0 0 0 0 0 0 0 0.1 0 0.1 0 0 0 0 0 0 0 0.1 0 0 0 0 0 0 0 0 0 0.1 0 0.1 0 0 0 0 0 0 0 0.1 0 0 0 0 0 0 0 0 0 0.1 0 0.1 0 0 0 0 0 0 0 0.1 0 0 0 0 0 0 0 0.1 0 0 0 0 0 0 0 0 0 0.1 0 0.1 0 0 0 0 0 0 0 0.1 0 0 0 0 0 0 0 0 0 0.1 0 0.1 0 0 0 0 0 0 0 0.1 0 0 0 0 0 0 0 0 0 0.1 0 0.1 0 0 0 0 0 0 0 0.1 0 0 0 0 0 0 0 0.1 0 0 0 0 0 0 0 0 0 0.1 0 0.1 0 0 0 0 0 0 0 0.1 0 0 0 0 0 0 0 0 0 0.1 0 0.1 0 0 0 0 0 0.1 0 0.1 0 0 0 0 0 0 0 0.1 0 0 0 0 0 0 0 0 0 0.1 0 0.1 0 0 0 0 0 0.1 0 0.1 0 0 0 0 0 0 0 0.1 0 0 0 0 0 0 0 0.1 0 0 0 0 0 0 0 0 0 0.1 0 0.1 0 0 0 0 0 0 0 0.1 0 0 0 0 0 0 0 0.1 0 0 0 0 0 0 0 0 0 0.1 0 0.1 0 0 0 0 0 0.1 0 0.1 0 0 0 0 0 0 0 0.1 0 0 0 0 0 0 0 0.1 0 0 0 0 0 0 0 0 0 0.1 0 0.1 0 0 0 0 0 0.1 0 0.1 0 0 0 0 0 0 0 0.1 0 0 0 0 0 0 0 0.1 0 0 0 0 0 0 0 0 0 0.1 0 0.1 0 0 0 0 0 0.1 0 0.1 0 0 0 0 0 0.1 0 0.1 0 0 0 0 0 0 0 0.1 0 0 0 0 0 0 0 0.1 0 0 0 0 0 0 0 0.1 0 0 0 0 0 0 0 0 0 0.1 0 0.1 0 0 0 0 0 0.1 0 0.1 0 0 0 0 0 0.1 0 0.1 0 0 0 0 0 0 0 0.1 0 0 0 0 0 0 0 0.1 0 0 0 0 0 0 0 0.1 0 0 0 0 0 0 0 0.1 0 0 0 0 0 0 0 0 0 0.1 0 0.1 0 0 0 0 0 0.1 0 0.1 0 0 0 0 0 0.1 0 0.1 0 0 0 0 0 0.1 0 0.1 0 0 0 0 0 0.1 0 0.1 0 0 0 0 0 0.1 0 0.1 0 0 0 0 0 0.1 0 0.1 0 0 0 0 0 0 0 0.1 0 0 0 0 0 0 0 0.1 0 0 0 0 0 0 0 0.1 0 0 0 0 0 0 0 0.1 0 0 0 0 0 0 0 0.1 0 0 0 0 0 0 0 0.1 0 0 0 0 0 0 0 0.1 0 0 0 0 0 0 0 0.1 0 0 0 0 0 0 0 0.1 0 0 0 0 0 0 0 0.1 0 0 0 0 0 0 0 0.1 0 0 0 0 0 0.1 0 0.1 0 0 0 0 0 0.1 0 0.1 0 0 0 0 0 0.1 0 0.1 0 0 0 0 0 0.1 0 0.1 0 0 0 0 0 0.1 0 0.1 0 0 0 0 0 0.1 0 0.1 0 0 0 0 0 0.1 0 0.1 0 0 0 0 0 0.1 0 0.1 0 0 0 0.1 0 0 0 0 0 0 0 0.1 0 0 0 0 0 0 0 0.1 0 0 0 0 0 0 0 0.1 0 0 0 0 0 0.1 0 0.1 0 0 0 0 0 0.1 0 0.1 0 0 0 0 0 0.1 0 0.1 0 0 0 0 0 0.1 0 0.1 0 0 0 0.1 0 0 0 0 0 0 0 0.1 0 0 0 0 0 0 0 0.1 0 0 0 0 0 0.1 0 0.1 0 0 0 0 0 0.1 0 0.1 0 0 0 0 0 0.1 0 0.1 0 0 0 0.1 0 0 0 0 0 0 0 0.1 0 0 0 0 0 0.1 0 0.1 0 0 0 0 0 0.1 0 0.1 0 0 0 0 0 0.1 0 0.1 0 0 0 0.1 0 0 0 0 0 0 0 0.1 0 0 0 0 0 0.1 0 0.1 0 0 0 0 0 0.1 0 0.1 0 0 0 0.1 0 0 0 0 0 0 0 0.1 0 0 0 0 0 0.1 0 0.1 0 0 0 0 0 0.1 0 0.1 0 0 0 0.1 0 0 0 0 0 0.1 0 0.1 0 0 0 0 0 0.1 0 0.1 0 0 0 0.1 0 0 0 0 0 0 0 0.1 0 0 0 0 0 0.1 0 0.1 0 0 0 0.1 0 0 0 0 0 0 0 0.1 0 0 0 0 0 0.1 0 0.1 0 0 0 0.1 0 0 0 0 0 0 0 0.1 0 0 0 0 0 0.1 0 0.1 0 0 0 0.1 0 0 0 0 0 0 0 0.1 0 0 0 0 0 0.1 0 0.1 0 0 0 0.1 0 0 0 0 0 0 0 0.1 0 0 0 0 0 0.1 0 0.1 0 0 0 0.1 0 0 0 0 0 0.1 0 0.1 0 0 0 0.1 0 0 0 0 0 0 0 0.1 0 0 0 0 0 0.1 0 0.1 0 0 0 0.1 0 0 0 0 0 0.1 0 0.1 0 0 0 0.1 0 0 0 0 0 0 0 0.1 0 0 0 0 0 0.1 0 0.1 0 0 0 0.1 0 0 0 0 0 0.1 0 0.1 0 0 0 0.1 0 0 0 0 0 0.1 0 0.1 0 0 0 0.1 0 0 0 0 0 0.1 0 0.1 0 0 0 0.1 0 0 0 0 0 0 0 0.1 0 0 0 0 0 0.1 0 0.1 0 0 0 0.1 0 0 0 0 0 0.1 0 0.1 0 0 0 0.1 0 0 0 0 0 0.1 0 0.1 0 0 0 0.1 0 0 0 0 0 0.1 0 0.1 0 0 0 0.1 0 0 0 0 0 0.1 0 0.1 0 0 0 0.1 0 0 0 0 0 0.1 0 0.1 0 0 0 0.1 0 0 0 0 0 0.1 0 0.1 0 0.1 0 0.1 0 0 0 0.1 0 0 0 0 0 0.1 0 0.1 0 0 0 0.1 0 0 0 0 0 0.1 0 0.1 0 0 0 0.1 0 0 0 0 0 0.1 0 0.1 0 0 0 0.1 0 0 0 0 0 0.1 0 0.1 0 0.1 0 0.1 0 0 0 0.1 0 0 0 0 0 0.1 0 0.1 0 0 0 0.1 0 0 0 0 0 0.1 0 0.1 0 0 0 0.1 0 0 0 0.1 0 0 0 0 0 0.1 0 0.1 0 0 0 0.1 0 0 0 0 0 0.1 0 0.1 0 0 0 0.1 0 0 0 0.1c0 3.8-0.1 8 0.2 12 0.3 4 1.1 7.9 2.9 11.4 3.6 6.7 11.4 11.7 28.6 11.7 13.9 0 22.6 4.2 27.7 9.4 5.1 5.3 6.7 11.6 6.6 15.9v8.7l2.3-2.3c0.2-0.2 0.5-0.2 0.7 0 0.2 0.2 0.2 0.5 0 0.7z"/>
	<path id="Layer" fill-rule="evenodd" class="s6" d="m251.5 286.5c-0.2-0.2-0.2-0.5 0-0.7 0.2-0.2 0.5-0.2 0.7 0l2.3 2.3v-16.7c-0.1-4.3 1.5-10.6 6.6-15.9 5.1-5.2 13.8-9.4 27.7-9.4 17.2 0 25-5 28.6-11.7 1.8-3.5 2.6-7.4 2.9-11.4 0.3-4 0.2-8.2 0.2-12q0-0.1 0-0.1 0-0.1 0-0.1 0 0 0-0.1 0 0 0 0 0-0.1 0-0.1 0 0 0-0.1 0 0 0-0.1 0 0 0 0 0-0.1 0-0.1 0 0 0-0.1 0 0 0 0 0-0.1 0-0.1 0 0 0-0.1 0 0 0-0.1 0 0 0 0 0-0.1 0-0.1 0 0 0-0.1 0 0 0 0 0-0.1 0-0.1 0-0.1 0-0.1 0 0 0-0.1 0 0 0 0 0-0.1 0-0.1 0 0 0-0.1 0 0 0 0 0-0.1 0-0.1 0-0.1 0-0.1 0 0 0-0.1 0 0 0 0 0-0.1 0-0.1 0 0 0-0.1 0 0 0 0 0-0.1 0-0.1 0-0.1 0-0.1 0 0 0-0.1 0 0 0 0 0-0.1 0-0.1 0 0 0-0.1 0 0 0 0 0-0.1 0-0.1 0-0.1 0-0.1 0 0 0-0.1 0 0 0 0 0-0.1 0-0.1 0 0 0-0.1 0 0 0 0 0-0.1 0-0.1 0-0.1 0-0.1 0 0 0-0.1 0 0 0 0 0-0.1 0-0.1 0 0 0-0.1 0 0 0 0 0-0.1 0-0.1 0-0.1 0-0.1 0 0 0-0.1 0 0 0 0 0-0.1 0-0.1 0 0 0-0.1 0 0 0 0 0-0.1 0-0.1 0 0 0-0.1 0 0 0-0.1 0 0 0 0 0-0.1 0-0.1 0 0 0-0.1 0 0 0 0 0-0.1 0-0.1 0 0 0-0.1 0 0 0 0 0-0.1 0-0.1 0 0 0-0.1 0 0 0-0.1 0 0 0 0 0-0.1 0-0.1 0 0 0-0.1 0 0 0 0 0-0.1 0-0.1 0 0 0-0.1 0 0 0 0 0-0.1 0-0.1 0 0 0-0.1 0 0 0-0.1 0 0 0 0 0-0.1 0-0.1 0 0 0-0.1 0 0 0 0 0-0.1 0-0.1 0 0 0-0.1 0 0 0 0 0-0.1 0-0.1 0 0 0-0.1 0 0 0 0 0-0.1 0-0.1 0-0.1 0-0.1 0 0 0-0.1 0 0 0 0 0-0.1 0-0.1 0 0 0-0.1 0 0 0 0 0-0.1 0-0.1 0 0 0-0.1 0 0 0 0 0-0.1 0-0.1 0 0 0-0.1 0 0 0 0 0-0.1 0-0.1 0 0 0-0.1 0 0 0-0.1 0 0 0 0 0-0.1 0-0.1 0 0 0-0.1 0 0 0 0 0-0.1 0-0.1 0 0 0-0.1 0 0 0 0 0-0.1 0-0.1 0 0 0-0.1 0 0 0 0 0-0.1 0-0.1 0 0 0-0.1 0 0 0 0 0-0.1 0-0.1 0 0 0-0.1 0 0 0 0 0-0.1 0-0.1 0 0 0-0.1 0 0 0 0 0-0.1 0-0.1 0 0 0-0.1 0 0 0 0 0-0.1 0-0.1 0 0 0-0.1 0 0 0 0 0-0.1 0-0.1 0-0.1 0-0.1 0 0 0-0.1 0 0 0 0 0-0.1 0-0.1 0 0 0-0.1 0 0 0 0 0-0.1 0-0.1 0 0 0-0.1 0 0 0 0 0-0.1 0-0.1 0 0 0-0.1 0 0 0 0 0-0.1 0-0.1 0 0 0-0.1 0 0 0 0 0-0.1 0-0.1 0 0 0-0.1 0 0 0 0 0-0.1 0-0.1 0 0 0-0.1 0 0 0 0 0-0.1 0-0.1 0 0 0-0.1 0 0 0 0 0 0 0-0.1 0 0 0 0 0-0.1 0-0.1 0 0 0-0.1 0 0 0 0 0-0.1 0-0.1 0 0 0-0.1 0 0 0 0 0-0.1 0-0.1 0 0 0-0.1 0 0 0 0 0-0.1 0-0.1 0 0 0-0.1 0 0 0 0 0-0.1 0-0.1 0 0 0-0.1 0 0 0 0 0-0.1 0-0.1 0 0 0-0.1 0 0 0 0 0-0.1 0-0.1 0 0 0-0.1 0 0 0 0 0-0.1 0-0.1 0 0 0-0.1 0 0 0 0 0 0 0-0.1 0 0 0 0 0-0.1 0-0.1 0 0 0-0.1 0 0 0 0 0-0.1 0-0.1 0 0 0-0.1 0 0 0 0 0-0.1 0-0.1 0 0 0-0.1 0 0 0 0 0-0.1 0-0.1 0 0 0 0 0-0.1 0-0.1 0 0 0-0.1 0 0 0 0 0-0.1 0-0.1 0 0 0-0.1 0 0 0 0 0-0.1 0-0.1 0 0 0-0.1 0 0 0 0 0-0.1 0-0.1 0 0 0 0 0-0.1 0-0.1 0 0 0-0.1 0 0 0 0 0-0.1 0-0.1 0 0 0-0.1 0 0 0 0 0-0.1 0-0.1 0 0 0-0.1 0 0 0 0 0 0 0-0.1 0 0 0 0 0-0.1 0-0.1 0 0 0-0.1 0 0 0 0 0-0.1 0-0.1 0 0 0 0 0-0.1 0-0.1 0 0 0-0.1 0 0 0 0 0-0.1 0-0.1 0 0 0-0.1 0 0 0 0 0 0 0-0.1 0 0 0 0 0-0.1 0-0.1 0 0 0-0.1 0 0 0 0 0-0.1 0-0.1 0 0 0 0 0-0.1 0-0.1 0 0 0-0.1 0 0 0 0 0-0.1 0-0.1 0 0 0-0.1 0 0 0 0 0 0 0-0.1 0 0 0 0 0-0.1 0-0.1 0 0 0-0.1 0 0 0 0 0 0 0-0.1 0 0 0 0 0-0.1 0-0.1 0 0 0-0.1 0 0 0 0 0 0 0-0.1 0 0 0 0 0-0.1 0-0.1 0 0 0-0.1 0 0 0 0 0 0 0-0.1 0 0 0 0 0-0.1 0-0.1 0 0 0-0.1 0 0 0 0 0 0 0-0.1 0 0 0 0 0-0.1 0-0.1 0 0 0-0.1 0 0 0 0 0 0 0-0.1 0 0 0 0 0-0.1 0-0.1 0 0 0 0 0-0.1 0-0.1 0 0 0-0.1 0 0 0 0 0-0.1 0-0.1 0 0 0 0 0-0.1 0-0.1 0 0 0-0.1 0 0 0 0 0 0 0-0.1 0 0 0 0 0-0.1 0-0.1 0 0 0 0 0-0.1 0-0.1 0 0 0-0.1 0 0 0 0 0 0 0-0.1 0 0 0 0 0-0.1 0-0.1 0 0 0 0 0-0.1 0-0.1 0 0 0-0.1 0 0 0 0 0 0 0-0.1 0 0 0 0 0-0.1 0-0.1 0 0 0 0 0-0.1 0-0.1 0 0 0-0.1 0 0 0 0 0 0 0-0.1 0 0 0 0 0-0.1 0-0.1 0 0 0 0 0-0.1 0-0.1 0 0 0-0.1 0 0 0 0 0 0 0-0.1 0 0 0 0 0 0 0-0.1 0 0 0 0 0-0.1 0-0.1 0 0 0 0 0-0.1 0-0.1 0 0 0-0.1 0 0 0 0 0 0 0-0.1 0 0 0 0 0 0 0-0.1 0 0 0 0 0-0.1 0-0.1 0 0 0 0 0-0.1 0-0.1 0 0 0 0 0-0.1 0-0.1 0 0 0-0.1 0 0 0 0 0 0 0-0.1 0 0 0 0 0 0 0-0.1 0 0 0 0 0 0 0-0.1 0 0 0 0 0-0.1 0-0.1 0 0 0 0 0-0.1 0-0.1 0 0 0 0 0-0.1 0-0.1 0 0 0-0.1 0 0 0 0 0 0 0-0.1 0 0 0 0 0 0 0-0.1 0 0 0 0 0 0 0-0.1 0 0 0 0 0 0 0-0.1 0 0 0 0 0-0.1 0-0.1 0 0 0 0 0-0.1 0-0.1 0 0 0 0 0-0.1 0-0.1 0 0 0 0 0-0.1 0-0.1 0 0 0 0 0-0.1 0-0.1 0 0 0 0 0-0.1 0-0.1 0 0 0 0 0-0.1 0-0.1 0 0 0 0 0-0.1 0-0.1 0 0 0 0 0-0.1 0-0.1 0 0 0-0.1 0 0 0 0 0 0 0-0.1 0 0 0 0 0 0 0-0.1 0 0 0 0 0 0 0-0.1 0 0 0 0 0 0 0-0.1 0 0 0 0 0 0 0-0.1 0 0 0 0 0 0 0-0.1 0 0 0 0 0 0 0-0.1 0 0 0 0 0 0 0 0 0-0.1 0-0.1 0 0 0 0 0-0.1 0-0.1 0 0 0 0 0-0.1 0-0.1 0 0 0 0 0-0.1 0-0.1 0 0 0 0 0-0.1 0-0.1 0 0 0 0 0-0.1 0-0.1 0 0 0 0 0-0.1 0-0.1 0 0 0 0 0-0.1 0-0.1 0 0 0 0 0 0 0-0.1 0 0 0 0 0 0 0-0.1 0 0 0 0 0 0 0-0.1 0 0 0 0 0 0 0-0.1 0 0 0 0 0 0 0 0 0-0.1 0-0.1 0 0 0 0 0-0.1 0-0.1 0 0 0 0 0-0.1 0-0.1 0 0 0 0 0-0.1 0-0.1 0 0 0 0 0 0 0-0.1 0 0 0 0 0 0 0-0.1 0 0 0 0 0 0 0 0 0-0.1 0-0.1 0 0 0 0 0-0.1 0-0.1 0 0 0 0 0-0.1 0-0.1 0 0 0 0 0 0 0-0.1 0 0 0 0 0 0 0-0.1 0 0 0 0 0 0 0 0 0-0.1 0-0.1 0 0 0 0 0-0.1 0-0.1 0 0 0 0 0 0 0-0.1 0 0 0 0 0 0 0 0 0-0.1 0-0.1 0 0 0 0 0-0.1 0-0.1 0 0 0 0 0 0 0-0.1 0 0 0 0 0 0 0-0.1 0 0 0 0 0 0 0 0 0-0.1 0-0.1 0 0 0 0 0 0 0-0.1 0 0 0 0 0 0 0 0 0-0.1 0-0.1 0 0 0 0 0-0.1 0-0.1 0 0 0 0 0 0 0-0.1 0 0 0 0 0 0 0 0 0-0.1 0-0.1 0 0 0 0 0 0 0-0.1 0 0 0 0 0 0 0 0 0-0.1 0-0.1 0 0 0 0 0 0 0-0.1 0 0 0 0 0 0 0 0 0-0.1 0-0.1 0 0 0 0 0 0 0-0.1 0 0 0 0 0 0 0 0 0-0.1 0-0.1 0 0 0 0 0 0 0-0.1 0 0 0 0 0 0 0 0 0-0.1 0-0.1 0 0 0 0 0 0 0-0.1 0 0 0 0 0 0 0 0 0-0.1 0-0.1 0 0 0 0 0 0 0-0.1 0 0 0 0 0 0 0 0 0-0.1 0-0.1 0 0 0 0 0 0 0 0 0-0.1 0-0.1 0 0 0 0 0 0 0-0.1 0 0 0 0 0 0 0 0 0 0 0-0.1 0 0 0 0 0 0 0 0 0-0.1 0-0.1 0 0 0 0 0 0 0-0.1 0 0 0 0 0 0 0 0 0 0 0-0.1 0 0 0 0 0 0 0 0 0 0 0-0.1 0 0 0 0h1q0 0 0 0 0 0.1 0 0.1 0 0 0 0 0 0 0 0 0 0.1 0 0.1 0 0 0 0 0 0 0 0 0 0.1 0 0.1 0 0 0 0 0 0 0 0.1 0 0 0 0 0 0 0 0 0 0.1 0 0.1 0 0 0 0 0 0 0 0 0 0.1 0 0.1 0 0 0 0 0 0 0 0.1 0 0 0 0 0 0 0 0 0 0 0 0.1 0 0 0 0 0 0 0 0 0 0.1 0 0.1 0 0 0 0 0 0 0 0.1 0 0 0 0 0 0 0 0 0 0.1 0 0.1 0 0 0 0 0 0 0 0.1 0 0 0 0 0 0 0 0 0 0.1 0 0.1 0 0 0 0 0 0 0 0.1 0 0 0 0 0 0 0 0 0 0.1 0 0.1 0 0 0 0 0 0 0 0.1 0 0 0 0 0 0 0 0 0 0.1 0 0.1 0 0 0 0 0 0 0 0.1 0 0 0 0 0 0 0 0 0 0.1 0 0.1 0 0 0 0 0 0 0 0.1 0 0 0 0 0 0 0 0 0 0.1 0 0.1 0 0 0 0 0 0 0 0.1 0 0 0 0 0 0 0 0.1 0 0 0 0 0 0 0 0 0 0.1 0 0.1 0 0 0 0 0 0 0 0.1 0 0 0 0 0 0 0 0 0 0.1 0 0.1 0 0 0 0 0 0.1 0 0.1 0 0 0 0 0 0 0 0.1 0 0 0 0 0 0 0 0.1 0 0 0 0 0 0 0 0 0 0.1 0 0.1 0 0 0 0 0 0 0 0.1 0 0 0 0 0 0 0 0.1 0 0 0 0 0 0 0 0 0 0.1 0 0.1 0 0 0 0 0 0.1 0 0.1 0 0 0 0 0 0 0 0.1 0 0 0 0 0 0 0 0.1 0 0 0 0 0 0 0 0.1 0 0 0 0 0 0 0 0 0 0.1 0 0.1 0 0 0 0 0 0.1 0 0.1 0 0 0 0 0 0 0 0.1 0 0 0 0 0 0 0 0.1 0 0 0 0 0 0 0 0.1 0 0 0 0 0 0 0 0.1 0 0 0 0 0 0 0 0 0 0.1 0 0.1 0 0 0 0 0 0.1 0 0.1 0 0 0 0 0 0.1 0 0.1 0 0 0 0 0 0.1 0 0.1 0 0 0 0 0 0 0 0.1 0 0 0 0 0 0 0 0.1 0 0 0 0 0 0 0 0.1 0 0 0 0 0 0 0 0.1 0 0 0 0 0 0 0 0.1 0 0 0 0 0 0 0 0.1 0 0 0 0 0 0 0 0.1 0 0 0 0 0 0 0 0.1 0 0 0 0 0 0 0 0 0 0.1 0 0.1 0 0 0 0 0 0.1 0 0.1 0 0 0 0 0 0.1 0 0.1 0 0 0 0 0 0.1 0 0.1 0 0 0 0 0 0.1 0 0.1 0 0 0 0 0 0.1 0 0.1 0 0 0 0 0 0.1 0 0.1 0 0 0 0 0 0.1 0 0.1 0 0 0 0.1 0 0 0 0 0 0 0 0.1 0 0 0 0 0 0 0 0.1 0 0 0 0 0 0 0 0.1 0 0 0 0 0 0 0 0.1 0 0 0 0 0 0 0 0.1 0 0 0 0 0 0 0 0.1 0 0 0 0 0 0 0 0.1 0 0 0 0 0 0 0 0.1 0 0 0 0 0 0.1 0 0.1 0 0 0 0 0 0.1 0 0.1 0 0 0 0 0 0.1 0 0.1 0 0 0 0 0 0.1 0 0.1 0 0 0 0 0 0.1 0 0.1 0 0 0 0.1 0 0 0 0 0 0 0 0.1 0 0 0 0 0 0 0 0.1 0 0 0 0 0 0.1 0 0.1 0 0 0 0 0 0.1 0 0.1 0 0 0 0 0 0.1 0 0.1 0 0 0 0 0 0.1 0 0.1 0 0 0 0.1 0 0 0 0 0 0 0 0.1 0 0 0 0 0 0 0 0.1 0 0 0 0 0 0.1 0 0.1 0 0 0 0 0 0.1 0 0.1 0 0 0 0 0 0.1 0 0.1 0 0 0 0.1 0 0 0 0 0 0 0 0.1 0 0 0 0 0 0.1 0 0.1 0 0 0 0 0 0.1 0 0.1 0 0 0 0 0 0.1 0 0.1 0 0 0 0.1 0 0 0 0 0 0 0 0.1 0 0 0 0 0 0.1 0 0.1 0 0 0 0 0 0.1 0 0.1 0 0 0 0.1 0 0 0 0 0 0 0 0.1 0 0 0 0 0 0.1 0 0.1 0 0 0 0 0 0.1 0 0.1 0 0 0 0.1 0 0 0 0 0 0 0 0.1 0 0 0 0 0 0.1 0 0.1 0 0 0 0 0 0.1 0 0.1 0 0 0 0.1 0 0 0 0 0 0 0 0.1 0 0 0 0 0 0.1 0 0.1 0 0 0 0 0 0.1 0 0.1 0 0 0 0.1 0 0 0 0 0 0 0 0.1 0 0 0 0 0 0.1 0 0.1 0 0 0 0.1 0 0 0 0 0 0 0 0.1 0 0 0 0 0 0.1 0 0.1 0 0 0 0 0 0.1 0 0.1 0 0 0 0.1 0 0 0 0 0 0.1 0 0.1 0 0 0 0 0 0.1 0 0.1 0 0 0 0.1 0 0 0 0 0 0.1 0 0.1 0 0 0 0 0 0.1 0 0.1 0 0 0 0.1 0 0 0 0 0 0.1 0 0.1 0 0 0 0 0 0.1 0 0.1 0 0 0 0.1 0 0 0 0 0 0.1 0 0.1 0 0 0 0 0 0.1 0 0.1 0 0 0 0.1 0 0 0 0 0 0.1 0 0.1 0 0 0 0 0 0.1 0 0.1 0 0 0 0.1 0 0 0 0 0 0.1 0 0.1 0 0 0 0.1 0 0 0 0 0 0 0 0.1 0 0 0 0 0 0.1 0 0.1 0 0 0 0.1 0 0 0 0 0 0.1 0 0.1 0 0 0 0 0 0.1 0 0.1 0 0 0 0.1 0 0 0 0 0 0.1 0 0.1 0 0 0 0.1 0 0 0 0 0 0 0 0.1 0 0 0 0 0 0.1 0 0.1 0 0 0 0.1 0 0 0 0 0 0.1 0 0.1 0 0 0 0 0 0.1 0 0.1 0 0 0 0.1 0 0 0 0 0 0.1 0 0.1 0 0 0 0.1 0 0 0 0 0 0.1 0 0.1 0 0 0 0.1 0 0 0 0 0 0 0 0.1 0 0 0 0 0 0.1 0 0.1 0 0 0 0.1 0 0 0 0 0 0.1 0 0.1 0 0 0 0.1 0 0 0 0 0 0.1 0 0.1 0 0 0 0.1 0 0 0 0 0 0 0 0.1 0 0 0 0 0 0.1 0 0.1 0 0 0 0.1 0 0 0 0 0 0.1 0 0.1 0 0 0 0.1 0 0 0 0 0 0.1 0 0.1 0 0 0 0.1 0 0 0 0 0 0.1 0 0.1 0 0 0 0 0 0.1 0 0.1 0 0 0 0.1 0 0 0 0 0 0.1 0 0.1 0 0 0 0.1 0 0 0 0 0 0.1 0 0.1 0 0 0 0.1 0 0 0 0 0 0.1 0 0.1 0 0 0 0.1 0 0 0 0 0 0.1 0 0.1 0 0 0 0.1 0 0 0 0 0 0.1 0 0.1 0 0 0 0.1 0 0 0 0 0 0.1 0 0.1 0 0 0 0.1 0 0 0 0 0 0.1 0 0.1 0 0 0 0.1 0 0 0 0 0 0.1 0 0.1 0 0 0 0 0 0.1 0 0.1 0 0 0 0.1 0 0 0 0 0 0.1 0 0.1 0 0 0 0.1 0 0 0 0 0 0.1 0 0.1 0 0 0 0.1 0 0 0 0 0 0.1 0 0.1 0 0 0 0.1 0 0 0 0 0 0.1 0 0.1 0 0 0 0.1 0 0 0 0 0 0.1 0 0.1 0 0 0 0.1 0 0 0 0 0 0.1 0 0.1 0 0 0 0.1 0 0 0 0 0 0.1 0 0.1 0 0 0 0.1 0 0 0 0.1 0 0 0 0 0 0.1 0 0.1 0 0 0 0.1 0 0 0 0 0 0.1 0 0.1 0 0 0 0.1 0 0 0 0 0 0.1 0 0.1 0 0 0 0.1 0 0 0 0 0 0.1 0 0.1 0 0 0 0.1 0 0 0 0 0 0.1 0 0.1 0 0 0 0.1 0 0 0 0 0 0.1 0 0.1 0 0 0 0.1 0 0 0 0 0 0.1 0 0.1 0 0 0 0.1 0 0 0 0 0 0.1 0 0.1 0 0 0 0.1 0 0 0 0 0 0.1 0 0.1 0 0.1 0 0.1 0 0 0 0.1 0 0 0 0 0 0.1 0 0.1 0 0 0 0.1 0 0 0 0 0 0.1 0 0.1 0 0 0 0.1 0 0 0 0 0 0.1 0 0.1 0 0 0 0.1 0 0 0 0 0 0.1 0 0.1 0 0 0 0.1 0 0 0 0.1 0 0 0 0 0 0.1 0 0.1 0 0 0 0.1 0 0 0 0 0 0.1 0 0.1 0 0 0 0.1 0 0 0 0 0 0.1 0 0.1 0 0 0 0.1 0 0 0 0 0 0.1 0 0.1 0 0.1 0 0.1 0 0 0 0.1 0 0 0 0 0 0.1 0 0.1 0 0 0 0.1 0 0 0 0 0 0.1 0 0.1 0 0 0 0.1 0 0 0 0 0 0.1 0 0.1 0 0.1 0 0.1 0 0 0 0.1 0 0 0 0 0 0.1 0 0.1 0 0 0 0.1 0 0 0 0 0 0.1 0 0.1 0 0 0 0.1 0 0 0 0 0 0.1 0 0.1 0 0.1 0 0.1 0 0 0 0.1 0 0 0 0 0 0.1 0 0.1 0 0 0 0.1 0 0 0 0 0 0.1 0 0.1 0 0 0 0.1 0 0 0 0.1 0 0 0 0 0 0.1 0 0.1 0 0 0 0.1 0 0 0 0 0 0.1 0 0.1 0 0 0 0.1 0 0 0 0.1 0 0 0 0 0 0.1 0 0.1 0 0 0 0.1 0 0 0 0 0 0.1 0 0.1 0 0 0 0.1 0 0 0 0.1 0 0 0 0 0 0.1 0 0.1 0 0 0 0.1 0 0 0 0 0 0.1 0 0.1 0 0 0 0.1 0 0 0 0.1 0 0 0 0 0 0.1 0 0.1 0 0 0 0.1 0 0 0 0 0 0.1 0 0.1 0 0 0 0.1 0 0 0 0.1 0 0 0 0 0 0.1 0 0.1 0 0 0 0.1 0 0 0 0 0 0.1 0 0.1 0 0 0 0.1 0 0 0 0.1 0 0 0 0 0 0.1 0 0.1 0 0 0 0.1 0 0 0 0 0 0.1 0 0.1 0 0.1 0 0.1 0 0 0 0.1 0 0 0 0 0 0.1 0 0.1 0 0 0 0.1 0 0 0 0 0 0.1 0 0.1 0 0.1 0 0.1 0 0 0 0.1 0 0 0 0 0 0.1 0 0.1 0 0 0 0.1 0 0 0 0.1c0 3.8 0.1 8-0.2 12.1-0.3 4.1-1.1 8.1-3 11.7-3.9 7.2-12.2 12.3-29.5 12.3-13.7 0-22.1 4.1-27 9.1-4.9 5.1-6.4 11.1-6.3 15.1l-0.5 0.1h0.5v-0.1l-0.5 0.1h0.5v16.7l2.3-2.3c0.2-0.2 0.5-0.2 0.7 0 0.2 0.2 0.2 0.5 0 0.7l-3.1 3.2c-0.2 0.1-0.6 0.1-0.7 0z"/>
	<path id="Layer" fill-rule="evenodd" class="s5" d="m384.1 334.7h5.8l-2.4 5v12.4c0.1 4.3-1.5 10.6-6.6 15.9-5.1 5.2-13.8 9.4-27.7 9.4-17.2 0-25 5-28.6 11.7-1.8 3.5-2.6 7.4-2.9 11.4-0.3 4-0.2 8.2-0.2 12q0 0.1 0 0.1 0 0.1 0 0.1 0 0 0 0.1 0 0 0 0 0 0.1 0 0.1 0 0 0 0.1 0 0 0 0.1 0 0 0 0 0 0.1 0 0.1 0 0 0 0.1 0 0 0 0 0 0.1 0 0.1 0 0.1 0 0.1 0 0 0 0.1 0 0 0 0 0 0.1 0 0.1 0 0 0 0.1 0 0 0 0.1 0 0 0 0 0 0.1 0 0.1 0 0 0 0.1 0 0 0 0.1 0 0 0 0 0 0.1 0 0.1 0 0 0 0.1 0 0 0 0 0 0.1 0 0.1 0 0.1 0 0.1 0 0 0 0.1 0 0 0 0 0 0.1 0 0.1 0 0.1 0 0.1 0 0 0 0.1 0 0 0 0 0 0.1 0 0.1 0 0.1 0 0.1 0 0 0 0.1 0 0 0 0 0 0.1 0 0.1 0 0.1 0 0.1 0 0 0 0.1 0 0 0 0 0 0.1 0 0.1 0 0.1 0 0.1 0 0 0 0.1 0 0 0 0 0 0.1 0 0.1 0 0.1 0 0.1 0 0 0 0.1 0 0 0 0 0 0.1 0 0.1 0 0.1 0 0.1 0 0 0 0.1 0 0 0 0 0 0.1 0 0.1 0 0.1 0 0.1 0 0 0 0.1 0 0 0 0 0 0.1 0 0.1 0 0.1 0 0.1 0 0 0 0.1 0 0 0 0 0 0.1 0 0.1 0 0.1 0 0.1 0 0 0 0.1 0 0 0 0 0 0.1 0 0.1 0 0.1 0 0.1 0 0 0 0.1 0 0 0 0 0 0.1 0 0.1 0 0.1 0 0.1 0 0 0 0.1 0 0 0 0 0 0.1 0 0.1 0 0.1 0 0.1 0 0 0 0.1 0 0 0 0.1 0 0 0 0 0 0.1 0 0.1 0 0 0 0.1 0 0 0 0.1 0 0 0 0 0 0.1 0 0.1 0 0 0 0.1 0 0 0 0.1 0 0 0 0 0 0.1 0 0.1 0 0.1 0 0.1 0 0 0 0.1 0 0 0 0 0 0.1 0 0.1 0 0.1 0 0.1 0 0 0 0.1 0 0 0 0 0 0.1 0 0.1 0 0.1 0 0.1 0 0 0 0.1 0 0 0 0.1 0 0 0 0 0 0.1 0 0.1 0 0 0 0.1 0 0 0 0.1 0 0 0 0 0 0.1 0 0.1 0 0 0 0.1 0 0 0 0.1 0 0 0 0 0 0.1 0 0.1 0 0.1 0 0.1 0 0 0 0.1 0 0 0 0 0 0.1 0 0.1 0 0.1 0 0.1 0 0 0 0.1 0 0 0 0.1 0 0 0 0 0 0.1 0 0.1 0 0 0 0.1 0 0 0 0.1 0 0 0 0 0 0.1 0 0.1 0 0 0 0.1 0 0 0 0.1 0 0 0 0 0 0.1 0 0.1 0 0.1 0 0.1 0 0 0 0.1 0 0 0 0 0 0.1 0 0.1 0 0.1 0 0.1 0 0 0 0.1 0 0 0 0.1 0 0 0 0 0 0.1 0 0.1 0 0 0 0.1 0 0 0 0.1 0 0 0 0 0 0.1 0 0.1 0 0 0 0.1 0 0 0 0.1 0 0 0 0 0 0.1 0 0.1 0 0.1 0 0.1 0 0 0 0.1 0 0 0 0 0 0.1 0 0.1 0 0.1 0 0.1 0 0 0 0.1 0 0 0 0 0 0.1 0 0.1 0 0.1 0 0.1 0 0 0 0.1 0 0 0 0.1 0 0 0 0 0 0.1 0 0.1 0 0 0 0.1 0 0 0 0.1 0 0 0 0 0 0.1 0 0.1 0 0 0 0.1 0 0 0 0.1 0 0 0 0 0 0.1 0 0.1 0 0.1 0 0.1 0 0 0 0.1 0 0 0 0 0 0.1 0 0.1 0 0.1 0 0.1 0 0 0 0.1 0 0 0 0 0 0.1 0 0.1 0 0.1 0 0.1 0 0 0 0.1 0 0 0 0 0 0.1 0 0.1 0 0.1 0 0.1 0 0 0 0.1 0 0 0 0.1 0 0 0 0 0 0.1 0 0.1 0 0 0 0.1 0 0 0 0.1 0 0 0 0 0 0.1 0 0.1 0 0 0 0.1 0 0 0 0.1 0 0 0 0 0 0.1 0 0.1 0 0 0 0.1 0 0 0 0.1 0 0 0 0 0 0.1 0 0.1 0 0 0 0.1 0 0 0 0.1 0 0 0 0 0 0.1 0 0.1 0 0 0 0.1 0 0 0 0.1 0 0 0 0 0 0.1 0 0.1 0 0 0 0.1 0 0 0 0.1 0 0 0 0 0 0.1 0 0.1 0 0 0 0.1 0 0 0 0.1 0 0 0 0 0 0.1 0 0.1 0 0 0 0.1 0 0 0 0.1 0 0 0 0 0 0.1 0 0.1 0 0 0 0.1 0 0 0 0 0 0.1 0 0.1 0 0.1 0 0.1 0 0 0 0.1 0 0 0 0 0 0.1 0 0.1 0 0.1 0 0.1 0 0 0 0.1 0 0 0 0 0 0.1 0 0.1 0 0 0 0.1 0 0 0 0.1 0 0 0 0 0 0.1 0 0.1 0 0 0 0.1 0 0 0 0.1 0 0 0 0 0 0.1 0 0.1 0 0 0 0.1 0 0 0 0 0 0.1 0 0.1 0 0.1 0 0.1 0 0 0 0.1 0 0 0 0 0 0.1 0 0.1 0 0 0 0.1 0 0 0 0.1 0 0 0 0 0 0.1 0 0.1 0 0 0 0.1 0 0 0 0 0 0.1 0 0.1 0 0.1 0 0.1 0 0 0 0.1 0 0 0 0 0 0.1 0 0.1 0 0 0 0.1 0 0 0 0.1 0 0 0 0 0 0.1 0 0.1 0 0 0 0.1 0 0 0 0 0 0.1 0 0.1 0 0 0 0.1 0 0 0 0.1 0 0 0 0 0 0.1 0 0.1 0 0 0 0.1 0 0 0 0 0 0.1 0 0.1 0 0 0 0.1 0 0 0 0.1 0 0 0 0 0 0.1 0 0.1 0 0 0 0.1 0 0 0 0 0 0.1 0 0.1 0 0 0 0.1 0 0 0 0 0 0.1 0 0.1 0 0.1 0 0.1 0 0 0 0.1 0 0 0 0 0 0.1 0 0.1 0 0 0 0.1 0 0 0 0 0 0.1 0 0.1 0 0 0 0.1 0 0 0 0 0 0.1 0 0.1 0 0 0 0.1 0 0 0 0.1 0 0 0 0 0 0.1 0 0.1 0 0 0 0.1 0 0 0 0 0 0.1 0 0.1 0 0 0 0.1 0 0 0 0 0 0.1 0 0.1 0 0 0 0.1 0 0 0 0 0 0.1 0 0.1 0 0 0 0.1 0 0 0 0 0 0.1 0 0.1 0 0 0 0.1 0 0 0 0 0 0.1 0 0.1 0 0 0 0.1 0 0 0 0 0 0.1 0 0.1 0 0.1 0 0.1 0 0 0 0.1 0 0 0 0 0 0.1 0 0.1 0 0 0 0.1 0 0 0 0 0 0.1 0 0.1 0 0 0 0.1 0 0 0 0 0 0.1 0 0.1 0 0 0 0.1 0 0 0 0 0 0.1 0 0.1 0 0 0 0 0 0.1 0 0.1 0 0 0 0.1 0 0 0 0 0 0.1 0 0.1 0 0 0 0.1 0 0 0 0 0 0.1 0 0.1 0 0 0 0.1 0 0 0 0 0 0.1 0 0.1 0 0 0 0.1 0 0 0 0 0 0.1 0 0.1 0 0 0 0.1 0 0 0 0 0 0.1 0 0.1 0 0 0 0.1 0 0 0 0 0 0 0 0.1 0 0 0 0 0 0.1 0 0.1 0 0 0 0.1 0 0 0 0 0 0.1 0 0.1 0 0 0 0.1 0 0 0 0 0 0.1 0 0.1 0 0 0 0.1 0 0 0 0 0 0 0 0.1 0 0 0 0 0 0.1 0 0.1 0 0 0 0.1 0 0 0 0 0 0.1 0 0.1 0 0 0 0 0 0.1 0 0.1 0 0 0 0.1 0 0 0 0 0 0.1 0 0.1 0 0 0 0.1 0 0 0 0 0 0 0 0.1 0 0 0 0 0 0.1 0 0.1 0 0 0 0.1 0 0 0 0 0 0 0 0.1 0 0 0 0 0 0.1 0 0.1 0 0 0 0.1 0 0 0 0 0 0 0 0.1 0 0 0 0 0 0.1 0 0.1 0 0 0 0.1 0 0 0 0 0 0 0 0.1 0 0 0 0 0 0.1 0 0.1 0 0 0 0.1 0 0 0 0 0 0 0 0.1 0 0 0 0 0 0.1 0 0.1 0 0 0 0 0 0.1 0 0.1 0 0 0 0.1 0 0 0 0 0 0 0 0.1 0 0 0 0 0 0.1 0 0.1 0 0 0 0 0 0.1 0 0.1 0 0 0 0.1 0 0 0 0 0 0 0 0.1 0 0 0 0 0 0.1 0 0.1 0 0 0 0 0 0.1 0 0.1 0 0 0 0 0 0.1 0 0.1 0 0 0 0.1 0 0 0 0 0 0 0 0.1 0 0 0 0 0 0 0 0.1 0 0 0 0 0 0.1 0 0.1 0 0 0 0 0 0.1 0 0.1 0 0 0 0 0 0.1 0 0.1 0 0 0 0.1 0 0 0 0 0 0 0 0.1 0 0 0 0 0 0 0 0.1 0 0 0 0 0 0 0 0.1 0 0 0 0 0 0 0 0.1 0 0 0 0 0 0.1 0 0.1 0 0 0 0 0 0.1 0 0.1 0 0 0 0 0 0.1 0 0.1 0 0 0 0 0 0.1 0 0.1 0 0 0 0 0 0.1 0 0.1 0 0 0 0 0 0.1 0 0.1 0 0 0 0 0 0.1 0 0.1 0 0 0 0 0 0.1 0 0.1 0 0 0 0 0 0.1 0 0.1 0 0 0 0 0 0.1 0 0.1 0 0 0 0 0 0.1 0 0.1 0 0 0 0 0 0.1 0 0.1 0 0 0 0 0 0 0 0.1 0 0 0 0 0 0 0 0.1 0 0 0 0 0 0 0 0.1 0 0 0 0 0 0 0 0.1 0 0 0 0 0 0 0 0 0 0.1 0 0.1 0 0 0 0 0 0.1 0 0.1 0 0 0 0 0 0.1 0 0.1 0 0 0 0 0 0 0 0.1 0 0 0 0 0 0 0 0.1 0 0 0 0 0 0 0 0 0 0.1 0 0.1 0 0 0 0 0 0.1 0 0.1 0 0 0 0 0 0 0 0.1 0 0 0 0 0 0 0 0 0 0.1 0 0.1 0 0 0 0 0 0.1 0 0.1 0 0 0 0 0 0 0 0.1 0 0 0 0 0 0 0 0 0 0.1 0 0.1 0 0 0 0 0 0 0 0.1 0 0 0 0 0 0 0 0.1 0 0 0 0 0 0 0 0 0 0.1 0 0.1 0 0 0 0 0 0 0 0.1 0 0 0 0 0 0 0 0 0 0 0 0.1 0 0 0 0 0 0 0 0 0 0.1 0 0.1 0 0 0 0 0 0 0 0.1 0 0 0 0 0 0 0 0 0 0.1 0 0.1 0 0 0 0 0 0 0 0 0 0.1 0 0.1 0 0 0 0 0 0 0 0.1 0 0 0 0 0 0 0 0 0 0 0 0.1 0 0 0 0h-1q0 0 0 0 0-0.1 0-0.1 0 0 0 0 0 0 0 0 0-0.1 0-0.1 0 0 0 0 0 0 0-0.1 0 0 0 0 0 0 0 0 0 0 0-0.1 0 0 0 0 0 0 0 0 0-0.1 0-0.1 0 0 0 0 0 0 0-0.1 0 0 0 0 0 0 0 0 0-0.1 0-0.1 0 0 0 0 0 0 0 0 0-0.1 0-0.1 0 0 0 0 0 0 0-0.1 0 0 0 0 0 0 0 0 0-0.1 0-0.1 0 0 0 0 0-0.1 0-0.1 0 0 0 0 0 0 0-0.1 0 0 0 0 0 0 0 0 0-0.1 0-0.1 0 0 0 0 0 0 0-0.1 0 0 0 0 0 0 0-0.1 0 0 0 0 0 0 0 0 0-0.1 0-0.1 0 0 0 0 0 0 0-0.1 0 0 0 0 0 0 0-0.1 0 0 0 0 0 0 0 0 0-0.1 0-0.1 0 0 0 0 0-0.1 0-0.1 0 0 0 0 0 0 0-0.1 0 0 0 0 0 0 0-0.1 0 0 0 0 0 0 0-0.1 0 0 0 0 0 0 0 0 0-0.1 0-0.1 0 0 0 0 0-0.1 0-0.1 0 0 0 0 0-0.1 0-0.1 0 0 0 0 0-0.1 0-0.1 0 0 0 0 0 0 0-0.1 0 0 0 0 0 0 0-0.1 0 0 0 0 0 0 0-0.1 0 0 0 0 0 0 0-0.1 0 0 0 0 0 0 0-0.1 0 0 0 0 0 0 0-0.1 0 0 0 0 0 0 0-0.1 0 0 0 0 0 0 0-0.1 0 0 0 0 0 0 0-0.1 0 0 0 0 0 0 0-0.1 0 0 0 0 0 0 0-0.1 0 0 0 0 0 0 0-0.1 0 0 0 0 0-0.1 0-0.1 0 0 0 0 0-0.1 0-0.1 0 0 0 0 0-0.1 0-0.1 0 0 0 0 0-0.1 0-0.1 0 0 0 0 0-0.1 0-0.1 0 0 0-0.1 0 0 0 0 0 0 0-0.1 0 0 0 0 0 0 0-0.1 0 0 0 0 0-0.1 0-0.1 0 0 0 0 0-0.1 0-0.1 0 0 0 0 0-0.1 0-0.1 0 0 0-0.1 0 0 0 0 0 0 0-0.1 0 0 0 0 0 0 0-0.1 0 0 0 0 0-0.1 0-0.1 0 0 0 0 0-0.1 0-0.1 0 0 0-0.1 0 0 0 0 0 0 0-0.1 0 0 0 0 0-0.1 0-0.1 0 0 0 0 0-0.1 0-0.1 0 0 0-0.1 0 0 0 0 0 0 0-0.1 0 0 0 0 0-0.1 0-0.1 0 0 0 0 0-0.1 0-0.1 0 0 0-0.1 0 0 0 0 0-0.1 0-0.1 0 0 0 0 0-0.1 0-0.1 0 0 0-0.1 0 0 0 0 0-0.1 0-0.1 0 0 0 0 0-0.1 0-0.1 0 0 0-0.1 0 0 0 0 0-0.1 0-0.1 0 0 0 0 0-0.1 0-0.1 0 0 0-0.1 0 0 0 0 0-0.1 0-0.1 0 0 0 0 0-0.1 0-0.1 0 0 0-0.1 0 0 0 0 0-0.1 0-0.1 0 0 0-0.1 0 0 0 0 0 0 0-0.1 0 0 0 0 0-0.1 0-0.1 0 0 0-0.1 0 0 0 0 0-0.1 0-0.1 0 0 0 0 0-0.1 0-0.1 0 0 0-0.1 0 0 0 0 0-0.1 0-0.1 0 0 0-0.1 0 0 0 0 0-0.1 0-0.1 0 0 0-0.1 0 0 0 0 0-0.1 0-0.1 0 0 0 0 0-0.1 0-0.1 0 0 0-0.1 0 0 0 0 0-0.1 0-0.1 0 0 0-0.1 0 0 0 0 0-0.1 0-0.1 0 0 0-0.1 0 0 0 0 0-0.1 0-0.1 0 0 0-0.1 0 0 0 0 0-0.1 0-0.1 0 0 0-0.1 0 0 0 0 0-0.1 0-0.1 0 0 0-0.1 0 0 0 0 0 0 0-0.1 0 0 0 0 0-0.1 0-0.1 0 0 0-0.1 0 0 0 0 0-0.1 0-0.1 0 0 0-0.1 0 0 0 0 0-0.1 0-0.1 0 0 0-0.1 0 0 0 0 0-0.1 0-0.1 0 0 0-0.1 0 0 0-0.1 0 0 0 0 0-0.1 0-0.1 0 0 0-0.1 0 0 0 0 0-0.1 0-0.1 0 0 0-0.1 0 0 0 0 0-0.1 0-0.1 0 0 0-0.1 0 0 0 0 0-0.1 0-0.1 0 0 0-0.1 0 0 0 0 0-0.1 0-0.1 0 0 0-0.1 0 0 0 0 0-0.1 0-0.1 0 0 0-0.1 0 0 0 0 0-0.1 0-0.1 0-0.1 0-0.1 0 0 0-0.1 0 0 0 0 0-0.1 0-0.1 0 0 0-0.1 0 0 0 0 0-0.1 0-0.1 0 0 0-0.1 0 0 0 0 0-0.1 0-0.1 0 0 0-0.1 0 0 0-0.1 0 0 0 0 0-0.1 0-0.1 0 0 0-0.1 0 0 0 0 0-0.1 0-0.1 0 0 0-0.1 0 0 0 0 0-0.1 0-0.1 0-0.1 0-0.1 0 0 0-0.1 0 0 0 0 0-0.1 0-0.1 0 0 0-0.1 0 0 0 0 0-0.1 0-0.1 0-0.1 0-0.1 0 0 0-0.1 0 0 0 0 0-0.1 0-0.1 0 0 0-0.1 0 0 0 0 0-0.1 0-0.1 0-0.1 0-0.1 0 0 0-0.1 0 0 0 0 0-0.1 0-0.1 0 0 0-0.1 0 0 0-0.1 0 0 0 0 0-0.1 0-0.1 0 0 0-0.1 0 0 0 0 0-0.1 0-0.1 0-0.1 0-0.1 0 0 0-0.1 0 0 0 0 0-0.1 0-0.1 0 0 0-0.1 0 0 0-0.1 0 0 0 0 0-0.1 0-0.1 0 0 0-0.1 0 0 0 0 0-0.1 0-0.1 0-0.1 0-0.1 0 0 0-0.1 0 0 0 0 0-0.1 0-0.1 0-0.1 0-0.1 0 0 0-0.1 0 0 0 0 0-0.1 0-0.1 0 0 0-0.1 0 0 0-0.1 0 0 0 0 0-0.1 0-0.1 0 0 0-0.1 0 0 0-0.1 0 0 0 0 0-0.1 0-0.1 0 0 0-0.1 0 0 0 0 0-0.1 0-0.1 0-0.1 0-0.1 0 0 0-0.1 0 0 0 0 0-0.1 0-0.1 0-0.1 0-0.1 0 0 0-0.1 0 0 0 0 0-0.1 0-0.1 0-0.1 0-0.1 0 0 0-0.1 0 0 0 0 0-0.1 0-0.1 0-0.1 0-0.1 0 0 0-0.1 0 0 0 0 0-0.1 0-0.1 0-0.1 0-0.1 0 0 0-0.1 0 0 0 0 0-0.1 0-0.1 0-0.1 0-0.1 0 0 0-0.1 0 0 0 0 0-0.1 0-0.1 0-0.1 0-0.1 0 0 0-0.1 0 0 0 0 0-0.1 0-0.1 0-0.1 0-0.1 0 0 0-0.1 0 0 0 0 0-0.1 0-0.1 0-0.1 0-0.1 0 0 0-0.1 0 0 0-0.1 0 0 0 0 0-0.1 0-0.1 0 0 0-0.1 0 0 0-0.1 0 0 0 0 0-0.1 0-0.1 0 0 0-0.1 0 0 0-0.1 0 0 0 0 0-0.1 0-0.1 0 0 0-0.1 0 0 0-0.1 0 0 0 0 0-0.1 0-0.1 0-0.1 0-0.1 0 0 0-0.1 0 0 0 0 0-0.1 0-0.1 0-0.1 0-0.1 0 0 0-0.1 0 0 0 0 0-0.1 0-0.1 0-0.1 0-0.1 0 0 0-0.1 0 0 0-0.1 0 0 0 0 0-0.1 0-0.1 0 0 0-0.1 0 0 0-0.1 0 0 0 0 0-0.1 0-0.1 0 0 0-0.1 0 0 0-0.1 0 0 0 0 0-0.1 0-0.1 0-0.1 0-0.1 0 0 0-0.1 0 0 0 0 0-0.1 0-0.1 0-0.1 0-0.1 0 0 0-0.1 0 0 0 0 0-0.1 0-0.1 0-0.1 0-0.1 0 0 0-0.1 0 0 0-0.1 0 0 0 0 0-0.1 0-0.1 0 0 0-0.1 0 0 0-0.1 0 0 0 0 0-0.1 0-0.1 0-0.1 0-0.1 0 0 0-0.1 0 0 0 0 0-0.1 0-0.1 0-0.1 0-0.1 0 0 0-0.1 0 0 0 0 0-0.1 0-0.1 0-0.1 0-0.1 0 0 0-0.1 0 0 0-0.1 0 0 0 0 0-0.1 0-0.1 0 0 0-0.1 0 0 0-0.1 0 0 0 0 0-0.1 0-0.1 0-0.1 0-0.1 0 0 0-0.1 0 0 0 0 0-0.1 0-0.1 0-0.1 0-0.1 0 0 0-0.1 0 0 0 0 0-0.1 0-0.1 0-0.1 0-0.1 0 0 0-0.1 0 0 0-0.1 0 0 0 0 0-0.1 0-0.1 0 0 0-0.1 0 0 0-0.1 0 0 0 0 0-0.1 0-0.1 0 0 0-0.1 0 0 0-0.1 0 0 0 0 0-0.1 0-0.1 0-0.1 0-0.1 0 0 0-0.1 0 0 0 0 0-0.1 0-0.1 0-0.1 0-0.1 0 0 0-0.1 0 0 0 0 0-0.1 0-0.1 0-0.1 0-0.1 0 0 0-0.1 0 0 0-0.1 0 0 0 0 0-0.1 0-0.1 0 0 0-0.1 0 0 0-0.1 0 0 0 0 0-0.1 0-0.1 0 0 0-0.1 0 0 0-0.1 0 0 0 0 0-0.1 0-0.1 0 0 0-0.1 0 0 0-0.1 0 0 0 0 0-0.1 0-0.1 0 0 0-0.1 0 0 0-0.1 0 0 0 0 0-0.1 0-0.1 0 0 0-0.1 0 0 0-0.1 0 0 0 0 0-0.1 0-0.1 0 0 0-0.1 0 0 0-0.1 0 0 0 0 0-0.1 0-0.1 0 0 0-0.1 0 0 0-0.1 0 0 0 0 0-0.1 0-0.1 0 0 0-0.1 0 0 0-0.1 0 0 0 0 0-0.1 0-0.1 0 0 0-0.1 0 0 0-0.1 0 0 0 0 0-0.1 0-0.1 0 0 0-0.1 0 0 0-0.1 0 0 0 0 0-0.1 0-0.1 0 0 0-0.1 0 0 0-0.1 0 0 0 0 0-0.1 0-0.1 0 0 0-0.1 0 0 0-0.1 0 0 0 0 0-0.1 0-0.1 0 0 0-0.1 0 0 0 0 0-0.1 0-0.1 0-0.1 0-0.1 0 0 0-0.1 0 0 0 0 0-0.1 0-0.1 0-0.1 0-0.1 0 0 0-0.1 0 0 0 0 0-0.1 0-0.1 0 0 0-0.1 0 0 0-0.1 0 0 0 0 0-0.1 0-0.1 0 0 0-0.1 0 0 0 0 0-0.1 0-0.1 0-0.1 0-0.1 0 0 0-0.1 0 0 0 0 0-0.1 0-0.1 0 0 0-0.1 0 0 0-0.1c0-3.8-0.1-8 0.2-12.1 0.3-4.1 1.1-8.1 3-11.7 3.9-7.2 12.2-12.3 29.5-12.3 13.7 0 22.1-4.1 27-9.1 4.9-5.1 6.4-11.1 6.3-15.1v-12.5z"/>
	<path id="Layer" fill-rule="evenodd" class="s5" d="m252.1 341.2h5.8l-2.4 5v12.5c0.1 4.3-1.8 10.7-8 15.9-6.2 5.3-16.6 9.5-33.5 9.5-20.8 0-30.4 5-34.7 11.8-2.2 3.4-3.2 7.3-3.6 11.4-0.3 4-0.2 8.2-0.2 12.1q0 0 0 0.1 0 0 0 0 0 0.1 0 0.1 0 0 0 0.1 0 0 0 0.1 0 0 0 0 0 0.1 0 0.1 0 0 0 0.1 0 0 0 0 0 0.1 0 0.1 0 0.1 0 0.1 0 0 0 0.1 0 0 0 0 0 0.1 0 0.1 0 0.1 0 0.1 0 0 0 0.1 0 0 0 0 0 0.1 0 0.1 0 0.1 0 0.1 0 0 0 0.1 0 0 0 0 0 0.1 0 0.1 0 0 0 0.1 0 0 0 0.1 0 0 0 0 0 0.1 0 0.1 0 0 0 0.1 0 0 0 0.1 0 0 0 0 0 0.1 0 0.1 0 0 0 0.1 0 0 0 0.1 0 0 0 0 0 0.1 0 0.1 0 0 0 0.1 0 0 0 0.1 0 0 0 0 0 0.1 0 0.1 0 0 0 0.1 0 0 0 0.1 0 0 0 0 0 0.1 0 0.1 0 0 0 0.1 0 0 0 0.1 0 0 0 0 0 0.1 0 0.1 0 0 0 0.1 0 0 0 0.1 0 0 0 0 0 0.1 0 0.1 0 0 0 0.1 0 0 0 0.1 0 0 0 0 0 0.1 0 0.1 0 0 0 0.1 0 0 0 0.1 0 0 0 0 0 0.1 0 0.1 0 0 0 0.1 0 0 0 0.1 0 0 0 0 0 0.1 0 0.1 0 0 0 0.1 0 0 0 0.1 0 0 0 0 0 0.1 0 0.1 0 0.1 0 0.1 0 0 0 0.1 0 0 0 0 0 0.1 0 0.1 0 0.1 0 0.1 0 0 0 0.1 0 0 0 0 0 0.1 0 0.1 0 0.1 0 0.1 0 0 0 0.1 0 0 0 0.1 0 0 0 0 0 0.1 0 0.1 0 0 0 0.1 0 0 0 0.1 0 0 0 0 0 0.1 0 0.1 0 0 0 0.1 0 0 0 0.1 0 0 0 0 0 0.1 0 0.1 0 0.1 0 0.1 0 0 0 0.1 0 0 0 0 0 0.1 0 0.1 0 0.1 0 0.1 0 0 0 0.1 0 0 0 0.1 0 0 0 0 0 0.1 0 0.1 0 0 0 0.1 0 0 0 0.1 0 0 0 0 0 0.1 0 0.1 0 0 0 0.1 0 0 0 0.1 0 0 0 0 0 0.1 0 0.1 0 0.1 0 0.1 0 0 0 0.1 0 0 0 0 0 0.1 0 0.1 0 0.1 0 0.1 0 0 0 0.1 0 0 0 0.1 0 0 0 0 0 0.1 0 0.1 0 0 0 0.1 0 0 0 0.1 0 0 0 0 0 0.1 0 0.1 0 0.1 0 0.1 0 0 0 0.1 0 0 0 0 0 0.1 0 0.1 0 0.1 0 0.1 0 0 0 0.1 0 0 0 0.1 0 0 0 0 0 0.1 0 0.1 0 0 0 0.1 0 0 0 0.1 0 0 0 0 0 0.1 0 0.1 0 0.1 0 0.1 0 0 0 0.1 0 0 0 0 0 0.1 0 0.1 0 0.1 0 0.1 0 0 0 0.1 0 0 0 0.1 0 0 0 0 0 0.1 0 0.1 0 0 0 0.1 0 0 0 0.1 0 0 0 0 0 0.1 0 0.1 0 0.1 0 0.1 0 0 0 0.1 0 0 0 0 0 0.1 0 0.1 0 0.1 0 0.1 0 0 0 0.1 0 0 0 0 0 0.1 0 0.1 0 0.1 0 0.1 0 0 0 0.1 0 0 0 0.1 0 0 0 0 0 0.1 0 0.1 0 0 0 0.1 0 0 0 0.1 0 0 0 0 0 0.1 0 0.1 0 0.1 0 0.1 0 0 0 0.1 0 0 0 0 0 0.1 0 0.1 0 0.1 0 0.1 0 0 0 0.1 0 0 0 0 0 0.1 0 0.1 0 0.1 0 0.1 0 0 0 0.1 0 0 0 0.1 0 0 0 0 0 0.1 0 0.1 0 0 0 0.1 0 0 0 0.1 0 0 0 0 0 0.1 0 0.1 0 0 0 0.1 0 0 0 0.1 0 0 0 0 0 0.1 0 0.1 0 0.1 0 0.1 0 0 0 0.1 0 0 0 0 0 0.1 0 0.1 0 0.1 0 0.1 0 0 0 0.1 0 0 0 0 0 0.1 0 0.1 0 0.1 0 0.1 0 0 0 0.1 0 0 0 0 0 0.1 0 0.1 0 0.1 0 0.1 0 0 0 0.1 0 0 0 0 0 0.1 0 0.1 0 0.1 0 0.1 0 0 0 0.1 0 0 0 0 0 0.1 0 0.1 0 0.1 0 0.1 0 0 0 0.1 0 0 0 0 0 0.1 0 0.1 0 0.1 0 0.1 0 0 0 0.1 0 0 0 0 0 0.1 0 0.1 0 0.1 0 0.1 0 0 0 0.1 0 0 0 0 0 0.1 0 0.1 0 0.1 0 0.1 0 0 0 0.1 0 0 0 0 0 0.1 0 0.1 0 0.1 0 0.1 0 0 0 0.1 0 0 0 0 0 0.1 0 0.1 0 0.1 0 0.1 0 0 0 0.1 0 0 0 0 0 0.1 0 0.1 0 0 0 0.1 0 0 0 0.1 0 0 0 0 0 0.1 0 0.1 0 0 0 0.1 0 0 0 0.1 0 0 0 0 0 0.1 0 0.1 0 0 0 0.1 0 0 0 0 0 0.1 0 0.1 0 0.1 0 0.1 0 0 0 0.1 0 0 0 0 0 0.1 0 0.1 0 0 0 0.1 0 0 0 0.1 0 0 0 0 0 0.1 0 0.1 0 0 0 0.1 0 0 0 0.1 0 0 0 0 0 0.1 0 0.1 0 0 0 0.1 0 0 0 0 0 0.1 0 0.1 0 0 0 0.1 0 0 0 0.1 0 0 0 0 0 0.1 0 0.1 0 0 0 0.1 0 0 0 0 0 0.1 0 0.1 0 0.1 0 0.1 0 0 0 0.1 0 0 0 0 0 0.1 0 0.1 0 0 0 0.1 0 0 0 0 0 0.1 0 0.1 0 0.1 0 0.1 0 0 0 0.1 0 0 0 0 0 0.1 0 0.1 0 0 0 0.1 0 0 0 0 0 0.1 0 0.1 0 0.1 0 0.1 0 0 0 0.1 0 0 0 0 0 0.1 0 0.1 0 0 0 0.1 0 0 0 0 0 0.1 0 0.1 0 0 0 0.1 0 0 0 0 0 0.1 0 0.1 0 0.1 0 0.1 0 0 0 0.1 0 0 0 0 0 0.1 0 0.1 0 0 0 0.1 0 0 0 0 0 0.1 0 0.1 0 0 0 0.1 0 0 0 0 0 0.1 0 0.1 0 0 0 0.1 0 0 0 0 0 0.1 0 0.1 0 0.1 0 0.1 0 0 0 0.1 0 0 0 0 0 0.1 0 0.1 0 0 0 0.1 0 0 0 0 0 0.1 0 0.1 0 0 0 0.1 0 0 0 0 0 0.1 0 0.1 0 0 0 0.1 0 0 0 0 0 0.1 0 0.1 0 0 0 0.1 0 0 0 0 0 0.1 0 0.1 0 0 0 0.1 0 0 0 0 0 0.1 0 0.1 0 0 0 0.1 0 0 0 0 0 0.1 0 0.1 0 0 0 0.1 0 0 0 0 0 0.1 0 0.1 0 0 0 0.1 0 0 0 0 0 0.1 0 0.1 0 0 0 0.1 0 0 0 0 0 0.1 0 0.1 0 0 0 0.1 0 0 0 0 0 0.1 0 0.1 0 0 0 0.1 0 0 0 0 0 0.1 0 0.1 0 0 0 0.1 0 0 0 0 0 0.1 0 0.1 0 0 0 0 0 0.1 0 0.1 0 0 0 0.1 0 0 0 0 0 0.1 0 0.1 0 0 0 0.1 0 0 0 0 0 0.1 0 0.1 0 0 0 0.1 0 0 0 0 0 0.1 0 0.1 0 0 0 0.1 0 0 0 0 0 0 0 0.1 0 0 0 0 0 0.1 0 0.1 0 0 0 0.1 0 0 0 0 0 0.1 0 0.1 0 0 0 0.1 0 0 0 0 0 0 0 0.1 0 0 0 0 0 0.1 0 0.1 0 0 0 0.1 0 0 0 0 0 0.1 0 0.1 0 0 0 0 0 0.1 0 0.1 0 0 0 0.1 0 0 0 0 0 0.1 0 0.1 0 0 0 0 0 0.1 0 0.1 0 0 0 0.1 0 0 0 0 0 0.1 0 0.1 0 0 0 0 0 0.1 0 0.1 0 0 0 0.1 0 0 0 0 0 0.1 0 0.1 0 0 0 0 0 0.1 0 0.1 0 0 0 0.1 0 0 0 0 0 0.1 0 0.1 0 0 0 0 0 0.1 0 0.1 0 0 0 0.1 0 0 0 0 0 0 0 0.1 0 0 0 0 0 0.1 0 0.1 0 0 0 0 0 0.1 0 0.1 0 0 0 0.1 0 0 0 0 0 0 0 0.1 0 0 0 0 0 0.1 0 0.1 0 0 0 0 0 0.1 0 0.1 0 0 0 0.1 0 0 0 0 0 0 0 0.1 0 0 0 0 0 0 0 0.1 0 0 0 0 0 0.1 0 0.1 0 0 0 0 0 0.1 0 0.1 0 0 0 0.1 0 0 0 0 0 0 0 0.1 0 0 0 0 0 0 0 0.1 0 0 0 0 0 0.1 0 0.1 0 0 0 0 0 0.1 0 0.1 0 0 0 0 0 0.1 0 0.1 0 0 0 0 0 0.1 0 0.1 0 0 0 0 0 0.1 0 0.1 0 0 0 0.1 0 0 0 0 0 0 0 0.1 0 0 0 0 0 0 0 0.1 0 0 0 0 0 0 0 0.1 0 0 0 0 0 0 0 0.1 0 0 0 0 0 0 0 0.1 0 0 0 0 0 0 0 0.1 0 0 0 0 0 0 0 0.1 0 0 0 0 0 0 0 0.1 0 0 0 0 0 0 0 0.1 0 0 0 0 0 0 0 0.1 0 0 0 0 0 0 0 0.1 0 0 0 0 0 0 0 0.1 0 0 0 0 0 0 0 0.1 0 0 0 0 0 0 0 0.1 0 0 0 0 0 0 0 0 0 0.1 0 0.1 0 0 0 0 0 0.1 0 0.1 0 0 0 0 0 0.1 0 0.1 0 0 0 0 0 0.1 0 0.1 0 0 0 0 0 0 0 0.1 0 0 0 0 0 0 0 0.1 0 0 0 0 0 0 0 0 0 0.1 0 0.1 0 0 0 0 0 0.1 0 0.1 0 0 0 0 0 0 0 0.1 0 0 0 0 0 0 0 0.1 0 0 0 0 0 0 0 0 0 0.1 0 0.1 0 0 0 0 0 0 0 0.1 0 0 0 0 0 0 0 0.1 0 0 0 0 0 0 0 0 0 0.1 0 0.1 0 0 0 0 0 0 0 0.1 0 0 0 0 0 0 0 0 0 0.1 0 0.1 0 0 0 0 0 0 0 0.1 0 0 0 0 0 0 0 0 0 0.1 0 0.1 0 0 0 0 0 0 0 0.1 0 0 0 0 0 0 0 0 0 0.1 0 0.1 0 0 0 0 0 0 0 0.1 0 0 0 0 0 0 0 0 0 0.1 0 0.1 0 0 0 0 0 0 0 0 0 0.1 0 0.1 0 0 0 0 0 0 0 0.1 0 0 0 0 0 0 0 0 0 0 0 0.1 0 0 0 0h-1q0 0 0 0 0-0.1 0-0.1 0 0 0 0 0 0 0 0 0-0.1 0-0.1 0 0 0 0 0 0 0-0.1 0 0 0 0 0 0 0 0 0 0 0-0.1 0 0 0 0 0 0 0 0 0-0.1 0-0.1 0 0 0 0 0 0 0-0.1 0 0 0 0 0 0 0 0 0-0.1 0-0.1 0 0 0 0 0 0 0-0.1 0 0 0 0 0 0 0 0 0-0.1 0-0.1 0 0 0 0 0 0 0-0.1 0 0 0 0 0 0 0 0 0-0.1 0-0.1 0 0 0 0 0 0 0-0.1 0 0 0 0 0 0 0 0 0-0.1 0-0.1 0 0 0 0 0-0.1 0-0.1 0 0 0 0 0 0 0-0.1 0 0 0 0 0 0 0 0 0-0.1 0-0.1 0 0 0 0 0-0.1 0-0.1 0 0 0 0 0 0 0-0.1 0 0 0 0 0 0 0-0.1 0 0 0 0 0 0 0 0 0-0.1 0-0.1 0 0 0 0 0-0.1 0-0.1 0 0 0 0 0 0 0-0.1 0 0 0 0 0 0 0-0.1 0 0 0 0 0 0 0-0.1 0 0 0 0 0 0 0-0.1 0 0 0 0 0 0 0 0 0-0.1 0-0.1 0 0 0 0 0-0.1 0-0.1 0 0 0 0 0-0.1 0-0.1 0 0 0 0 0-0.1 0-0.1 0 0 0 0 0-0.1 0-0.1 0 0 0 0 0-0.1 0-0.1 0 0 0 0 0-0.1 0-0.1 0 0 0 0 0-0.1 0-0.1 0 0 0 0 0-0.1 0-0.1 0 0 0 0 0-0.1 0-0.1 0 0 0 0 0-0.1 0-0.1 0 0 0 0 0-0.1 0-0.1 0 0 0 0 0-0.1 0-0.1 0 0 0 0 0-0.1 0-0.1 0 0 0 0 0-0.1 0-0.1 0 0 0-0.1 0 0 0 0 0 0 0-0.1 0 0 0 0 0 0 0-0.1 0 0 0 0 0 0 0-0.1 0 0 0 0 0 0 0-0.1 0 0 0 0 0-0.1 0-0.1 0 0 0 0 0-0.1 0-0.1 0 0 0 0 0-0.1 0-0.1 0 0 0-0.1 0 0 0 0 0 0 0-0.1 0 0 0 0 0-0.1 0-0.1 0 0 0 0 0-0.1 0-0.1 0 0 0 0 0-0.1 0-0.1 0 0 0-0.1 0 0 0 0 0 0 0-0.1 0 0 0 0 0-0.1 0-0.1 0 0 0 0 0-0.1 0-0.1 0 0 0-0.1 0 0 0 0 0 0 0-0.1 0 0 0 0 0-0.1 0-0.1 0 0 0 0 0-0.1 0-0.1 0 0 0-0.1 0 0 0 0 0 0 0-0.1 0 0 0 0 0-0.1 0-0.1 0 0 0-0.1 0 0 0 0 0 0 0-0.1 0 0 0 0 0-0.1 0-0.1 0 0 0-0.1 0 0 0 0 0 0 0-0.1 0 0 0 0 0-0.1 0-0.1 0 0 0-0.1 0 0 0 0 0 0 0-0.1 0 0 0 0 0-0.1 0-0.1 0 0 0-0.1 0 0 0 0 0 0 0-0.1 0 0 0 0 0-0.1 0-0.1 0 0 0-0.1 0 0 0 0 0-0.1 0-0.1 0 0 0 0 0-0.1 0-0.1 0 0 0-0.1 0 0 0 0 0-0.1 0-0.1 0 0 0-0.1 0 0 0 0 0-0.1 0-0.1 0 0 0 0 0-0.1 0-0.1 0 0 0-0.1 0 0 0 0 0-0.1 0-0.1 0 0 0-0.1 0 0 0 0 0-0.1 0-0.1 0 0 0-0.1 0 0 0 0 0-0.1 0-0.1 0 0 0-0.1 0 0 0 0 0 0 0-0.1 0 0 0 0 0-0.1 0-0.1 0 0 0-0.1 0 0 0 0 0-0.1 0-0.1 0 0 0-0.1 0 0 0 0 0-0.1 0-0.1 0 0 0-0.1 0 0 0 0 0-0.1 0-0.1 0 0 0-0.1 0 0 0 0 0-0.1 0-0.1 0 0 0-0.1 0 0 0 0 0-0.1 0-0.1 0 0 0-0.1 0 0 0 0 0-0.1 0-0.1 0 0 0-0.1 0 0 0 0 0-0.1 0-0.1 0 0 0-0.1 0 0 0 0 0-0.1 0-0.1 0 0 0-0.1 0 0 0 0 0-0.1 0-0.1 0 0 0-0.1 0 0 0 0 0-0.1 0-0.1 0 0 0-0.1 0 0 0 0 0-0.1 0-0.1 0 0 0-0.1 0 0 0 0 0-0.1 0-0.1 0 0 0-0.1 0 0 0-0.1 0 0 0 0 0-0.1 0-0.1 0 0 0-0.1 0 0 0 0 0-0.1 0-0.1 0 0 0-0.1 0 0 0 0 0-0.1 0-0.1 0 0 0-0.1 0 0 0 0 0-0.1 0-0.1 0 0 0-0.1 0 0 0-0.1 0 0 0 0 0-0.1 0-0.1 0 0 0-0.1 0 0 0 0 0-0.1 0-0.1 0 0 0-0.1 0 0 0 0 0-0.1 0-0.1 0 0 0-0.1 0 0 0-0.1 0 0 0 0 0-0.1 0-0.1 0 0 0-0.1 0 0 0 0 0-0.1 0-0.1 0 0 0-0.1 0 0 0-0.1 0 0 0 0 0-0.1 0-0.1 0 0 0-0.1 0 0 0 0 0-0.1 0-0.1 0 0 0-0.1 0 0 0-0.1 0 0 0 0 0-0.1 0-0.1 0 0 0-0.1 0 0 0 0 0-0.1 0-0.1 0-0.1 0-0.1 0 0 0-0.1 0 0 0 0 0-0.1 0-0.1 0 0 0-0.1 0 0 0 0 0-0.1 0-0.1 0-0.1 0-0.1 0 0 0-0.1 0 0 0 0 0-0.1 0-0.1 0-0.1 0-0.1 0 0 0-0.1 0 0 0 0 0-0.1 0-0.1 0 0 0-0.1 0 0 0-0.1 0 0 0 0 0-0.1 0-0.1 0 0 0-0.1 0 0 0 0 0-0.1 0-0.1 0-0.1 0-0.1 0 0 0-0.1 0 0 0 0 0-0.1 0-0.1 0-0.1 0-0.1 0 0 0-0.1 0 0 0 0 0-0.1 0-0.1 0 0 0-0.1 0 0 0-0.1 0 0 0 0 0-0.1 0-0.1 0 0 0-0.1 0 0 0-0.1 0 0 0 0 0-0.1 0-0.1 0 0 0-0.1 0 0 0-0.1 0 0 0 0 0-0.1 0-0.1 0 0 0-0.1 0 0 0-0.1 0 0 0 0 0-0.1 0-0.1 0 0 0-0.1 0 0 0-0.1 0 0 0 0 0-0.1 0-0.1 0 0 0-0.1 0 0 0-0.1 0 0 0 0 0-0.1 0-0.1 0 0 0-0.1 0 0 0-0.1 0 0 0 0 0-0.1 0-0.1 0 0 0-0.1 0 0 0-0.1 0 0 0 0 0-0.1 0-0.1 0 0 0-0.1 0 0 0-0.1 0 0 0 0 0-0.1 0-0.1 0 0 0-0.1 0 0 0-0.1 0 0 0 0 0-0.1 0-0.1 0 0 0-0.1 0 0 0-0.1 0 0 0 0 0-0.1 0-0.1 0-0.1 0-0.1 0 0 0-0.1 0 0 0 0 0-0.1 0-0.1 0-0.1 0-0.1 0 0 0-0.1 0 0 0 0 0-0.1 0-0.1 0-0.1 0-0.1 0 0 0-0.1 0 0 0-0.1 0 0 0 0 0-0.1 0-0.1 0 0 0-0.1 0 0 0-0.1 0 0 0 0 0-0.1 0-0.1 0 0 0-0.1 0 0 0-0.1 0 0 0 0 0-0.1 0-0.1 0-0.1 0-0.1 0 0 0-0.1 0 0 0 0 0-0.1 0-0.1 0-0.1 0-0.1 0 0 0-0.1 0 0 0-0.1 0 0 0 0 0-0.1 0-0.1 0 0 0-0.1 0 0 0-0.1 0 0 0 0 0-0.1 0-0.1 0 0 0-0.1 0 0 0-0.1 0 0 0 0 0-0.1 0-0.1 0-0.1 0-0.1 0 0 0-0.1 0 0 0 0 0-0.1 0-0.1 0-0.1 0-0.1 0 0 0-0.1 0 0 0-0.1 0 0 0 0 0-0.1 0-0.1 0 0 0-0.1 0 0 0-0.1 0 0 0 0 0-0.1 0-0.1 0-0.1 0-0.1 0 0 0-0.1 0 0 0 0 0-0.1 0-0.1 0-0.1 0-0.1 0 0 0-0.1 0 0 0-0.1 0 0 0 0 0-0.1 0-0.1 0 0 0-0.1 0 0 0-0.1 0 0 0 0 0-0.1 0-0.1 0-0.1 0-0.1 0 0 0-0.1 0 0 0 0 0-0.1 0-0.1 0-0.1 0-0.1 0 0 0-0.1 0 0 0-0.1 0 0 0 0 0-0.1 0-0.1 0 0 0-0.1 0 0 0-0.1 0 0 0 0 0-0.1 0-0.1 0-0.1 0-0.1 0 0 0-0.1 0 0 0 0 0-0.1 0-0.1 0-0.1 0-0.1 0 0 0-0.1 0 0 0 0 0-0.1 0-0.1 0-0.1 0-0.1 0 0 0-0.1 0 0 0-0.1 0 0 0 0 0-0.1 0-0.1 0 0 0-0.1 0 0 0-0.1 0 0 0 0 0-0.1 0-0.1 0-0.1 0-0.1 0 0 0-0.1 0 0 0 0 0-0.1 0-0.1 0-0.1 0-0.1 0 0 0-0.1 0 0 0 0 0-0.1 0-0.1 0-0.1 0-0.1 0 0 0-0.1 0 0 0-0.1 0 0 0 0 0-0.1 0-0.1 0 0 0-0.1 0 0 0-0.1 0 0 0 0 0-0.1 0-0.1 0 0 0-0.1 0 0 0-0.1 0 0 0 0 0-0.1 0-0.1 0-0.1 0-0.1 0 0 0-0.1 0 0 0 0 0-0.1 0-0.1 0-0.1 0-0.1 0 0 0-0.1 0 0 0 0 0-0.1 0-0.1 0-0.1 0-0.1 0 0 0-0.1 0 0 0 0 0-0.1 0-0.1 0-0.1 0-0.1 0 0 0-0.1 0 0 0 0 0-0.1 0-0.1 0-0.1 0-0.1 0 0 0-0.1 0 0 0 0 0-0.1 0-0.1 0-0.1 0-0.1 0 0 0-0.1 0 0 0 0 0-0.1 0-0.1 0-0.1 0-0.1 0 0 0-0.1 0 0 0 0 0-0.1 0-0.1 0-0.1 0-0.1 0 0 0-0.1 0 0 0 0 0-0.1 0-0.1 0-0.1 0-0.1 0 0 0-0.1 0 0 0 0 0-0.1 0-0.1 0-0.1 0-0.1 0 0 0-0.1 0 0 0 0 0-0.1 0-0.1 0-0.1 0-0.1 0 0 0-0.1 0 0 0 0 0-0.1 0-0.1 0 0 0-0.1 0 0 0-0.1 0 0 0 0 0-0.1 0-0.1 0 0 0-0.1 0 0 0-0.1 0 0 0 0 0-0.1 0-0.1 0 0 0-0.1 0 0 0-0.1 0 0 0 0 0-0.1 0-0.1 0 0 0-0.1 0 0 0 0 0-0.1 0-0.1 0-0.1 0-0.1 0 0 0-0.1 0 0 0 0 0-0.1 0-0.1c0-3.9-0.1-8.1 0.3-12.2 0.3-4.1 1.3-8.2 3.6-11.8 4.7-7.2 14.7-12.3 35.6-12.3 16.7 0 26.9-4.2 32.9-9.2 5.9-5.1 7.7-11.2 7.6-15.2h0.5-0.5 0.5-0.5v-12.5z"/>
	<path id="Layer" fill-rule="evenodd" class="s6" d="m252.1 341.2h5.8l-2.4 5v12.5c0.1 4.3-1.8 10.7-8 15.9-6.2 5.3-16.6 9.5-33.5 9.5-37.5 0-56.7 5-66.6 12-4.9 3.4-7.5 7.3-8.9 11.3-1.3 4-1.5 8.1-1.5 12q0 0 0 0.1 0 0 0 0 0 0.1 0 0.1 0 0 0 0.1 0 0 0 0.1 0 0 0 0 0 0.1 0 0.1 0 0 0 0.1 0 0 0 0 0 0.1 0 0.1 0 0.1 0 0.1 0 0 0 0.1 0 0 0 0 0 0.1 0 0.1 0 0.1 0 0.1 0 0 0 0.1 0 0 0 0 0 0.1 0 0.1 0 0.1 0 0.1 0 0 0 0.1 0 0 0 0 0 0.1 0 0.1 0 0 0 0.1 0 0 0 0.1 0 0 0 0 0 0.1 0 0.1 0 0 0 0.1 0 0 0 0.1 0 0 0 0 0 0.1 0 0.1 0 0 0 0.1 0 0 0 0.1 0 0 0 0 0 0.1 0 0.1 0 0 0 0.1 0 0 0 0.1 0 0 0 0 0 0.1 0 0.1 0 0 0 0.1 0 0 0 0.1 0 0 0 0 0 0.1 0 0.1 0 0 0 0.1 0 0 0 0.1 0 0 0 0 0 0.1 0 0.1 0 0 0 0.1 0 0 0 0.1 0 0 0 0 0 0.1 0 0.1 0 0 0 0.1 0 0 0 0.1 0 0 0 0 0 0.1 0 0.1 0 0 0 0.1 0 0 0 0.1 0 0 0 0 0 0.1 0 0.1 0 0 0 0.1 0 0 0 0.1 0 0 0 0 0 0.1 0 0.1 0 0 0 0.1 0 0 0 0.1 0 0 0 0 0 0.1 0 0.1 0 0.1 0 0.1 0 0 0 0.1 0 0 0 0 0 0.1 0 0.1 0 0.1 0 0.1 0 0 0 0.1 0 0 0 0 0 0.1 0 0.1 0 0.1 0 0.1 0 0 0 0.1 0 0 0 0.1 0 0 0 0 0 0.1 0 0.1 0 0 0 0.1 0 0 0 0.1 0 0 0 0 0 0.1 0 0.1 0 0 0 0.1 0 0 0 0.1 0 0 0 0 0 0.1 0 0.1 0 0.1 0 0.1 0 0 0 0.1 0 0 0 0 0 0.1 0 0.1 0 0.1 0 0.1 0 0 0 0.1 0 0 0 0.1 0 0 0 0 0 0.1 0 0.1 0 0 0 0.1 0 0 0 0.1 0 0 0 0 0 0.1 0 0.1 0 0 0 0.1 0 0 0 0.1 0 0 0 0 0 0.1 0 0.1 0 0.1 0 0.1 0 0 0 0.1 0 0 0 0 0 0.1 0 0.1 0 0.1 0 0.1 0 0 0 0.1 0 0 0 0.1 0 0 0 0 0 0.1 0 0.1 0 0 0 0.1 0 0 0 0.1 0 0 0 0 0 0.1 0 0.1 0 0.1 0 0.1 0 0 0 0.1 0 0 0 0 0 0.1 0 0.1 0 0.1 0 0.1 0 0 0 0.1 0 0 0 0.1 0 0 0 0 0 0.1 0 0.1 0 0 0 0.1 0 0 0 0.1 0 0 0 0 0 0.1 0 0.1 0 0.1 0 0.1 0 0 0 0.1 0 0 0 0 0 0.1 0 0.1 0 0.1 0 0.1 0 0 0 0.1 0 0 0 0.1 0 0 0 0 0 0.1 0 0.1 0 0 0 0.1 0 0 0 0.1 0 0 0 0 0 0.1 0 0.1 0 0.1 0 0.1 0 0 0 0.1 0 0 0 0 0 0.1 0 0.1 0 0.1 0 0.1 0 0 0 0.1 0 0 0 0 0 0.1 0 0.1 0 0.1 0 0.1 0 0 0 0.1 0 0 0 0.1 0 0 0 0 0 0.1 0 0.1 0 0 0 0.1 0 0 0 0.1 0 0 0 0 0 0.1 0 0.1 0 0.1 0 0.1 0 0 0 0.1 0 0 0 0 0 0.1 0 0.1 0 0.1 0 0.1 0 0 0 0.1 0 0 0 0 0 0.1 0 0.1 0 0.1 0 0.1 0 0 0 0.1 0 0 0 0.1 0 0 0 0 0 0.1 0 0.1 0 0 0 0.1 0 0 0 0.1 0 0 0 0 0 0.1 0 0.1 0 0 0 0.1 0 0 0 0.1 0 0 0 0 0 0.1 0 0.1 0 0.1 0 0.1 0 0 0 0.1 0 0 0 0 0 0.1 0 0.1 0 0.1 0 0.1 0 0 0 0.1 0 0 0 0 0 0.1 0 0.1 0 0.1 0 0.1 0 0 0 0.1 0 0 0 0 0 0.1 0 0.1 0 0.1 0 0.1 0 0 0 0.1 0 0 0 0 0 0.1 0 0.1 0 0.1 0 0.1 0 0 0 0.1 0 0 0 0 0 0.1 0 0.1 0 0.1 0 0.1 0 0 0 0.1 0 0 0 0 0 0.1 0 0.1 0 0.1 0 0.1 0 0 0 0.1 0 0 0 0 0 0.1 0 0.1 0 0.1 0 0.1 0 0 0 0.1 0 0 0 0 0 0.1 0 0.1 0 0.1 0 0.1 0 0 0 0.1 0 0 0 0 0 0.1 0 0.1 0 0.1 0 0.1 0 0 0 0.1 0 0 0 0 0 0.1 0 0.1 0 0.1 0 0.1 0 0 0 0.1 0 0 0 0 0 0.1 0 0.1 0 0 0 0.1 0 0 0 0.1 0 0 0 0 0 0.1 0 0.1 0 0 0 0.1 0 0 0 0.1 0 0 0 0 0 0.1 0 0.1 0 0 0 0.1 0 0 0 0 0 0.1 0 0.1 0 0.1 0 0.1 0 0 0 0.1 0 0 0 0 0 0.1 0 0.1 0 0 0 0.1 0 0 0 0.1 0 0 0 0 0 0.1 0 0.1 0 0 0 0.1 0 0 0 0.1 0 0 0 0 0 0.1 0 0.1 0 0 0 0.1 0 0 0 0 0 0.1 0 0.1 0 0 0 0.1 0 0 0 0.1 0 0 0 0 0 0.1 0 0.1 0 0 0 0.1 0 0 0 0 0 0.1 0 0.1 0 0.1 0 0.1 0 0 0 0.1 0 0 0 0 0 0.1 0 0.1 0 0 0 0.1 0 0 0 0 0 0.1 0 0.1 0 0.1 0 0.1 0 0 0 0.1 0 0 0 0 0 0.1 0 0.1 0 0 0 0.1 0 0 0 0 0 0.1 0 0.1 0 0.1 0 0.1 0 0 0 0.1 0 0 0 0 0 0.1 0 0.1 0 0 0 0.1 0 0 0 0 0 0.1 0 0.1 0 0 0 0.1 0 0 0 0 0 0.1 0 0.1 0 0.1 0 0.1 0 0 0 0.1 0 0 0 0 0 0.1 0 0.1 0 0 0 0.1 0 0 0 0 0 0.1 0 0.1 0 0 0 0.1 0 0 0 0 0 0.1 0 0.1 0 0 0 0.1 0 0 0 0 0 0.1 0 0.1 0 0.1 0 0.1 0 0 0 0.1 0 0 0 0 0 0.1 0 0.1 0 0 0 0.1 0 0 0 0 0 0.1 0 0.1 0 0 0 0.1 0 0 0 0 0 0.1 0 0.1 0 0 0 0.1 0 0 0 0 0 0.1 0 0.1 0 0 0 0.1 0 0 0 0 0 0.1 0 0.1 0 0 0 0.1 0 0 0 0 0 0.1 0 0.1 0 0 0 0.1 0 0 0 0 0 0.1 0 0.1 0 0 0 0.1 0 0 0 0 0 0.1 0 0.1 0 0 0 0.1 0 0 0 0 0 0.1 0 0.1 0 0 0 0.1 0 0 0 0 0 0.1 0 0.1 0 0 0 0.1 0 0 0 0 0 0.1 0 0.1 0 0 0 0.1 0 0 0 0 0 0.1 0 0.1 0 0 0 0.1 0 0 0 0 0 0.1 0 0.1 0 0 0 0 0 0.1 0 0.1 0 0 0 0.1 0 0 0 0 0 0.1 0 0.1 0 0 0 0.1 0 0 0 0 0 0.1 0 0.1 0 0 0 0.1 0 0 0 0 0 0.1 0 0.1 0 0 0 0.1 0 0 0 0 0 0 0 0.1 0 0 0 0 0 0.1 0 0.1 0 0 0 0.1 0 0 0 0 0 0.1 0 0.1 0 0 0 0.1 0 0 0 0 0 0 0 0.1 0 0 0 0 0 0.1 0 0.1 0 0 0 0.1 0 0 0 0 0 0.1 0 0.1 0 0 0 0 0 0.1 0 0.1 0 0 0 0.1 0 0 0 0 0 0.1 0 0.1 0 0 0 0 0 0.1 0 0.1 0 0 0 0.1 0 0 0 0 0 0.1 0 0.1 0 0 0 0 0 0.1 0 0.1 0 0 0 0.1 0 0 0 0 0 0.1 0 0.1 0 0 0 0 0 0.1 0 0.1 0 0 0 0.1 0 0 0 0 0 0.1 0 0.1 0 0 0 0 0 0.1 0 0.1 0 0 0 0.1 0 0 0 0 0 0 0 0.1 0 0 0 0 0 0.1 0 0.1 0 0 0 0 0 0.1 0 0.1 0 0 0 0.1 0 0 0 0 0 0 0 0.1 0 0 0 0 0 0.1 0 0.1 0 0 0 0 0 0.1 0 0.1 0 0 0 0.1 0 0 0 0 0 0 0 0.1 0 0 0 0 0 0 0 0.1 0 0 0 0 0 0.1 0 0.1 0 0 0 0 0 0.1 0 0.1 0 0 0 0.1 0 0 0 0 0 0 0 0.1 0 0 0 0 0 0 0 0.1 0 0 0 0 0 0.1 0 0.1 0 0 0 0 0 0.1 0 0.1 0 0 0 0 0 0.1 0 0.1 0 0 0 0 0 0.1 0 0.1 0 0 0 0 0 0.1 0 0.1 0 0 0 0.1 0 0 0 0 0 0 0 0.1 0 0 0 0 0 0 0 0.1 0 0 0 0 0 0 0 0.1 0 0 0 0 0 0 0 0.1 0 0 0 0 0 0 0 0.1 0 0 0 0 0 0 0 0.1 0 0 0 0 0 0 0 0.1 0 0 0 0 0 0 0 0.1 0 0 0 0 0 0 0 0.1 0 0 0 0 0 0 0 0.1 0 0 0 0 0 0 0 0.1 0 0 0 0 0 0 0 0.1 0 0 0 0 0 0 0 0.1 0 0 0 0 0 0 0 0.1 0 0 0 0 0 0 0 0 0 0.1 0 0.1 0 0 0 0 0 0.1 0 0.1 0 0 0 0 0 0.1 0 0.1 0 0 0 0 0 0.1 0 0.1 0 0 0 0 0 0 0 0.1 0 0 0 0 0 0 0 0.1 0 0 0 0 0 0 0 0 0 0.1 0 0.1 0 0 0 0 0 0.1 0 0.1 0 0 0 0 0 0 0 0.1 0 0 0 0 0 0 0 0.1 0 0 0 0 0 0 0 0 0 0.1 0 0.1 0 0 0 0 0 0 0 0.1 0 0 0 0 0 0 0 0.1 0 0 0 0 0 0 0 0 0 0.1 0 0.1 0 0 0 0 0 0 0 0.1 0 0 0 0 0 0 0 0 0 0.1 0 0.1 0 0 0 0 0 0 0 0.1 0 0 0 0 0 0 0 0 0 0.1 0 0.1 0 0 0 0 0 0 0 0.1 0 0 0 0 0 0 0 0 0 0.1 0 0.1 0 0 0 0 0 0 0 0.1 0 0 0 0 0 0 0 0 0 0.1 0 0.1 0 0 0 0 0 0 0 0 0 0.1 0 0.1 0 0 0 0 0 0 0 0.1 0 0 0 0 0 0 0 0 0 0 0 0.1 0 0 0 0h-1q0 0 0 0 0-0.1 0-0.1 0 0 0 0 0 0 0 0 0-0.1 0-0.1 0 0 0 0 0 0 0-0.1 0 0 0 0 0 0 0 0 0 0 0-0.1 0 0 0 0 0 0 0 0 0-0.1 0-0.1 0 0 0 0 0 0 0-0.1 0 0 0 0 0 0 0 0 0-0.1 0-0.1 0 0 0 0 0 0 0-0.1 0 0 0 0 0 0 0 0 0-0.1 0-0.1 0 0 0 0 0 0 0-0.1 0 0 0 0 0 0 0 0 0-0.1 0-0.1 0 0 0 0 0 0 0-0.1 0 0 0 0 0 0 0 0 0-0.1 0-0.1 0 0 0 0 0-0.1 0-0.1 0 0 0 0 0 0 0-0.1 0 0 0 0 0 0 0 0 0-0.1 0-0.1 0 0 0 0 0-0.1 0-0.1 0 0 0 0 0 0 0-0.1 0 0 0 0 0 0 0-0.1 0 0 0 0 0 0 0 0 0-0.1 0-0.1 0 0 0 0 0-0.1 0-0.1 0 0 0 0 0 0 0-0.1 0 0 0 0 0 0 0-0.1 0 0 0 0 0 0 0-0.1 0 0 0 0 0 0 0-0.1 0 0 0 0 0 0 0 0 0-0.1 0-0.1 0 0 0 0 0-0.1 0-0.1 0 0 0 0 0-0.1 0-0.1 0 0 0 0 0-0.1 0-0.1 0 0 0 0 0-0.1 0-0.1 0 0 0 0 0-0.1 0-0.1 0 0 0 0 0-0.1 0-0.1 0 0 0 0 0-0.1 0-0.1 0 0 0 0 0-0.1 0-0.1 0 0 0 0 0-0.1 0-0.1 0 0 0 0 0-0.1 0-0.1 0 0 0 0 0-0.1 0-0.1 0 0 0 0 0-0.1 0-0.1 0 0 0 0 0-0.1 0-0.1 0 0 0 0 0-0.1 0-0.1 0 0 0-0.1 0 0 0 0 0 0 0-0.1 0 0 0 0 0 0 0-0.1 0 0 0 0 0 0 0-0.1 0 0 0 0 0 0 0-0.1 0 0 0 0 0-0.1 0-0.1 0 0 0 0 0-0.1 0-0.1 0 0 0 0 0-0.1 0-0.1 0 0 0-0.1 0 0 0 0 0 0 0-0.1 0 0 0 0 0-0.1 0-0.1 0 0 0 0 0-0.1 0-0.1 0 0 0 0 0-0.1 0-0.1 0 0 0-0.1 0 0 0 0 0 0 0-0.1 0 0 0 0 0-0.1 0-0.1 0 0 0 0 0-0.1 0-0.1 0 0 0-0.1 0 0 0 0 0 0 0-0.1 0 0 0 0 0-0.1 0-0.1 0 0 0 0 0-0.1 0-0.1 0 0 0-0.1 0 0 0 0 0 0 0-0.1 0 0 0 0 0-0.1 0-0.1 0 0 0-0.1 0 0 0 0 0 0 0-0.1 0 0 0 0 0-0.1 0-0.1 0 0 0-0.1 0 0 0 0 0 0 0-0.1 0 0 0 0 0-0.1 0-0.1 0 0 0-0.1 0 0 0 0 0 0 0-0.1 0 0 0 0 0-0.1 0-0.1 0 0 0-0.1 0 0 0 0 0 0 0-0.1 0 0 0 0 0-0.1 0-0.1 0 0 0-0.1 0 0 0 0 0-0.1 0-0.1 0 0 0 0 0-0.1 0-0.1 0 0 0-0.1 0 0 0 0 0-0.1 0-0.1 0 0 0-0.1 0 0 0 0 0-0.1 0-0.1 0 0 0 0 0-0.1 0-0.1 0 0 0-0.1 0 0 0 0 0-0.1 0-0.1 0 0 0-0.1 0 0 0 0 0-0.1 0-0.1 0 0 0-0.1 0 0 0 0 0-0.1 0-0.1 0 0 0-0.1 0 0 0 0 0 0 0-0.1 0 0 0 0 0-0.1 0-0.1 0 0 0-0.1 0 0 0 0 0-0.1 0-0.1 0 0 0-0.1 0 0 0 0 0-0.1 0-0.1 0 0 0-0.1 0 0 0 0 0-0.1 0-0.1 0 0 0-0.1 0 0 0 0 0-0.1 0-0.1 0 0 0-0.1 0 0 0 0 0-0.1 0-0.1 0 0 0-0.1 0 0 0 0 0-0.1 0-0.1 0 0 0-0.1 0 0 0 0 0-0.1 0-0.1 0 0 0-0.1 0 0 0 0 0-0.1 0-0.1 0 0 0-0.1 0 0 0 0 0-0.1 0-0.1 0 0 0-0.1 0 0 0 0 0-0.1 0-0.1 0 0 0-0.1 0 0 0 0 0-0.1 0-0.1 0 0 0-0.1 0 0 0 0 0-0.1 0-0.1 0 0 0-0.1 0 0 0-0.1 0 0 0 0 0-0.1 0-0.1 0 0 0-0.1 0 0 0 0 0-0.1 0-0.1 0 0 0-0.1 0 0 0 0 0-0.1 0-0.1 0 0 0-0.1 0 0 0 0 0-0.1 0-0.1 0 0 0-0.1 0 0 0-0.1 0 0 0 0 0-0.1 0-0.1 0 0 0-0.1 0 0 0 0 0-0.1 0-0.1 0 0 0-0.1 0 0 0 0 0-0.1 0-0.1 0 0 0-0.1 0 0 0-0.1 0 0 0 0 0-0.1 0-0.1 0 0 0-0.1 0 0 0 0 0-0.1 0-0.1 0 0 0-0.1 0 0 0-0.1 0 0 0 0 0-0.1 0-0.1 0 0 0-0.1 0 0 0 0 0-0.1 0-0.1 0 0 0-0.1 0 0 0-0.1 0 0 0 0 0-0.1 0-0.1 0 0 0-0.1 0 0 0 0 0-0.1 0-0.1 0-0.1 0-0.1 0 0 0-0.1 0 0 0 0 0-0.1 0-0.1 0 0 0-0.1 0 0 0 0 0-0.1 0-0.1 0-0.1 0-0.1 0 0 0-0.1 0 0 0 0 0-0.1 0-0.1 0-0.1 0-0.1 0 0 0-0.1 0 0 0 0 0-0.1 0-0.1 0 0 0-0.1 0 0 0-0.1 0 0 0 0 0-0.1 0-0.1 0 0 0-0.1 0 0 0 0 0-0.1 0-0.1 0-0.1 0-0.1 0 0 0-0.1 0 0 0 0 0-0.1 0-0.1 0-0.1 0-0.1 0 0 0-0.1 0 0 0 0 0-0.1 0-0.1 0 0 0-0.1 0 0 0-0.1 0 0 0 0 0-0.1 0-0.1 0 0 0-0.1 0 0 0-0.1 0 0 0 0 0-0.1 0-0.1 0 0 0-0.1 0 0 0-0.1 0 0 0 0 0-0.1 0-0.1 0 0 0-0.1 0 0 0-0.1 0 0 0 0 0-0.1 0-0.1 0 0 0-0.1 0 0 0-0.1 0 0 0 0 0-0.1 0-0.1 0 0 0-0.1 0 0 0-0.1 0 0 0 0 0-0.1 0-0.1 0 0 0-0.1 0 0 0-0.1 0 0 0 0 0-0.1 0-0.1 0 0 0-0.1 0 0 0-0.1 0 0 0 0 0-0.1 0-0.1 0 0 0-0.1 0 0 0-0.1 0 0 0 0 0-0.1 0-0.1 0 0 0-0.1 0 0 0-0.1 0 0 0 0 0-0.1 0-0.1 0 0 0-0.1 0 0 0-0.1 0 0 0 0 0-0.1 0-0.1 0-0.1 0-0.1 0 0 0-0.1 0 0 0 0 0-0.1 0-0.1 0-0.1 0-0.1 0 0 0-0.1 0 0 0 0 0-0.1 0-0.1 0-0.1 0-0.1 0 0 0-0.1 0 0 0-0.1 0 0 0 0 0-0.1 0-0.1 0 0 0-0.1 0 0 0-0.1 0 0 0 0 0-0.1 0-0.1 0 0 0-0.1 0 0 0-0.1 0 0 0 0 0-0.1 0-0.1 0-0.1 0-0.1 0 0 0-0.1 0 0 0 0 0-0.1 0-0.1 0-0.1 0-0.1 0 0 0-0.1 0 0 0-0.1 0 0 0 0 0-0.1 0-0.1 0 0 0-0.1 0 0 0-0.1 0 0 0 0 0-0.1 0-0.1 0 0 0-0.1 0 0 0-0.1 0 0 0 0 0-0.1 0-0.1 0-0.1 0-0.1 0 0 0-0.1 0 0 0 0 0-0.1 0-0.1 0-0.1 0-0.1 0 0 0-0.1 0 0 0-0.1 0 0 0 0 0-0.1 0-0.1 0 0 0-0.1 0 0 0-0.1 0 0 0 0 0-0.1 0-0.1 0-0.1 0-0.1 0 0 0-0.1 0 0 0 0 0-0.1 0-0.1 0-0.1 0-0.1 0 0 0-0.1 0 0 0-0.1 0 0 0 0 0-0.1 0-0.1 0 0 0-0.1 0 0 0-0.1 0 0 0 0 0-0.1 0-0.1 0-0.1 0-0.1 0 0 0-0.1 0 0 0 0 0-0.1 0-0.1 0-0.1 0-0.1 0 0 0-0.1 0 0 0-0.1 0 0 0 0 0-0.1 0-0.1 0 0 0-0.1 0 0 0-0.1 0 0 0 0 0-0.1 0-0.1 0-0.1 0-0.1 0 0 0-0.1 0 0 0 0 0-0.1 0-0.1 0-0.1 0-0.1 0 0 0-0.1 0 0 0 0 0-0.1 0-0.1 0-0.1 0-0.1 0 0 0-0.1 0 0 0-0.1 0 0 0 0 0-0.1 0-0.1 0 0 0-0.1 0 0 0-0.1 0 0 0 0 0-0.1 0-0.1 0-0.1 0-0.1 0 0 0-0.1 0 0 0 0 0-0.1 0-0.1 0-0.1 0-0.1 0 0 0-0.1 0 0 0 0 0-0.1 0-0.1 0-0.1 0-0.1 0 0 0-0.1 0 0 0-0.1 0 0 0 0 0-0.1 0-0.1 0 0 0-0.1 0 0 0-0.1 0 0 0 0 0-0.1 0-0.1 0 0 0-0.1 0 0 0-0.1 0 0 0 0 0-0.1 0-0.1 0-0.1 0-0.1 0 0 0-0.1 0 0 0 0 0-0.1 0-0.1 0-0.1 0-0.1 0 0 0-0.1 0 0 0 0 0-0.1 0-0.1 0-0.1 0-0.1 0 0 0-0.1 0 0 0 0 0-0.1 0-0.1 0-0.1 0-0.1 0 0 0-0.1 0 0 0 0 0-0.1 0-0.1 0-0.1 0-0.1 0 0 0-0.1 0 0 0 0 0-0.1 0-0.1 0-0.1 0-0.1 0 0 0-0.1 0 0 0 0 0-0.1 0-0.1 0-0.1 0-0.1 0 0 0-0.1 0 0 0 0 0-0.1 0-0.1 0-0.1 0-0.1 0 0 0-0.1 0 0 0 0 0-0.1 0-0.1 0-0.1 0-0.1 0 0 0-0.1 0 0 0 0 0-0.1 0-0.1 0-0.1 0-0.1 0 0 0-0.1 0 0 0 0 0-0.1 0-0.1 0-0.1 0-0.1 0 0 0-0.1 0 0 0 0 0-0.1 0-0.1 0 0 0-0.1 0 0 0-0.1 0 0 0 0 0-0.1 0-0.1 0 0 0-0.1 0 0 0-0.1 0 0 0 0 0-0.1 0-0.1 0 0 0-0.1 0 0 0-0.1 0 0 0 0 0-0.1 0-0.1 0 0 0-0.1 0 0 0 0 0-0.1 0-0.1 0-0.1 0-0.1 0 0 0-0.1 0 0 0 0 0-0.1 0-0.1c0-3.9 0.2-8.1 1.6-12.3 1.4-4.2 4.2-8.3 9.2-11.9 10.2-7.1 29.7-12.1 67.2-12.1 16.7 0 26.9-4.2 32.9-9.2 5.9-5.1 7.7-11.2 7.6-15.2h0.5-0.5 0.5-0.5v-12.5z"/>
	<path id="Layer" class="s5" d="m348 310.5c0-6.9 5.6-12.5 12.5-12.5h54c6.9 0 12.5 5.6 12.5 12.5 0 6.9-5.6 12.5-12.5 12.5h-54c-6.9 0-12.5-5.6-12.5-12.5z"/>
	<path id="Layer" fill-rule="evenodd" class="s3" d="m365.6 315.1q-0.8 0-1.4-0.3-0.7-0.3-1-0.8-0.3-0.5-0.3-1.3h1q0 0.7 0.5 1.1 0.4 0.3 1.2 0.3 0.8 0 1.2-0.3 0.5-0.4 0.5-1.1 0-0.5-0.3-0.9-0.3-0.4-0.8-0.5l-1.2-0.4q-0.9-0.3-1.4-0.9-0.5-0.7-0.5-1.6 0-0.7 0.3-1.2 0.3-0.5 0.9-0.8 0.6-0.3 1.4-0.3 1.1 0 1.8 0.7 0.7 0.6 0.7 1.7h-1.1q0-0.7-0.3-1-0.4-0.4-1.1-0.4-0.7 0-1.1 0.3-0.4 0.4-0.4 1 0 0.5 0.3 0.9 0.3 0.4 0.8 0.6l1.2 0.3q0.9 0.3 1.4 1 0.4 0.6 0.4 1.5 0 0.7-0.3 1.3-0.3 0.5-0.9 0.8-0.6 0.3-1.5 0.3zm7.2 0q-0.8 0-1.4-0.3-0.5-0.3-0.9-0.9-0.3-0.5-0.3-1.3v-1.8q0-0.8 0.3-1.3 0.4-0.6 0.9-0.9 0.6-0.3 1.4-0.3 0.8 0 1.4 0.3 0.5 0.3 0.9 0.9 0.3 0.5 0.3 1.3v1.2h-4.1v0.6q0 0.8 0.4 1.2 0.4 0.4 1.1 0.4 0.6 0 1-0.2 0.4-0.2 0.5-0.7h1.1q-0.2 0.8-0.9 1.3-0.7 0.5-1.7 0.5zm1.6-4h-0.1v0.1zm-0.1-0.3q0-0.8-0.4-1.2-0.3-0.4-1.1-0.4-0.7 0-1.1 0.4-0.4 0.4-0.4 1.2v0.3h3zm3.4 4.2v-6.6h1.1v1.2q0.1-0.4 0.4-0.7 0.4-0.6 1.3-0.6 1.1 0 1.7 0.7 0.6 0.6 0.6 1.7v0.4h-1.1v-0.3q0-0.7-0.3-1.1-0.4-0.5-1.1-0.5-0.7 0-1.1 0.5-0.4 0.4-0.4 1.1v4.2zm1.1-5.4q-0.1 0.4-0.1 0.9l0.3-0.8h-0.2zm7.6 5.4l-2.2-6.6h1.1l1.5 4.5q0.1 0.4 0.2 0.7 0.2 0.4 0.2 0.6 0.1-0.2 0.2-0.6 0.1-0.3 0.2-0.7l1.4-4.5h1.1l-2.2 6.6zm5.4 0v-1h2.3v-4.6h-2v-1h3.1v5.6h2.2v1zm2.8-7.8q-0.4 0-0.7-0.2-0.2-0.2-0.2-0.5 0-0.4 0.2-0.6 0.3-0.2 0.7-0.2 0.4 0 0.6 0.2 0.2 0.2 0.2 0.6 0 0.3-0.2 0.5-0.2 0.2-0.6 0.2zm7 8q-0.8 0-1.4-0.3-0.6-0.3-0.9-0.9-0.3-0.6-0.3-1.4v-1.8q0-0.8 0.3-1.3 0.3-0.6 0.9-0.9 0.6-0.3 1.4-0.3 1.2 0 1.9 0.6 0.7 0.6 0.7 1.7h-1.1q0-0.6-0.4-1-0.4-0.3-1.1-0.3-0.7 0-1.1 0.4-0.4 0.4-0.4 1.1v1.8q0 0.8 0.4 1.2 0.4 0.4 1.1 0.4 0.7 0 1.1-0.4 0.4-0.3 0.4-0.9h1.1q0 1-0.7 1.6-0.7 0.7-1.9 0.7zm7.2 0q-0.8 0-1.4-0.4-0.6-0.3-0.9-0.8-0.3-0.6-0.3-1.4v-1.8q0-0.7 0.3-1.3 0.3-0.6 0.9-0.9 0.6-0.3 1.4-0.3 0.8 0 1.3 0.3 0.6 0.3 0.9 0.9 0.4 0.6 0.4 1.3v1.2h-4.2v0.6q0 0.8 0.4 1.2 0.4 0.4 1.2 0.4 0.6 0 1-0.2 0.4-0.2 0.4-0.6h1.1q-0.1 0.8-0.8 1.3-0.7 0.5-1.7 0.5zm1.6-4h-0.1v0.1zm-0.1-0.4q0-0.8-0.4-1.2-0.4-0.4-1.1-0.4-0.7 0-1.1 0.4-0.4 0.4-0.4 1.2v0.4h3z"/>
	<path id="Layer" class="s6" d="m215 317.5c0-6.9 5.6-12.5 12.5-12.5h54c6.9 0 12.5 5.6 12.5 12.5 0 6.9-5.6 12.5-12.5 12.5h-54c-6.9 0-12.5-5.6-12.5-12.5z"/>
	<path id="Layer" fill-rule="evenodd" class="s3" d="m232.6 322.1q-0.8 0-1.4-0.3-0.7-0.3-1-0.8-0.3-0.5-0.3-1.3h1q0 0.7 0.5 1.1 0.4 0.3 1.2 0.3 0.8 0 1.2-0.3 0.5-0.4 0.5-1.1 0-0.5-0.3-0.9-0.3-0.4-0.8-0.5l-1.2-0.4q-0.9-0.3-1.4-0.9-0.5-0.7-0.5-1.6 0-0.7 0.3-1.2 0.3-0.5 0.9-0.8 0.6-0.3 1.4-0.3 1.1 0 1.8 0.7 0.7 0.6 0.7 1.7h-1.1q0-0.7-0.3-1-0.4-0.4-1.1-0.4-0.7 0-1.1 0.3-0.4 0.4-0.4 1 0 0.5 0.3 0.9 0.3 0.4 0.8 0.6l1.2 0.3q0.9 0.3 1.4 1 0.4 0.6 0.4 1.5 0 0.7-0.3 1.3-0.3 0.5-0.9 0.8-0.6 0.3-1.5 0.3zm7.2 0q-0.8 0-1.4-0.3-0.5-0.3-0.9-0.9-0.3-0.5-0.3-1.3v-1.8q0-0.8 0.3-1.3 0.4-0.6 0.9-0.9 0.6-0.3 1.4-0.3 0.8 0 1.4 0.3 0.5 0.3 0.9 0.9 0.3 0.5 0.3 1.3v1.2h-4.1v0.6q0 0.8 0.4 1.2 0.4 0.4 1.1 0.4 0.6 0 1-0.2 0.4-0.2 0.5-0.7h1.1q-0.2 0.8-0.9 1.3-0.7 0.5-1.7 0.5zm1.6-4h-0.1v0.1zm-0.1-0.3q0-0.8-0.4-1.2-0.3-0.4-1.1-0.4-0.7 0-1.1 0.4-0.4 0.4-0.4 1.2v0.3h3zm3.4 4.2v-6.6h1.1v1.2q0.1-0.4 0.4-0.7 0.4-0.6 1.3-0.6 1.1 0 1.7 0.7 0.6 0.6 0.6 1.7v0.4h-1.1v-0.3q0-0.7-0.3-1.1-0.4-0.5-1.1-0.5-0.7 0-1.1 0.5-0.4 0.4-0.4 1.1v4.2zm1.1-5.4q-0.1 0.4-0.1 0.9l0.3-0.8h-0.2zm7.7 5.4l-2.3-6.6h1.1l1.5 4.5q0.1 0.4 0.3 0.7 0.1 0.4 0.1 0.6 0.1-0.2 0.2-0.6 0.1-0.3 0.2-0.7l1.4-4.5h1.1l-2.2 6.6zm5.4 0v-1h2.3v-4.6h-2v-1h3.1v5.6h2.2v1zm2.8-7.8q-0.4 0-0.7-0.2-0.2-0.2-0.2-0.5 0-0.4 0.2-0.6 0.3-0.2 0.7-0.2 0.4 0 0.6 0.2 0.2 0.2 0.2 0.6 0 0.3-0.2 0.5-0.2 0.2-0.6 0.2zm7 8q-0.8 0-1.4-0.3-0.6-0.3-0.9-0.9-0.3-0.6-0.3-1.4v-1.8q0-0.8 0.3-1.3 0.3-0.6 0.9-0.9 0.6-0.3 1.4-0.3 1.2 0 1.9 0.6 0.7 0.6 0.7 1.7h-1.1q0-0.6-0.4-1-0.4-0.3-1.1-0.3-0.7 0-1.1 0.4-0.4 0.4-0.4 1.1v1.8q0 0.8 0.4 1.2 0.4 0.4 1.1 0.4 0.7 0 1.1-0.4 0.4-0.3 0.4-0.9h1.1q0 1-0.7 1.6-0.7 0.7-1.9 0.7zm7.2 0q-0.8 0-1.4-0.4-0.6-0.3-0.9-0.8-0.3-0.6-0.3-1.4v-1.8q0-0.7 0.3-1.3 0.3-0.6 0.9-0.9 0.6-0.3 1.4-0.3 0.8 0 1.3 0.3 0.6 0.3 0.9 0.9 0.4 0.6 0.4 1.3v1.2h-4.2v0.6q0 0.8 0.4 1.2 0.4 0.4 1.2 0.4 0.6 0 1-0.2 0.4-0.2 0.4-0.6h1.1q-0.1 0.8-0.8 1.3-0.7 0.5-1.7 0.5zm1.6-4h-0.1v0.1zm-0.1-0.4q0-0.8-0.4-1.2-0.4-0.4-1.1-0.4-0.7 0-1.1 0.4-0.4 0.4-0.4 1.2v0.4h3z"/>
	<path id="Layer" class="s5" d="m175.5 437.9c6.9 0 12.5 5.6 12.5 12.5v54c0 6.9-5.6 12.5-12.5 12.5-6.9 0-12.5-5.6-12.5-12.5v-54c0-6.9 5.6-12.5 12.5-12.5z"/>
	<path id="Layer" fill-rule="evenodd" class="s3" d="m170.9 455.6q0-0.9 0.3-1.5 0.3-0.6 0.8-1 0.5-0.3 1.3-0.3v1q-0.7 0-1.1 0.5-0.3 0.4-0.3 1.3 0 0.7 0.3 1.1 0.4 0.5 1.1 0.5 0.5 0 0.9-0.3 0.4-0.3 0.5-0.8l0.4-1.2q0.3-0.9 0.9-1.4 0.7-0.5 1.6-0.5 0.7 0 1.2 0.3 0.5 0.3 0.8 0.9 0.3 0.6 0.3 1.4 0 1.1-0.7 1.8-0.6 0.7-1.7 0.7v-1q0.7 0 1-0.4 0.4-0.4 0.4-1.1 0-0.7-0.3-1.1-0.4-0.4-1-0.4-0.5 0-0.9 0.3-0.4 0.3-0.6 0.8l-0.3 1.2q-0.3 0.9-1 1.4-0.6 0.4-1.5 0.4-0.7 0-1.3-0.3-0.5-0.3-0.8-0.9-0.3-0.6-0.3-1.4zm0 7.1q0-0.8 0.3-1.4 0.3-0.5 0.9-0.9 0.5-0.3 1.3-0.3h1.8q0.8 0 1.3 0.3 0.6 0.4 0.9 0.9 0.3 0.6 0.3 1.4 0 0.8-0.3 1.4-0.3 0.5-0.9 0.9-0.5 0.3-1.3 0.3h-1.2v-4.1h-0.6q-0.8 0-1.2 0.4-0.4 0.4-0.4 1.1 0 0.6 0.2 1 0.2 0.4 0.7 0.5v1.1q-0.8-0.2-1.3-0.9-0.5-0.7-0.5-1.7zm4 1.6v-0.1h-0.1zm0.3-0.1q0.8 0 1.2-0.4 0.4-0.3 0.4-1.1 0-0.7-0.4-1.1-0.4-0.4-1.2-0.4h-0.3v3zm-4.2 3.4h6.6v1.1h-1.2q0.4 0.1 0.7 0.4 0.6 0.4 0.6 1.3 0 1.1-0.7 1.7-0.6 0.6-1.7 0.6h-0.4v-1.1h0.3q0.7 0 1.1-0.3 0.5-0.4 0.5-1.1 0-0.7-0.5-1.1-0.4-0.4-1.1-0.4h-4.2zm5.4 1.1q-0.4-0.1-0.9-0.1l0.8 0.3v-0.2zm-5.4 7.7l6.6-2.3v1.2l-4.5 1.4q-0.4 0.1-0.7 0.3-0.4 0.1-0.6 0.1 0.2 0.1 0.6 0.2 0.3 0.1 0.7 0.2l4.5 1.4v1.1l-6.6-2.2zm0 5.4h1v2.3h4.6v-2h1v3.1h-5.6v2.2h-1zm7.8 2.8q0-0.4 0.2-0.7 0.2-0.2 0.5-0.2 0.4 0 0.6 0.2 0.2 0.3 0.2 0.7 0 0.4-0.2 0.6-0.2 0.2-0.6 0.2-0.3 0-0.5-0.2-0.2-0.2-0.2-0.6zm-8 7q0-0.8 0.3-1.4 0.3-0.6 0.9-0.9 0.6-0.3 1.4-0.3h1.8q0.8 0 1.3 0.3 0.6 0.3 0.9 0.9 0.3 0.6 0.3 1.4 0 1.2-0.6 1.9-0.6 0.7-1.7 0.7v-1.1q0.6 0 1-0.4 0.3-0.4 0.3-1.1 0-0.7-0.4-1.1-0.4-0.4-1.1-0.4h-1.8q-0.8 0-1.2 0.4-0.4 0.4-0.4 1.1 0 0.7 0.4 1.1 0.3 0.4 0.9 0.4v1.1q-1 0-1.6-0.7-0.7-0.7-0.7-1.9zm0 7.2q0-0.8 0.4-1.4 0.3-0.6 0.8-0.9 0.6-0.3 1.4-0.3h1.8q0.7 0 1.3 0.3 0.6 0.3 0.9 0.9 0.3 0.6 0.3 1.4 0 0.8-0.3 1.3-0.3 0.6-0.9 0.9-0.6 0.4-1.3 0.4h-1.2v-4.1h-0.6q-0.8 0-1.2 0.3-0.4 0.4-0.4 1.2 0 0.6 0.2 1 0.2 0.4 0.6 0.5v1q-0.8-0.1-1.3-0.8-0.5-0.7-0.5-1.7zm4 1.6v-0.1h-0.1zm0.4-0.1q0.8 0 1.2-0.4 0.4-0.4 0.4-1.1 0-0.7-0.4-1.1-0.4-0.4-1.2-0.4h-0.4v3z"/>
	<path id="Layer" class="s6" d="m141.5 437.9c6.9 0 12.5 5.6 12.5 12.5v54c0 6.9-5.6 12.5-12.5 12.5-6.9 0-12.5-5.6-12.5-12.5v-54c0-6.9 5.6-12.5 12.5-12.5z"/>
	<path id="Layer" fill-rule="evenodd" class="s3" d="m136.9 455.6q0-0.9 0.3-1.5 0.3-0.6 0.8-1 0.5-0.3 1.3-0.3v1q-0.7 0-1.1 0.5-0.3 0.4-0.3 1.3 0 0.7 0.3 1.1 0.4 0.5 1.1 0.5 0.5 0 0.9-0.3 0.4-0.3 0.5-0.8l0.4-1.2q0.3-0.9 0.9-1.4 0.7-0.5 1.6-0.5 0.7 0 1.2 0.3 0.5 0.3 0.8 0.9 0.3 0.6 0.3 1.4 0 1.1-0.7 1.8-0.6 0.7-1.7 0.7v-1q0.7 0 1-0.4 0.4-0.4 0.4-1.1 0-0.7-0.3-1.1-0.4-0.4-1-0.4-0.5 0-0.9 0.3-0.4 0.3-0.6 0.8l-0.3 1.2q-0.3 0.9-1 1.4-0.6 0.4-1.5 0.4-0.7 0-1.3-0.3-0.5-0.3-0.8-0.9-0.3-0.6-0.3-1.4zm0 7.1q0-0.8 0.3-1.4 0.3-0.5 0.9-0.9 0.5-0.3 1.3-0.3h1.8q0.8 0 1.3 0.3 0.6 0.4 0.9 0.9 0.3 0.6 0.3 1.4 0 0.8-0.3 1.4-0.3 0.5-0.9 0.9-0.5 0.3-1.3 0.3h-1.2v-4.1h-0.6q-0.8 0-1.2 0.4-0.4 0.4-0.4 1.1 0 0.6 0.2 1 0.2 0.4 0.7 0.5v1.1q-0.8-0.2-1.3-0.9-0.5-0.7-0.5-1.7zm4 1.6v-0.1h-0.1zm0.3-0.1q0.8 0 1.2-0.4 0.4-0.3 0.4-1.1 0-0.7-0.4-1.1-0.4-0.4-1.2-0.4h-0.3v3zm-4.2 3.4h6.6v1.1h-1.2q0.4 0.1 0.7 0.4 0.6 0.4 0.6 1.3 0 1.1-0.7 1.7-0.6 0.6-1.7 0.6h-0.4v-1.1h0.3q0.7 0 1.1-0.3 0.5-0.4 0.5-1.1 0-0.7-0.5-1.1-0.4-0.4-1.1-0.4h-4.2zm5.4 1.1q-0.4-0.1-0.9-0.1l0.8 0.3v-0.2zm-5.4 7.7l6.6-2.3v1.2l-4.5 1.4q-0.4 0.1-0.7 0.3-0.4 0.1-0.6 0.1 0.2 0.1 0.6 0.2 0.3 0.1 0.7 0.2l4.5 1.4v1.1l-6.6-2.2zm0 5.4h1v2.3h4.6v-2h1v3.1h-5.6v2.2h-1zm7.8 2.8q0-0.4 0.2-0.7 0.2-0.2 0.5-0.2 0.4 0 0.6 0.2 0.2 0.3 0.2 0.7 0 0.4-0.2 0.6-0.2 0.2-0.6 0.2-0.3 0-0.5-0.2-0.2-0.2-0.2-0.6zm-8 7q0-0.8 0.3-1.4 0.3-0.6 0.9-0.9 0.6-0.3 1.4-0.3h1.8q0.8 0 1.3 0.3 0.6 0.3 0.9 0.9 0.3 0.6 0.3 1.4 0 1.2-0.6 1.9-0.6 0.7-1.7 0.7v-1.1q0.6 0 1-0.4 0.3-0.4 0.3-1.1 0-0.7-0.4-1.1-0.4-0.4-1.1-0.4h-1.8q-0.8 0-1.2 0.4-0.4 0.4-0.4 1.1 0 0.7 0.4 1.1 0.3 0.4 0.9 0.4v1.1q-1 0-1.6-0.7-0.7-0.7-0.7-1.9zm0 7.2q0-0.8 0.4-1.4 0.3-0.6 0.8-0.9 0.6-0.3 1.4-0.3h1.8q0.7 0 1.3 0.3 0.6 0.3 0.9 0.9 0.3 0.6 0.3 1.4 0 0.8-0.3 1.3-0.3 0.6-0.9 0.9-0.6 0.4-1.3 0.4h-1.2v-4.1h-0.6q-0.8 0-1.2 0.3-0.4 0.4-0.4 1.2 0 0.6 0.2 1 0.2 0.4 0.6 0.5v1q-0.8-0.1-1.3-0.8-0.5-0.7-0.5-1.7zm4 1.6v-0.1h-0.1zm0.4-0.1q0.8 0 1.2-0.4 0.4-0.4 0.4-1.1 0-0.7-0.4-1.1-0.4-0.4-1.2-0.4h-0.4v3z"/>
</svg>