<svg width="107" height="107" viewBox="0 0 107 107" fill="none" xmlns="http://www.w3.org/2000/svg">
<g filter="url(#filter0_d_375_4694)">
<rect x="11" y="7" width="85" height="85" rx="16" fill="white"/>
<rect x="12" y="8" width="83" height="83" rx="15" stroke="url(#paint0_linear_375_4694)" stroke-width="2"/>
</g>
<path d="M51.6454 30.1697C52.6385 29.5936 54.2485 29.5936 55.2415 30.1697L80.2016 44.6503C80.6981 44.9383 80.6981 45.4053 80.2016 45.6934L53.4435 61.2171L27.1348 45.9542C26.39 45.5221 26.39 44.8216 27.1348 44.3895L51.6454 30.1697Z" fill="black"/>
<path fill-rule="evenodd" clip-rule="evenodd" d="M50.7464 29.6481C52.236 28.784 54.651 28.784 56.1405 29.6481L81.1006 44.1287C82.0936 44.7048 82.0936 45.6388 81.1006 46.2149L53.4435 62.2602L26.2358 46.4757C24.9945 45.7556 24.9945 44.5881 26.2358 43.8679L50.7464 29.6481ZM54.3425 30.6912C53.8459 30.4032 53.041 30.4032 52.5444 30.6912L28.0338 44.911C27.7856 45.0551 27.7856 45.2886 28.0338 45.4326L53.4435 60.174L79.3026 45.1718L54.3425 30.6912Z" fill="white"/>
<path d="M25.8986 46.2047C25.8986 45.6342 26.3011 45.4053 26.7976 45.6934L53.5558 61.2171V68.2068C53.5558 68.7773 53.1533 69.0062 52.6568 68.7182L26.7976 53.716C26.3011 53.4279 25.8986 52.732 25.8986 52.1615L25.8986 46.2047Z" fill="black"/>
<path fill-rule="evenodd" clip-rule="evenodd" d="M25 45.6831C25 44.5422 25.805 44.0843 26.798 44.6604L54.4552 60.7057V68.7283C54.4552 69.8693 53.6502 70.3272 52.6572 69.7511L26.798 54.7489C25.805 54.1728 25 52.7809 25 51.64L25 45.6831ZM52.6572 61.7284L26.798 46.7263L26.798 52.6831L52.6572 67.6852V61.7284Z" fill="white"/>
<path d="M53.4435 61.2171L80.2016 45.6934C80.6981 45.4053 81.1006 45.6343 81.1006 46.2047V52.1615C81.1006 52.732 80.6981 53.428 80.2016 53.716L54.3425 68.7182C53.846 69.0062 53.4435 68.7773 53.4435 68.2068V61.2171Z" fill="black"/>
<path fill-rule="evenodd" clip-rule="evenodd" d="M52.5448 60.7057L80.202 44.6605C81.195 44.0844 82 44.5422 82 45.6832V51.64C82 52.7809 81.195 54.1728 80.202 54.7489L54.3428 69.7511C53.3498 70.3272 52.5448 69.8693 52.5448 68.7284V60.7057ZM54.3428 61.7284V67.6853L80.202 52.6831V46.7263L54.3428 61.7284Z" fill="white"/>
<path d="M39.803 40.6427L46.4405 36.8422L47.4158 37.4006L41.6813 40.684L42.9727 41.4234L42.0697 41.9405L39.803 40.6427Z" fill="white"/>
<path d="M42.5115 42.1935L49.149 38.393L51.3796 39.6702L50.3772 40.2441L49.122 39.5254L47.3339 40.5492L48.2369 41.0662L47.2616 41.6247L46.3586 41.1076L44.4892 42.178L45.7445 42.8967L44.7421 43.4706L42.5115 42.1935Z" fill="white"/>
<path d="M46.2967 44.3608L51.9228 39.9812L52.871 40.5241L49.4394 43.0474L48.8343 43.4352L48.8885 43.4662L49.5658 43.1198L53.9728 41.1549L54.921 41.6978L47.272 44.9192L46.2967 44.3608Z" fill="white"/>
<path d="M48.828 45.8101L55.4656 42.0097L56.4409 42.5681L49.8033 46.3686L48.828 45.8101Z" fill="white"/>
<path d="M51.2255 47.1828L56.8606 43.9563L55.9395 43.4289L56.9419 42.855L59.7595 44.4682L58.7571 45.0422L57.836 44.5148L52.2008 47.7413L51.2255 47.1828Z" fill="white"/>
<path d="M52.9659 48.1794L60.6059 44.9529L61.798 45.6354L56.1628 50.0098L55.2146 49.4669L56.3886 48.5879L55.4494 48.0501L53.9142 48.7223L52.9659 48.1794ZM56.6143 47.5382L57.2826 47.9208L59.2332 46.4834L59.5584 46.2662L59.5042 46.2352L59.1249 46.4213L56.6143 47.5382Z" fill="white"/>
<path d="M56.9247 50.4461L62.5599 47.2195L61.6387 46.6921L62.6411 46.1182L65.4587 47.7314L64.4563 48.3054L63.5352 47.778L57.9 51.0045L56.9247 50.4461Z" fill="white"/>
<path d="M59.3181 51.8165L65.9557 48.016L68.1863 49.2931L67.1839 49.8671L65.9286 49.1484L64.1405 50.1722L65.0436 50.6892L64.0683 51.2477L63.1652 50.7306L61.2958 51.8009L62.5511 52.5197L61.5487 53.0936L59.3181 51.8165Z" fill="white"/>
<defs>
<filter id="filter0_d_375_4694" x="0" y="0" width="107" height="107" filterUnits="userSpaceOnUse" color-interpolation-filters="sRGB">
<feFlood flood-opacity="0" result="BackgroundImageFix"/>
<feColorMatrix in="SourceAlpha" type="matrix" values="0 0 0 0 0 0 0 0 0 0 0 0 0 0 0 0 0 0 127 0" result="hardAlpha"/>
<feOffset dy="4"/>
<feGaussianBlur stdDeviation="5.5"/>
<feComposite in2="hardAlpha" operator="out"/>
<feColorMatrix type="matrix" values="0 0 0 0 0.136667 0 0 0 0 0.8 0 0 0 0 0.591524 0 0 0 0.15 0"/>
<feBlend mode="normal" in2="BackgroundImageFix" result="effect1_dropShadow_375_4694"/>
<feBlend mode="normal" in="SourceGraphic" in2="effect1_dropShadow_375_4694" result="shape"/>
</filter>
<linearGradient id="paint0_linear_375_4694" x1="11" y1="41" x2="94.13" y2="44.2299" gradientUnits="userSpaceOnUse">
<stop stop-color="#27D89E"/>
<stop offset="1" stop-color="#3A86FF"/>
</linearGradient>
</defs>
</svg>
