<svg width="123" height="51" viewBox="0 0 123 51" fill="none" xmlns="http://www.w3.org/2000/svg">
<path d="M0 13H3.01719V39.3495H19V42H0V13Z" fill="#15C991"/>
<path d="M38.7563 22.116C40.2516 23.5285 41 25.6183 41 28.3872V41.7941H38.2245V38.4227C37.5712 39.547 36.6131 40.4235 35.3466 41.0538C34.0817 41.6841 32.5778 42 30.8367 42C28.4421 42 26.538 41.4239 25.1224 40.2733C23.707 39.1211 23 37.6003 23 35.7095C23 33.8729 23.6602 32.3923 24.9786 31.268C26.2972 30.1437 28.4006 29.5815 31.2836 29.5815H38.0997V28.2651C38.0997 26.4005 37.5833 24.9827 36.5491 24.0086C35.5146 23.036 34.0055 22.549 32.0182 22.549C30.6582 22.549 29.3518 22.776 28.1008 23.2281C26.8499 23.6802 25.774 24.3053 24.8765 25.0998L23.5701 22.9208C24.6582 21.9886 25.9645 21.2692 27.4875 20.7612C29.0105 20.2549 30.6165 20 32.3024 20C35.1109 19.9983 37.2594 20.7053 38.7563 22.116ZM35.4922 38.5658C36.6616 37.8116 37.5331 36.7223 38.1031 35.2976V31.7603H31.3702C27.6972 31.7603 25.8605 33.0488 25.8605 35.6257C25.8605 36.8863 26.337 37.8814 27.2882 38.6077C28.2394 39.3341 29.5735 39.6972 31.2871 39.6972C32.921 39.6972 34.3208 39.3201 35.4922 38.5658Z" fill="#15C991"/>
<path d="M50.8217 41.2406C49.1919 40.7343 47.9186 40.0969 47 39.3287L48.337 37.0259C49.2557 37.7383 50.4119 38.3215 51.8041 38.7736C53.1963 39.2258 54.6452 39.4527 56.1489 39.4527C58.1546 39.4527 59.6372 39.1437 60.5966 38.5274C61.5579 37.9111 62.0384 37.0399 62.0384 35.9156C62.0384 35.1212 61.7741 34.4961 61.2438 34.0439C60.7155 33.5918 60.0468 33.2495 59.2381 33.0157C58.4295 32.7834 57.3584 32.5564 56.0212 32.3364C54.2389 32.0083 52.8042 31.6713 51.7189 31.329C50.6336 30.9869 49.7062 30.4037 48.9418 29.5815C48.1758 28.7591 47.7927 27.6208 47.7927 26.1682C47.7927 24.3595 48.5587 22.8789 50.0893 21.7267C51.6197 20.5744 53.7513 20 56.4805 20C57.9011 20 59.3216 20.185 60.742 20.5551C62.1625 20.9253 63.3312 21.4123 64.2498 22.0146L62.9553 24.3595C61.1446 23.1251 58.9864 22.5088 56.4805 22.5088C54.5865 22.5088 53.159 22.837 52.1996 23.4952C51.2383 24.1534 50.7578 25.0177 50.7578 26.0861C50.7578 26.9085 51.0291 27.5667 51.5717 28.0607C52.1145 28.5548 52.7902 28.918 53.5971 29.1502C54.4038 29.3842 55.5176 29.6234 56.938 29.8695C58.692 30.1978 60.0983 30.5277 61.1571 30.856C62.2157 31.1842 63.1202 31.7463 63.872 32.5425C64.624 33.3386 65 34.435 65 35.8318C65 37.7226 64.1984 39.224 62.5988 40.3344C60.9974 41.4449 58.7771 42 55.9362 42C54.1556 42.0017 52.4496 41.7486 50.8217 41.2406Z" fill="#15C991"/>
<path d="M82 40.5101C81.48 40.9936 80.8361 41.3627 80.0695 41.6172C79.3029 41.8719 78.5033 42 77.6704 42C75.7466 42 74.2649 41.4635 73.2251 40.3904C72.1854 39.3174 71.6655 37.8017 71.6655 35.8418V23.0434H68V20.629H71.6655V16H74.4338V20.629H80.6737V23.0434H74.4338V35.6811C74.4338 36.9421 74.7383 37.9024 75.3509 38.5586C75.9619 39.2165 76.8394 39.5446 77.9835 39.5446C78.5546 39.5446 79.1076 39.4506 79.6407 39.2627C80.1738 39.0747 80.6357 38.8064 81.0248 38.4579L82 40.5101Z" fill="#15C991"/>
<path fill-rule="evenodd" clip-rule="evenodd" d="M122.88 28.0004L120.353 27.7534C120.425 27.0128 120.462 26.261 120.462 25.5C120.462 24.739 120.425 23.9872 120.353 23.2466L122.88 22.9996C122.959 23.8223 123 24.6563 123 25.5C123 26.3437 122.959 27.1777 122.88 28.0004ZM121.913 18.0953L119.484 18.8346C119.047 17.3846 118.471 15.9949 117.77 14.6813L120.008 13.4772C120.786 14.9374 121.427 16.4826 121.913 18.0953ZM117.24 9.32264L115.279 10.9416C114.328 9.77941 113.267 8.71255 112.11 7.75774L113.721 5.78754C115.006 6.84771 116.184 8.03218 117.24 9.32264ZM109.586 3.00645L108.388 5.25428C107.08 4.55063 105.697 3.97146 104.254 3.53223L104.99 1.09172C106.595 1.58036 108.133 2.2244 109.586 3.00645ZM100.109 0.120966L99.8626 2.65901C99.1255 2.58698 98.3773 2.55 97.6198 2.55C96.8624 2.55 96.1141 2.58698 95.377 2.65901L95.1311 0.120966C95.95 0.0409598 96.7801 0 97.6198 0C98.4596 0 99.2897 0.0409598 100.109 0.120966ZM90.2499 1.09172L90.9858 3.53223C89.5426 3.97146 88.1594 4.55063 86.852 5.25428L85.6535 3.00645C87.1069 2.2244 88.6448 1.58036 90.2499 1.09172ZM81.5185 5.78754L83.1298 7.75774C81.9731 8.71255 80.9113 9.77941 79.9609 10.9416L78 9.3228C79.0552 8.03218 80.2341 6.84771 81.5185 5.78754ZM85.6535 47.9935L86.852 45.7457C88.1594 46.4494 89.5426 47.0285 90.9858 47.4678L90.2499 49.9083C88.6448 49.4196 87.1069 48.7756 85.6535 47.9935ZM95.1311 50.879L95.377 48.341C96.1141 48.413 96.8624 48.45 97.6198 48.45C98.3773 48.45 99.1255 48.413 99.8626 48.341L100.109 50.879C99.2897 50.959 98.4596 51 97.6198 51C96.7801 51 95.95 50.959 95.1311 50.879ZM104.99 49.9083L104.254 47.4678C105.697 47.0285 107.08 46.4494 108.388 45.7457L109.586 47.9935C108.133 48.7756 106.595 49.4196 104.99 49.9083ZM113.721 45.2125L112.11 43.2423C113.267 42.2874 114.328 41.2206 115.279 40.0584L117.24 41.6772C116.184 42.9678 115.006 44.1523 113.721 45.2125ZM120.008 37.5228L117.77 36.3187C118.471 35.0051 119.047 33.6154 119.484 32.1654L121.913 32.9047C121.427 34.5174 120.786 36.0626 120.008 37.5228Z" fill="#15C991"/>
<path d="M88 20.8064C88 26.3102 91.9851 30.1238 97.6 30.1238C98.4444 30.1238 99.2444 29.9841 99.9851 29.8026L92.637 40H99.0815L106.104 30.1936C108.711 26.5337 109.97 23.6979 110 20.6806C110.015 14.5342 104.919 11 98.8889 11C92.563 11 88 14.9253 88 20.8064ZM94.163 20.5969C94.163 17.7611 96.1185 15.7216 98.9185 15.7216C101.733 15.7216 103.718 17.7611 103.718 20.6248C103.718 23.4605 101.733 25.4721 98.9185 25.4721C96.1185 25.4721 94.163 23.4605 94.163 20.5969Z" fill="#15C991"/>
</svg>
