<svg width="250" height="57" viewBox="0 0 250 57" fill="none" xmlns="http://www.w3.org/2000/svg">
<g clip-path="url(#clip0_118_137)">
<path d="M250 41.9324C243.699 41.4681 240.072 37.5669 240.072 31.2508C240.072 29.6038 240.072 27.9569 240.072 26.1202H235.166V23.0307H240.051V18.0491H243.227V22.9314H248.129V26.0501H243.318C243.318 28.5906 243.089 30.985 243.373 33.3182C243.772 36.5828 246.575 38.8109 250.003 39.0153V41.9353L250 41.9324Z" fill="white"/>
<path d="M28.5806 57C12.817 56.9562 -0.078807 44.0757 0.000362589 28.4504C0.0795322 12.717 12.9255 -0.0233286 28.6861 3.20743e-05C44.4292 0.0233927 57.2722 12.8513 57.2693 28.5497C57.2664 44.1896 44.306 57.0409 28.5806 57ZM20.517 5.29706C20.0244 6.31617 19.784 7.03451 19.3676 7.63605C17.793 9.91955 16.0982 12.1184 14.5764 14.434C13.1982 16.5277 13.4152 17.611 15.5205 18.9251C18.9248 21.048 21.7896 23.6877 24.1559 26.9173C25.2848 28.4621 26.2436 28.4329 27.396 26.8502C29.6919 23.6936 32.4804 21.1093 35.7997 19.039C38.0985 17.6052 38.3419 16.6124 36.8494 14.3698C35.4508 12.2673 33.7735 10.3517 32.2869 8.30767C31.4835 7.20095 30.8208 5.98912 30.0965 4.82401L29.8444 5.19486C32.2664 7.27396 34.75 9.28589 37.0781 11.4643C38.0516 12.3753 38.8257 13.5638 39.4649 14.7494C40.5762 16.8109 40.2596 18.5542 38.5501 20.1632C37.3801 21.2611 35.9815 22.1226 34.8526 23.2556C33.3102 24.8003 31.9292 26.5027 30.4807 28.1379L30.9088 28.5643C31.7327 27.9978 32.4951 27.3028 33.3894 26.8969C35.2778 26.0384 37.2071 25.2412 39.1864 24.628C39.6702 24.4791 40.5587 25.0018 40.9604 25.4719C41.1539 25.6968 40.717 26.5611 40.4296 27.0575C40.069 27.6824 39.421 28.1671 39.1512 28.8154C38.207 31.0843 36.4418 31.8552 34.1371 31.8348C33.5565 31.8289 32.9466 31.8435 32.3983 32.0129C32.0494 32.1209 31.5744 32.4976 31.5333 32.8042C31.3633 34.0657 30.7299 34.8716 29.0527 35.225L30.768 35.6747C30.9615 36.8369 31.0964 37.9991 31.3633 39.1291C31.6389 40.3088 31.9438 41.4944 32.4042 42.6099C33.3806 44.9839 34.9963 45.6876 37.474 45.0394C38.2246 44.8437 38.5442 44.4992 38.4123 43.7137C38.2979 43.045 38.3331 42.3441 38.1865 41.6842C37.3596 38.0049 40.2097 35.8703 41.755 33.1926C41.8371 33.0495 42.0863 32.9152 42.2535 32.921C43.7372 32.9853 45.2179 33.0816 46.7016 33.1663L47.0242 33.5021C44.7429 33.7971 45.1622 34.8746 45.5669 36.3171C45.8425 37.3012 45.4085 38.5539 45.0713 39.6139C44.7371 40.668 44.1242 41.6375 43.5642 42.788C45.6754 42.569 47.4611 42.2945 49.2527 42.2361C50.3376 42.2011 50.924 41.7689 51.3844 40.8549C56.0759 31.5311 55.8296 22.3357 49.8186 13.7974C43.702 5.12186 35.0139 1.49803 24.4344 3.07196C12.7877 4.80357 3.54833 14.872 2.82115 26.2983C2.02359 38.8459 9.67372 49.9364 21.4583 53.2623C24.2644 54.0537 27.1262 54.4654 30.2725 54.1179C27.9238 51.8227 26.4665 49.2531 25.622 46.3154C28.7624 45.3606 29.7769 43.9911 29.4485 41.5966C29.0673 42.3646 28.692 43.407 28.0587 44.2568C27.786 44.6218 26.9796 44.5955 26.4137 44.7444C26.4841 44.1137 26.4577 43.4479 26.6541 42.861C26.8125 42.3909 27.2464 42.0112 27.5573 41.5908L27.3256 41.2462C26.3111 42.5894 25.1851 42.2332 23.98 41.5061C24.2233 42.1018 24.5957 42.423 24.7922 42.8289C25.0297 43.3224 25.1646 43.8801 25.2349 44.4232C25.2525 44.5488 24.7189 44.9109 24.6368 44.8583C24.1705 44.5546 23.7043 44.2071 23.3554 43.7808C23.1267 43.5005 23.0622 43.0683 22.9713 42.6945C22.4523 40.5016 22.7807 38.11 21.385 36.1039C21.2794 35.9521 21.731 35.4177 21.9391 35.0352C20.7897 34.8483 20.2003 34.1796 20.0127 32.9999C19.9511 32.6115 19.4233 32.1268 19.0128 32.0041C18.3267 31.7997 17.5672 31.8348 16.8371 31.8026C14.8197 31.715 13.2774 30.9704 12.4476 28.9906C12.1749 28.3365 11.5445 27.8401 11.2014 27.2064C10.8847 26.6195 10.7381 25.945 10.5182 25.3084C11.26 25.0806 12.125 24.4908 12.7173 24.6922C14.72 25.3785 16.6406 26.3129 18.5612 27.2181C19.265 27.551 19.8807 28.0708 20.6108 28.5555C20.6607 28.2314 20.7135 28.1175 20.6812 28.0503C20.5493 27.7904 20.3968 27.5422 20.2385 27.297C18.5847 24.7711 16.2976 22.8935 13.9342 21.0597C10.8759 18.6856 10.6179 16.3992 12.8728 13.2572C13.1836 12.8221 13.4973 12.3783 13.8697 11.9986C15.9662 9.86407 18.0804 7.74701 20.517 5.29706ZM30.1992 32.2436C28.5835 31.5428 27.2992 33.251 27.3344 36.1477C28.1818 34.9914 29.211 33.5927 30.1992 32.2436ZM24.1705 35.8762C24.1148 32.9736 22.9742 31.5866 21.3615 32.2728C22.2851 33.4613 23.2469 34.6935 24.1705 35.8762Z" fill="white"/>
<path d="M141.829 25.4135V15.3013H145.295V41.7689H142.293C142.137 41.0389 141.97 40.2475 141.753 39.2372C139.548 41.8156 136.774 42.5719 133.675 42.1543C131.367 41.8448 129.464 40.7001 127.989 38.8722C124.79 34.9096 125.207 28.3803 128.898 24.8675C132.437 21.4977 137.589 21.6495 141.832 25.4106L141.829 25.4135ZM129.376 32.1939C129.285 36.2032 131.769 39.0299 135.475 39.1262C139.267 39.2255 141.985 36.4689 142.035 32.4684C142.084 28.5409 139.478 25.65 135.827 25.5829C132.106 25.5128 129.467 28.2197 129.376 32.1939Z" fill="white"/>
<path d="M208.131 37.5259C208.905 38.2297 209.579 38.8458 210.242 39.4503C208.125 42.3528 202.448 43.1091 198.613 41.0913C194.273 38.8108 192.335 33.4758 194.097 28.6605C195.795 24.0205 200.498 21.6173 205.741 22.7094C210.139 23.6263 213.054 27.9539 212.649 33.1516H197.091C197.337 35.6279 198.381 37.4383 200.449 38.4428C203.134 39.7452 205.744 39.3977 208.134 37.5259H208.131ZM208.923 30.2578C208.5 27.1363 206.518 25.4923 203.337 25.4689C200.249 25.4455 197.818 27.3932 197.434 30.2578H208.923Z" fill="white"/>
<path d="M234.039 33.1546H218.56C218.868 35.5666 219.844 37.3975 221.914 38.4166C224.606 39.7423 227.207 39.4357 229.755 37.4267C230.362 38.1742 230.99 38.9451 231.629 39.7277C229.098 42.6332 223.184 43.1413 219.375 40.6475C215.261 37.9523 213.795 32.4538 215.956 27.8313C217.988 23.4891 223.064 21.4188 227.993 22.9226C232.066 24.1666 234.772 28.6693 234.039 33.1546ZM218.965 30.2579C219.396 30.2812 219.824 30.3192 220.249 30.3221C223.6 30.3279 226.952 30.3221 230.286 30.3221C230.611 27.7962 228.087 25.5711 225.286 25.4748C221.976 25.358 219.27 27.3057 218.965 30.2579Z" fill="white"/>
<path d="M113.353 37.4822C114.107 38.2034 114.77 38.8371 115.424 39.462C113.28 42.3762 107.471 43.1208 103.671 41.0359C99.2584 38.6122 97.458 33.178 99.4402 28.2518C101.229 23.8016 106.237 21.4772 111.21 22.7854C115.529 23.9213 118.376 28.3365 117.778 33.1488H102.208C102.589 35.6133 103.569 37.5055 105.747 38.5013C108.416 39.7219 110.967 39.3656 113.356 37.4822H113.353ZM114.072 30.2462C113.732 27.2385 111.802 25.577 108.68 25.4777C105.533 25.3784 103.108 27.2502 102.586 30.2462H114.072Z" fill="white"/>
<path d="M147.391 34.676H150.593C150.909 35.5199 151.103 36.4426 151.563 37.1989C153.117 39.7423 158.864 40.2008 160.888 37.999C162.125 36.6529 161.638 34.857 159.779 34.4044C158.272 34.0394 156.695 33.9781 155.152 33.7503C154.094 33.5955 153.026 33.4495 151.994 33.1867C149.915 32.6582 148.561 31.3938 148.279 29.195C147.971 26.7771 148.792 24.8294 151.012 23.7169C154.399 22.0174 157.876 21.9064 161.26 23.7286C163.512 24.9433 164.477 27.002 164.617 29.5979H161.409C160.706 25.3054 156.879 24.6513 153.211 25.8982C152.155 26.2574 151.522 27.1013 151.578 28.2459C151.631 29.3614 152.384 30.0505 153.422 30.2257C155.63 30.5966 157.87 30.7981 160.078 31.166C163.94 31.8114 165.872 34.5737 164.573 37.8997C164.104 39.0999 163.01 40.3497 161.87 40.9454C158.662 42.6186 155.22 42.7617 151.83 41.36C148.959 40.1745 147.681 37.8472 147.394 34.673L147.391 34.676Z" fill="white"/>
<path d="M68.6191 15.3362C68.9006 15.2486 68.9446 15.2282 68.9945 15.2194C71.7156 14.7785 73.7183 15.4618 75.3046 18.0344C77.2574 21.2027 79.741 24.0497 82.0985 27.1742C84.4443 24.0731 86.6962 21.1005 88.9452 18.1278C89.0625 17.9731 89.212 17.8329 89.2912 17.6606C90.4993 15.0617 92.6486 14.7872 95.2729 15.3479C95.0735 15.6779 94.9152 15.9991 94.7041 16.2765C91.3467 20.6303 87.9541 24.9579 84.6437 29.3468C84.1628 29.9833 83.8608 30.909 83.8402 31.712C83.7523 35.0555 83.8021 38.4019 83.8021 41.8301H80.1632C80.1632 39.4999 79.9785 37.1668 80.2072 34.8774C80.5239 31.7208 79.5768 29.23 77.492 26.8297C74.5921 23.492 72.0234 19.8653 69.3141 16.3582C69.0883 16.0662 68.8918 15.7479 68.6133 15.3391L68.6191 15.3362Z" fill="white"/>
<path d="M180.696 39.1524V41.6958C176.87 42.3528 172.36 39.3042 171.184 35.0789C170.724 33.4261 170.771 31.6244 170.665 29.887C170.592 28.6868 170.651 27.4779 170.651 26.1201H165.777V22.9956H170.624V18.0548H173.718V22.9197H178.746V26.0909H173.9C173.9 28.5963 173.662 30.9441 173.955 33.2276C174.386 36.5798 176.6 38.364 180.693 39.1553L180.696 39.1524Z" fill="white"/>
<path d="M185.77 25.8427C188.171 23.9855 190.461 22.8058 193.341 22.9314V25.8427C192.866 25.9391 192.356 26.0442 191.845 26.1493C188.391 26.8735 185.852 29.9191 185.817 33.4407C185.787 36.1973 185.811 38.9568 185.811 41.7863H182.459C182.433 41.2286 182.386 40.7118 182.386 40.192C182.38 35.0848 182.448 29.9775 182.345 24.8732C182.316 23.3548 182.77 22.8379 184.23 23.0599C184.697 23.1299 185.186 23.0715 185.773 23.0715V25.8456L185.77 25.8427Z" fill="white"/>
<path d="M120.515 15.3129C122.704 15.0501 123.799 15.9397 123.799 17.9818C123.799 25.3784 123.799 32.775 123.799 40.1716C123.799 40.6972 123.799 41.2228 123.799 41.8302H120.512V15.3129H120.515Z" fill="white"/>
<path d="M95.7371 41.8652H92.5938V22.9314H95.7371V41.8681V41.8652Z" fill="white"/>
</g>
<defs>
<clipPath id="clip0_118_137">
<rect width="250" height="57" fill="white"/>
</clipPath>
</defs>
</svg>
