<svg width="104" height="28" viewBox="0 0 104 28" fill="none" xmlns="http://www.w3.org/2000/svg">
<path d="M0 22.0214V16.5578C0.135217 16.5786 0.269599 16.6176 0.404815 16.6176C7.43525 16.6209 14.4657 16.6176 21.4961 16.6267C21.8233 16.6267 21.9251 16.5379 21.9218 16.2074C21.9051 14.663 21.9151 13.1177 21.9135 11.5733C21.9135 11.4529 21.8959 11.3333 21.8826 11.1647H5.54055V5.86635H21.8917V0.401884C21.7206 0.401884 21.5729 0.401884 21.4243 0.401884C17.0891 0.401884 12.7546 0.401054 8.41933 0.401884C5.61316 0.404375 2.80616 0.410188 0 0.414339V0H104V27.7333H0V27.402C0.131043 27.4294 0.262087 27.4809 0.393965 27.4809C1.98902 27.4867 3.58408 27.4851 5.17997 27.4834C5.28514 27.4834 5.39031 27.4643 5.48295 27.456V22.0463C5.42202 22.0347 5.39531 22.0248 5.3686 22.0248C3.57907 22.0231 1.79037 22.0223 0.000834671 22.0214H0ZM45.7024 9.23753C45.9236 9.23753 46.0755 9.23753 46.2266 9.23753C47.3526 9.23753 48.4777 9.24417 49.6037 9.23171C49.8507 9.22922 49.9793 9.30561 50.0527 9.54309C50.1746 9.93667 50.3223 10.3228 50.4667 10.7097C50.6144 11.1074 50.6637 11.653 50.9542 11.8572C51.2463 12.0623 51.7813 11.9328 52.2095 11.937C52.8263 11.9436 53.4423 11.9386 54.085 11.9386C54.0491 11.795 54.0366 11.7128 54.0091 11.6364C52.6652 7.90981 51.3164 4.18408 49.9818 0.453365C49.8908 0.200112 49.7564 0.157764 49.5244 0.158595C48.1346 0.165238 46.7449 0.17188 45.3552 0.154443C45.0397 0.150291 44.897 0.248271 44.7909 0.545533C43.4839 4.21231 42.1634 7.87328 40.8471 11.5367C40.8037 11.6563 40.7737 11.78 40.7261 11.937C41.6843 11.937 42.5866 11.9245 43.488 11.9436C43.796 11.9502 43.9379 11.8697 44.0473 11.5592C45.1023 8.57658 46.1798 5.60147 47.2516 2.6247C47.29 2.51842 47.3392 2.41712 47.4202 2.22863C47.8934 3.54887 48.3325 4.77445 48.7882 6.04736H46.7341C46.391 7.10521 46.0571 8.13567 45.7007 9.23586L45.7024 9.23753ZM94.6968 11.9378C94.6659 11.8132 94.6559 11.7451 94.6325 11.6812C93.2845 7.94136 91.9323 4.20235 90.5918 0.460008C90.5042 0.214228 90.3757 0.156934 90.1378 0.158595C88.7481 0.166898 87.3583 0.172711 85.9686 0.155273C85.6514 0.151122 85.5112 0.251593 85.406 0.548024C84.5238 3.03738 83.6248 5.52093 82.7301 8.00613C82.2652 9.29731 81.7986 10.5885 81.312 11.9386C82.2927 11.9386 83.2192 11.9278 84.1448 11.9453C84.4236 11.9502 84.5513 11.8722 84.6482 11.599C85.5538 9.03077 86.4778 6.46834 87.3976 3.90509C87.5862 3.37865 87.7807 2.85388 87.9726 2.32744H88.067C88.506 3.55302 88.9442 4.77943 89.4008 6.05317H87.3475C87.0053 7.10854 86.6689 8.14646 86.3158 9.23669C86.5295 9.23669 86.6797 9.23669 86.8292 9.23669C87.8992 9.23669 88.9701 9.25994 90.0385 9.22507C90.4508 9.21178 90.6219 9.36457 90.7371 9.72743C90.9399 10.3693 91.1736 11.0028 91.419 11.6306C91.4674 11.7543 91.6218 11.9212 91.7312 11.9237C92.7019 11.9469 93.6735 11.937 94.6976 11.937L94.6968 11.9378ZM61.4335 27.6686C61.6288 27.6686 61.7631 27.6686 61.8967 27.6686C62.6471 27.6686 63.3983 27.647 64.1478 27.676C64.5142 27.6902 64.6762 27.5731 64.7988 27.226C65.8388 24.2816 66.9005 21.3439 67.9564 18.4053C67.9981 18.2882 68.0541 18.1753 68.1459 17.9627C68.6233 19.2954 69.0598 20.516 69.5139 21.7856C69.2652 21.7856 69.0857 21.7856 68.9071 21.7856C68.1581 21.7856 67.6684 22.1368 67.4381 22.8393C67.2144 23.5268 66.9974 24.216 66.7578 24.9683C66.9765 24.9683 67.1242 24.9683 67.2728 24.9683C68.2318 24.9683 69.1909 24.9833 70.1491 24.9575C70.5222 24.9475 70.735 25.0289 70.8302 25.4208C70.9303 25.8327 71.1065 26.2263 71.2509 26.6273C71.4996 27.3204 72.0007 27.6669 72.7541 27.6669H74.8049C74.7798 27.5515 74.7748 27.4975 74.7573 27.4477C73.4076 23.6937 72.0538 19.9414 70.7108 16.185C70.6232 15.94 70.488 15.8869 70.2526 15.8885C68.8487 15.8968 67.4456 15.901 66.0417 15.8852C65.7621 15.8819 65.6377 15.96 65.5417 16.2298C64.3974 19.4291 63.2372 22.6226 62.0837 25.8194C61.87 26.4114 61.6663 27.0076 61.4343 27.6686H61.4335ZM60.4001 21.6154C60.4001 20.9262 60.4026 20.237 60.4001 19.5478C60.3943 18.2683 59.8668 17.2354 58.8001 16.5362C57.0556 15.3928 55.1651 15.2724 53.2295 15.9724C51.4349 16.6209 50.5535 17.9345 50.5527 19.8293C50.5527 21.084 50.5435 22.3386 50.5552 23.5933C50.5685 25.0821 51.2137 26.2437 52.5375 26.942C54.469 27.9608 56.4588 27.9758 58.3978 26.9686C59.7357 26.2736 60.4135 25.1244 60.4001 23.6016C60.3943 22.9398 60.3993 22.278 60.4001 21.6162V21.6154ZM55.5248 0.17105V11.9096H58.4921V8.51513C59.0196 8.51513 59.5037 8.52509 59.9878 8.51181C60.3617 8.50184 60.7382 8.48441 61.1079 8.4321C63.0352 8.15891 64.4625 6.59622 64.5676 4.66069C64.6837 2.53503 63.5268 0.849437 61.5879 0.344591C61.229 0.251593 60.8517 0.182675 60.4828 0.178523C58.8451 0.161086 57.2075 0.17105 55.5248 0.17105V0.17105ZM34.0704 18.7017H39.2671V15.9135H31.0606V27.637H34.0546V23.8814H39.2738V21.0599H34.0713V18.7017H34.0704ZM37.42 8.47195C36.698 9.48912 35.7072 9.78555 34.7373 9.29067C34.2833 9.059 34.0229 8.70694 34.027 8.1722C34.037 6.87521 34.027 5.57822 34.0312 4.28123C34.0329 3.69999 34.3192 3.28731 34.86 3.06561C35.7373 2.70608 36.7013 2.93359 37.364 3.64021C37.4383 3.71909 37.6136 3.79216 37.7004 3.75978C38.4474 3.47829 39.1845 3.17107 39.9323 2.86799C39.5692 2.06838 39.0676 1.41905 38.364 0.937453C36.5811 -0.283976 33.7057 -0.0224192 32.154 1.48797C31.432 2.19044 31.0573 3.04319 31.0422 4.03379C31.0205 5.49602 31.018 6.95907 31.0431 8.42047C31.0623 9.55555 31.5047 10.5304 32.4303 11.2129C34.0095 12.3779 35.7506 12.6095 37.5836 11.8971C38.6561 11.4803 39.4299 10.7089 39.9807 9.6502C39.1127 9.25081 38.2747 8.8647 37.42 8.47112V8.47195ZM81.1868 27.6478V18.6835H84.2943V15.9043H73.8266C74.1997 16.8094 74.5545 17.6871 74.9326 18.5539C74.9685 18.6361 75.1546 18.6901 75.2731 18.6926C75.8699 18.7067 76.4675 18.6992 77.0652 18.6984C77.4191 18.6984 77.7721 18.6984 78.1694 18.6984V27.6478H81.1876H81.1868ZM75.2397 11.9419H78.2663V2.96182H81.3871V0.193469H72.0897V2.99254H75.2397V11.9411V11.9419ZM44.5589 15.9242H41.575V27.6495H49.4484C49.4409 27.5639 49.4484 27.4934 49.4284 27.4319C49.1663 26.6207 48.9109 25.8069 48.6221 25.0048C48.5804 24.8894 48.3717 24.7657 48.2373 24.7624C47.335 24.7408 46.4311 24.7516 45.5288 24.7508C45.215 24.7508 44.902 24.7508 44.5597 24.7508V15.9234L44.5589 15.9242ZM95.9296 11.9054H103.857C103.555 10.9729 103.274 10.0836 102.97 9.20265C102.94 9.1163 102.766 9.03492 102.655 9.02994C102.239 9.00918 101.822 9.02164 101.404 9.02164C100.589 9.02164 99.7732 9.02164 98.9035 9.02164V0.189317H95.9287V11.9054H95.9296ZM66.7495 0.178523V11.9096H69.6825V0.178523H66.7495Z" fill="white"/>
<path d="M0 0.414334C2.80616 0.410182 5.61316 0.40437 8.41933 0.40354C12.7546 0.401879 17.0891 0.40354 21.4243 0.40354C21.5721 0.40354 21.7206 0.40354 21.8917 0.40354V5.86551H5.54055V11.1639H21.8826C21.8959 11.3325 21.9135 11.4529 21.9135 11.5724C21.9151 13.1169 21.9051 14.6621 21.9218 16.2066C21.9251 16.537 21.8233 16.6267 21.4961 16.6259C14.4657 16.6176 7.43525 16.6201 0.404815 16.6167C0.269599 16.6167 0.135217 16.5777 0 16.557C0 11.1764 0 5.79493 0 0.414334Z" fill="black"/>
<path d="M0.000834671 22.0215C1.79037 22.0223 3.57907 22.0231 5.3686 22.0248C5.39531 22.0248 5.42202 22.0347 5.48295 22.0464V27.456C5.39114 27.4652 5.28514 27.4834 5.17997 27.4834C3.58491 27.4851 1.98986 27.4868 0.393965 27.4809C0.262921 27.4809 0.131878 27.4295 0 27.4021C0 25.6085 0 23.815 0 22.0206L0.000834671 22.0215Z" fill="black"/>
<path d="M45.7032 9.23749C46.0596 8.13729 46.3934 7.10684 46.7365 6.04899H48.7906C48.3349 4.77608 47.895 3.54967 47.4226 2.23026C47.3416 2.41875 47.2915 2.52005 47.254 2.62633C46.1814 5.6031 45.1039 8.5782 44.0497 11.5608C43.9403 11.8705 43.7984 11.951 43.4904 11.9452C42.589 11.9261 41.6867 11.9386 40.7285 11.9386C40.7753 11.7817 40.8061 11.6579 40.8495 11.5384C42.1658 7.87491 43.4871 4.21394 44.7934 0.54716C44.8994 0.249899 45.0413 0.151919 45.3576 0.156071C46.7473 0.173508 48.1371 0.166865 49.5268 0.160222C49.7588 0.159392 49.894 0.201739 49.9842 0.454993C51.3188 4.18571 52.6677 7.91061 54.0115 11.638C54.039 11.7144 54.0515 11.7966 54.0874 11.9402C53.4447 11.9402 52.8287 11.9452 52.2119 11.9386C51.7829 11.9344 51.2479 12.0631 50.9566 11.8589C50.6661 11.6554 50.6177 11.1099 50.4691 10.7113C50.3256 10.3244 50.1778 9.9383 50.0551 9.54472C49.9817 9.30807 49.8531 9.23085 49.6061 9.23334C48.4809 9.24497 47.355 9.23915 46.229 9.23915C46.0771 9.23915 45.926 9.23915 45.7048 9.23915L45.7032 9.23749Z" fill="black"/>
<path d="M94.6962 11.9377C93.672 11.9377 92.7005 11.9477 91.7297 11.9244C91.6204 11.922 91.466 11.7551 91.4176 11.6313C91.173 11.0036 90.9385 10.37 90.7356 9.7282C90.6205 9.36451 90.4502 9.21255 90.037 9.22584C88.9678 9.26071 87.8969 9.23746 86.8277 9.23746C86.6775 9.23746 86.5281 9.23746 86.3144 9.23746C86.6675 8.14723 87.0038 7.10931 87.3461 6.05394H89.3993C88.9436 4.7802 88.5046 3.55379 88.0655 2.32738H87.9712C87.7792 2.85382 87.5856 3.37859 87.3961 3.90503C86.4763 6.46828 85.5523 9.03071 84.6467 11.599C84.5499 11.8721 84.423 11.9502 84.1434 11.9452C83.2178 11.9278 82.2905 11.9386 81.3105 11.9386C81.7972 10.5884 82.2637 9.29725 82.7287 8.00607C83.6234 5.52087 84.5224 3.03815 85.4046 0.547964C85.5098 0.251533 85.65 0.151061 85.9672 0.155213C87.3569 0.173481 88.7466 0.166838 90.1364 0.158535C90.3742 0.156874 90.5028 0.214167 90.5904 0.459948C91.9301 4.20312 93.2822 7.9413 94.6311 11.6812C94.6536 11.7443 94.6645 11.8123 94.6953 11.9377H94.6962Z" fill="black"/>
<path d="M61.4325 27.6686C61.6645 27.0077 61.8682 26.4115 62.0818 25.8195C63.2354 22.6235 64.3956 19.43 65.5399 16.2299C65.6359 15.9608 65.7602 15.8828 66.0399 15.8853C67.4429 15.9002 68.8469 15.8961 70.2508 15.8886C70.4861 15.8869 70.6214 15.9401 70.709 16.185C72.052 19.9415 73.405 23.6938 74.7555 27.4478C74.773 27.4976 74.7789 27.5515 74.8031 27.667H72.7523C71.9983 27.667 71.4972 27.3204 71.249 26.6274C71.1055 26.2263 70.9285 25.8327 70.8284 25.4209C70.7332 25.0281 70.5195 24.9476 70.1473 24.9576C69.1891 24.9833 68.23 24.9675 67.271 24.9684C67.1224 24.9684 66.9747 24.9684 66.756 24.9684C66.9964 24.2161 67.2126 23.5261 67.4363 22.8394C67.6655 22.1358 68.1552 21.7846 68.9053 21.7857C69.0847 21.7857 69.2634 21.7857 69.5121 21.7857C69.058 20.5161 68.6207 19.2955 68.1441 17.9628C68.0522 18.1762 67.9972 18.2883 67.9546 18.4054C66.8979 21.3448 65.837 24.2817 64.797 27.2261C64.6743 27.5731 64.5124 27.691 64.146 27.6761C63.3965 27.6462 62.6453 27.6678 61.8949 27.6686C61.7613 27.6686 61.6278 27.6686 61.4316 27.6686H61.4325Z" fill="black"/>
<path d="M60.399 21.6145C60.399 22.2763 60.394 22.9381 60.399 23.5998C60.4123 25.1227 59.7346 26.2719 58.3966 26.9669C56.4576 27.9741 54.4678 27.9583 52.5364 26.9403C51.2126 26.242 50.5674 25.0812 50.554 23.5915C50.5423 22.3369 50.5507 21.0823 50.5515 19.8276C50.5515 17.9328 51.4338 16.62 53.2283 15.9707C55.1639 15.2707 57.0544 15.3911 58.7989 16.5345C59.8656 17.2336 60.394 18.2666 60.399 19.5461C60.4023 20.2353 60.399 20.9245 60.399 21.6137V21.6145ZM57.4067 21.6145C57.4067 20.9942 57.3875 20.3731 57.4117 19.7545C57.4376 19.1102 57.1195 18.7017 56.5578 18.4766C55.865 18.1993 55.1489 18.1844 54.4494 18.4592C53.9036 18.6734 53.5522 19.0604 53.5488 19.6748C53.5421 20.9702 53.543 22.2655 53.548 23.5608C53.5497 24.0623 53.7875 24.4327 54.2408 24.6486C55.0521 25.0338 55.8776 25.0388 56.6897 24.6635C57.1654 24.4435 57.43 24.0723 57.4117 23.516C57.3908 22.8824 57.4067 22.248 57.4058 21.6145H57.4067Z" fill="black"/>
<path d="M55.5244 0.171047C57.2071 0.171047 58.8447 0.161083 60.4824 0.17852C60.8521 0.182672 61.2286 0.25159 61.5875 0.344588C63.5264 0.848604 64.6833 2.53502 64.5672 4.66069C64.4621 6.59621 63.0348 8.15891 61.1075 8.43209C60.7378 8.48441 60.3613 8.50184 59.9874 8.51181C59.5041 8.52509 59.0192 8.51513 58.4917 8.51513V11.9096H55.5244V0.171047V0.171047ZM58.5142 5.87465C59.0968 5.87465 59.6502 5.8788 60.2027 5.87133C60.3396 5.86967 60.479 5.84143 60.6126 5.80739C61.2194 5.65295 61.635 5.04016 61.6083 4.35264C61.5816 3.68089 61.1618 3.04485 60.6026 2.99586C59.9173 2.93608 59.2228 2.98175 58.5134 2.98175V5.87465H58.5142Z" fill="black"/>
<path d="M34.0702 18.7016V21.0598H39.2727V23.8813H34.0535V27.6369H31.0596V15.9134H39.2661V18.7016H34.0694H34.0702Z" fill="black"/>
<path d="M37.4205 8.47109C38.2752 8.86467 39.1132 9.25078 39.9813 9.65017C39.4304 10.7089 38.6567 11.4802 37.5841 11.8971C35.7512 12.6095 34.0101 12.3778 32.4309 11.2129C31.5052 10.5303 31.0628 9.55551 31.0437 8.42044C31.0186 6.95821 31.0203 5.49515 31.0428 4.03376C31.0578 3.04316 31.4326 2.18957 32.1546 1.48794C33.7063 -0.0216206 36.5817 -0.283177 38.3645 0.937421C39.0682 1.41902 39.5698 2.06834 39.9329 2.86796C39.185 3.1702 38.448 3.47743 37.701 3.75974C37.6142 3.79296 37.4389 3.71989 37.3646 3.64018C36.7019 2.93439 35.7378 2.70604 34.8606 3.06558C34.3189 3.28728 34.0326 3.69996 34.0318 4.2812C34.0284 5.57819 34.0376 6.87518 34.0276 8.17217C34.0234 8.70608 34.2838 9.05897 34.7379 9.29064C35.7078 9.78552 36.6985 9.48909 37.4205 8.47192V8.47109Z" fill="black"/>
<path d="M81.1871 27.647H78.169V18.6976C77.7717 18.6976 77.4186 18.6976 77.0647 18.6976C76.4671 18.6976 75.8703 18.705 75.2727 18.6918C75.155 18.6893 74.968 18.6345 74.9321 18.5531C74.554 17.6862 74.1993 16.8085 73.8262 15.9035H84.2938V18.6826H81.1863V27.647H81.1871Z" fill="black"/>
<path d="M75.2389 11.941V2.99246H72.0889V0.19339H81.3863V2.96174H78.2654V11.941H75.2389Z" fill="black"/>
<path d="M44.559 15.9235V24.7509C44.9012 24.7509 45.2151 24.7509 45.5281 24.7509C46.4312 24.7509 47.3343 24.7409 48.2366 24.7625C48.3709 24.7658 48.5796 24.8895 48.6213 25.0049C48.9101 25.8071 49.1656 26.6208 49.4276 27.432C49.4477 27.4935 49.441 27.564 49.4477 27.6496H41.5742V15.9235H44.5582H44.559Z" fill="black"/>
<path d="M95.9297 11.9055V0.189362H98.9044V9.02168C99.7742 9.02168 100.59 9.02168 101.405 9.02168C101.822 9.02168 102.239 9.00923 102.655 9.02998C102.766 9.0358 102.941 9.11717 102.971 9.2027C103.276 10.0837 103.556 10.973 103.858 11.9055H95.9305H95.9297Z" fill="black"/>
<path d="M66.751 0.178589H69.684V11.9096H66.751V0.178589Z" fill="black"/>
<path d="M57.4082 21.6146C57.4082 22.2482 57.3924 22.8834 57.4133 23.5161C57.4316 24.0724 57.167 24.4436 56.6913 24.6637C55.8791 25.039 55.0528 25.034 54.2423 24.6487C53.7891 24.4336 53.5512 24.0625 53.5496 23.561C53.5454 22.2656 53.5437 20.9703 53.5504 19.675C53.5537 19.0614 53.9051 18.6744 54.451 18.4594C55.1513 18.1845 55.8674 18.1986 56.5594 18.4768C57.1211 18.7018 57.4391 19.1103 57.4133 19.7547C57.3882 20.3741 57.4082 20.9944 57.4082 21.6146V21.6146Z" fill="white"/>
<path d="M58.5146 5.87373V2.98082C59.2241 2.98082 59.9186 2.93516 60.6038 2.99494C61.1631 3.04393 61.5829 3.67997 61.6096 4.35171C61.6363 5.03924 61.2207 5.65203 60.6138 5.80647C60.4803 5.84051 60.3409 5.86874 60.204 5.8704C59.6506 5.87788 59.0981 5.87373 58.5155 5.87373H58.5146Z" fill="white"/>
</svg>
