<svg width="120" height="33" viewBox="0 0 120 33" fill="none" xmlns="http://www.w3.org/2000/svg">
<path d="M0 25.9093V19.6052C0.156019 19.6291 0.311075 19.6741 0.467095 19.6741C8.57913 19.678 16.6912 19.6741 24.8032 19.6847C25.1807 19.6847 25.2982 19.5822 25.2944 19.2008C25.2751 17.4188 25.2867 15.6358 25.2848 13.8538C25.2848 13.7149 25.2645 13.5769 25.2491 13.3824H6.39294V7.26886H25.2597V0.963713C25.0623 0.963713 24.8918 0.963713 24.7204 0.963713C19.7181 0.963713 14.7169 0.962755 9.71461 0.963713C6.47673 0.966587 3.23788 0.973293 0 0.978084V0.5H120V32.5H0V32.1177C0.151204 32.1493 0.302408 32.2087 0.454575 32.2087C2.29502 32.2155 4.13547 32.2135 5.97689 32.2116C6.09823 32.2116 6.21958 32.1896 6.32649 32.18V25.9381C6.25618 25.9247 6.22536 25.9132 6.19454 25.9132C4.12969 25.9113 2.06581 25.9103 0.000963082 25.9093H0ZM52.7335 11.1587C52.9888 11.1587 53.164 11.1587 53.3384 11.1587C54.6376 11.1587 55.9358 11.1663 57.235 11.152C57.5201 11.1491 57.6684 11.2372 57.7531 11.5113C57.8937 11.9654 58.0642 12.4109 58.2308 12.8574C58.4013 13.3163 58.4581 13.9457 58.7933 14.1814C59.1303 14.4181 59.7477 14.2686 60.2417 14.2734C60.9535 14.2811 61.6642 14.2753 62.4058 14.2753C62.3644 14.1096 62.3499 14.0147 62.3181 13.9266C60.7676 9.62671 59.2112 5.32778 57.6713 1.02311C57.5663 0.730898 57.4112 0.682036 57.1435 0.682994C55.54 0.690659 53.9364 0.698323 52.3329 0.678204C51.9689 0.673413 51.8042 0.786467 51.6819 1.12946C50.1737 5.36036 48.6501 9.58455 47.1313 13.8116C47.0812 13.9496 47.0465 14.0923 46.9917 14.2734C48.0973 14.2734 49.1384 14.259 50.1785 14.2811C50.5339 14.2887 50.6976 14.1958 50.8238 13.8375C52.0411 10.396 53.2844 6.96323 54.521 3.5285C54.5653 3.40587 54.6222 3.28898 54.7156 3.0715C55.2616 4.59485 55.7682 6.00898 56.2941 7.47773H53.9239C53.5281 8.69832 53.1429 9.88731 52.7316 11.1568L52.7335 11.1587ZM109.265 14.2744C109.23 14.1307 109.218 14.0521 109.191 13.9783C107.636 9.66311 106.076 5.34886 104.529 1.03078C104.428 0.747186 104.28 0.681078 104.005 0.682994C102.402 0.692575 100.798 0.699281 99.1945 0.679162C98.8286 0.674371 98.6668 0.790299 98.5454 1.13234C97.5274 4.00467 96.4902 6.8703 95.4578 9.73784C94.9213 11.2277 94.383 12.7175 93.8215 14.2753C94.9531 14.2753 96.0221 14.2629 97.0902 14.283C97.4119 14.2887 97.5592 14.1987 97.671 13.8835C98.7159 10.9201 99.782 7.96347 100.843 5.00587C101.061 4.39844 101.285 3.79293 101.507 3.18551H101.616C102.122 4.59964 102.628 6.01473 103.155 7.48443H100.786C100.391 8.70216 100.003 9.89976 99.5952 11.1577C99.8417 11.1577 100.015 11.1577 100.187 11.1577C101.422 11.1577 102.658 11.1846 103.891 11.1443C104.366 11.129 104.564 11.3053 104.697 11.724C104.931 12.4646 105.2 13.1956 105.483 13.9199C105.539 14.0626 105.717 14.2552 105.844 14.2581C106.964 14.2849 108.085 14.2734 109.266 14.2734L109.265 14.2744ZM70.8848 32.4253C71.1101 32.4253 71.2652 32.4253 71.4193 32.4253C72.2851 32.4253 73.1518 32.4004 74.0167 32.4339C74.4395 32.4502 74.6263 32.3151 74.7679 31.9146C75.9679 28.5172 77.1929 25.1275 78.4112 21.7369C78.4594 21.6018 78.5239 21.4715 78.6299 21.2262C79.1807 22.764 79.6844 24.1723 80.2084 25.6372C79.9213 25.6372 79.7143 25.6372 79.5082 25.6372C78.644 25.6372 78.079 26.0425 77.8132 26.8531C77.5551 27.6463 77.3047 28.4416 77.0283 29.3096C77.2806 29.3096 77.451 29.3096 77.6225 29.3096C78.729 29.3096 79.8356 29.3268 80.9413 29.2971C81.3717 29.2856 81.6173 29.3795 81.7271 29.8317C81.8427 30.3069 82.0459 30.7611 82.2125 31.2238C82.4995 32.0235 83.0777 32.4234 83.947 32.4234H86.3133C86.2844 32.2902 86.2787 32.2279 86.2584 32.1704C84.7011 27.8389 83.139 23.5093 81.5894 19.175C81.4883 18.8923 81.3323 18.831 81.0607 18.8329C79.4408 18.8425 77.8218 18.8473 76.2019 18.8291C75.8793 18.8253 75.7358 18.9153 75.625 19.2267C74.3047 22.9182 72.966 26.603 71.635 30.2916C71.3884 30.9747 71.1535 31.6626 70.8857 32.4253H70.8848ZM69.6925 25.4408C69.6925 24.6456 69.6954 23.8504 69.6925 23.0552C69.6857 21.5788 69.077 20.3869 67.8462 19.5802C65.8334 18.261 63.652 18.122 61.4186 18.9297C59.348 19.678 58.331 21.1937 58.33 23.38C58.33 24.8277 58.3194 26.2753 58.3329 27.723C58.3483 29.4408 59.0928 30.7812 60.6202 31.5869C62.8488 32.7625 65.1448 32.7798 67.382 31.6176C68.9258 30.8157 69.7079 29.4897 69.6925 27.7326C69.6857 26.969 69.6915 26.2054 69.6925 25.4418V25.4408ZM64.0671 0.697365V14.2418H67.4909V10.3252C68.0995 10.3252 68.6581 10.3366 69.2167 10.3213C69.6482 10.3098 70.0825 10.2897 70.5091 10.2293C72.7329 9.91413 74.3798 8.11102 74.5011 5.87772C74.635 3.42503 73.3002 1.48012 71.0629 0.897605C70.6488 0.790299 70.2135 0.710778 69.7878 0.705988C67.8982 0.685868 66.0087 0.697365 64.0671 0.697365ZM39.312 22.0789H45.3082V18.8617H35.8392V32.3889H39.2937V28.0554H45.3159V24.7999H39.313V22.0789H39.312ZM43.1769 10.2753C42.3438 11.449 41.2006 11.791 40.0815 11.22C39.5576 10.9527 39.2571 10.5465 39.262 9.92946C39.2735 8.43293 39.262 6.93641 39.2668 5.43988C39.2687 4.76922 39.599 4.29305 40.2231 4.03725C41.2353 3.6224 42.3477 3.88491 43.1124 4.70024C43.1981 4.79126 43.4003 4.87557 43.5005 4.8382C44.3624 4.51341 45.2128 4.15892 46.0758 3.80922C45.6568 2.88659 45.078 2.13737 44.2661 1.58168C42.209 0.172335 38.8912 0.474132 37.1008 2.21689C36.2677 3.02743 35.8353 4.01138 35.818 5.15437C35.7929 6.84156 35.7901 8.5297 35.8189 10.2159C35.8411 11.5256 36.3515 12.6504 37.4196 13.438C39.2417 14.7822 41.2507 15.0495 43.3657 14.2274C44.6032 13.7465 45.496 12.8564 46.1316 11.6349C45.13 11.174 44.1631 10.7285 43.1769 10.2744V10.2753ZM93.677 32.4013V22.0578H97.2626V18.8511H85.1846C85.6151 19.8954 86.0244 20.9081 86.4607 21.9084C86.5021 22.0032 86.7169 22.0655 86.8536 22.0684C87.5422 22.0847 88.2318 22.076 88.9213 22.0751C89.3297 22.0751 89.7371 22.0751 90.1955 22.0751V32.4013H93.678H93.677ZM86.8151 14.2792H90.3072V3.91748H93.9082V0.723234H83.1804V3.95293H86.8151V14.2782V14.2792ZM51.4141 18.8741H47.9711V32.4032H57.0559C57.0472 32.3046 57.0559 32.2231 57.0327 32.1522C56.7303 31.2162 56.4356 30.2772 56.1024 29.3517C56.0543 29.2186 55.8135 29.0758 55.6584 29.072C54.6173 29.0471 53.5743 29.0595 52.5332 29.0586C52.1711 29.0586 51.81 29.0586 51.4151 29.0586V18.8732L51.4141 18.8741ZM110.688 14.237H119.835C119.487 13.1611 119.162 12.135 118.812 11.1184C118.777 11.0188 118.577 10.9249 118.448 10.9192C117.968 10.8952 117.486 10.9096 117.005 10.9096C116.064 10.9096 115.123 10.9096 114.119 10.9096V0.718443H110.687V14.237H110.688ZM77.0186 0.705988V14.2418H80.4029V0.705988H77.0186Z" fill="white"/>
<path d="M0 0.978089C3.23788 0.973299 6.47673 0.966592 9.71461 0.965634C14.7169 0.963718 19.7181 0.965634 24.7204 0.965634C24.8908 0.965634 25.0623 0.965634 25.2597 0.965634V7.26791H6.39294V13.3814H25.2491C25.2645 13.5759 25.2847 13.7149 25.2847 13.8528C25.2867 15.6349 25.2751 17.4178 25.2944 19.1999C25.2982 19.5812 25.1807 19.6847 24.8032 19.6837C16.6912 19.6741 8.57913 19.677 0.467095 19.6732C0.311075 19.6732 0.156019 19.6281 0 19.6042C0 13.3958 0 7.18647 0 0.978089Z" fill="black"/>
<path d="M0.000963082 25.9094C2.06581 25.9104 4.12969 25.9113 6.19454 25.9132C6.22536 25.9132 6.25618 25.9247 6.32649 25.9381V32.1801C6.22055 32.1906 6.09823 32.2117 5.97689 32.2117C4.13644 32.2136 2.29599 32.2155 0.454575 32.2088C0.303371 32.2088 0.152167 32.1494 0 32.1178C0 30.0483 0 27.9789 0 25.9084L0.000963082 25.9094Z" fill="black"/>
<path d="M52.7341 11.1586C53.1453 9.88918 53.5306 8.7002 53.9264 7.4796H56.2965C55.7707 6.01086 55.2632 4.59577 54.7181 3.07337C54.6246 3.29086 54.5669 3.40774 54.5235 3.53038C53.286 6.96511 52.0426 10.3979 50.8262 13.8394C50.7001 14.1967 50.5364 14.2897 50.181 14.283C49.1408 14.2609 48.0998 14.2753 46.9941 14.2753C47.0481 14.0942 47.0837 13.9515 47.1338 13.8135C48.6526 9.58643 50.1771 5.36223 51.6844 1.13133C51.8067 0.78834 51.9704 0.675286 52.3354 0.680077C53.9389 0.700197 55.5425 0.692532 57.146 0.684867C57.4137 0.683909 57.5697 0.732771 57.6738 1.02499C59.2137 5.32966 60.7701 9.62762 62.3206 13.9285C62.3524 14.0166 62.3669 14.1115 62.4083 14.2772C61.6667 14.2772 60.9559 14.283 60.2442 14.2753C59.7492 14.2705 59.1319 14.419 58.7957 14.1833C58.4606 13.9486 58.4047 13.3191 58.2333 12.8592C58.0677 12.4128 57.8972 11.9673 57.7556 11.5131C57.6709 11.2401 57.5226 11.151 57.2375 11.1538C55.9392 11.1673 54.64 11.1606 53.3408 11.1606C53.1656 11.1606 52.9913 11.1606 52.736 11.1606L52.7341 11.1586Z" fill="black"/>
<path d="M109.265 14.2743C108.084 14.2743 106.963 14.2858 105.842 14.259C105.716 14.2561 105.538 14.0635 105.482 13.9208C105.2 13.1965 104.929 12.4654 104.695 11.7248C104.563 11.3052 104.366 11.1299 103.889 11.1452C102.656 11.1854 101.42 11.1586 100.186 11.1586C100.013 11.1586 99.8405 11.1586 99.594 11.1586C100.001 9.90065 100.389 8.70305 100.784 7.48532H103.154C102.628 6.01562 102.121 4.60053 101.615 3.18544H101.506C101.284 3.79287 101.061 4.39838 100.842 5.0058C99.7808 7.96341 98.7147 10.9201 97.6698 13.8834C97.558 14.1986 97.4116 14.2887 97.089 14.2829C96.021 14.2628 94.951 14.2753 93.8203 14.2753C94.3818 12.7174 94.9202 11.2276 95.4566 9.73778C96.489 6.87023 97.5263 4.00556 98.5442 1.13227C98.6656 0.790235 98.8274 0.674306 99.1933 0.679097C100.797 0.700175 102.4 0.69251 104.004 0.682929C104.278 0.681013 104.427 0.747121 104.528 1.03071C106.074 5.34976 107.634 9.66305 109.19 13.9783C109.216 14.0511 109.229 14.1296 109.264 14.2743H109.265Z" fill="black"/>
<path d="M70.8838 32.4253C71.1515 31.6627 71.3865 30.9748 71.6331 30.2917C72.964 26.604 74.3027 22.9192 75.6231 19.2268C75.7339 18.9164 75.8774 18.8263 76.2 18.8292C77.8189 18.8464 79.4388 18.8416 81.0587 18.833C81.3303 18.8311 81.4863 18.8924 81.5875 19.175C83.1371 23.5094 84.6982 27.839 86.2565 32.1705C86.2767 32.228 86.2835 32.2902 86.3114 32.4234H83.9451C83.0751 32.4234 82.4969 32.0236 82.2106 31.2239C82.0449 30.7611 81.8408 30.307 81.7252 29.8318C81.6154 29.3786 81.3688 29.2857 80.9393 29.2972C79.8337 29.3269 78.7271 29.3087 77.6205 29.3096C77.4491 29.3096 77.2786 29.3096 77.0263 29.3096C77.3037 28.4416 77.5531 27.6455 77.8112 26.8531C78.0758 26.0413 78.6408 25.636 79.5062 25.6373C79.7133 25.6373 79.9194 25.6373 80.2064 25.6373C79.6825 24.1724 79.1778 22.764 78.6279 21.2263C78.522 21.4725 78.4584 21.6019 78.4093 21.737C77.19 25.1286 75.966 28.5173 74.766 31.9147C74.6244 32.3152 74.4375 32.4512 74.0148 32.434C73.1499 32.3995 72.2831 32.4244 71.4173 32.4253C71.2632 32.4253 71.1091 32.4253 70.8828 32.4253H70.8838Z" fill="black"/>
<path d="M69.6909 25.4398C69.6909 26.2034 69.6851 26.967 69.6909 27.7306C69.7063 29.4877 68.9243 30.8137 67.3805 31.6156C65.1432 32.7778 62.8472 32.7596 60.6187 31.585C59.0912 30.7792 58.3467 29.4398 58.3313 27.721C58.3179 26.2734 58.3275 24.8257 58.3285 23.378C58.3285 21.1917 59.3464 19.677 61.417 18.9277C63.6504 18.1201 65.8318 18.259 67.8447 19.5783C69.0755 20.385 69.6851 21.5768 69.6909 23.0532C69.6947 23.8484 69.6909 24.6437 69.6909 25.4389V25.4398ZM66.2382 25.4398C66.2382 24.7241 66.2161 24.0075 66.244 23.2937C66.2739 22.5502 65.9069 22.0789 65.2588 21.8192C64.4594 21.4992 63.6331 21.482 62.826 21.7991C62.1962 22.0463 61.7907 22.4928 61.7869 23.2017C61.7792 24.6964 61.7801 26.191 61.7859 27.6856C61.7878 28.2643 62.0623 28.6916 62.5853 28.9407C63.5214 29.3852 64.4739 29.391 65.411 28.9579C65.9599 28.704 66.2652 28.2758 66.244 27.6338C66.2199 26.9028 66.2382 26.1708 66.2373 25.4398H66.2382Z" fill="black"/>
<path d="M64.0664 0.697362C66.008 0.697362 67.8975 0.685865 69.7871 0.705985C70.2138 0.710775 70.6481 0.790296 71.0622 0.897602C73.2995 1.47916 74.6343 3.42503 74.5004 5.87772C74.3791 8.11101 72.7322 9.91413 70.5085 10.2293C70.0818 10.2897 69.6475 10.3098 69.216 10.3213C68.6584 10.3366 68.0988 10.3251 67.4902 10.3251V14.2418H64.0664V0.697362ZM67.5162 7.27844C68.1884 7.27844 68.8269 7.28323 69.4645 7.27461C69.6224 7.27269 69.7833 7.24012 69.9374 7.20084C70.6375 7.02263 71.1171 6.31557 71.0863 5.52227C71.0555 4.74718 70.5711 4.01329 69.9258 3.95676C69.1351 3.88778 68.3338 3.94048 67.5152 3.94048V7.27844H67.5162Z" fill="black"/>
<path d="M39.3117 22.0788V24.7998H45.3146V28.0553H39.2925V32.3888H35.8379V18.8616H45.3069V22.0788H39.3108H39.3117Z" fill="black"/>
<path d="M43.1778 10.2743C44.164 10.7285 45.131 11.174 46.1326 11.6348C45.4969 12.8564 44.6042 13.7464 43.3666 14.2274C41.2517 15.0494 39.2427 14.7821 37.4205 13.4379C36.3525 12.6504 35.842 11.5256 35.8199 10.2159C35.791 8.52869 35.7929 6.84055 35.8189 5.15432C35.8363 4.01133 36.2687 3.02642 37.1018 2.21684C38.8921 0.475039 42.2099 0.173243 44.2671 1.58163C45.079 2.13731 45.6578 2.88654 46.0767 3.80917C45.2138 4.15791 44.3634 4.5124 43.5014 4.83815C43.4013 4.87648 43.199 4.79216 43.1133 4.70019C42.3486 3.88582 41.2363 3.62234 40.2241 4.03719C39.599 4.293 39.2687 4.76917 39.2677 5.43983C39.2639 6.93636 39.2745 8.43288 39.2629 9.92941C39.2581 10.5455 39.5586 10.9526 40.0825 11.2199C41.2016 11.791 42.3448 11.4489 43.1778 10.2753V10.2743Z" fill="black"/>
<path d="M93.677 32.4003H90.1945V22.0741C89.7361 22.0741 89.3287 22.0741 88.9203 22.0741C88.2308 22.0741 87.5422 22.0827 86.8526 22.0674C86.7168 22.0645 86.5011 22.0013 86.4597 21.9074C86.0234 20.9072 85.6141 19.8945 85.1836 18.8502H97.2616V22.0569H93.676V32.4003H93.677Z" fill="black"/>
<path d="M86.8144 14.2781V3.95285H83.1797V0.723145H93.9075V3.9174H90.3065V14.2781H86.8144Z" fill="black"/>
<path d="M51.4147 18.8733V29.0587C51.8095 29.0587 52.1717 29.0587 52.5328 29.0587C53.5749 29.0587 54.6169 29.0472 55.658 29.0721C55.8131 29.0759 56.0539 29.2187 56.102 29.3519C56.4352 30.2774 56.7299 31.2163 57.0323 32.1523C57.0555 32.2232 57.0477 32.3047 57.0555 32.4033H47.9707V18.8733H51.4137H51.4147Z" fill="black"/>
<path d="M110.688 14.2371V0.718506H114.12V10.9096C115.123 10.9096 116.064 10.9096 117.005 10.9096C117.486 10.9096 117.967 10.8953 118.448 10.9192C118.576 10.9259 118.777 11.0198 118.812 11.1185C119.164 12.135 119.487 13.1611 119.836 14.2371H110.688H110.688Z" fill="black"/>
<path d="M77.0195 0.706055H80.4038V14.2419H77.0195V0.706055Z" fill="black"/>
<path d="M66.2398 25.44C66.2398 26.171 66.2215 26.9039 66.2455 27.634C66.2667 28.2759 65.9614 28.7042 65.4125 28.958C64.4754 29.3911 63.5219 29.3853 62.5868 28.9408C62.0638 28.6927 61.7893 28.2644 61.7874 27.6857C61.7826 26.1911 61.7807 24.6965 61.7884 23.2019C61.7922 22.4939 62.1977 22.0474 62.8276 21.7992C63.6356 21.4821 64.4619 21.4984 65.2603 21.8194C65.9085 22.079 66.2754 22.5504 66.2455 23.2939C66.2166 24.0086 66.2398 24.7243 66.2398 25.44Z" fill="white"/>
<path d="M67.5176 7.27738V3.93942C68.3362 3.93942 69.1375 3.88672 69.9282 3.9557C70.5734 4.01223 71.0579 4.74612 71.0887 5.52121C71.1195 6.3145 70.6399 7.02157 69.9397 7.19977C69.7856 7.23906 69.6248 7.27163 69.4669 7.27355C68.8283 7.28217 68.1908 7.27738 67.5185 7.27738H67.5176Z" fill="white"/>
</svg>
