<svg width="134" height="37" viewBox="0 0 134 37" fill="none" xmlns="http://www.w3.org/2000/svg">
<g clip-path="url(#clip0_587_2310)">
<path d="M59.9114 9.13768V26.9362C59.9114 27.3534 59.6749 27.5827 59.2574 27.5827H57.0075C56.5853 27.5827 56.3534 27.3488 56.3534 26.9362V25.9734C55.3699 27.2067 53.8901 27.954 51.8768 27.954C48.1935 27.954 45.1504 24.8226 45.1504 20.7649C45.1504 16.7073 48.1935 13.5758 51.8768 13.5758C53.8948 13.5758 55.3699 14.3186 56.3534 15.5565V9.13768C56.3534 8.72045 56.59 8.49121 57.0075 8.49121H59.2574C59.6795 8.49121 59.9114 8.72504 59.9114 9.13768ZM56.3534 20.7649C56.3534 18.4725 54.7251 16.9182 52.5309 16.9182C50.3367 16.9182 48.7084 18.4725 48.7084 20.7649C48.7084 23.0574 50.3367 24.6117 52.5309 24.6117C54.7251 24.6117 56.3534 23.0574 56.3534 20.7649Z" fill="black"/>
<path d="M72.8351 13.9426C73.2572 13.9426 73.4892 14.1765 73.4892 14.5891V26.9316C73.4892 27.3488 73.2526 27.5781 72.8351 27.5781H70.5852C70.1631 27.5781 69.9311 27.3442 69.9311 26.9316V26.1797C69.1564 27.3351 67.8946 27.9494 66.1782 27.9494C63.6129 27.9494 61.6924 26.0009 61.6924 22.6585V14.5937C61.6924 14.1765 61.929 13.9472 62.3465 13.9472H64.5963C65.0185 13.9472 65.2504 14.181 65.2504 14.5937V22.3971C65.2504 23.9606 66.1875 24.6942 67.4354 24.6942C68.8363 24.6942 69.9265 23.8964 69.9265 21.8424V14.5937C69.9265 14.1765 70.1631 13.9472 70.5806 13.9472H72.8304L72.8351 13.9426Z" fill="black"/>
<path d="M87.1229 27.5827H84.502C84.1633 27.5827 83.9082 27.4589 83.7133 27.1884L79.1811 21.4252V26.9362C79.1811 27.3534 78.9445 27.5827 78.527 27.5827H76.2771C75.855 27.5827 75.623 27.3488 75.623 26.9362V9.13768C75.623 8.72045 75.8596 8.49121 76.2771 8.49121H78.527C78.9492 8.49121 79.1811 8.72504 79.1811 9.13768V19.9442L83.4396 14.3415C83.6345 14.071 83.8896 13.9472 84.2283 13.9472H86.8724C87.4106 13.9472 87.5915 14.2957 87.2667 14.7312L82.6139 20.6962L87.508 26.7986C87.8466 27.2296 87.6657 27.5827 87.1276 27.5827H87.1229Z" fill="black"/>
<path d="M94.4481 13.5758C97.4959 13.5758 100.066 15.3685 100.066 18.9218V26.9362C100.066 27.3534 99.8293 27.5827 99.4117 27.5827H97.2454C96.8232 27.5827 96.5913 27.3488 96.5913 26.9362V26.4043C95.798 27.3626 94.6012 27.954 92.8523 27.954C90.3983 27.954 88.2041 26.5281 88.2041 23.6626C88.2041 20.797 90.3983 19.3711 92.8523 19.3711C94.6012 19.3711 95.798 19.8892 96.5913 20.577V19.1236C96.5913 17.5051 95.7609 16.8311 94.4527 16.8311C93.409 16.8311 92.6436 17.2621 92.4116 17.9957C92.2678 18.3625 92.124 18.5734 91.7297 18.5734H89.5216C89.0994 18.5734 88.8396 18.3395 88.8675 17.8994C89.2108 15.1118 91.6276 13.5713 94.4574 13.5713L94.4481 13.5758ZM96.5866 23.6626C96.5866 22.6126 95.6217 21.9662 94.0538 21.9662C92.4858 21.9662 91.7575 22.6814 91.7575 23.6626C91.7575 24.6437 92.4905 25.359 94.0538 25.359C95.6171 25.359 96.5866 24.6437 96.5866 23.6626Z" fill="black"/>
<path d="M107.943 13.5758C110.991 13.5758 113.561 15.3685 113.561 18.9218V26.9362C113.561 27.3534 113.324 27.5827 112.907 27.5827H110.74C110.318 27.5827 110.086 27.3488 110.086 26.9362V26.4043C109.293 27.3626 108.096 27.954 106.347 27.954C103.893 27.954 101.699 26.5281 101.699 23.6626C101.699 20.797 103.893 19.3711 106.347 19.3711C108.096 19.3711 109.293 19.8892 110.086 20.577V19.1236C110.086 17.5051 109.256 16.8311 107.948 16.8311C106.904 16.8311 106.139 17.2621 105.907 17.9957C105.763 18.3625 105.619 18.5734 105.225 18.5734H103.017C102.595 18.5734 102.335 18.3395 102.363 17.8994C102.706 15.1118 105.123 13.5713 107.952 13.5713L107.943 13.5758ZM110.082 23.6626C110.082 22.6126 109.117 21.9662 107.549 21.9662C105.981 21.9662 105.253 22.6814 105.253 23.6626C105.253 24.6437 105.986 25.359 107.549 25.359C109.112 25.359 110.082 24.6437 110.082 23.6626Z" fill="black"/>
<path d="M122.676 13.5758C125.242 13.5758 127.162 15.5244 127.162 18.8668V26.9362C127.162 27.3534 126.925 27.5827 126.508 27.5827H124.258C123.836 27.5827 123.604 27.3488 123.604 26.9362V19.1327C123.604 17.5693 122.667 16.8357 121.414 16.8357C120.013 16.8357 118.923 17.6335 118.923 19.6875V26.9362C118.923 27.3534 118.687 27.5827 118.269 27.5827H116.019C115.597 27.5827 115.365 27.3488 115.365 26.9362V14.5937C115.365 14.1765 115.602 13.9472 116.019 13.9472H118.269C118.691 13.9472 118.923 14.181 118.923 14.5937V15.3456C119.698 14.1902 120.96 13.5758 122.676 13.5758V13.5758Z" fill="black"/>
<path d="M25.6994 13.8005C25.4257 17.3813 22.3594 20.1872 18.7225 20.1872C15.0855 20.1872 12.0146 17.3813 11.7362 13.8005C11.7084 13.4245 11.8337 13.0532 12.0842 12.7643C12.3347 12.4755 12.6826 12.3012 13.063 12.2737C13.448 12.2462 13.8145 12.3654 14.1114 12.613C14.4036 12.8606 14.5799 13.2045 14.6077 13.5804C14.7747 15.6941 16.5793 17.3538 18.7271 17.3538C20.8749 17.3538 22.6795 15.6941 22.8465 13.5804C22.9021 12.8056 23.5933 12.2141 24.3866 12.2691C25.1752 12.3333 25.769 13.0165 25.704 13.8005H25.6994Z" fill="black"/>
<path d="M18.7181 0C8.3779 0 0 8.2803 0 18.5C0 28.7197 8.3779 37 18.7181 37C29.0582 37 37.4361 28.7197 37.4361 18.5C37.4361 8.2803 29.0582 0 18.7181 0ZM28.7057 25.5057C28.7057 27.0004 27.4764 28.22 25.9641 28.22H11.4721C9.95513 28.22 8.72582 27.0004 8.72582 25.5057V11.4943C8.72582 9.99963 9.95513 8.78463 11.4721 8.78463H25.9641C27.4764 8.78463 28.7057 9.99963 28.7057 11.4943V25.5011V25.5057Z" fill="black"/>
<path d="M130.591 6.84521C128.712 6.84521 127.186 8.35364 127.186 10.2105C127.186 12.0674 128.712 13.5758 130.591 13.5758C132.469 13.5758 133.995 12.0674 133.995 10.2105C133.995 8.35364 132.469 6.84521 130.591 6.84521ZM130.591 7.36331C132.186 7.36331 133.471 8.6379 133.471 10.2105C133.471 11.7831 132.182 13.0577 130.591 13.0577C128.999 13.0577 127.71 11.7831 127.71 10.2105C127.71 8.6379 128.999 7.36331 130.591 7.36331ZM129.542 8.65624V11.7648H130.066V10.6232H130.744L131.481 11.7648H132.005L131.245 10.5819C131.333 10.5636 131.412 10.5406 131.481 10.5177C131.639 10.4673 131.746 10.3939 131.848 10.293C131.927 10.2151 132.001 10.1051 132.029 9.97669C132.056 9.87124 132.08 9.74745 132.08 9.64658C132.08 9.54571 132.056 9.43567 132.029 9.3073C132.001 9.20184 131.954 9.10098 131.848 9.00011C131.769 8.89466 131.639 8.81671 131.481 8.76628C131.323 8.68834 131.11 8.66083 130.873 8.66083H129.537L129.542 8.65624ZM130.066 9.06888H130.744C130.822 9.06888 130.925 9.06888 131.031 9.09181C131.138 9.09181 131.212 9.11932 131.291 9.17434C131.37 9.22935 131.453 9.2752 131.481 9.33022C131.532 9.40816 131.555 9.48611 131.555 9.61448C131.555 9.71994 131.532 9.82997 131.481 9.90792C131.43 9.98586 131.37 10.0363 131.291 10.0867C131.212 10.1142 131.11 10.1417 131.031 10.1693C130.952 10.1968 130.85 10.1922 130.744 10.1922H130.066V9.07347V9.06888Z" fill="black"/>
</g>
<defs>
<clipPath id="clip0_587_2310">
<rect width="134" height="37" fill="white"/>
</clipPath>
</defs>
</svg>
