<svg width="122" height="33" viewBox="0 0 122 33" fill="none" xmlns="http://www.w3.org/2000/svg">
<g clip-path="url(#clip0_587_2310)">
<path d="M54.5466 8.14982V24.0242C54.5466 24.3963 54.3312 24.6008 53.9511 24.6008H51.9027C51.5183 24.6008 51.3072 24.3922 51.3072 24.0242V23.1654C50.4118 24.2654 49.0645 24.932 47.2315 24.932C43.878 24.932 41.1074 22.139 41.1074 18.5201C41.1074 14.9011 43.878 12.1082 47.2315 12.1082C49.0687 12.1082 50.4118 12.7706 51.3072 13.8747V8.14982C51.3072 7.7777 51.5226 7.57324 51.9027 7.57324H53.9511C54.3354 7.57324 54.5466 7.78179 54.5466 8.14982ZM51.3072 18.5201C51.3072 16.4755 49.8247 15.0892 47.827 15.0892C45.8293 15.0892 44.3468 16.4755 44.3468 18.5201C44.3468 20.5647 45.8293 21.9509 47.827 21.9509C49.8247 21.9509 51.3072 20.5647 51.3072 18.5201Z" fill="black"/>
<path d="M66.3128 12.4353C66.6971 12.4353 66.9083 12.6439 66.9083 13.0119V24.0201C66.9083 24.3922 66.6929 24.5967 66.3128 24.5967H64.2644C63.8801 24.5967 63.6689 24.3881 63.6689 24.0201V23.3495C62.9636 24.3799 61.8148 24.9279 60.2521 24.9279C57.9165 24.9279 56.168 23.19 56.168 20.2089V13.016C56.168 12.6439 56.3834 12.4394 56.7635 12.4394H58.8119C59.1962 12.4394 59.4074 12.648 59.4074 13.016V19.9759C59.4074 21.3703 60.2605 22.0246 61.3967 22.0246C62.6722 22.0246 63.6647 21.313 63.6647 19.4811V13.016C63.6647 12.6439 63.8801 12.4394 64.2602 12.4394H66.3086L66.3128 12.4353Z" fill="black"/>
<path d="M79.3216 24.6008H76.9353C76.627 24.6008 76.3947 24.4903 76.2173 24.2491L72.091 19.1089V24.0242C72.091 24.3963 71.8756 24.6008 71.4955 24.6008H69.4471C69.0627 24.6008 68.8516 24.3922 68.8516 24.0242V8.14982C68.8516 7.7777 69.067 7.57324 69.4471 7.57324H71.4955C71.8798 7.57324 72.091 7.78179 72.091 8.14982V17.7881L75.9682 12.7911C76.1455 12.5498 76.3778 12.4394 76.6862 12.4394H79.0935C79.5835 12.4394 79.7482 12.7502 79.4525 13.1387L75.2164 18.4587L79.6722 23.9015C79.9805 24.2859 79.8158 24.6008 79.3258 24.6008H79.3216Z" fill="black"/>
<path d="M85.9905 12.1082C88.7653 12.1082 91.1052 13.7071 91.1052 16.8762V24.0242C91.1052 24.3963 90.8898 24.6007 90.5096 24.6007H88.5373C88.1529 24.6007 87.9418 24.3922 87.9418 24.0242V23.5498C87.2195 24.4045 86.1299 24.932 84.5376 24.932C82.3034 24.932 80.3057 23.6602 80.3057 21.1045C80.3057 18.5487 82.3034 17.277 84.5376 17.277C86.1299 17.277 87.2195 17.739 87.9418 18.3524V17.0561C87.9418 15.6126 87.1857 15.0115 85.9947 15.0115C85.0444 15.0115 84.3476 15.3959 84.1364 16.0502C84.0055 16.3773 83.8745 16.5654 83.5155 16.5654H81.5051C81.1208 16.5654 80.8843 16.3569 80.9096 15.9643C81.2222 13.4781 83.4226 12.1041 85.9989 12.1041L85.9905 12.1082ZM87.9375 21.1045C87.9375 20.168 87.059 19.5915 85.6315 19.5915C84.204 19.5915 83.5409 20.2294 83.5409 21.1045C83.5409 21.9796 84.2082 22.6175 85.6315 22.6175C87.0548 22.6175 87.9375 21.9796 87.9375 21.1045Z" fill="black"/>
<path d="M98.2766 12.1082C101.051 12.1082 103.391 13.7071 103.391 16.8762V24.0242C103.391 24.3963 103.176 24.6007 102.796 24.6007H100.823C100.439 24.6007 100.228 24.3922 100.228 24.0242V23.5498C99.5057 24.4045 98.416 24.932 96.8237 24.932C94.5895 24.932 92.5918 23.6602 92.5918 21.1045C92.5918 18.5487 94.5895 17.277 96.8237 17.277C98.416 17.277 99.5057 17.739 100.228 18.3524V17.0561C100.228 15.6126 99.4719 15.0115 98.2809 15.0115C97.3306 15.0115 96.6337 15.3959 96.4225 16.0502C96.2916 16.3773 96.1607 16.5654 95.8017 16.5654H93.7913C93.4069 16.5654 93.1704 16.3569 93.1958 15.9643C93.5083 13.4781 95.7087 12.1041 98.2851 12.1041L98.2766 12.1082ZM100.224 21.1045C100.224 20.168 99.3452 19.5915 97.9176 19.5915C96.4901 19.5915 95.827 20.2294 95.827 21.1045C95.827 21.9796 96.4943 22.6175 97.9176 22.6175C99.3409 22.6175 100.224 21.9796 100.224 21.1045Z" fill="black"/>
<path d="M111.69 12.1082C114.026 12.1082 115.775 13.8461 115.775 16.8271V24.0242C115.775 24.3963 115.559 24.6007 115.179 24.6007H113.131C112.746 24.6007 112.535 24.3922 112.535 24.0242V17.0643C112.535 15.6699 111.682 15.0156 110.542 15.0156C109.266 15.0156 108.274 15.7271 108.274 17.5591V24.0242C108.274 24.3963 108.058 24.6007 107.678 24.6007H105.63C105.245 24.6007 105.034 24.3922 105.034 24.0242V13.016C105.034 12.6439 105.25 12.4394 105.63 12.4394H107.678C108.062 12.4394 108.274 12.648 108.274 13.016V13.6866C108.979 12.6561 110.128 12.1082 111.69 12.1082Z" fill="black"/>
<path d="M23.3979 12.3085C23.1487 15.5022 20.3569 18.0048 17.0457 18.0048C13.7345 18.0048 10.9385 15.5022 10.6851 12.3085C10.6598 11.9732 10.7738 11.642 11.0019 11.3844C11.2299 11.1268 11.5467 10.9714 11.893 10.9468C12.2436 10.9223 12.5772 11.0286 12.8475 11.2494C13.1136 11.4702 13.2741 11.7769 13.2995 12.1123C13.4515 13.9974 15.0944 15.4777 17.0499 15.4777C19.0054 15.4777 20.6484 13.9974 20.8004 12.1123C20.8511 11.4212 21.4804 10.8937 22.2026 10.9427C22.9206 11 23.4612 11.6093 23.4021 12.3085H23.3979Z" fill="black"/>
<path d="M17.0418 0C7.62764 0 0 7.38513 0 16.5C0 25.6149 7.62764 33 17.0418 33C26.456 33 34.0836 25.6149 34.0836 16.5C34.0836 7.38513 26.456 0 17.0418 0ZM26.135 22.7483C26.135 24.0814 25.0158 25.1691 23.6389 25.1691H10.4447C9.06363 25.1691 7.9444 24.0814 7.9444 22.7483V10.2517C7.9444 8.91859 9.06363 7.83494 10.4447 7.83494H23.6389C25.0158 7.83494 26.135 8.91859 26.135 10.2517V22.7442V22.7483Z" fill="black"/>
<path d="M118.896 6.10519C117.185 6.10519 115.796 7.45055 115.796 9.10668C115.796 10.7628 117.185 12.1082 118.896 12.1082C120.606 12.1082 121.996 10.7628 121.996 9.10668C121.996 7.45055 120.606 6.10519 118.896 6.10519ZM118.896 6.56728C120.349 6.56728 121.519 7.70408 121.519 9.10668C121.519 10.5093 120.345 11.6461 118.896 11.6461C117.447 11.6461 116.273 10.5093 116.273 9.10668C116.273 7.70408 117.447 6.56728 118.896 6.56728ZM117.941 7.72044V10.4929H118.419V9.47471H119.035L119.707 10.4929H120.184L119.491 9.43791C119.572 9.42155 119.643 9.40111 119.707 9.38066C119.85 9.33568 119.948 9.27025 120.041 9.18029C120.112 9.11077 120.18 9.01263 120.205 8.89813C120.231 8.80408 120.252 8.69367 120.252 8.60371C120.252 8.51374 120.231 8.4156 120.205 8.3011C120.18 8.20705 120.138 8.11709 120.041 8.02713C119.969 7.93307 119.85 7.86356 119.707 7.81858C119.563 7.74906 119.369 7.72452 119.154 7.72452H117.937L117.941 7.72044ZM118.419 8.08847H119.035C119.107 8.08847 119.2 8.08847 119.297 8.10891C119.394 8.10891 119.462 8.13345 119.534 8.18252C119.605 8.23159 119.682 8.27248 119.707 8.32155C119.753 8.39107 119.774 8.46058 119.774 8.57508C119.774 8.66913 119.753 8.76728 119.707 8.83679C119.66 8.90631 119.605 8.95129 119.534 8.99627C119.462 9.02081 119.369 9.04534 119.297 9.06988C119.225 9.09441 119.132 9.09032 119.035 9.09032H118.419V8.09256V8.08847Z" fill="black"/>
</g>
<defs>
<clipPath id="clip0_587_2310">
<rect width="122" height="33" fill="white"/>
</clipPath>
</defs>
</svg>
