<svg width="190" height="43" viewBox="0 0 190 43" fill="none" xmlns="http://www.w3.org/2000/svg">
<g clip-path="url(#clip0_587_2284)">
<path d="M190 31.6332C185.211 31.283 182.455 28.3399 182.455 23.5751C182.455 22.3327 182.455 21.0903 182.455 19.7047H178.727V17.374H182.439V13.6159H184.853V17.2991H188.579V19.6518H184.922C184.922 21.5683 184.748 23.3747 184.964 25.1347C185.267 27.5976 187.398 29.2783 190.003 29.4325V31.6354L190 31.6332Z" fill="black"/>
<path d="M21.7213 43.0001C9.74097 42.967 -0.0598934 33.2502 0.000275568 21.4626C0.0604446 9.59353 9.82342 -0.0175988 21.8015 2.41964e-05C33.7662 0.0176472 43.527 9.69486 43.5247 21.5375C43.5225 33.3361 33.6726 43.0309 21.7213 43.0001ZM15.593 3.99603C15.2186 4.76483 15.0358 5.30674 14.7194 5.76053C13.5227 7.48318 12.2346 9.14194 11.0781 10.8888C10.0307 12.4683 10.1956 13.2855 11.7956 14.2768C14.3829 15.8783 16.5601 17.8697 18.3585 20.3061C19.2165 21.4714 19.9452 21.4494 20.821 20.2554C22.5659 17.8741 24.6852 15.9246 27.2078 14.3627C28.9549 13.2811 29.1399 12.5322 28.0056 10.8404C26.9426 9.25429 25.6679 7.8092 24.5381 6.26719C23.9275 5.43231 23.4238 4.51811 22.8734 3.63917L22.6818 3.91893C24.5225 5.48738 26.41 7.00515 28.1794 8.6485C28.9193 9.33579 29.5076 10.2324 29.9934 11.1267C30.838 12.682 30.5973 13.9971 29.2981 15.2109C28.4089 16.0391 27.346 16.689 26.488 17.5437C25.3158 18.709 24.2662 19.9933 23.1653 21.2269L23.4907 21.5485C24.1169 21.1212 24.6963 20.5969 25.376 20.2907C26.8111 19.643 28.2775 19.0416 29.7817 18.579C30.1494 18.4667 30.8246 18.861 31.1299 19.2157C31.277 19.3853 30.945 20.0373 30.7266 20.4118C30.4525 20.8832 29.96 21.2489 29.755 21.738C29.0374 23.4496 27.6958 24.0311 25.9442 24.0157C25.503 24.0113 25.0395 24.0223 24.6228 24.1501C24.3576 24.2316 23.9966 24.5158 23.9654 24.7471C23.8361 25.6987 23.3548 26.3067 22.0801 26.5733L23.3837 26.9125C23.5308 27.7892 23.6333 28.666 23.8361 29.5185C24.0456 30.4085 24.2773 31.3028 24.6272 32.1443C25.3693 33.9353 26.5972 34.4661 28.4803 33.9771C29.0508 33.8295 29.2937 33.5696 29.1934 32.977C29.1065 32.4725 29.1332 31.9439 29.0218 31.446C28.3933 28.6704 30.5594 27.0601 31.7338 25.0401C31.7962 24.9321 31.9857 24.8308 32.1127 24.8352C33.2403 24.8837 34.3657 24.9564 35.4933 25.0202L35.7384 25.2736C34.0047 25.4961 34.3233 26.3089 34.6309 27.3971C34.8403 28.1395 34.5105 29.0845 34.2543 29.8842C34.0002 30.6794 33.5345 31.4108 33.1088 32.2787C34.7133 32.1135 36.0705 31.9064 37.4321 31.8624C38.2566 31.8359 38.7023 31.5099 39.0522 30.8204C42.6177 23.7866 42.4305 16.8498 37.8622 10.4086C33.2136 3.86386 26.6106 1.1301 18.5702 2.31744C9.71868 3.62375 2.69674 11.2192 2.14407 19.8391C1.53793 29.3048 7.35203 37.6713 16.3083 40.1804C18.441 40.7774 20.616 41.088 23.0071 40.8258C21.2221 39.0944 20.1145 37.1559 19.4727 34.9398C21.8594 34.2194 22.6305 33.1863 22.3809 31.3799C22.0912 31.9593 21.806 32.7457 21.3246 33.3867C21.1174 33.6621 20.5045 33.6423 20.0744 33.7546C20.1279 33.2788 20.1079 32.7765 20.2572 32.3338C20.3775 31.9791 20.7073 31.6927 20.9435 31.3755L20.7675 31.1156C19.9964 32.1289 19.1407 31.8602 18.2248 31.3116C18.4098 31.761 18.6928 32.0033 18.8421 32.3095C19.0226 32.6818 19.1251 33.1026 19.1786 33.5123C19.192 33.607 18.7864 33.8802 18.724 33.8405C18.3696 33.6114 18.0153 33.3493 17.7501 33.0277C17.5763 32.8162 17.5273 32.4902 17.4582 32.2082C17.0638 30.5538 17.3133 28.7497 16.2526 27.2363C16.1724 27.1218 16.5155 26.7187 16.6738 26.4301C15.8002 26.2891 15.3523 25.7846 15.2097 24.8947C15.1629 24.6017 14.7617 24.236 14.4497 24.1435C13.9283 23.9893 13.3511 24.0157 12.7962 23.9915C11.263 23.9254 10.0908 23.3637 9.46018 21.8701C9.25293 21.3767 8.7738 21.0022 8.51307 20.5242C8.2724 20.0814 8.16097 19.5725 7.99384 19.0923C8.55764 18.9205 9.21504 18.4755 9.6652 18.6275C11.1872 19.1452 12.6469 19.8501 14.1066 20.533C14.6414 20.7841 15.1094 21.1762 15.6643 21.5419C15.7022 21.2974 15.7423 21.2115 15.7178 21.1608C15.6175 20.9647 15.5016 20.7775 15.3812 20.5925C14.1244 18.687 12.3862 17.2705 10.59 15.8871C8.26571 14.0962 8.06961 12.3713 9.78331 10.0011C10.0195 9.67283 10.258 9.338 10.541 9.05162C12.1344 7.44132 13.7411 5.84424 15.593 3.99603V3.99603ZM22.9514 24.3241C21.7235 23.7954 20.7474 25.0841 20.7742 27.2694C21.4182 26.397 22.2004 25.3419 22.9514 24.3241ZM18.3696 27.0645C18.3273 24.8748 17.4604 23.8285 16.2348 24.3462C16.9367 25.2427 17.6677 26.1723 18.3696 27.0645Z" fill="black"/>
<path d="M107.791 19.1716V11.5431H110.425V31.5099H108.143C108.025 30.9591 107.898 30.3622 107.733 29.6C106.057 31.5451 103.949 32.1156 101.593 31.8006C99.8395 31.5671 98.3932 30.7036 97.2723 29.3246C94.841 26.3353 95.1575 21.4097 97.9631 18.7597C100.653 16.2176 104.568 16.3321 107.793 19.1694L107.791 19.1716ZM98.3264 24.2867C98.2573 27.3112 100.145 29.4436 102.962 29.5163C105.843 29.5912 107.909 27.5117 107.947 24.4937C107.985 21.5309 106.003 19.35 103.229 19.2994C100.401 19.2465 98.3955 21.2886 98.3264 24.2867V24.2867Z" fill="black"/>
<path d="M158.18 28.3091C158.768 28.84 159.28 29.3048 159.784 29.7608C158.175 31.9504 153.861 32.521 150.946 30.9988C147.648 29.2783 146.175 25.2537 147.514 21.6212C148.804 18.1208 152.379 16.3078 156.363 17.1317C159.706 17.8234 161.921 21.0881 161.614 25.0092H149.789C149.977 26.8772 150.77 28.243 152.341 29.0008C154.382 29.9833 156.366 29.7211 158.182 28.3091H158.18ZM158.781 22.8261C158.46 20.4713 156.954 19.2311 154.536 19.2134C152.189 19.1958 150.342 20.6651 150.05 22.8261H158.781V22.8261Z" fill="black"/>
<path d="M177.87 25.0114H166.106C166.34 26.8309 167.082 28.2121 168.655 28.9809C170.701 29.9811 172.678 29.7498 174.614 28.2342C175.075 28.7981 175.552 29.3797 176.038 29.97C174.115 32.1619 169.62 32.5452 166.725 30.6639C163.599 28.6307 162.485 24.4827 164.127 20.9955C165.671 17.7199 169.529 16.158 173.275 17.2925C176.37 18.2309 178.427 21.6278 177.87 25.0114ZM166.413 22.8261C166.741 22.8438 167.066 22.8724 167.389 22.8746C169.937 22.879 172.484 22.8746 175.017 22.8746C175.265 20.9691 173.346 19.2905 171.218 19.2178C168.702 19.1297 166.645 20.599 166.413 22.8261Z" fill="black"/>
<path d="M86.1481 28.276C86.7208 28.8202 87.2245 29.2982 87.7214 29.7696C86.0924 31.9681 81.6778 32.5298 78.7897 30.9569C75.4358 29.1286 74.0675 25.029 75.574 21.3128C76.9333 17.9556 80.7396 16.2021 84.5191 17.189C87.8016 18.0459 89.9655 21.3767 89.5109 25.007H77.6777C77.9674 26.8662 78.7117 28.2937 80.3674 29.0448C82.3953 29.9656 84.3341 29.6969 86.1503 28.276H86.1481ZM86.6941 22.8173C86.4356 20.5484 84.9692 19.2949 82.5959 19.22C80.2047 19.1451 78.3618 20.5572 77.9651 22.8173H86.6941V22.8173Z" fill="black"/>
<path d="M112.017 26.1591H114.45C114.691 26.7957 114.838 27.4918 115.188 28.0623C116.369 29.981 120.737 30.3269 122.274 28.6659C123.215 27.6504 122.845 26.2956 121.432 25.9542C120.286 25.6788 119.088 25.6326 117.915 25.4608C117.111 25.344 116.3 25.2339 115.515 25.0356C113.935 24.6369 112.906 23.683 112.692 22.0243C112.458 20.2003 113.082 18.731 114.769 17.8917C117.343 16.6096 119.986 16.5259 122.557 17.9005C124.269 18.8169 125.002 20.3699 125.109 22.3283H122.671C122.136 19.0901 119.228 18.5966 116.44 19.5372C115.638 19.8082 115.157 20.4448 115.199 21.3083C115.239 22.1498 115.812 22.6697 116.601 22.8019C118.279 23.0817 119.981 23.2337 121.659 23.5112C124.594 23.998 126.063 26.082 125.075 28.591C124.719 29.4964 123.888 30.4392 123.021 30.8886C120.583 32.1509 117.967 32.2588 115.391 31.2014C113.209 30.3071 112.237 28.5514 112.019 26.1569L112.017 26.1591Z" fill="black"/>
<path d="M52.1509 11.5694C52.3649 11.5034 52.3983 11.4879 52.4362 11.4813C54.5042 11.1487 56.0263 11.6642 57.2319 13.6049C58.716 15.995 60.6036 18.1428 62.3953 20.4999C64.1781 18.1604 65.8895 15.9179 67.5988 13.6754C67.6879 13.5586 67.8016 13.4529 67.8617 13.3229C68.7799 11.3624 70.4133 11.1553 72.4078 11.5783C72.2563 11.8272 72.136 12.0695 71.9755 12.2788C69.4239 15.5632 66.8455 18.8279 64.3296 22.1388C63.9641 22.619 63.7346 23.3173 63.719 23.9231C63.6521 26.4454 63.69 28.9699 63.69 31.5561H60.9245C60.9245 29.7982 60.7841 28.0381 60.9579 26.311C61.1986 23.9297 60.4788 22.0507 58.8943 20.2399C56.6904 17.722 54.7382 14.9861 52.6791 12.3404C52.5075 12.1202 52.3582 11.88 52.1465 11.5716L52.1509 11.5694Z" fill="black"/>
<path d="M137.329 29.536V31.4547C134.421 31.9503 130.993 29.6505 130.1 26.463C129.75 25.2162 129.785 23.857 129.705 22.5463C129.649 21.6409 129.694 20.7289 129.694 19.7046H125.99V17.3475H129.674V13.6203H132.025V17.2902H135.847V19.6826H132.163C132.163 21.5726 131.983 23.3437 132.205 25.0664C132.533 27.5953 134.216 28.9412 137.327 29.5382L137.329 29.536Z" fill="black"/>
<path d="M141.185 19.4954C143.01 18.0943 144.75 17.2044 146.939 17.2991V19.4954C146.578 19.568 146.19 19.6474 145.802 19.7267C143.177 20.273 141.247 22.5706 141.221 25.2272C141.198 27.3067 141.216 29.3884 141.216 31.523H138.669C138.649 31.1023 138.613 30.7124 138.613 30.3203C138.609 26.4674 138.66 22.6146 138.582 18.764C138.56 17.6185 138.905 17.2286 140.015 17.396C140.369 17.4489 140.741 17.4048 141.187 17.4048V19.4976L141.185 19.4954Z" fill="black"/>
<path d="M91.5911 11.5518C93.255 11.3536 94.087 12.0247 94.087 13.5652C94.087 19.1451 94.087 24.725 94.087 30.3049C94.087 30.7014 94.087 31.0979 94.087 31.5561H91.5889V11.5518H91.5911Z" fill="black"/>
<path d="M72.76 31.5825H70.3711V17.2991H72.76V31.5847V31.5825Z" fill="black"/>
</g>
<defs>
<clipPath id="clip0_587_2284">
<rect width="190" height="43" fill="white"/>
</clipPath>
</defs>
</svg>
