<svg width="155" height="35" viewBox="0 0 155 35" fill="none" xmlns="http://www.w3.org/2000/svg">
<g clip-path="url(#clip0_587_2284)">
<path d="M155 25.748C151.093 25.4629 148.844 23.0674 148.844 19.189C148.844 18.1778 148.844 17.1665 148.844 16.0387H145.803V14.1416H148.831V11.0827H150.8V14.0807H153.84V15.9956H150.857C150.857 17.5556 150.715 19.0259 150.891 20.4585C151.138 22.4631 152.876 23.8312 155.002 23.9567V25.7498L155 25.748Z" fill="black"/>
<path d="M17.72 35.0001C7.94658 34.9732 -0.0488604 27.0641 0.000224806 17.4696C0.04931 7.80869 8.01384 -0.0143246 17.7854 1.96948e-05C27.5461 0.014364 35.5088 7.89117 35.507 17.5305C35.5052 27.134 27.4698 35.0252 17.72 35.0001ZM12.7206 3.25258C12.4151 3.87835 12.2661 4.31944 12.0079 4.68881C11.0317 6.09096 9.98089 7.44111 9.03736 8.86299C8.18291 10.1486 8.31744 10.8138 9.62275 11.6207C11.7334 12.9242 13.5096 14.5451 14.9767 16.5282C15.6766 17.4767 16.2711 17.4588 16.9855 16.487C18.409 14.5487 20.1379 12.9619 22.1958 11.6906C23.6211 10.8102 23.772 10.2006 22.8467 8.82354C21.9795 7.53256 20.9396 6.35633 20.0179 5.1012C19.5198 4.42164 19.1089 3.67753 18.6599 2.96211L18.5035 3.18983C20.0052 4.46647 21.545 5.70187 22.9885 7.03947C23.592 7.5989 24.072 8.32867 24.4683 9.05664C25.1573 10.3225 24.961 11.393 23.9011 12.3809C23.1757 13.0551 22.3085 13.5841 21.6086 14.2797C20.6524 15.2283 19.7961 16.2736 18.898 17.2777L19.1635 17.5395C19.6743 17.1916 20.147 16.7649 20.7015 16.5157C21.8722 15.9885 23.0685 15.499 24.2956 15.1225C24.5956 15.031 25.1464 15.352 25.3955 15.6407C25.5155 15.7787 25.2446 16.3095 25.0664 16.6143C24.8428 16.998 24.441 17.2956 24.2738 17.6937C23.6884 19.0869 22.594 19.5602 21.165 19.5477C20.8051 19.5441 20.4269 19.5531 20.087 19.6571C19.8706 19.7234 19.5761 19.9547 19.5507 20.143C19.4452 20.9176 19.0526 21.4124 18.0127 21.6294L19.0762 21.9055C19.1962 22.6192 19.2798 23.3328 19.4452 24.0267C19.6161 24.7511 19.8052 25.479 20.0906 26.164C20.696 27.6217 21.6977 28.0538 23.2339 27.6558C23.6993 27.5357 23.8975 27.3241 23.8156 26.8417C23.7447 26.4311 23.7666 26.0008 23.6757 25.5956C23.163 23.3364 24.9301 22.0257 25.8881 20.3814C25.939 20.2936 26.0936 20.2111 26.1972 20.2147C27.1171 20.2541 28.0352 20.3133 28.9551 20.3653L29.155 20.5715C27.7406 20.7526 28.0006 21.4142 28.2515 22.3C28.4224 22.9042 28.1533 23.6735 27.9443 24.3243C27.737 24.9716 27.3571 25.5669 27.0098 26.2734C28.3188 26.1389 29.4259 25.9703 30.5367 25.9345C31.2093 25.913 31.5729 25.6476 31.8584 25.0864C34.7671 19.3612 34.6144 13.7149 30.8876 8.47211C27.0953 3.145 21.7086 0.919847 15.1494 1.88629C7.9284 2.94956 2.19997 9.13194 1.74911 16.1481C1.25462 23.8528 5.99771 30.6627 13.3041 32.705C15.0439 33.1909 16.8183 33.4437 18.769 33.2303C17.3128 31.821 16.4092 30.2431 15.8857 28.4393C17.8327 27.853 18.4617 27.0121 18.2581 25.5418C18.0218 26.0134 17.7891 26.6535 17.3964 27.1753C17.2273 27.3994 16.7274 27.3832 16.3765 27.4747C16.4201 27.0874 16.4038 26.6786 16.5256 26.3182C16.6238 26.0295 16.8928 25.7964 17.0855 25.5382L16.9419 25.3266C16.3129 26.1514 15.6148 25.9327 14.8676 25.4862C15.0185 25.852 15.2494 26.0492 15.3712 26.2985C15.5184 26.6015 15.6021 26.944 15.6457 27.2775C15.6566 27.3546 15.3257 27.5769 15.2748 27.5446C14.9858 27.3581 14.6967 27.1448 14.4804 26.883C14.3386 26.7109 14.2986 26.4455 14.2422 26.216C13.9204 24.8694 14.124 23.4009 13.2587 22.1691C13.1932 22.0759 13.4732 21.7477 13.6023 21.5129C12.8896 21.3981 12.5242 20.9875 12.4079 20.2631C12.3697 20.0246 12.0425 19.727 11.7879 19.6517C11.3625 19.5262 10.8917 19.5477 10.439 19.528C9.18825 19.4742 8.232 19.0169 7.71751 17.8013C7.54844 17.3996 7.15758 17.0948 6.94487 16.7057C6.74853 16.3453 6.65763 15.9311 6.52129 15.5403C6.98123 15.4004 7.51754 15.0382 7.88477 15.1619C9.12644 15.5833 10.3172 16.1571 11.508 16.7129C11.9443 16.9173 12.3261 17.2365 12.7787 17.5341C12.8096 17.3351 12.8424 17.2652 12.8224 17.2239C12.7406 17.0643 12.646 16.9119 12.5479 16.7613C11.5225 15.2103 10.1045 14.0574 8.63922 12.9314C6.74308 11.4736 6.5831 10.0697 7.98112 8.1404C8.17382 7.87324 8.36835 7.60069 8.59923 7.3676C9.89908 6.05689 11.2098 4.75694 12.7206 3.25258ZM18.7235 19.7987C17.7218 19.3684 16.9255 20.4173 16.9474 22.196C17.4727 21.486 18.1109 20.6271 18.7235 19.7987ZM14.9858 22.0292C14.9512 20.247 14.244 19.3953 13.2441 19.8166C13.8168 20.5464 14.4131 21.3031 14.9858 22.0292Z" fill="black"/>
<path d="M87.9345 15.6048V9.39554H90.0833V25.6476H88.2217C88.1254 25.1993 88.0217 24.7134 87.8872 24.093C86.5201 25.6762 84.8003 26.1406 82.8787 25.8842C81.448 25.6942 80.2681 24.9913 79.3536 23.8689C77.3702 21.4357 77.6284 17.4265 79.9172 15.2695C82.1115 13.2003 85.3057 13.2936 87.9363 15.603L87.9345 15.6048ZM80.2136 19.7682C80.1572 22.23 81.697 23.9657 83.9949 24.0249C86.3456 24.0858 88.0308 22.3932 88.0617 19.9368C88.0926 17.5251 86.4765 15.75 84.2131 15.7088C81.9061 15.6658 80.2699 17.3279 80.2136 19.7682Z" fill="black"/>
<path d="M129.041 23.0423C129.521 23.4744 129.939 23.8527 130.35 24.2239C129.037 26.0062 125.518 26.4706 123.14 25.2316C120.449 23.8312 119.248 20.5554 120.34 17.5986C121.393 14.7495 124.309 13.2738 127.559 13.9444C130.286 14.5074 132.093 17.1647 131.843 20.3563H122.196C122.349 21.8768 122.996 22.9885 124.278 23.6053C125.943 24.405 127.561 24.1916 129.043 23.0423H129.041ZM129.532 18.5794C129.27 16.6627 128.041 15.6532 126.069 15.6389C124.154 15.6245 122.647 16.8205 122.409 18.5794H129.532Z" fill="black"/>
<path d="M145.105 20.3581H135.508C135.698 21.8391 136.304 22.9634 137.587 23.5891C139.256 24.4032 140.869 24.2149 142.449 22.9813C142.825 23.4403 143.214 23.9137 143.61 24.3942C142.041 26.1783 138.374 26.4903 136.013 24.959C133.462 23.304 132.553 19.9278 133.893 17.0894C135.153 14.4232 138.3 13.1519 141.356 14.0753C143.881 14.8391 145.559 17.604 145.105 20.3581ZM135.758 18.5794C136.026 18.5938 136.291 18.6171 136.555 18.6189C138.633 18.6224 140.711 18.6189 142.778 18.6189C142.979 17.0679 141.414 15.7016 139.678 15.6424C137.625 15.5707 135.947 16.7666 135.758 18.5794Z" fill="black"/>
<path d="M70.2794 23.0154C70.7466 23.4583 71.1575 23.8473 71.5629 24.231C70.234 26.0205 66.6326 26.4777 64.2765 25.1975C61.5405 23.7093 60.4242 20.3724 61.6532 17.3476C62.7621 14.615 65.8672 13.1878 68.9505 13.991C71.6284 14.6885 73.3936 17.3996 73.0227 20.3545H63.3693C63.6057 21.8678 64.2129 23.0297 65.5636 23.6411C67.218 24.3906 68.7996 24.1719 70.2812 23.0154H70.2794ZM70.7248 18.5722C70.5139 16.7254 69.3177 15.7052 67.3816 15.6442C65.4309 15.5832 63.9274 16.7326 63.6038 18.5722H70.7248Z" fill="black"/>
<path d="M91.3818 21.2922H93.3671C93.5634 21.8104 93.6834 22.377 93.9688 22.8414C94.9323 24.4032 98.4955 24.6847 99.7499 23.3327C100.517 22.5061 100.215 21.4034 99.0627 21.1255C98.1283 20.9014 97.1502 20.8637 96.194 20.7239C95.5377 20.6288 94.876 20.5392 94.236 20.3778C92.9471 20.0533 92.1072 19.2769 91.9327 17.9267C91.7418 16.4421 92.2508 15.2461 93.627 14.563C95.7268 13.5195 97.8829 13.4513 99.9808 14.5702C101.377 15.3161 101.975 16.5802 102.062 18.1742H100.074C99.6372 15.5384 97.2648 15.1368 94.9905 15.9024C94.336 16.1229 93.9434 16.6411 93.9779 17.344C94.0106 18.0289 94.4778 18.4521 95.1214 18.5597C96.4903 18.7874 97.8793 18.9111 99.2482 19.137C101.642 19.5333 102.84 21.2295 102.035 23.2718C101.744 24.0087 101.066 24.7761 100.359 25.1419C98.3701 26.1693 96.2358 26.2572 94.1342 25.3965C92.3544 24.6685 91.5618 23.2395 91.3837 21.2905L91.3818 21.2922Z" fill="black"/>
<path d="M42.5437 9.41699C42.7182 9.3632 42.7455 9.35065 42.7764 9.34527C44.4635 9.07453 45.7051 9.49409 46.6887 11.0738C47.8994 13.0192 49.4392 14.7674 50.9009 16.6859C52.3553 14.7817 53.7515 12.9564 55.1459 11.1311C55.2186 11.0361 55.3113 10.95 55.3604 10.8442C56.1094 9.24845 57.442 9.0799 59.069 9.42417C58.9454 9.62678 58.8472 9.82401 58.7164 9.99435C56.6348 12.6678 54.5314 15.325 52.4789 18.02C52.1807 18.4108 51.9935 18.9792 51.9808 19.4723C51.9262 21.5253 51.9571 23.5801 51.9571 25.6852H49.701C49.701 24.2543 49.5865 22.8217 49.7283 21.416C49.9246 19.4777 49.3374 17.9482 48.0449 16.4744C46.2469 14.4249 44.6543 12.198 42.9745 10.0446C42.8346 9.86525 42.7127 9.66981 42.54 9.41879L42.5437 9.41699Z" fill="black"/>
<path d="M112.032 24.0409V25.6027C109.66 26.0061 106.864 24.1342 106.135 21.5397C105.849 20.5248 105.878 19.4185 105.813 18.3516C105.767 17.6147 105.804 16.8724 105.804 16.0386H102.782V14.1201H105.787V11.0863H107.705V14.0735H110.823V16.0207H107.818C107.818 17.5591 107.671 19.0007 107.853 20.4029C108.12 22.4613 109.492 23.5568 112.03 24.0427L112.032 24.0409Z" fill="black"/>
<path d="M115.178 15.8683C116.667 14.728 118.087 14.0036 119.872 14.0807V15.8683C119.577 15.9275 119.261 15.9921 118.945 16.0566C116.803 16.5013 115.229 18.3714 115.207 20.5338C115.189 22.2264 115.203 23.9208 115.203 25.6583H113.125C113.109 25.3158 113.08 24.9985 113.08 24.6793C113.076 21.5433 113.118 18.4073 113.055 15.273C113.036 14.3407 113.318 14.0233 114.223 14.1596C114.513 14.2026 114.816 14.1667 115.18 14.1667V15.8701L115.178 15.8683Z" fill="black"/>
<path d="M74.7186 9.40263C76.076 9.24126 76.7547 9.78754 76.7547 11.0415C76.7547 15.5832 76.7547 20.125 76.7547 24.6667C76.7547 24.9895 76.7547 25.3122 76.7547 25.6852H74.7168V9.40263H74.7186Z" fill="black"/>
<path d="M59.3571 25.7067H57.4082V14.0807H59.3571V25.7085V25.7067Z" fill="black"/>
</g>
<defs>
<clipPath id="clip0_587_2284">
<rect width="155" height="35" fill="white"/>
</clipPath>
</defs>
</svg>
