
<svg width="220" height="321" viewBox="0 0 220 321" fill="none" xmlns="http://www.w3.org/2000/svg">
<circle cx="115.5" cy="5.5" r="5" stroke="#F85E60"/>
<circle cx="115.5" cy="315.5" r="5" stroke="#F85E60"/>
<path d="M219 20C219 36.6516 219 50.0259 219 54.6317C219 65.6146 211.983 86.2519 187.277 86.2519C158.41 86.2519 161.064 104.675 161.064 112.381C161.064 119.112 161.064 204.019 161.064 230" stroke="#26D7A0"/>
<path d="M116.021 13V85.0417C116.021 97.7292 117.907 112.312 143.16 112.312C167.193 112.312 176.104 112.312 177.555 112.312C187.037 112.069 206 117.446 206 140.896C206 164.346 206 139.389 206 162.333C206 197.333 186.553 201.125 150.271 201.125C113.989 201.125 116.021 227.667 116.021 235.542C116.021 242.687 116.021 294.458 116.021 300" stroke="#F85E60"/>
<path d="M116 88L116 191" stroke="#26D7A0"/>
<path d="M174 91L174 177" stroke="#26D7A0"/>
<path d="M148 112V239" stroke="#26D7A0"/>
<path d="M116 87H113.941C107.765 87 96 89.1541 96 104.757C96 120.36 96 232.063 96 257" stroke="#26D7A0"/>
<path d="M146 112H141.35C137.282 112 129 113.087 129 124.49C129 135.892 129 168.914 129 184" stroke="#26D7A0"/>
<path d="M1 13C1 40.4423 1 62.4837 1 70.0741C1.00005 88.1743 12.4941 122.185 52.9595 122.185C100.242 122.185 95.8952 152.547 95.8952 165.246C95.8952 176.34 95.8952 171.182 95.8952 214" stroke="#26D7A0"/>
</svg>
