<svg width="107" height="107" viewBox="0 0 107 107" fill="none" xmlns="http://www.w3.org/2000/svg">
<g filter="url(#filter0_d_649_884)">
<rect x="11" y="7" width="85" height="85" rx="16" fill="white"/>
<rect x="12" y="8" width="83" height="83" rx="15" stroke="url(#paint0_linear_649_884)" stroke-width="2"/>
</g>
<circle cx="54" cy="49" r="22" fill="black"/>
<path d="M54.1652 40.8948C49.6048 40.8948 45.8945 44.605 45.8945 49.1655C45.8945 53.7259 49.6048 57.4361 54.1652 57.4361C58.7257 57.4361 62.4359 53.7259 62.4359 49.1655C62.4359 44.605 58.7257 40.8948 54.1652 40.8948ZM54.1652 55.782C50.517 55.782 47.5487 52.8136 47.5487 49.1655C47.5487 45.5173 50.517 42.5489 54.1652 42.5489C57.8134 42.5489 60.7817 45.5173 60.7817 49.1655C60.7817 52.8136 57.8134 55.782 54.1652 55.782Z" fill="#FBFEFD"/>
<path d="M50.8574 52.4737L55.8124 50.8196L57.474 45.8572L52.5116 47.5113L50.8574 52.4737Z" fill="#FBFEFD"/>
<defs>
<filter id="filter0_d_649_884" x="0" y="0" width="107" height="107" filterUnits="userSpaceOnUse" color-interpolation-filters="sRGB">
<feFlood flood-opacity="0" result="BackgroundImageFix"/>
<feColorMatrix in="SourceAlpha" type="matrix" values="0 0 0 0 0 0 0 0 0 0 0 0 0 0 0 0 0 0 127 0" result="hardAlpha"/>
<feOffset dy="4"/>
<feGaussianBlur stdDeviation="5.5"/>
<feComposite in2="hardAlpha" operator="out"/>
<feColorMatrix type="matrix" values="0 0 0 0 0.136667 0 0 0 0 0.8 0 0 0 0 0.591524 0 0 0 0.15 0"/>
<feBlend mode="normal" in2="BackgroundImageFix" result="effect1_dropShadow_649_884"/>
<feBlend mode="normal" in="SourceGraphic" in2="effect1_dropShadow_649_884" result="shape"/>
</filter>
<linearGradient id="paint0_linear_649_884" x1="11" y1="41" x2="94.13" y2="44.2299" gradientUnits="userSpaceOnUse">
<stop stop-color="#27D89E"/>
<stop offset="1" stop-color="#3A86FF"/>
</linearGradient>
</defs>
</svg>
