<svg id="eizaZNqTluc1" xmlns="http://www.w3.org/2000/svg" xmlns:xlink="http://www.w3.org/1999/xlink" viewBox="0 0 1920 1153" shape-rendering="geometricPrecision" text-rendering="geometricPrecision"><g clip-path="url(#eizaZNqTluc61)"><g><path d="M-159,115h578c58.333,1,175,37.4,175,175s0,123.5,0,305" fill="none" stroke="#cacccd"/><path d="M-14,187.5h578c58.333,1,175,37.4,175,175s0,535,0,716.5" fill="none" stroke="#cacccd"/><path d="M74,239.5h578c58.333,1,175,37.4,175,175s0,535,0,716.5" fill="none" stroke="#cacccd"/><path d="M22,239.5h578c58.333,1,175,37.4,175,175s0,535,0,716.5" fill="none" stroke="#cacccd"/><path d="M-29,239.5h578c58.333,1,175,37.4,175,175s0,535,0,716.5" fill="none" stroke="#cacccd"/><path d="M-76,239.5h578c58.333,1,175,37.4,175,175s0-1,0,180.5" fill="none" stroke="#cacccd"/><path d="M-52,262.5h578c58.333,1,175,37.4,175,175s0-24,0,157.5" fill="none" stroke="#cacccd"/><path d="M-14,275.5h578c58.333,1,175,37.4,175,175s0,535,0,716.5" fill="none" stroke="#cacccd"/><path d="M-3,205.5h578c58.333,1,175,37.4,175,175s0,535,0,716.5" fill="none" stroke="#cacccd"/><path d="M-3,129.5h578c58.333,1,175,37.4,175,175s0,535,0,716.5" fill="none" stroke="#cacccd"/><path d="M-68,148.5h578c58.333,1,175,37.4,175,175s0,90,0,271.5" fill="none" stroke="#cacccd"/><path d="M-29,148.5h578c58.333,1,175,37.4,175,175s0,535,0,716.5" fill="none" stroke="#cacccd"/><path d="M-15,221.5h701c58.333,1,175,37.4,175,175s0,535,0,716.5" fill="none" stroke="#000"/><path d="M38,148.5h578c58.333,1,175,37.4,175,175s0,535,0,716.5" fill="none" stroke="#000"/><path d="M-3,170.5h578c58.333,1,175,37.4,175,175s0,535,0,716.5" fill="none" stroke="#000"/><path d="M1982,115h-578c-58.33,1-175,37.4-175,175s0,535,0,716.5" fill="none" stroke="#cacccd"/><path d="M1843,148.5h-578c-58.33,1-175,37.4-175,175s0,535,0,716.5" fill="none" stroke="#cacccd"/><path d="M1896,221.5h-701c-58.33,1-175,37.4-175,175s0,535,0,716.5" fill="none" stroke="#000"/><path d="M1807,239.5h-578c-58.33,1-175,37.4-175,175s0,535,0,716.5" fill="none" stroke="#cacccd"/><path d="M1859,239.5h-578c-58.33,1-175,37.4-175,175s0,535,0,716.5" fill="none" stroke="#cacccd"/><path d="M1910,239.5h-578c-58.33,1-175,37.4-175,175s0,535,0,716.5" fill="none" stroke="#cacccd"/><path d="M1957,239.5h-578c-58.33,1-175,37.4-175,175s0,535,0,716.5" fill="none" stroke="#cacccd"/><path d="M1933,262.5h-578c-58.33,1-175,37.4-175,175s0,535,0,716.5" fill="none" stroke="#cacccd"/><path d="M1895,275.5h-578c-58.33,1-175,37.4-175,175s0,535,0,716.5" fill="none" stroke="#cacccd"/><path d="M1884,205.5h-578c-58.33,1-175,37.4-175,175s0,535,0,716.5" fill="none" stroke="#cacccd"/><path d="M1884,170.5h-578c-58.33,1-175,37.4-175,175s0,535,0,716.5" fill="none" stroke="#cacccd"/><path d="M1884,129.5h-578c-58.33,1-175,37.4-175,175s0,535,0,716.5" fill="none" stroke="#000"/><path d="M1949,148.5h-578c-58.33,1-175,37.4-175,175s0,535,0,716.5" fill="none" stroke="#cacccd"/><path d="M1910,148.5h-578c-58.33,1-175,37.4-175,175s0,535,0,716.5" fill="none" stroke="#cacccd"/><path d="M1895,187.5h-578c-58.33,1-175,37.4-175,175s0,535,0,716.5" fill="none" stroke="#000"/><path d="M960.359,169c0,94,0,169.5,0,195.5c0,62-39.486,178.5-178.5,178.5-162.432,0-147.5,104-147.5,147.5c0,38,0,20.333,0,167" fill="none" stroke="#0b1922"/><path d="M1314,90c0,56.932,0,102.66,0,118.407c0,37.552-23.96,108.112-108.29,108.112-98.55,0-89.49,62.989-89.49,89.335c0,23.015,0,313.315,0,402.146" fill="none" stroke="#000"/><rect width="79" height="25" rx="12.5" ry="12.5" transform="translate(594 32)"/><path d="M611.648,49.12c-.576,0-1.072-.096-1.488-.288-.408-.192-.724-.468-.948-.828s-.34-.788-.348-1.284h1.08c0,.44.148.788.444,1.044.304.256.724.384,1.26.384.504,0,.896-.124,1.176-.372.288-.248.432-.592.432-1.032c0-.352-.096-.66-.288-.924-.184-.264-.452-.448-.804-.552l-1.188-.372c-.6-.184-1.064-.492-1.392-.924-.32-.432-.48-.94-.48-1.524c0-.472.104-.88.312-1.224.216-.352.516-.624.9-.816.384-.2.836-.3,1.356-.3.768,0,1.384.216,1.848.648.464.424.7.992.708,1.704h-1.08c0-.432-.132-.768-.396-1.008-.256-.248-.62-.372-1.092-.372-.464,0-.828.112-1.092.336-.256.224-.384.536-.384.936c0,.36.096.672.288.936s.468.452.828.564l1.2.384c.584.184,1.036.496,1.356.936s.48.956.48,1.548c0,.48-.112.9-.336,1.26s-.54.64-.948.84c-.4.2-.868.3-1.404.3Zm7.147,0c-.52,0-.976-.104-1.368-.312-.384-.208-.684-.5-.9-.876-.208-.384-.312-.828-.312-1.332v-1.8c0-.512.104-.956.312-1.332.216-.376.516-.668.9-.876.392-.208.848-.312,1.368-.312s.972.104,1.356.312c.392.208.692.5.9.876.216.376.324.82.324,1.332v1.164h-4.104v.636c0,.52.132.92.396,1.2.264.272.64.408,1.128.408.416,0,.752-.072,1.008-.216.256-.152.412-.376.468-.672h1.08c-.072.552-.344.992-.816,1.32-.464.32-1.044.48-1.74.48Zm1.524-3.876v-.444c0-.52-.132-.92-.396-1.2-.256-.28-.632-.42-1.128-.42-.488,0-.864.14-1.128.42s-.396.68-.396,1.2v.348h3.132l-.084.096ZM623.723,49v-6.6h1.056v1.26h.252l-.348.78c0-.712.152-1.248.456-1.608.312-.368.772-.552,1.38-.552.696,0,1.248.22,1.656.66.416.432.624,1.02.624,1.764v.396h-1.08v-.3c0-.52-.128-.916-.384-1.188-.248-.28-.604-.42-1.068-.42-.456,0-.816.14-1.08.42-.256.28-.384.676-.384,1.188v4.2h-1.08Zm8.731,0l-2.208-6.6h1.104l1.464,4.44c.088.264.168.52.24.768.072.24.124.428.156.564.04-.136.096-.324.168-.564.072-.248.148-.504.228-.768l1.428-4.44h1.092L633.918,49h-1.464Zm5.347,0v-.984h2.34v-4.632h-2.04v-.984h3.12v5.616h2.22v.984h-5.64Zm2.76-7.788c-.264,0-.472-.068-.624-.204s-.228-.32-.228-.552c0-.24.076-.428.228-.564.152-.144.36-.216.624-.216s.472.072.624.216c.152.136.228.324.228.564c0,.232-.076.416-.228.552s-.36.204-.624.204Zm7.064,7.908c-.528,0-.992-.1-1.392-.3-.392-.2-.696-.488-.912-.864-.216-.384-.324-.836-.324-1.356v-1.8c0-.528.108-.98.324-1.356s.52-.664.912-.864c.4-.2.864-.3,1.392-.3.76,0,1.372.204,1.836.612s.708.964.732,1.668h-1.08c-.024-.424-.168-.748-.432-.972-.256-.232-.608-.348-1.056-.348-.472,0-.848.136-1.128.408-.28.264-.42.644-.42,1.14v1.812c0,.496.14.88.42,1.152s.656.408,1.128.408c.448,0,.8-.116,1.056-.348.264-.232.408-.556.432-.972h1.08c-.024.704-.268,1.26-.732,1.668s-1.076.612-1.836.612Zm7.147,0c-.52,0-.976-.104-1.368-.312-.384-.208-.684-.5-.9-.876-.208-.384-.312-.828-.312-1.332v-1.8c0-.512.104-.956.312-1.332.216-.376.516-.668.9-.876.392-.208.848-.312,1.368-.312s.972.104,1.356.312c.392.208.692.5.9.876.216.376.324.82.324,1.332v1.164h-4.104v.636c0,.52.132.92.396,1.2.264.272.64.408,1.128.408.416,0,.752-.072,1.008-.216.256-.152.412-.376.468-.672h1.08c-.072.552-.344.992-.816,1.32-.464.32-1.044.48-1.74.48Zm1.524-3.876v-.444c0-.52-.132-.92-.396-1.2-.256-.28-.632-.42-1.128-.42-.488,0-.864.14-1.128.42s-.396.68-.396,1.2v.348h3.132l-.084.096Z" fill="#fff"/><rect width="57" height="25" rx="12.5" ry="12.5" transform="translate(1285 65)"/><path d="M1300.14,82v-8.772h5.16v.984h-4.1v2.916h3.79v.984h-3.77v3.888h-1.08Zm10.56,0c-.39,0-.72-.076-1.01-.228s-.51-.368-.67-.648-.24-.608-.24-.984v-5.916h-2.22v-.984h3.3v6.9c0,.272.07.488.22.648.16.152.36.228.62.228h2.1v.984h-2.1Zm6.29.096c-.53,0-.98-.1-1.37-.3-.38-.2-.68-.488-.9-.864-.21-.384-.31-.836-.31-1.356v-1.752c0-.528.1-.98.31-1.356.22-.376.52-.664.9-.864.39-.2.84-.3,1.37-.3s.98.1,1.37.3c.38.2.68.488.89.864s.32.824.32,1.344v1.764c0,.52-.11.972-.32,1.356-.21.376-.51.664-.89.864-.39.2-.84.3-1.37.3Zm0-.96c.47,0,.84-.132,1.1-.396.27-.264.4-.652.4-1.164v-1.752c0-.512-.13-.9-.4-1.164-.26-.264-.63-.396-1.1-.396-.46,0-.83.132-1.1.396s-.4.652-.4,1.164v1.752c0,.512.13.9.4,1.164s.64.396,1.1.396Zm5.07.864l-1.05-6.6h.96l.66,4.68c.02.176.04.368.07.576.03.2.05.368.07.504.02-.136.04-.304.07-.504.04-.208.07-.4.1-.576l.73-4.68h1.03l.73,4.68c.03.176.06.368.09.576.04.2.07.368.08.504.02-.136.04-.304.07-.504.04-.208.08-.4.1-.576l.68-4.68h.92l-1.11,6.6h-1.19l-.7-4.56c-.04-.224-.07-.448-.11-.672s-.07-.4-.09-.528c-.01.128-.04.304-.07.528s-.07.448-.11.672l-.74,4.56h-1.19Z" fill="#fff"/><rect width="93" height="25" rx="12.5" ry="12.5" transform="translate(914 40)" fill="#f85e60"/><path d="M931.648,57.12c-.528,0-.988-.1-1.38-.3-.384-.2-.684-.488-.9-.864-.208-.384-.312-.836-.312-1.356v-3.96c0-.528.104-.98.312-1.356.216-.376.516-.664.9-.864.392-.2.852-.3,1.38-.3s.984.104,1.368.312c.384.2.68.488.888.864s.312.824.312,1.344h-1.08c0-.496-.132-.876-.396-1.14-.256-.272-.62-.408-1.092-.408s-.844.132-1.116.396c-.264.264-.396.644-.396,1.14v3.972c0,.496.132.88.396,1.152.272.264.644.396,1.116.396s.836-.132,1.092-.396c.264-.272.396-.656.396-1.152h1.08c0,.512-.104.96-.312,1.344-.208.376-.504.668-.888.876-.384.2-.84.3-1.368.3Zm7.147-.024c-.528,0-.984-.1-1.368-.3s-.684-.488-.9-.864c-.208-.384-.312-.836-.312-1.356v-1.752c0-.528.104-.98.312-1.356.216-.376.516-.664.9-.864s.84-.3,1.368-.3.984.1,1.368.3.68.488.888.864c.216.376.324.824.324,1.344v1.764c0,.52-.108.972-.324,1.356-.208.376-.504.664-.888.864s-.84.3-1.368.3Zm0-.96c.472,0,.84-.132,1.104-.396s.396-.652.396-1.164v-1.752c0-.512-.132-.9-.396-1.164s-.632-.396-1.104-.396c-.464,0-.832.132-1.104.396-.264.264-.396.652-.396,1.164v1.752c0,.512.132.9.396,1.164.272.264.64.396,1.104.396Zm4.388.864v-6.6h.948v.792h.216l-.168.288c0-.368.096-.66.288-.876.2-.216.468-.324.804-.324.368,0,.652.136.852.408s.3.656.3,1.152l-.324-.648h.504l-.228.288c0-.368.1-.66.3-.876.208-.216.48-.324.816-.324.416,0,.736.156.96.468.232.312.348.724.348,1.236v5.016h-.996v-5.028c0-.272-.06-.484-.18-.636-.112-.152-.28-.228-.504-.228-.216,0-.388.076-.516.228-.12.144-.18.352-.18.624v5.04h-.864v-5.028c0-.28-.064-.492-.192-.636-.12-.152-.292-.228-.516-.228s-.392.076-.504.228c-.112.144-.168.352-.168.624v5.04h-.996Zm7.507,2.16v-8.76h1.08v1.26h.216l-.216.252c0-.504.164-.9.492-1.188.336-.296.776-.444,1.32-.444.664,0,1.192.22,1.584.66.4.432.6,1.028.6,1.788v1.932c0,.504-.092.94-.276,1.308-.176.368-.428.652-.756.852-.32.2-.704.3-1.152.3-.536,0-.972-.148-1.308-.444s-.504-.692-.504-1.188l.216.252h-.24l.024,1.5v1.92h-1.08Zm2.532-2.976c.456,0,.812-.136,1.068-.408.264-.272.396-.664.396-1.176v-1.8c0-.512-.132-.904-.396-1.176-.256-.272-.612-.408-1.068-.408-.44,0-.792.14-1.056.42s-.396.668-.396,1.164v1.8c0,.496.132.884.396,1.164s.616.42,1.056.42Zm7.159.912c-.528,0-.984-.1-1.368-.3s-.684-.488-.9-.864c-.208-.384-.312-.836-.312-1.356v-1.752c0-.528.104-.98.312-1.356.216-.376.516-.664.9-.864s.84-.3,1.368-.3.984.1,1.368.3.68.488.888.864c.216.376.324.824.324,1.344v1.764c0,.52-.108.972-.324,1.356-.208.376-.504.664-.888.864s-.84.3-1.368.3Zm0-.96c.472,0,.84-.132,1.104-.396s.396-.652.396-1.164v-1.752c0-.512-.132-.9-.396-1.164s-.632-.396-1.104-.396c-.464,0-.832.132-1.104.396-.264.264-.396.652-.396,1.164v1.752c0,.512.132.9.396,1.164.272.264.64.396,1.104.396Zm4.7.864v-6.6h1.08v1.26h.228l-.228.252c0-.52.156-.92.468-1.2.312-.288.744-.432,1.296-.432.664,0,1.192.204,1.584.612s.588.964.588,1.668v4.44h-1.08v-4.32c0-.472-.128-.832-.384-1.08-.248-.256-.588-.384-1.02-.384-.448,0-.804.136-1.068.408-.256.272-.384.664-.384,1.176v4.2h-1.08Zm9.691.12c-.52,0-.976-.104-1.368-.312-.384-.208-.684-.5-.9-.876-.208-.384-.312-.828-.312-1.332v-1.8c0-.512.104-.956.312-1.332.216-.376.516-.668.9-.876.392-.208.848-.312,1.368-.312s.972.104,1.356.312c.392.208.692.5.9.876.216.376.324.82.324,1.332v1.164h-4.104v.636c0,.52.132.92.396,1.2.264.272.64.408,1.128.408.416,0,.752-.072,1.008-.216.256-.152.412-.376.468-.672h1.08c-.072.552-.344.992-.816,1.32-.464.32-1.044.48-1.74.48Zm1.524-3.876v-.444c0-.52-.132-.92-.396-1.2-.256-.28-.632-.42-1.128-.42-.488,0-.864.14-1.128.42s-.396.68-.396,1.2v.348h3.132l-.084.096ZM979.471,57v-6.6h1.08v1.26h.228l-.228.252c0-.52.156-.92.468-1.2.312-.288.744-.432,1.296-.432.664,0,1.192.204,1.584.612s.588.964.588,1.668v4.44h-1.08v-4.32c0-.472-.128-.832-.384-1.08-.248-.256-.588-.384-1.02-.384-.448,0-.804.136-1.068.408-.256.272-.384.664-.384,1.176v4.2h-1.08Zm10.412,0c-.568,0-1.012-.152-1.332-.456-.312-.304-.468-.732-.468-1.284v-3.876h-1.86v-.984h1.86v-1.86h1.08v1.86h2.64v.984h-2.64v3.876c0,.504.24.756.72.756h1.8v.984h-1.8Z" fill="#fff"/><g opacity="0.1"><rect width="131" height="49" rx="24.5" ry="24.5" transform="translate(892 28)" fill="#f85e60"/></g><path d="M960,320.5v354.5" fill="none" stroke="#000"/><rect width="50" height="25" rx="12.5" ry="12.5" transform="translate(783 83)"/><path d="M797.6,100l2.28-8.76h1.452L803.6,100h-1.092l-.576-2.328h-2.652L798.704,100h-1.104Zm1.896-3.24h2.208l-.672-2.7c-.128-.512-.228-.94-.3-1.284s-.116-.568-.132-.672c-.016.104-.06.328-.132.672s-.172.768-.3,1.272l-.672,2.712Zm5.803,3.24v-8.76h2.82c.544,0,1.016.108,1.416.324.4.208.708.504.924.888.224.384.336.84.336,1.368c0,.52-.112.976-.336,1.368-.216.384-.524.684-.924.9-.4.208-.872.312-1.416.312h-1.74v3.6h-1.08Zm1.08-4.572h1.74c.472,0,.848-.144,1.128-.432.288-.296.432-.688.432-1.176c0-.496-.144-.888-.432-1.176-.28-.288-.656-.432-1.128-.432h-1.74v3.216ZM812.651,100v-.984h1.788v-6.792h-1.788v-.984h4.68v.984h-1.788v6.792h1.788v.984h-4.68Z" fill="#fff"/><path d="M808,109v556" fill="none" stroke="#0b1922"/><path d="M1069,405v437" fill="none" stroke="#000"/><path d="M1064,405h-16c-14,0-42.5,3.7-42.5,42.5s0,151.167,0,202.5" fill="none" stroke="#000"/><path d="M-37,372c55.2,0,513.167,0,551.5,0c9,.167,27,5.8,27,27s-18,26.833-27,27h-149.5c-9.833.167-29.5,6.3-29.5,29.5s21,30.667,31.5,31.5h81c9.333-.333,28,4.8,28,28s18.333,28,27.5,27.5h290" fill="none" stroke="#000"/><path d="M2026.5,487.534c-55.2,0-513.17,0-551.5,0-9-.166-27-5.8-27-27s18-26.833,27-27h149.5c9.83-.166,29.5-6.3,29.5-29.5s-21-30.666-31.5-31.5h-81c-9.33.334-28-4.8-28-28s-18.33-28-27.5-27.5h-290" fill="none" stroke="#000"/><path d="M634,55c0,94,0,169.5,0,195.5c0,62,39.486,178.5,178.5,178.5C974.933,429,960,533,960,576.5c0,38,0,20.333,0,167" fill="none" stroke="#0b1922"/><circle r="5" transform="translate(808 375)"/><circle r="5" transform="translate(1314 188)"/><circle r="5" transform="translate(634 221)"/><circle r="5" transform="translate(634 148)"/><circle r="5" transform="translate(1529 129)"/><circle r="5" transform="translate(369 129)"/><circle r="5" transform="translate(898 445)"/><circle r="5" transform="translate(1137 250)"/></g><clipPath id="eizaZNqTluc61"><rect width="1923" height="595" rx="0" ry="0" transform="translate(-3 0)" fill="#fff"/></clipPath></g><circle r="5" transform="translate(1270 562)"/><circle r="51" transform="translate(959.5 1049.5)" fill="none" stroke="#f85e60"/><circle r="103" transform="translate(959.5 1049.5)" opacity="0.2" fill="none" stroke="#f85e60"/><circle r="31.5" transform="translate(959.5 1049.5)" opacity="0.1" fill="#f85e60"/><path d="M960.001,65v247c-.001,43.5,6.5,93.5,93.499,93.5c82.8,0,113.5,0,118.5,0c32.67-.833,98,17.6,98,98s0-5.167,0,73.5c0,120-67,133-192,133s-117.999,91-117.999,118c0,24.5,0,202,0,221" fill="none" stroke="#f85e60" stroke-width="3"/><g transform="translate(.000001 0)"><circle r="54.4383" transform="matrix(.707107-.707107 0.707107 0.707107 960.044445 195.0002)"/><circle r="60.2794" transform="matrix(.707107-.707107 0.707107 0.707107 960.042738 194.999907)" fill="none" stroke="#f85e60"/><path d="M946.149,180.529c-7.979,7.979-7.979,20.963,0,28.942c7.98,7.98,20.963,7.98,28.943,0c7.979-7.979,7.979-20.963,0-28.942-7.98-7.98-20.963-7.98-28.943,0Zm26.048,26.048c-6.383,6.383-16.77,6.383-23.154,0-6.383-6.383-6.383-16.771,0-23.154c6.384-6.383,16.771-6.383,23.154,0c6.384,6.383,6.384,16.771,0,23.154Z" fill="#f85e60"/><path d="M960.62,206.578l5.776-11.564-5.776-11.59-5.789,11.577l5.789,11.577Z" fill="#f85e60"/></g><circle r="5" transform="translate(1069 406)"/><circle r="5" transform="translate(960 317)" fill="#f85e60"/></svg>
