<svg width="379" height="534" viewBox="0 0 379 534" fill="none" xmlns="http://www.w3.org/2000/svg">
<path d="M36.8242 14.7059C36.8242 58.9414 36.8242 94.471 36.8242 106.706C36.8243 135.883 55.4061 190.707 120.825 190.707C197.264 190.707 190.237 239.648 190.237 260.119C190.237 278.001 190.237 269.687 190.237 338.707" stroke="#0B1922"/>
<path d="M356.826 31.1766C356.826 57.9685 356.826 79.4875 356.826 86.898C356.826 104.569 345.553 137.774 305.864 137.774C259.489 137.774 263.752 167.416 263.752 179.814C263.752 190.645 263.752 327.257 263.752 369.06" stroke="#26D7A0"/>
<circle cx="263.65" cy="370.472" r="2.35295" fill="#26D7A0"/>
<circle cx="241.533" cy="386.472" r="2.35295" fill="#26D7A0"/>
<circle cx="190.472" cy="484.59" r="23.7354" stroke="#F85E60"/>
<circle opacity="0.2" cx="190.472" cy="484.59" r="48.2061" stroke="#F85E60"/>
<circle cx="190.473" cy="484.59" r="2.11766" fill="#F85E60"/>
<circle opacity="0.1" cx="190.472" cy="484.59" r="14.8236" fill="#F85E60"/>
<rect width="78" height="25" rx="12.5" fill="black"/>
<path d="M17.648 17.12C17.072 17.12 16.576 17.024 16.16 16.832C15.752 16.64 15.436 16.364 15.212 16.004C14.988 15.644 14.872 15.216 14.864 14.72H15.944C15.944 15.16 16.092 15.508 16.388 15.764C16.692 16.02 17.112 16.148 17.648 16.148C18.152 16.148 18.544 16.024 18.824 15.776C19.112 15.528 19.256 15.184 19.256 14.744C19.256 14.392 19.16 14.084 18.968 13.82C18.784 13.556 18.516 13.372 18.164 13.268L16.976 12.896C16.376 12.712 15.912 12.404 15.584 11.972C15.264 11.54 15.104 11.032 15.104 10.448C15.104 9.976 15.208 9.568 15.416 9.224C15.632 8.872 15.932 8.6 16.316 8.408C16.7 8.208 17.152 8.108 17.672 8.108C18.44 8.108 19.056 8.324 19.52 8.756C19.984 9.18 20.22 9.748 20.228 10.46H19.148C19.148 10.028 19.016 9.692 18.752 9.452C18.496 9.204 18.132 9.08 17.66 9.08C17.196 9.08 16.832 9.192 16.568 9.416C16.312 9.64 16.184 9.952 16.184 10.352C16.184 10.712 16.28 11.024 16.472 11.288C16.664 11.552 16.94 11.74 17.3 11.852L18.5 12.236C19.084 12.42 19.536 12.732 19.856 13.172C20.176 13.612 20.336 14.128 20.336 14.72C20.336 15.2 20.224 15.62 20 15.98C19.776 16.34 19.46 16.62 19.052 16.82C18.652 17.02 18.184 17.12 17.648 17.12ZM24.7953 17.12C24.2753 17.12 23.8193 17.016 23.4273 16.808C23.0433 16.6 22.7433 16.308 22.5273 15.932C22.3193 15.548 22.2153 15.104 22.2153 14.6V12.8C22.2153 12.288 22.3193 11.844 22.5273 11.468C22.7433 11.092 23.0433 10.8 23.4273 10.592C23.8193 10.384 24.2753 10.28 24.7953 10.28C25.3153 10.28 25.7673 10.384 26.1513 10.592C26.5433 10.8 26.8433 11.092 27.0513 11.468C27.2673 11.844 27.3753 12.288 27.3753 12.8V13.964H23.2713V14.6C23.2713 15.12 23.4033 15.52 23.6673 15.8C23.9313 16.072 24.3073 16.208 24.7953 16.208C25.2113 16.208 25.5473 16.136 25.8033 15.992C26.0593 15.84 26.2153 15.616 26.2713 15.32H27.3513C27.2793 15.872 27.0073 16.312 26.5353 16.64C26.0713 16.96 25.4913 17.12 24.7953 17.12ZM26.3193 13.244V12.8C26.3193 12.28 26.1873 11.88 25.9233 11.6C25.6673 11.32 25.2913 11.18 24.7953 11.18C24.3073 11.18 23.9313 11.32 23.6673 11.6C23.4033 11.88 23.2713 12.28 23.2713 12.8V13.148H26.4033L26.3193 13.244ZM29.7226 17V10.4H30.7786V11.66H31.0306L30.6826 12.44C30.6826 11.728 30.8346 11.192 31.1386 10.832C31.4506 10.464 31.9106 10.28 32.5186 10.28C33.2146 10.28 33.7666 10.5 34.1746 10.94C34.5906 11.372 34.7986 11.96 34.7986 12.704V13.1H33.7186V12.8C33.7186 12.28 33.5906 11.884 33.3346 11.612C33.0866 11.332 32.7306 11.192 32.2666 11.192C31.8106 11.192 31.4506 11.332 31.1866 11.612C30.9306 11.892 30.8026 12.288 30.8026 12.8V17H29.7226ZM38.4539 17L36.2459 10.4H37.3499L38.8139 14.84C38.9019 15.104 38.9819 15.36 39.0539 15.608C39.1259 15.848 39.1779 16.036 39.2099 16.172C39.2499 16.036 39.3059 15.848 39.3779 15.608C39.4499 15.36 39.5259 15.104 39.6059 14.84L41.0339 10.4H42.1259L39.9179 17H38.4539ZM43.8013 17V16.016H46.1413V11.384H44.1013V10.4H47.2213V16.016H49.4413V17H43.8013ZM46.5613 9.212C46.2973 9.212 46.0893 9.144 45.9373 9.008C45.7853 8.872 45.7093 8.688 45.7093 8.456C45.7093 8.216 45.7853 8.028 45.9373 7.892C46.0893 7.748 46.2973 7.676 46.5613 7.676C46.8253 7.676 47.0333 7.748 47.1853 7.892C47.3373 8.028 47.4133 8.216 47.4133 8.456C47.4133 8.688 47.3373 8.872 47.1853 9.008C47.0333 9.144 46.8253 9.212 46.5613 9.212ZM53.6246 17.12C53.0966 17.12 52.6326 17.02 52.2326 16.82C51.8406 16.62 51.5366 16.332 51.3206 15.956C51.1046 15.572 50.9966 15.12 50.9966 14.6V12.8C50.9966 12.272 51.1046 11.82 51.3206 11.444C51.5366 11.068 51.8406 10.78 52.2326 10.58C52.6326 10.38 53.0966 10.28 53.6246 10.28C54.3846 10.28 54.9966 10.484 55.4606 10.892C55.9246 11.3 56.1686 11.856 56.1926 12.56H55.1126C55.0886 12.136 54.9446 11.812 54.6806 11.588C54.4246 11.356 54.0726 11.24 53.6246 11.24C53.1526 11.24 52.7766 11.376 52.4966 11.648C52.2166 11.912 52.0766 12.292 52.0766 12.788V14.6C52.0766 15.096 52.2166 15.48 52.4966 15.752C52.7766 16.024 53.1526 16.16 53.6246 16.16C54.0726 16.16 54.4246 16.044 54.6806 15.812C54.9446 15.58 55.0886 15.256 55.1126 14.84H56.1926C56.1686 15.544 55.9246 16.1 55.4606 16.508C54.9966 16.916 54.3846 17.12 53.6246 17.12ZM60.7719 17.12C60.2519 17.12 59.7959 17.016 59.4039 16.808C59.0199 16.6 58.7199 16.308 58.5039 15.932C58.2959 15.548 58.1919 15.104 58.1919 14.6V12.8C58.1919 12.288 58.2959 11.844 58.5039 11.468C58.7199 11.092 59.0199 10.8 59.4039 10.592C59.7959 10.384 60.2519 10.28 60.7719 10.28C61.2919 10.28 61.7439 10.384 62.1279 10.592C62.5199 10.8 62.8199 11.092 63.0279 11.468C63.2439 11.844 63.3519 12.288 63.3519 12.8V13.964H59.2479V14.6C59.2479 15.12 59.3799 15.52 59.6439 15.8C59.9079 16.072 60.2839 16.208 60.7719 16.208C61.1879 16.208 61.5239 16.136 61.7799 15.992C62.0359 15.84 62.1919 15.616 62.2479 15.32H63.3279C63.2559 15.872 62.9839 16.312 62.5119 16.64C62.0479 16.96 61.4679 17.12 60.7719 17.12ZM62.2959 13.244V12.8C62.2959 12.28 62.1639 11.88 61.8999 11.6C61.6439 11.32 61.2679 11.18 60.7719 11.18C60.2839 11.18 59.9079 11.32 59.6439 11.6C59.3799 11.88 59.2479 12.28 59.2479 12.8V13.148H62.3799L62.2959 13.244Z" fill="white"/>
<rect x="325" y="19" width="54" height="25" rx="12.5" fill="black"/>
<path d="M340.14 36V27.228H345.3V28.212H341.196V31.128H344.988V32.112H341.22V36H340.14ZM350.695 36C350.311 36 349.975 35.924 349.687 35.772C349.399 35.62 349.175 35.404 349.015 35.124C348.855 34.844 348.775 34.516 348.775 34.14V28.224H346.555V27.24H349.855V34.14C349.855 34.412 349.931 34.628 350.083 34.788C350.235 34.94 350.439 35.016 350.695 35.016H352.795V36H350.695ZM356.991 36.096C356.463 36.096 356.007 35.996 355.623 35.796C355.239 35.596 354.939 35.308 354.723 34.932C354.515 34.548 354.411 34.096 354.411 33.576V31.824C354.411 31.296 354.515 30.844 354.723 30.468C354.939 30.092 355.239 29.804 355.623 29.604C356.007 29.404 356.463 29.304 356.991 29.304C357.519 29.304 357.975 29.404 358.359 29.604C358.743 29.804 359.039 30.092 359.247 30.468C359.463 30.844 359.571 31.292 359.571 31.812V33.576C359.571 34.096 359.463 34.548 359.247 34.932C359.039 35.308 358.743 35.596 358.359 35.796C357.975 35.996 357.519 36.096 356.991 36.096ZM356.991 35.136C357.463 35.136 357.831 35.004 358.095 34.74C358.359 34.476 358.491 34.088 358.491 33.576V31.824C358.491 31.312 358.359 30.924 358.095 30.66C357.831 30.396 357.463 30.264 356.991 30.264C356.527 30.264 356.159 30.396 355.887 30.66C355.623 30.924 355.491 31.312 355.491 31.824V33.576C355.491 34.088 355.623 34.476 355.887 34.74C356.159 35.004 356.527 35.136 356.991 35.136ZM362.062 36L361.006 29.4H361.966L362.626 34.08C362.65 34.256 362.674 34.448 362.698 34.656C362.73 34.856 362.754 35.024 362.77 35.16C362.786 35.024 362.81 34.856 362.842 34.656C362.882 34.448 362.914 34.256 362.938 34.08L363.67 29.4H364.702L365.434 34.08C365.458 34.256 365.486 34.448 365.518 34.656C365.558 34.856 365.586 35.024 365.602 35.16C365.618 35.024 365.642 34.856 365.674 34.656C365.714 34.448 365.746 34.256 365.77 34.08L366.454 29.4H367.366L366.262 36H365.074L364.366 31.44C364.334 31.216 364.298 30.992 364.258 30.768C364.218 30.544 364.19 30.368 364.174 30.24C364.158 30.368 364.134 30.544 364.102 30.768C364.07 30.992 364.034 31.216 363.994 31.44L363.25 36H362.062Z" fill="white"/>
<path d="M190.237 19.4118V135.648C190.236 156.118 193.295 179.648 234.237 179.648C273.202 179.648 287.649 179.648 290.002 179.648C305.374 179.256 336.12 187.93 336.12 225.766C336.12 263.601 336.12 223.334 336.12 260.354C336.12 316.825 304.59 322.943 245.766 322.943C186.942 322.943 190.237 365.766 190.237 378.472C190.237 390.002 190.237 473.531 190.237 482.473" stroke="#F85E60"/>
<circle cx="190.259" cy="80.5886" r="25.6181" transform="rotate(-45 190.259 80.5886)" fill="#0B1922"/>
<circle cx="190.258" cy="80.5886" r="28.1022" transform="rotate(-45 190.258 80.5886)" stroke="black"/>
<path d="M183.722 73.7786C179.967 77.5336 179.967 83.6436 183.722 87.3987C187.477 91.1537 193.587 91.1537 197.342 87.3987C201.097 83.6436 201.097 77.5336 197.342 73.7786C193.587 70.0235 187.477 70.0235 183.722 73.7786ZM195.98 86.0366C192.976 89.0406 188.088 89.0406 185.084 86.0366C182.08 83.0327 182.08 78.1445 185.084 75.1406C188.088 72.1366 192.976 72.1366 195.98 75.1406C198.984 78.1445 198.984 83.0327 195.98 86.0366Z" fill="#FBFEFD"/>
<path d="M190.532 86.037L193.25 80.5951L190.532 75.1409L187.808 80.5889L190.532 86.037Z" fill="#FBFEFD"/>
<rect x="170.002" y="7.64708" width="93" height="25" rx="12.5" fill="#F85E60"/>
<path d="M187.65 24.7671C187.122 24.7671 186.662 24.6671 186.27 24.4671C185.886 24.2671 185.586 23.9791 185.37 23.6031C185.162 23.2191 185.058 22.7671 185.058 22.2471V18.2871C185.058 17.7591 185.162 17.3071 185.37 16.9311C185.586 16.5551 185.886 16.2671 186.27 16.0671C186.662 15.8671 187.122 15.7671 187.65 15.7671C188.178 15.7671 188.634 15.8711 189.018 16.0791C189.402 16.2791 189.698 16.5671 189.906 16.9431C190.114 17.3191 190.218 17.7671 190.218 18.2871H189.138C189.138 17.7911 189.006 17.4111 188.742 17.1471C188.486 16.8751 188.122 16.7391 187.65 16.7391C187.178 16.7391 186.806 16.8711 186.534 17.1351C186.27 17.3991 186.138 17.7791 186.138 18.2751V22.2471C186.138 22.7431 186.27 23.1271 186.534 23.3991C186.806 23.6631 187.178 23.7951 187.65 23.7951C188.122 23.7951 188.486 23.6631 188.742 23.3991C189.006 23.1271 189.138 22.7431 189.138 22.2471H190.218C190.218 22.7591 190.114 23.2071 189.906 23.5911C189.698 23.9671 189.402 24.2591 189.018 24.4671C188.634 24.6671 188.178 24.7671 187.65 24.7671ZM194.797 24.7431C194.269 24.7431 193.813 24.6431 193.429 24.4431C193.045 24.2431 192.745 23.9551 192.529 23.5791C192.321 23.1951 192.217 22.7431 192.217 22.2231V20.4711C192.217 19.9431 192.321 19.4911 192.529 19.1151C192.745 18.7391 193.045 18.4511 193.429 18.2511C193.813 18.0511 194.269 17.9511 194.797 17.9511C195.325 17.9511 195.781 18.0511 196.165 18.2511C196.549 18.4511 196.845 18.7391 197.053 19.1151C197.269 19.4911 197.377 19.9391 197.377 20.4591V22.2231C197.377 22.7431 197.269 23.1951 197.053 23.5791C196.845 23.9551 196.549 24.2431 196.165 24.4431C195.781 24.6431 195.325 24.7431 194.797 24.7431ZM194.797 23.7831C195.269 23.7831 195.637 23.6511 195.901 23.3871C196.165 23.1231 196.297 22.7351 196.297 22.2231V20.4711C196.297 19.9591 196.165 19.5711 195.901 19.3071C195.637 19.0431 195.269 18.9111 194.797 18.9111C194.333 18.9111 193.965 19.0431 193.693 19.3071C193.429 19.5711 193.297 19.9591 193.297 20.4711V22.2231C193.297 22.7351 193.429 23.1231 193.693 23.3871C193.965 23.6511 194.333 23.7831 194.797 23.7831ZM199.185 24.6471V18.0471H200.133V18.8391H200.349L200.181 19.1271C200.181 18.7591 200.277 18.4671 200.469 18.2511C200.669 18.0351 200.937 17.9271 201.273 17.9271C201.641 17.9271 201.925 18.0631 202.125 18.3351C202.325 18.6071 202.425 18.9911 202.425 19.4871L202.101 18.8391H202.605L202.377 19.1271C202.377 18.7591 202.477 18.4671 202.677 18.2511C202.885 18.0351 203.157 17.9271 203.493 17.9271C203.909 17.9271 204.229 18.0831 204.453 18.3951C204.685 18.7071 204.801 19.1191 204.801 19.6311V24.6471H203.805V19.6191C203.805 19.3471 203.745 19.1351 203.625 18.9831C203.513 18.8311 203.345 18.7551 203.121 18.7551C202.905 18.7551 202.733 18.8311 202.605 18.9831C202.485 19.1271 202.425 19.3351 202.425 19.6071V24.6471H201.561V19.6191C201.561 19.3391 201.497 19.1271 201.369 18.9831C201.249 18.8311 201.077 18.7551 200.853 18.7551C200.629 18.7551 200.461 18.8311 200.349 18.9831C200.237 19.1271 200.181 19.3351 200.181 19.6071V24.6471H199.185ZM206.692 26.8071V18.0471H207.772V19.3071H207.988L207.772 19.5591C207.772 19.0551 207.936 18.6591 208.264 18.3711C208.6 18.0751 209.04 17.9271 209.584 17.9271C210.248 17.9271 210.776 18.1471 211.168 18.5871C211.568 19.0191 211.768 19.6151 211.768 20.3751V22.3071C211.768 22.8111 211.676 23.2471 211.492 23.6151C211.316 23.9831 211.064 24.2671 210.736 24.4671C210.416 24.6671 210.032 24.7671 209.584 24.7671C209.048 24.7671 208.612 24.6191 208.276 24.3231C207.94 24.0271 207.772 23.6311 207.772 23.1351L207.988 23.3871H207.748L207.772 24.8871V26.8071H206.692ZM209.224 23.8311C209.68 23.8311 210.036 23.6951 210.292 23.4231C210.556 23.1511 210.688 22.7591 210.688 22.2471V20.4471C210.688 19.9351 210.556 19.5431 210.292 19.2711C210.036 18.9991 209.68 18.8631 209.224 18.8631C208.784 18.8631 208.432 19.0031 208.168 19.2831C207.904 19.5631 207.772 19.9511 207.772 20.4471V22.2471C207.772 22.7431 207.904 23.1311 208.168 23.4111C208.432 23.6911 208.784 23.8311 209.224 23.8311ZM216.383 24.7431C215.855 24.7431 215.399 24.6431 215.015 24.4431C214.631 24.2431 214.331 23.9551 214.115 23.5791C213.907 23.1951 213.803 22.7431 213.803 22.2231V20.4711C213.803 19.9431 213.907 19.4911 214.115 19.1151C214.331 18.7391 214.631 18.4511 215.015 18.2511C215.399 18.0511 215.855 17.9511 216.383 17.9511C216.911 17.9511 217.367 18.0511 217.751 18.2511C218.135 18.4511 218.431 18.7391 218.639 19.1151C218.855 19.4911 218.963 19.9391 218.963 20.4591V22.2231C218.963 22.7431 218.855 23.1951 218.639 23.5791C218.431 23.9551 218.135 24.2431 217.751 24.4431C217.367 24.6431 216.911 24.7431 216.383 24.7431ZM216.383 23.7831C216.855 23.7831 217.223 23.6511 217.487 23.3871C217.751 23.1231 217.883 22.7351 217.883 22.2231V20.4711C217.883 19.9591 217.751 19.5711 217.487 19.3071C217.223 19.0431 216.855 18.9111 216.383 18.9111C215.919 18.9111 215.551 19.0431 215.279 19.3071C215.015 19.5711 214.883 19.9591 214.883 20.4711V22.2231C214.883 22.7351 215.015 23.1231 215.279 23.3871C215.551 23.6511 215.919 23.7831 216.383 23.7831ZM221.083 24.6471V18.0471H222.163V19.3071H222.391L222.163 19.5591C222.163 19.0391 222.319 18.6391 222.631 18.3591C222.943 18.0711 223.375 17.9271 223.927 17.9271C224.591 17.9271 225.119 18.1311 225.511 18.5391C225.903 18.9471 226.099 19.5031 226.099 20.2071V24.6471H225.019V20.3271C225.019 19.8551 224.891 19.4951 224.635 19.2471C224.387 18.9911 224.047 18.8631 223.615 18.8631C223.167 18.8631 222.811 18.9991 222.547 19.2711C222.291 19.5431 222.163 19.9351 222.163 20.4471V24.6471H221.083ZM230.774 24.7671C230.254 24.7671 229.798 24.6631 229.406 24.4551C229.022 24.2471 228.722 23.9551 228.506 23.5791C228.298 23.1951 228.194 22.7511 228.194 22.2471V20.4471C228.194 19.9351 228.298 19.4911 228.506 19.1151C228.722 18.7391 229.022 18.4471 229.406 18.2391C229.798 18.0311 230.254 17.9271 230.774 17.9271C231.294 17.9271 231.746 18.0311 232.13 18.2391C232.522 18.4471 232.822 18.7391 233.03 19.1151C233.246 19.4911 233.354 19.9351 233.354 20.4471V21.6111H229.25V22.2471C229.25 22.7671 229.382 23.1671 229.646 23.4471C229.91 23.7191 230.286 23.8551 230.774 23.8551C231.19 23.8551 231.526 23.7831 231.782 23.6391C232.038 23.4871 232.194 23.2631 232.25 22.9671H233.33C233.258 23.5191 232.986 23.9591 232.514 24.2871C232.05 24.6071 231.47 24.7671 230.774 24.7671ZM232.298 20.8911V20.4471C232.298 19.9271 232.166 19.5271 231.902 19.2471C231.646 18.9671 231.27 18.8271 230.774 18.8271C230.286 18.8271 229.91 18.9671 229.646 19.2471C229.382 19.5271 229.25 19.9271 229.25 20.4471V20.7951H232.382L232.298 20.8911ZM235.473 24.6471V18.0471H236.553V19.3071H236.781L236.553 19.5591C236.553 19.0391 236.709 18.6391 237.021 18.3591C237.333 18.0711 237.765 17.9271 238.317 17.9271C238.981 17.9271 239.509 18.1311 239.901 18.5391C240.293 18.9471 240.489 19.5031 240.489 20.2071V24.6471H239.409V20.3271C239.409 19.8551 239.281 19.4951 239.025 19.2471C238.777 18.9911 238.437 18.8631 238.005 18.8631C237.557 18.8631 237.201 18.9991 236.937 19.2711C236.681 19.5431 236.553 19.9351 236.553 20.4471V24.6471H235.473ZM245.884 24.6471C245.316 24.6471 244.872 24.4951 244.552 24.1911C244.24 23.8871 244.084 23.4591 244.084 22.9071V19.0311H242.224V18.0471H244.084V16.1871H245.164V18.0471H247.804V19.0311H245.164V22.9071C245.164 23.4111 245.404 23.6631 245.884 23.6631H247.684V24.6471H245.884Z" fill="white"/>
<path d="M190.236 139.648L190.236 306.472" stroke="black"/>
<path d="M283.885 144.589L283.885 284.825" stroke="#0B1922"/>
<path d="M118.016 189.465V185.827L89.311 190.765V194.403L118.016 189.465Z" fill="white" stroke="black" stroke-width="0.5"/>
<path d="M89.3086 194.489V190.851L118.013 195.79V199.428L89.3086 194.489Z" fill="white" stroke="black" stroke-width="0.5"/>
<path d="M118.451 189.465V185.827L147.156 190.765V194.403L118.451 189.465Z" fill="white" stroke="black" stroke-width="0.5"/>
<path d="M118.232 195.611L89.0586 190.586L118.232 185.562L147.405 190.555L118.232 195.611Z" fill="#26D7A0" stroke="black" stroke-width="0.5"/>
<path d="M147.156 194.489V190.851L118.452 195.79V199.428L147.156 194.489Z" fill="white" stroke="black" stroke-width="0.5"/>
<circle cx="118.705" cy="165.295" r="2.35295" fill="black"/>
<rect x="94" y="20" width="50" height="24" rx="12" fill="black"/>
<path d="M108.6 37L110.88 28.24H112.332L114.6 37H113.508L112.932 34.672H110.28L109.704 37H108.6ZM110.496 33.76H112.704L112.032 31.06C111.904 30.548 111.804 30.12 111.732 29.776C111.66 29.432 111.616 29.208 111.6 29.104C111.584 29.208 111.54 29.432 111.468 29.776C111.396 30.12 111.296 30.544 111.168 31.048L110.496 33.76ZM116.299 37V28.24H119.119C119.663 28.24 120.135 28.348 120.535 28.564C120.935 28.772 121.243 29.068 121.459 29.452C121.683 29.836 121.795 30.292 121.795 30.82C121.795 31.34 121.683 31.796 121.459 32.188C121.243 32.572 120.935 32.872 120.535 33.088C120.135 33.296 119.663 33.4 119.119 33.4H117.379V37H116.299ZM117.379 32.428H119.119C119.591 32.428 119.967 32.284 120.247 31.996C120.535 31.7 120.679 31.308 120.679 30.82C120.679 30.324 120.535 29.932 120.247 29.644C119.967 29.356 119.591 29.212 119.119 29.212H117.379V32.428ZM123.651 37V36.016H125.439V29.224H123.651V28.24H128.331V29.224H126.543V36.016H128.331V37H123.651Z" fill="white"/>
<path d="M118.705 40.1178V191.177" stroke="#0B1922"/>
<circle cx="283.886" cy="285.295" r="2.35295" fill="#F85E60"/>
<path d="M118.486 181.465V177.827L89.7817 182.765V186.403L118.486 181.465Z" fill="white" stroke="black" stroke-width="0.5"/>
<path d="M89.7812 186.489V182.851L118.486 187.79V191.428L89.7812 186.489Z" fill="white" stroke="black" stroke-width="0.5"/>
<path d="M118.922 181.465V177.827L147.627 182.765V186.403L118.922 181.465Z" fill="white" stroke="black" stroke-width="0.5"/>
<path d="M118.705 187.611L89.5312 182.586L118.705 177.562L147.878 182.555L118.705 187.611Z" fill="#26D7A0" stroke="black" stroke-width="0.5"/>
<path d="M147.629 186.489V182.851L118.924 187.79V191.428L147.629 186.489Z" fill="white" stroke="black" stroke-width="0.5"/>
<path d="M283.66 143.347V139.709L254.956 144.647V148.285L283.66 143.347Z" fill="white" stroke="black" stroke-width="0.5"/>
<path d="M254.955 148.371V144.733L283.66 149.672V153.31L254.955 148.371Z" fill="white" stroke="black" stroke-width="0.5"/>
<path d="M284.096 143.347V139.709L312.8 144.647V148.285L284.096 143.347Z" fill="white" stroke="black" stroke-width="0.5"/>
<path d="M283.878 149.493L254.705 144.468L283.878 139.444L313.052 144.437L283.878 149.493Z" fill="#26D7A0" stroke="black" stroke-width="0.5"/>
<path d="M312.803 148.371V144.734L284.098 149.672V153.31L312.803 148.371Z" fill="white" stroke="black" stroke-width="0.5"/>
<path d="M283.66 136.288V132.65L254.956 137.589V141.226L283.66 136.288Z" fill="white" stroke="black" stroke-width="0.5"/>
<path d="M254.955 141.312V137.675L283.66 142.613V146.251L254.955 141.312Z" fill="white" stroke="black" stroke-width="0.5"/>
<path d="M284.096 136.288V132.65L312.8 137.589V141.226L284.096 136.288Z" fill="white" stroke="black" stroke-width="0.5"/>
<path d="M283.878 142.434L254.705 137.409L283.878 132.385L313.052 137.378L283.878 142.434Z" fill="#26D7A0" stroke="black" stroke-width="0.5"/>
<path d="M312.803 141.313V137.675L284.098 142.613V146.251L312.803 141.313Z" fill="white" stroke="black" stroke-width="0.5"/>
<path d="M241.531 179.413V385.06" stroke="#26D7A0"/>
<circle cx="241.533" cy="179.883" r="2.35295" fill="black"/>
<circle cx="158.236" cy="415.178" r="2.35295" fill="#26D7A0"/>
<path d="M190.235 138.001H186.94C177.058 138.001 158.234 141.483 158.234 166.707C158.234 191.93 158.234 372.511 158.234 412.825" stroke="#26D7A0"/>
<circle cx="336.122" cy="253.295" r="2.35295" fill="black"/>
<circle r="2.35295" transform="matrix(-1 0 0 1 336.116 337.531)" fill="#26D7A0"/>
<path d="M336.121 255.648V335.413" stroke="#26D7A0"/>
<circle cx="118.236" cy="346.943" r="2.35295" fill="#26D7A0"/>
<path d="M118.236 199.648V344.59" stroke="#26D7A0"/>
<circle cx="190.236" cy="138.001" r="2.35295" fill="#F85E60"/>
<path d="M239.18 179.413H231.65C225.062 179.413 211.65 181.154 211.65 199.413C211.65 217.672 211.65 270.55 211.65 294.707" stroke="#26D7A0"/>
<circle r="2.35295" transform="matrix(-1 0 0 1 211.411 296.589)" fill="#26D7A0"/>
</svg>
