<svg width="316" height="159" viewBox="0 0 316 159" fill="none" xmlns="http://www.w3.org/2000/svg">
<rect x="18.5" y="0.5" width="279" height="154" stroke="#43DCA5"/>
<rect x="0.5" y="-0.5" width="315" height="4" transform="matrix(1 0 0 -1 0 158)" stroke="#43DCA5"/>
<rect x="40.5" y="22.5" width="236" height="109" stroke="#0A1725"/>
<line x1="40" y1="31.5" x2="275" y2="31.5" stroke="#0A1725"/>
<circle cx="46" cy="27" r="1" fill="#0A1725"/>
<circle cx="51" cy="27" r="1" fill="#0A1725"/>
<circle cx="55" cy="27" r="1" fill="#0A1725"/>
<rect x="56.5" y="47.5" width="34" height="68" stroke="#43DCA5"/>
<rect x="97.5" y="47.5" width="34" height="68" stroke="#43DCA5"/>
<rect x="138.5" y="47.5" width="34" height="68" stroke="#43DCA5"/>
<rect x="179.5" y="47.5" width="34" height="68" stroke="#43DCA5"/>
<rect x="220.5" y="47.5" width="34" height="68" stroke="#43DCA5"/>
<line x1="56" y1="101.5" x2="90" y2="101.5" stroke="#43DCA5"/>
<line x1="98" y1="101.5" x2="132" y2="101.5" stroke="#43DCA5"/>
<line x1="138" y1="101.5" x2="172" y2="101.5" stroke="#43DCA5"/>
<line x1="179" y1="101.5" x2="213" y2="101.5" stroke="#43DCA5"/>
<line x1="220" y1="101.5" x2="254" y2="101.5" stroke="#43DCA5"/>
<line x1="56" y1="88.5" x2="90" y2="88.5" stroke="#43DCA5"/>
<line x1="138" y1="88.5" x2="172" y2="88.5" stroke="#43DCA5"/>
<line x1="179" y1="88.5" x2="213" y2="88.5" stroke="#43DCA5"/>
<line x1="98" y1="88.5" x2="132" y2="88.5" stroke="#43DCA5"/>
<line x1="220" y1="88.5" x2="254" y2="88.5" stroke="#43DCA5"/>
</svg>
