<svg width="1914" height="535" viewBox="0 0 1914 535" fill="none" xmlns="http://www.w3.org/2000/svg">
<ellipse cx="949.5" cy="267.5" rx="267.5" ry="420.5" transform="rotate(90 949.5 267.5)" fill="url(#paint0_radial_434_474)"/>
<path d="M1561 297L1380.86 297C1344.73 297 1272.46 312.859 1272.46 376.296C1272.46 455.592 1245.44 459 1159.41 459C1090.58 459 1046.46 459 1033 459" stroke="#26D7A0"/>
<path d="M1609 297L1428.86 297C1392.73 297 1320.46 312.859 1320.46 376.296C1320.46 455.592 1293.44 459 1207.41 459C1138.58 459 1094.46 459 1081 459" stroke="#26D7A0"/>
<path d="M1970 264.5H1713C1682.83 267.167 1622.5 289 1622.5 355C1622.5 437.5 1580.5 426 1428.5 426C1306.9 426 1145.5 426 1080 426C1038 428 954 405.6 954 300V190" stroke="#3A86FF"/>
<path d="M1.5 264.5H195C225.167 267.167 285.5 289 285.5 355C285.5 437.5 327.5 426 479.5 426C601.1 426 762.5 426 828 426C870 428 954 405.6 954 300V190" stroke="#26D7A0"/>
<path d="M1.5 241.5H361.5C391.667 244.167 452 266 452 332C452 414.5 494 403 646 403C767.6 403 762.5 403 828 403C870 405 954 382.6 954 277V167" stroke="#26D7A0"/>
<path d="M1906.5 241.5H1546.5C1516.33 244.167 1456 266 1456 332C1456 414.5 1414 403 1262 403C1140.4 403 1145.5 403 1080 403C1038 405 954 382.6 954 277V167" stroke="#26D7A0"/>
<path d="M4.5 296.643H488.59C507.087 299.315 544.083 321.19 544.083 387.316C544.083 469.974 569.837 458.452 663.042 458.452C737.606 458.452 836.574 458.452 876.738 458.452C902.492 460.456 954 438.013 954 332.211V222" stroke="#3A86FF"/>
<path d="M953.262 222V332.211C953.262 438.013 901.754 460.456 876 458.452C835.836 458.452 615.097 458.452 540.534 458.452C447.329 458.452 421.573 469.974 421.573 387.316C421.573 321.19 384.577 314.172 366.079 311.5H-0.00012207" stroke="#3A86FF"/>
<path d="M5 278.219H488.835C507.323 279.516 544.299 282.108 544.299 322.217C544.299 362.325 604.844 356.734 698 356.734C772.525 356.734 836.636 356.734 876.779 356.734C902.519 357.707 954 346.817 954 295.478V242" stroke="#3A86FF"/>
<path d="M1903.5 296.643H1419.41C1400.91 299.315 1363.92 321.19 1363.92 387.316C1363.92 469.974 1338.16 458.452 1244.96 458.452C1170.39 458.452 1071.43 458.452 1031.26 458.452C1005.51 460.456 954 438.013 954 332.211V222" stroke="#26D7A0"/>
<path d="M954.389 176.241V122.297L571.25 188.213V242.158L954.389 176.241Z" fill="white" stroke="black" stroke-width="0.5"/>
<path d="M571.25 242.244V188.299L954.388 254.215V308.16L571.25 242.244Z" fill="white" stroke="black" stroke-width="0.5"/>
<path d="M954.063 176.241V122.297L1337.2 188.213V242.158L954.063 176.241Z" fill="white" stroke="black" stroke-width="0.5"/>
<path d="M954.226 254.417L571 188.415L954.226 122.412L1337.45 188.002L954.226 254.417Z" fill="white" stroke="black" stroke-width="0.5"/>
<path d="M1337.2 242.244V188.299L954.064 254.215V308.16L1337.2 242.244Z" fill="white" stroke="black" stroke-width="0.5"/>
<path d="M954.127 125.598V117.297L1015.69 127.888V136.189L954.127 125.598Z" fill="white" stroke="black" stroke-width="0.5"/>
<path d="M1016.3 136.275V127.974L954.738 138.564V146.866L1016.3 136.275Z" fill="white" stroke="black" stroke-width="0.5"/>
<path d="M953.761 125.598V117.297L892.201 127.888V136.189L953.761 125.598Z" fill="white" stroke="black" stroke-width="0.5"/>
<path d="M954.555 138.421L1016.55 127.744L954.555 117.067L892.562 127.677L954.555 138.421Z" fill="white" stroke="black" stroke-width="0.5"/>
<path d="M892.201 136.275V127.974L953.761 138.564V146.866L892.201 136.275Z" fill="white" stroke="black" stroke-width="0.5"/>
<path d="M1020.16 137.598V129.297L1081.72 139.888V148.189L1020.16 137.598Z" fill="white" stroke="black" stroke-width="0.5"/>
<path d="M1082.38 148.275V139.974L1020.82 150.564V158.866L1082.38 148.275Z" fill="white" stroke="black" stroke-width="0.5"/>
<path d="M1019.79 137.598V129.297L958.234 139.888V148.189L1019.79 137.598Z" fill="white" stroke="black" stroke-width="0.5"/>
<path d="M1020.64 150.421L1082.63 139.744L1020.64 129.067L958.643 139.677L1020.64 150.421Z" fill="#26D7A0" stroke="black" stroke-width="0.5"/>
<path d="M958.234 148.275V139.974L1019.79 150.564V158.866L958.234 148.275Z" fill="white" stroke="black" stroke-width="0.5"/>
<path d="M869.13 134.598V126.297L930.69 136.888V145.189L869.13 134.598Z" fill="white" stroke="black" stroke-width="0.5"/>
<path d="M931.762 145.275V136.974L870.202 147.564V155.866L931.762 145.275Z" fill="white" stroke="black" stroke-width="0.5"/>
<path d="M868.763 134.598V126.297L807.203 136.888V145.189L868.763 134.598Z" fill="white" stroke="black" stroke-width="0.5"/>
<path d="M870.019 147.421L932.012 136.744L870.019 126.067L808.026 136.677L870.019 147.421Z" fill="#26D7A0" stroke="black" stroke-width="0.5"/>
<path d="M807.203 145.275V136.974L868.763 147.564V155.866L807.203 145.275Z" fill="white" stroke="black" stroke-width="0.5"/>
<path d="M938.167 149.598V141.297L999.727 151.888V160.189L938.167 149.598Z" fill="white" stroke="black" stroke-width="0.5"/>
<path d="M1000.5 160.275V151.974L938.938 162.564V170.866L1000.5 160.275Z" fill="white" stroke="black" stroke-width="0.5"/>
<path d="M937.801 149.598V141.297L876.241 151.888V160.189L937.801 149.598Z" fill="white" stroke="black" stroke-width="0.5"/>
<path d="M938.755 162.421L1000.75 151.744L938.755 141.067L876.762 151.677L938.755 162.421Z" fill="white" stroke="black" stroke-width="0.5"/>
<path d="M876.241 160.275V151.974L937.801 162.564V170.866L876.241 160.275Z" fill="white" stroke="black" stroke-width="0.5"/>
<path d="M800.162 147.598V139.297L861.722 149.888V158.189L800.162 147.598Z" fill="white" stroke="black" stroke-width="0.5"/>
<path d="M862.738 158.275V149.974L801.179 160.564V168.866L862.738 158.275Z" fill="white" stroke="black" stroke-width="0.5"/>
<path d="M799.796 147.598V139.297L738.236 149.888V158.189L799.796 147.598Z" fill="white" stroke="black" stroke-width="0.5"/>
<path d="M800.995 160.421L862.988 149.744L800.995 139.067L739.003 149.677L800.995 160.421Z" fill="white" stroke="black" stroke-width="0.5"/>
<path d="M801 148L812 150L801 152L790 150.013L801 148Z" fill="#F85E60" stroke="black" stroke-width="0.5"/>
<path d="M738.236 158.275V149.974L799.796 160.564V168.866L738.236 158.275Z" fill="white" stroke="black" stroke-width="0.5"/>
<path d="M870.173 162.598V154.297L931.732 164.888V173.189L870.173 162.598Z" fill="white" stroke="black" stroke-width="0.5"/>
<path d="M932.706 173.275V164.974L871.146 175.564V183.866L932.706 173.275Z" fill="white" stroke="black" stroke-width="0.5"/>
<path d="M869.807 162.598V154.297L808.247 164.888V173.189L869.807 162.598Z" fill="white" stroke="black" stroke-width="0.5"/>
<path d="M870.963 175.421L932.956 164.744L870.963 154.067L808.97 164.677L870.963 175.421Z" fill="white" stroke="black" stroke-width="0.5"/>
<path d="M808.247 173.275V164.974L869.807 175.564V183.866L808.247 173.275Z" fill="white" stroke="black" stroke-width="0.5"/>
<path d="M803.145 175.598V167.297L864.704 177.888V186.189L803.145 175.598Z" fill="white" stroke="black" stroke-width="0.5"/>
<path d="M865.655 186.275V177.974L804.096 188.564V196.866L865.655 186.275Z" fill="white" stroke="black" stroke-width="0.5"/>
<path d="M802.778 175.598V167.297L741.219 177.888V186.189L802.778 175.598Z" fill="white" stroke="black" stroke-width="0.5"/>
<path d="M803.912 188.421L865.905 177.744L803.912 167.067L741.919 177.677L803.912 188.421Z" fill="white" stroke="black" stroke-width="0.5"/>
<path d="M741.219 186.275V177.974L802.778 188.564V196.866L741.219 186.275Z" fill="white" stroke="black" stroke-width="0.5"/>
<path d="M1079.07 152.598V144.297L1140.63 154.888V163.189L1079.07 152.598Z" fill="white" stroke="black" stroke-width="0.5"/>
<path d="M1141.2 163.275V154.974L1079.64 165.564V173.866L1141.2 163.275Z" fill="white" stroke="black" stroke-width="0.5"/>
<path d="M1078.71 152.598V144.297L1017.15 154.888V163.189L1078.71 152.598Z" fill="white" stroke="black" stroke-width="0.5"/>
<path d="M1079.45 165.421L1141.45 154.744L1079.45 144.067L1017.46 154.677L1079.45 165.421Z" fill="white" stroke="black" stroke-width="0.5"/>
<path d="M1017.15 163.275V154.974L1078.71 165.564V173.866L1017.15 163.275Z" fill="white" stroke="black" stroke-width="0.5"/>
<path d="M1034.15 159.598V151.297L1095.71 161.888V170.189L1034.15 159.598Z" fill="white" stroke="black" stroke-width="0.5"/>
<path d="M1096.16 170.275V161.974L1034.6 172.564V180.866L1096.16 170.275Z" fill="white" stroke="black" stroke-width="0.5"/>
<path d="M1033.79 159.598V151.297L972.227 161.888V170.189L1033.79 159.598Z" fill="white" stroke="black" stroke-width="0.5"/>
<path d="M1034.42 172.421L1096.41 161.744L1034.42 151.067L972.426 161.677L1034.42 172.421Z" fill="white" stroke="black" stroke-width="0.5"/>
<path d="M972.227 170.275V161.974L1033.79 172.564V180.866L972.227 170.275Z" fill="white" stroke="black" stroke-width="0.5"/>
<path d="M961.106 172.598V164.297L1022.67 174.888V183.189L961.106 172.598Z" fill="white" stroke="black" stroke-width="0.5"/>
<path d="M1022.97 183.275V174.974L961.415 185.564V193.866L1022.97 183.275Z" fill="white" stroke="black" stroke-width="0.5"/>
<path d="M960.739 172.598V164.297L899.18 174.888V183.189L960.739 172.598Z" fill="white" stroke="black" stroke-width="0.5"/>
<path d="M961.232 185.421L1023.22 174.744L961.232 164.067L899.239 174.677L961.232 185.421Z" fill="#26D7A0" stroke="black" stroke-width="0.5"/>
<path d="M899.18 183.275V174.974L960.739 185.564V193.866L899.18 183.275Z" fill="white" stroke="black" stroke-width="0.5"/>
<path d="M1141.92 167.598V159.297L1203.48 169.888V178.189L1141.92 167.598Z" fill="white" stroke="black" stroke-width="0.5"/>
<path d="M1203.89 178.275V169.974L1142.33 180.564V188.866L1203.89 178.275Z" fill="white" stroke="black" stroke-width="0.5"/>
<path d="M1141.56 167.598V159.297L1080 169.888V178.189L1141.56 167.598Z" fill="white" stroke="black" stroke-width="0.5"/>
<path d="M1142.15 180.421L1204.14 169.744L1142.15 159.067L1080.15 169.677L1142.15 180.421Z" fill="white" stroke="black" stroke-width="0.5"/>
<path d="M1142 171L1154 169.5L1142 168L1130 169.491L1142 171Z" fill="#F85E60" stroke="black" stroke-width="0.5"/>
<path d="M1080 178.275V169.974L1141.56 180.564V188.866L1080 178.275Z" fill="white" stroke="black" stroke-width="0.5"/>
<path d="M1080.15 177.598V169.297L1141.71 179.888V188.189L1080.15 177.598Z" fill="white" stroke="black" stroke-width="0.5"/>
<path d="M1142.1 188.275V179.974L1080.54 190.564V198.866L1142.1 188.275Z" fill="white" stroke="black" stroke-width="0.5"/>
<path d="M1079.78 177.598V169.297L1018.22 179.888V188.189L1079.78 177.598Z" fill="white" stroke="black" stroke-width="0.5"/>
<path d="M1080.36 190.421L1142.35 179.744L1080.36 169.067L1018.36 179.677L1080.36 190.421Z" fill="white" stroke="black" stroke-width="0.5"/>
<path d="M1018.22 188.275V179.974L1079.78 190.564V198.866L1018.22 188.275Z" fill="white" stroke="black" stroke-width="0.5"/>
<path d="M1264.16 175.355V167.053L1325.72 177.644V185.945L1264.16 175.355Z" fill="white" stroke="black" stroke-width="0.5"/>
<path d="M1325.72 186.031V177.73L1264.16 188.321V196.622L1325.72 186.031Z" fill="white" stroke="black" stroke-width="0.5"/>
<path d="M1263.79 175.355V167.053L1202.23 177.644V185.945L1263.79 175.355Z" fill="white" stroke="black" stroke-width="0.5"/>
<path d="M1263.97 188.177L1325.97 177.5L1263.97 166.824L1201.98 177.434L1263.97 188.177Z" fill="white" stroke="black" stroke-width="0.5"/>
<path d="M1202.23 186.031V177.73L1263.79 188.321V196.622L1202.23 186.031Z" fill="white" stroke="black" stroke-width="0.5"/>
<path d="M1202.35 186.011V177.71L1263.91 188.301V196.602L1202.35 186.011Z" fill="white" stroke="black" stroke-width="0.5"/>
<path d="M1263.91 196.688V188.387L1202.35 198.978V207.279L1263.91 196.688Z" fill="white" stroke="black" stroke-width="0.5"/>
<path d="M1201.98 186.011V177.71L1140.42 188.301V196.602L1201.98 186.011Z" fill="white" stroke="black" stroke-width="0.5"/>
<path d="M1202.17 198.834L1264.16 188.157L1202.17 177.48L1140.17 188.09L1202.17 198.834Z" fill="#26D7A0" stroke="black" stroke-width="0.5"/>
<path d="M1140.42 196.688V188.387L1201.98 198.978V207.279L1140.42 196.688Z" fill="white" stroke="black" stroke-width="0.5"/>
<path d="M1140.54 196.668V188.366L1202.1 198.957V207.258L1140.54 196.668Z" fill="white" stroke="black" stroke-width="0.5"/>
<path d="M1202.1 207.344V199.043L1140.54 209.634V217.935L1202.1 207.344Z" fill="white" stroke="black" stroke-width="0.5"/>
<path d="M1140.17 196.668V188.366L1078.62 198.957V207.258L1140.17 196.668Z" fill="white" stroke="black" stroke-width="0.5"/>
<path d="M1140.36 209.49L1202.35 198.813L1140.36 188.136L1078.37 198.747L1140.36 209.49Z" fill="#0A1624" stroke="black" stroke-width="0.5"/>
<path d="M1078.62 207.344V199.043L1140.18 209.634V217.935L1078.62 207.344Z" fill="white" stroke="black" stroke-width="0.5"/>
<path d="M1017.93 189.598V181.297L1079.49 191.888V200.189L1017.93 189.598Z" fill="white" stroke="black" stroke-width="0.5"/>
<path d="M1079.76 200.275V191.974L1018.2 202.564V210.866L1079.76 200.275Z" fill="white" stroke="black" stroke-width="0.5"/>
<path d="M1017.57 189.598V181.297L956.009 191.888V200.189L1017.57 189.598Z" fill="white" stroke="black" stroke-width="0.5"/>
<path d="M1018.01 202.421L1080.01 191.744L1018.01 181.067L956.02 191.677L1018.01 202.421Z" fill="#0A1624" stroke="black" stroke-width="0.5"/>
<path d="M956.009 200.275V191.974L1017.57 202.564V210.866L956.009 200.275Z" fill="white" stroke="black" stroke-width="0.5"/>
<path d="M893.148 185.598V177.297L954.708 187.888V196.189L893.148 185.598Z" fill="white" stroke="black" stroke-width="0.5"/>
<path d="M954.916 196.275V187.974L893.356 198.564V206.866L954.916 196.275Z" fill="white" stroke="black" stroke-width="0.5"/>
<path d="M892.781 185.598V177.297L831.222 187.888V196.189L892.781 185.598Z" fill="white" stroke="black" stroke-width="0.5"/>
<path d="M893.173 198.421L955.166 187.744L893.173 177.067L831.18 187.677L893.173 198.421Z" fill="white" stroke="black" stroke-width="0.5"/>
<path d="M831.222 196.275V187.974L892.781 198.564V206.866L831.222 196.275Z" fill="white" stroke="black" stroke-width="0.5"/>
<path d="M955.909 200.598V192.297L1017.47 202.888V211.189L955.909 200.598Z" fill="white" stroke="black" stroke-width="0.5"/>
<path d="M1017.63 211.275V202.974L956.069 213.564V221.866L1017.63 211.275Z" fill="white" stroke="black" stroke-width="0.5"/>
<path d="M955.542 200.598V192.297L893.982 202.888V211.189L955.542 200.598Z" fill="white" stroke="black" stroke-width="0.5"/>
<path d="M955.886 213.421L1017.88 202.744L955.886 192.067L893.893 202.677L955.886 213.421Z" fill="white" stroke="black" stroke-width="0.5"/>
<path d="M893.982 211.275V202.974L955.542 213.564V221.866L893.982 211.275Z" fill="white" stroke="black" stroke-width="0.5"/>
<path d="M1079.45 207.324V199.023L1141 209.614V217.915L1079.45 207.324Z" fill="white" stroke="black" stroke-width="0.5"/>
<path d="M1141.01 218.001V209.7L1079.45 220.29V228.592L1141.01 218.001Z" fill="white" stroke="black" stroke-width="0.5"/>
<path d="M1079.08 207.324V199.023L1017.52 209.614V217.915L1079.08 207.324Z" fill="white" stroke="black" stroke-width="0.5"/>
<path d="M1079.26 220.147L1141.26 209.47L1079.26 198.793L1017.27 209.403L1079.26 220.147Z" fill="white" stroke="black" stroke-width="0.5"/>
<path d="M1017.52 218.001V209.7L1079.08 220.291V228.592L1017.52 218.001Z" fill="white" stroke="black" stroke-width="0.5"/>
<path d="M1017.64 217.98V209.679L1079.2 220.27V228.571L1017.64 217.98Z" fill="white" stroke="black" stroke-width="0.5"/>
<path d="M1079.2 228.657V220.356L1017.64 230.947V239.248L1079.2 228.657Z" fill="white" stroke="black" stroke-width="0.5"/>
<path d="M1017.27 217.98V209.679L955.712 220.27V228.571L1017.27 217.98Z" fill="white" stroke="black" stroke-width="0.5"/>
<path d="M1017.45 230.803L1079.45 220.126L1017.45 209.449L955.461 220.06L1017.45 230.803Z" fill="#26D7A0" stroke="black" stroke-width="0.5"/>
<path d="M955.712 228.657V220.356L1017.27 230.947V239.248L955.712 228.657Z" fill="white" stroke="black" stroke-width="0.5"/>
<path d="M955.711 228.637V220.336L1017.27 230.927V239.228L955.711 228.637Z" fill="white" stroke="black" stroke-width="0.5"/>
<path d="M1017.27 239.314V231.013L955.711 241.603V249.905L1017.27 239.314Z" fill="white" stroke="black" stroke-width="0.5"/>
<path d="M955.344 228.637V220.336L893.784 230.927V239.228L955.344 228.637Z" fill="white" stroke="black" stroke-width="0.5"/>
<path d="M955.528 241.46L1017.52 230.783L955.528 220.106L893.535 230.716L955.528 241.46Z" fill="white" stroke="black" stroke-width="0.5"/>
<path d="M893.785 239.314V231.013L955.345 241.603V249.905L893.785 239.314Z" fill="white" stroke="black" stroke-width="0.5"/>
<path d="M647.019 175.355V167.054L585.459 177.644V185.946L647.019 175.355Z" fill="white" stroke="black" stroke-width="0.5"/>
<path d="M585.459 186.032V177.73L647.019 188.321V196.622L585.459 186.032Z" fill="white" stroke="black" stroke-width="0.5"/>
<path d="M647.385 175.355V167.054L708.944 177.644V185.946L647.385 175.355Z" fill="white" stroke="black" stroke-width="0.5"/>
<path d="M647.202 188.177L585.209 177.501L647.202 166.824L709.195 177.434L647.202 188.177Z" fill="white" stroke="black" stroke-width="0.5"/>
<path d="M708.945 186.032V177.73L647.386 188.321V196.622L708.945 186.032Z" fill="white" stroke="black" stroke-width="0.5"/>
<path d="M708.825 186.011V177.71L647.266 188.301V196.602L708.825 186.011Z" fill="white" stroke="black" stroke-width="0.5"/>
<path d="M647.266 196.688V188.387L708.825 198.978V207.279L647.266 196.688Z" fill="white" stroke="black" stroke-width="0.5"/>
<path d="M709.191 186.011V177.71L770.751 188.301V196.602L709.191 186.011Z" fill="white" stroke="black" stroke-width="0.5"/>
<path d="M709.009 198.834L647.016 188.157L709.009 177.48L771.001 188.09L709.009 198.834Z" fill="white" stroke="black" stroke-width="0.5"/>
<path d="M770.752 196.688V188.387L709.192 198.978V207.279L770.752 196.688Z" fill="white" stroke="black" stroke-width="0.5"/>
<path d="M770.633 196.668V188.367L709.073 198.957V207.259L770.633 196.668Z" fill="white" stroke="black" stroke-width="0.5"/>
<path d="M709.073 207.345V199.043L770.633 209.634V217.935L709.073 207.345Z" fill="white" stroke="black" stroke-width="0.5"/>
<path d="M770.999 196.668V188.367L832.559 198.957V207.259L770.999 196.668Z" fill="white" stroke="black" stroke-width="0.5"/>
<path d="M770.816 209.49L708.823 198.814L770.816 188.137L832.809 198.747L770.816 209.49Z" fill="white" stroke="black" stroke-width="0.5"/>
<path d="M832.559 207.345V199.043L770.999 209.634V217.935L832.559 207.345Z" fill="white" stroke="black" stroke-width="0.5"/>
<path d="M831.729 207.324V199.023L770.17 209.614V217.915L831.729 207.324Z" fill="white" stroke="black" stroke-width="0.5"/>
<path d="M770.17 218.001V209.7L831.73 220.291V228.592L770.17 218.001Z" fill="white" stroke="black" stroke-width="0.5"/>
<path d="M832.096 207.324V199.023L893.655 209.614V217.915L832.096 207.324Z" fill="white" stroke="black" stroke-width="0.5"/>
<path d="M831.913 220.147L769.92 209.47L831.913 198.793L893.906 209.403L831.913 220.147Z" fill="white" stroke="black" stroke-width="0.5"/>
<path d="M893.655 218.001V209.7L832.096 220.291V228.592L893.655 218.001Z" fill="white" stroke="black" stroke-width="0.5"/>
<path d="M831.729 196.598V188.297L770.17 198.888V207.189L831.729 196.598Z" fill="white" stroke="black" stroke-width="0.5"/>
<path d="M770.17 207.275V198.974L831.73 209.564V217.866L770.17 207.275Z" fill="white" stroke="black" stroke-width="0.5"/>
<path d="M832.096 196.598V188.297L893.655 198.888V207.189L832.096 196.598Z" fill="white" stroke="black" stroke-width="0.5"/>
<path d="M831.913 209.421L769.92 198.744L831.913 188.067L893.906 198.677L831.913 209.421Z" fill="#0A1624" stroke="black" stroke-width="0.5"/>
<path d="M893.655 207.275V198.974L832.096 209.564V217.866L893.655 207.275Z" fill="white" stroke="black" stroke-width="0.5"/>
<path d="M831.729 183.598V175.297L770.17 185.888V194.189L831.729 183.598Z" fill="white" stroke="black" stroke-width="0.5"/>
<path d="M770.17 194.275V185.974L831.73 196.564V204.866L770.17 194.275Z" fill="white" stroke="black" stroke-width="0.5"/>
<path d="M832.096 183.598V175.297L893.655 185.888V194.189L832.096 183.598Z" fill="white" stroke="black" stroke-width="0.5"/>
<path d="M831.913 196.421L769.92 185.744L831.913 175.067L893.906 185.677L831.913 196.421Z" fill="#26D7A0" stroke="black" stroke-width="0.5"/>
<path d="M893.655 194.275V185.974L832.096 196.564V204.866L893.655 194.275Z" fill="white" stroke="black" stroke-width="0.5"/>
<path d="M893.536 217.981V209.68L831.977 220.27V228.572L893.536 217.981Z" fill="white" stroke="black" stroke-width="0.5"/>
<path d="M831.977 228.658V220.356L893.536 230.947V239.248L831.977 228.658Z" fill="white" stroke="black" stroke-width="0.5"/>
<path d="M893.902 217.981V209.68L955.462 220.27V228.572L893.902 217.981Z" fill="white" stroke="black" stroke-width="0.5"/>
<path d="M893.719 230.803L831.727 220.127L893.719 209.45L955.712 220.06L893.719 230.803Z" fill="white" stroke="black" stroke-width="0.5"/>
<path d="M955.462 228.658V220.356L893.902 230.947V239.248L955.462 228.658Z" fill="white" stroke="black" stroke-width="0.5"/>
<path d="M955.464 228.637V220.336L893.904 230.927V239.228L955.464 228.637Z" fill="white" stroke="black" stroke-width="0.5"/>
<path d="M893.904 239.314V231.013L955.464 241.604V249.905L893.904 239.314Z" fill="white" stroke="black" stroke-width="0.5"/>
<path d="M955.831 228.637V220.336L1017.39 230.927V239.228L955.831 228.637Z" fill="white" stroke="black" stroke-width="0.5"/>
<path d="M955.647 241.46L893.654 230.783L955.647 220.106L1017.64 230.716L955.647 241.46Z" fill="white" stroke="black" stroke-width="0.5"/>
<path d="M1017.39 239.314V231.013L955.831 241.604V249.905L1017.39 239.314Z" fill="white" stroke="black" stroke-width="0.5"/>
<defs>
<radialGradient id="paint0_radial_434_474" cx="0" cy="0" r="1" gradientUnits="userSpaceOnUse" gradientTransform="translate(949.5 267.5) rotate(90) scale(420.5 267.5)">
<stop offset="0.0001" stop-color="#9423D9" stop-opacity="0.23"/>
<stop offset="1" stop-color="#3D87FD" stop-opacity="0"/>
</radialGradient>
</defs>
</svg>
