<svg width="246" height="181" viewBox="0 0 246 181" fill="none" xmlns="http://www.w3.org/2000/svg">
<path d="M1 0V180H246" stroke="#26D7A0"/>
<path d="M28 119.979L53.9872 146L134.883 65L200.689 130.891L225 106.549" stroke="#26D7A0"/>
<circle cx="24.5" cy="116.5" r="3" stroke="#26D7A0"/>
<circle cx="135.5" cy="59.5" r="3" stroke="#26D7A0"/>
<circle cx="228.5" cy="101.5" r="3" stroke="#26D7A0"/>
<path d="M21 146L65 165.5L134 92L169.5 112" stroke="#26D7A0" stroke-dasharray="2 2"/>
<path d="M96.5 42V14H177V42H142.5L134.5 50L126.5 42H96.5Z" stroke="#26D7A0"/>
<path d="M111.522 32.6135H109.477V33.6363H111.522V32.6135Z" fill="#26D7A0"/>
<path d="M114.182 30.9773V27.7045C114.182 25.845 112.802 24.3118 111.011 24.0624V23H109.989V24.0624C108.198 24.3118 106.818 25.845 106.818 27.7045V30.9773H106V32H115V30.9773H114.182ZM113.159 30.9773H107.841V27.7045C107.841 26.2384 109.034 25.0455 110.5 25.0455C111.966 25.0455 113.159 26.2384 113.159 27.7045V30.9773Z" fill="#26D7A0"/>
<line x1="121" y1="25.5" x2="170" y2="25.5" stroke="#26D7A0"/>
<line x1="121" y1="29.5" x2="134" y2="29.5" stroke="#26D7A0"/>
</svg>
