<svg width="414" height="274" viewBox="0 0 414 274" fill="none" xmlns="http://www.w3.org/2000/svg">
<path d="M58.4392 42.566L65.3816 33.9628L61.4026 23.6488L54.4602 32.252L58.4392 42.566Z" fill="white"/>
<path d="M54.6483 32.2815L61.3514 23.9755L65.1935 33.9334L58.4904 42.2393L54.6483 32.2815ZM54.4602 32.252L58.4392 42.566L65.3816 33.9628L61.4026 23.6488L54.4602 32.252Z" fill="url(#paint0_linear_398_4347)"/>
<path d="M58.4395 42.567L69.0218 44.2247L75.9642 35.6216L65.3818 33.9638L58.4395 42.567Z" fill="white"/>
<path d="M65.3806 33.9613L75.963 35.619L71.984 25.305L61.4016 23.6472L65.3806 33.9613Z" fill="url(#paint1_linear_398_4347)"/>
<path d="M61.6582 23.8548L71.8643 25.4536L75.7064 35.4115L65.5003 33.8127L61.6582 23.8548ZM61.4016 23.6472L65.3806 33.9613L75.963 35.619L71.984 25.305L61.4016 23.6472Z" fill="url(#paint2_linear_398_4347)"/>
<path d="M58.7472 42.4479L65.4503 34.1419L75.6565 35.7407L68.9533 44.0467L58.7472 42.4479ZM58.4395 42.567L69.0218 44.2247L75.9642 35.6216L65.3818 33.9638L58.4395 42.567Z" fill="url(#paint3_linear_398_4347)"/>
<path d="M309.065 20.2473L322.383 17.8992L327.009 5.19158L313.691 7.53963L309.065 20.2473Z" fill="white"/>
<path d="M313.84 7.71805L326.699 5.45157L322.233 17.7208L309.375 19.9873L313.84 7.71805ZM313.691 7.53963L309.065 20.2473L322.383 17.8992L327.009 5.19158L313.691 7.53963Z" fill="url(#paint4_linear_398_4347)"/>
<path d="M309.064 20.2476L317.487 30.2856L330.805 27.9376L322.383 17.8996L309.064 20.2476Z" fill="url(#paint5_linear_398_4347)"/>
<path d="M322.381 17.8995L330.803 27.9375L335.429 15.2299L327.007 5.19189L322.381 17.8995Z" fill="white"/>
<path d="M327.077 5.58951L335.2 15.2707L330.734 27.5399L322.611 17.8588L327.077 5.58951ZM327.007 5.19189L322.381 17.8995L330.803 27.9375L335.429 15.2299L327.007 5.19189Z" fill="url(#paint6_linear_398_4347)"/>
<path d="M309.444 20.3852L322.302 18.1188L330.425 27.7999L317.567 30.0664L309.444 20.3852ZM309.064 20.2476L317.487 30.2856L330.805 27.9376L322.383 17.8996L309.064 20.2476Z" fill="url(#paint7_linear_398_4347)"/>
<path d="M34.9115 77.6727L35.7815 96.3845L20.0119 106.494L19.142 87.7825L34.9115 77.6727Z" fill="white"/>
<path d="M19.4285 87.9306L20.2692 105.997L35.4949 96.2363L34.6543 78.1704L19.4285 87.9306ZM19.142 87.7825L34.9115 77.6727L35.7815 96.3845L20.0119 106.494L19.142 87.7825Z" fill="url(#paint8_linear_398_4347)"/>
<path d="M34.9121 77.6735L51.035 86.0084L51.905 104.72L35.782 96.3853L34.9121 77.6735Z" fill="#26D7A0"/>
<path d="M35.726 98.3138L51.8489 106.649L36.0794 116.759L19.9564 108.424L35.726 98.3138Z" fill="#09141F"/>
<path d="M20.5696 106.467L36.1194 114.505L51.3451 104.745L35.7953 96.7064L20.5696 106.467ZM20.0111 106.493L35.7807 96.3834L51.9036 104.718L36.134 114.828L20.0111 106.493Z" fill="#26D7A0"/>
<path d="M35.2133 78.1445L36.054 96.2105L51.6038 104.249L50.7631 86.1832L35.2133 78.1445ZM34.9121 77.6735L51.035 86.0084L51.905 104.72L35.782 96.3853L34.9121 77.6735Z" fill="url(#paint9_linear_398_4347)"/>
<path d="M375.381 92.8688L361.25 103.647L344.85 96.8L358.981 86.0213L375.381 92.8688Z" fill="white"/>
<path d="M359.02 86.3249L345.377 96.7321L361.211 103.344L374.854 92.9367L359.02 86.3249ZM358.981 86.0213L375.381 92.8688L361.25 103.647L344.85 96.8L358.981 86.0213Z" fill="url(#paint10_linear_398_4347)"/>
<path d="M377.516 93.5474L379.715 110.626L365.584 121.405L363.385 104.326L377.516 93.5474Z" fill="#26D7A0"/>
<path d="M361.287 103.765L363.486 120.844L347.086 113.997L344.887 96.9176L361.287 103.765Z" fill="#3A86FF"/>
<path d="M345.172 97.2216L347.293 113.693L363.127 120.305L361.006 103.833L345.172 97.2216ZM344.85 96.8003L361.25 103.648L363.449 120.727L347.049 113.879L344.85 96.8003Z" fill="url(#paint11_linear_398_4347)"/>
<path d="M375.176 93.3582L361.533 103.765L363.654 120.237L377.297 109.83L375.176 93.3582ZM375.381 92.869L377.58 109.948L363.449 120.727L361.25 103.648L375.381 92.869Z" fill="url(#paint12_linear_398_4347)"/>
<path d="M360.84 23.8173L375.638 32.199L390.294 23.5723L375.497 15.1924L360.84 23.8173Z" fill="white"/>
<path d="M375.499 15.4853L389.786 23.5765L375.636 31.9042L361.349 23.813L375.499 15.4853ZM375.497 15.1924L360.84 23.8173L375.638 32.1971L390.294 23.5723L375.497 15.1924Z" fill="url(#paint13_linear_398_4347)"/>
<path d="M360.008 24.5137L360.145 40.9904L374.943 49.3722L374.806 32.8954L360.008 24.5137Z" fill="#09141F"/>
<path d="M375.637 32.1994L375.774 48.6761L390.431 40.0494L390.293 23.5726L375.637 32.1994Z" fill="#26D7A0"/>
<path d="M390.043 24.0158L390.175 39.9069L376.025 48.2346L375.893 32.3436L390.043 24.0158ZM390.293 23.5744L375.637 32.1992L375.774 48.676L390.431 40.0512L390.293 23.5744Z" fill="url(#paint14_linear_398_4347)"/>
<path d="M361.098 24.2563L375.385 32.3475L375.517 48.2386L361.23 40.1474L361.098 24.2563ZM360.84 23.8191L360.977 40.2959L375.775 48.6757L375.638 32.199L360.84 23.8191Z" fill="url(#paint15_linear_398_4347)"/>
<path d="M439.084 210.439L369.531 210.439C355.58 210.439 327.679 216.562 327.679 241.056C327.679 271.672 317.245 272.988 284.028 272.988C257.453 272.988 240.417 272.988 235.22 272.988" stroke="#26D7A0"/>
<path d="M457.617 210.439L388.064 210.439C374.113 210.439 346.212 216.562 346.212 241.056C346.212 271.672 335.779 272.988 302.561 272.988C275.987 272.988 258.95 272.988 253.754 272.988" stroke="#26D7A0"/>
<path d="M597 197.89H497.771C486.123 198.92 462.828 207.35 462.828 232.833C462.828 264.687 446.612 260.246 387.924 260.246C340.973 260.246 278.656 260.246 253.366 260.246C237.15 261.019 204.717 252.37 204.717 211.597V169.126" stroke="#3A86FF"/>
<path d="M-163.049 197.89H-88.3372C-76.6897 198.92 -53.3946 207.35 -53.3946 232.833C-53.3946 264.687 -37.1782 260.246 21.5098 260.246C68.4602 260.246 130.778 260.246 156.068 260.246C172.284 261.019 204.717 252.37 204.717 211.597V169.126" stroke="#26D7A0"/>
<path d="M-163.049 189.01H-24.0506C-12.4031 190.04 10.8919 198.47 10.8919 223.953C10.8919 255.806 27.1083 251.366 85.7963 251.366C132.747 251.366 130.778 251.366 156.068 251.366C172.284 252.138 204.717 243.489 204.717 202.717V160.245" stroke="#26D7A0"/>
<path d="M572.482 189.01H433.484C421.837 190.04 398.542 198.47 398.542 223.953C398.542 255.806 382.325 251.366 323.637 251.366C276.687 251.366 278.656 251.366 253.366 251.366C237.15 252.138 204.717 243.489 204.717 202.717V160.245" stroke="#26D7A0"/>
<path d="M-161.89 210.301H25.0193C32.1615 211.333 46.4457 219.779 46.4457 245.311C46.4457 277.225 56.3894 272.777 92.3763 272.777C121.166 272.777 159.378 272.777 174.886 272.777C184.829 273.55 204.717 264.885 204.717 224.034V181.481" stroke="#3A86FF"/>
<path d="M204.432 181.481V224.034C204.432 264.885 184.544 273.55 174.6 272.777C159.093 272.777 73.8646 272.777 45.0751 272.777C9.08826 272.777 -0.856318 277.225 -0.856318 245.311C-0.856318 219.779 -15.1407 217.069 -22.2828 216.038H-163.628" stroke="#3A86FF"/>
<path d="M-161.697 203.188H25.114C32.2523 203.688 46.5291 204.689 46.5291 220.175C46.5291 235.661 69.9059 233.503 105.874 233.503C134.648 233.503 159.402 233.503 174.901 233.503C184.84 233.878 204.717 229.673 204.717 209.851V189.203" stroke="#3A86FF"/>
<path d="M571.324 210.301H384.414C377.272 211.333 362.988 219.779 362.988 245.311C362.988 277.225 353.044 272.777 317.057 272.777C288.268 272.777 250.055 272.777 234.548 272.777C224.604 273.55 204.717 264.885 204.717 224.034V181.481" stroke="#26D7A0"/>
<path d="M204.715 163.684V143.167L57.09 168.565V189.082L204.715 163.684Z" fill="white" stroke="black" stroke-width="0.5"/>
<path d="M57.0898 189.168V168.651L204.715 194.049V214.565L57.0898 189.168Z" fill="white" stroke="black" stroke-width="0.5"/>
<path d="M204.896 163.684V143.167L352.521 168.565V189.082L204.896 163.684Z" fill="white" stroke="black" stroke-width="0.5"/>
<path d="M204.805 193.997L56.8398 168.513L204.805 143.029L352.771 168.354L204.805 193.997Z" fill="white" stroke="black" stroke-width="0.5"/>
<path d="M352.521 189.168V168.651L204.897 194.049V214.565L352.521 189.168Z" fill="white" stroke="black" stroke-width="0.5"/>
<path d="M204.92 144.13V141.237L228.381 145.273V148.167L204.92 144.13Z" fill="white" stroke="black" stroke-width="0.5"/>
<path d="M228.617 148.252V145.359L205.156 149.395V152.289L228.617 148.252Z" fill="white" stroke="black" stroke-width="0.5"/>
<path d="M204.471 144.13V141.237L181.009 145.273V148.167L204.471 144.13Z" fill="white" stroke="black" stroke-width="0.5"/>
<path d="M204.931 149.21L228.867 145.088L204.931 140.966L180.996 145.062L204.931 149.21Z" fill="white" stroke="black" stroke-width="0.5"/>
<path d="M181.01 148.253V145.359L204.471 149.395V152.289L181.01 148.253Z" fill="white" stroke="black" stroke-width="0.5"/>
<path d="M230.418 148.763V145.87L253.88 149.906V152.8L230.418 148.763Z" fill="white" stroke="black" stroke-width="0.5"/>
<path d="M254.133 152.886V149.992L230.671 154.028V156.922L254.133 152.886Z" fill="white" stroke="black" stroke-width="0.5"/>
<path d="M229.969 148.763V145.87L206.507 149.906V152.8L229.969 148.763Z" fill="white" stroke="black" stroke-width="0.5"/>
<path d="M230.447 153.844L254.383 149.721L230.447 145.599L206.511 149.695L230.447 153.844Z" fill="#26D7A0" stroke="black" stroke-width="0.5"/>
<path d="M206.508 152.886V149.992L229.969 154.028V156.922L206.508 152.886Z" fill="white" stroke="black" stroke-width="0.5"/>
<path d="M172.104 147.605V144.711L195.565 148.748V151.641L172.104 147.605Z" fill="white" stroke="black" stroke-width="0.5"/>
<path d="M195.979 151.727V148.834L172.517 152.87V155.764L195.979 151.727Z" fill="white" stroke="black" stroke-width="0.5"/>
<path d="M171.654 147.605V144.711L148.193 148.748V151.641L171.654 147.605Z" fill="white" stroke="black" stroke-width="0.5"/>
<path d="M172.293 152.685L196.229 148.563L172.293 144.44L148.357 148.537L172.293 152.685Z" fill="#26D7A0" stroke="black" stroke-width="0.5"/>
<path d="M148.193 151.727V148.834L171.655 152.87V155.764L148.193 151.727Z" fill="white" stroke="black" stroke-width="0.5"/>
<path d="M198.758 153.397V150.503L222.219 154.54V157.433L198.758 153.397Z" fill="white" stroke="black" stroke-width="0.5"/>
<path d="M222.518 157.519V154.626L199.056 158.662V161.556L222.518 157.519Z" fill="white" stroke="black" stroke-width="0.5"/>
<path d="M198.311 153.397V150.503L174.849 154.54V157.433L198.311 153.397Z" fill="white" stroke="black" stroke-width="0.5"/>
<path d="M198.832 158.477L222.768 154.355L198.832 150.232L174.896 154.329L198.832 158.477Z" fill="white" stroke="black" stroke-width="0.5"/>
<path d="M174.848 157.519V154.626L198.309 158.662V161.556L174.848 157.519Z" fill="white" stroke="black" stroke-width="0.5"/>
<path d="M145.473 152.625V149.731L168.934 153.767V156.661L145.473 152.625Z" fill="white" stroke="black" stroke-width="0.5"/>
<path d="M169.328 156.747V153.853L145.867 157.89V160.783L169.328 156.747Z" fill="white" stroke="black" stroke-width="0.5"/>
<path d="M145.025 152.625V149.731L121.564 153.767V156.661L145.025 152.625Z" fill="white" stroke="black" stroke-width="0.5"/>
<path d="M145.642 157.705L169.578 153.582L145.642 149.46L121.707 153.556L145.642 157.705Z" fill="white" stroke="black" stroke-width="0.5"/>
<path d="M145.643 152.909L149.891 153.682L145.643 154.454L141.396 153.686L145.643 152.909Z" fill="#F85E60" stroke="black" stroke-width="0.5"/>
<path d="M121.562 156.747V153.854L145.024 157.89V160.784L121.562 156.747Z" fill="white" stroke="black" stroke-width="0.5"/>
<path d="M172.504 158.416V155.522L195.965 159.559V162.452L172.504 158.416Z" fill="white" stroke="black" stroke-width="0.5"/>
<path d="M196.342 162.538V159.645L172.88 163.681V166.575L196.342 162.538Z" fill="white" stroke="black" stroke-width="0.5"/>
<path d="M172.055 158.416V155.522L148.593 159.559V162.452L172.055 158.416Z" fill="white" stroke="black" stroke-width="0.5"/>
<path d="M172.656 163.496L196.592 159.374L172.656 155.251L148.72 159.348L172.656 163.496Z" fill="white" stroke="black" stroke-width="0.5"/>
<path d="M148.594 162.538V159.645L172.055 163.681V166.575L148.594 162.538Z" fill="white" stroke="black" stroke-width="0.5"/>
<path d="M146.625 163.436V160.542L170.087 164.578V167.472L146.625 163.436Z" fill="white" stroke="black" stroke-width="0.5"/>
<path d="M170.453 167.558V164.664L146.992 168.701V171.594L170.453 167.558Z" fill="white" stroke="black" stroke-width="0.5"/>
<path d="M146.176 163.436V160.542L122.714 164.578V167.472L146.176 163.436Z" fill="white" stroke="black" stroke-width="0.5"/>
<path d="M146.767 168.516L170.703 164.393L146.767 160.271L122.832 164.368L146.767 168.516Z" fill="white" stroke="black" stroke-width="0.5"/>
<path d="M122.715 167.558V164.664L146.176 168.701V171.594L122.715 167.558Z" fill="white" stroke="black" stroke-width="0.5"/>
<path d="M253.162 154.555V151.662L276.624 155.698V158.592L253.162 154.555Z" fill="white" stroke="black" stroke-width="0.5"/>
<path d="M276.842 158.677V155.784L253.38 159.82V162.714L276.842 158.677Z" fill="white" stroke="black" stroke-width="0.5"/>
<path d="M252.715 154.555V151.662L229.253 155.698V158.592L252.715 154.555Z" fill="white" stroke="black" stroke-width="0.5"/>
<path d="M253.156 159.635L277.092 155.513L253.156 151.39L229.22 155.487L253.156 159.635Z" fill="white" stroke="black" stroke-width="0.5"/>
<path d="M229.254 158.678V155.784L252.715 159.82V162.714L229.254 158.678Z" fill="white" stroke="black" stroke-width="0.5"/>
<path d="M235.82 157.258V154.364L259.282 158.4V161.294L235.82 157.258Z" fill="white" stroke="black" stroke-width="0.5"/>
<path d="M259.455 161.38V158.486L235.994 162.523V165.416L259.455 161.38Z" fill="white" stroke="black" stroke-width="0.5"/>
<path d="M235.371 157.258V154.364L211.91 158.4V161.294L235.371 157.258Z" fill="white" stroke="black" stroke-width="0.5"/>
<path d="M235.769 162.338L259.705 158.215L235.769 154.093L211.834 158.19L235.769 162.338Z" fill="white" stroke="black" stroke-width="0.5"/>
<path d="M211.91 161.38V158.486L235.372 162.523V165.416L211.91 161.38Z" fill="white" stroke="black" stroke-width="0.5"/>
<path d="M207.615 162.277V159.383L231.077 163.42V166.313L207.615 162.277Z" fill="white" stroke="black" stroke-width="0.5"/>
<path d="M231.195 166.4V163.506L207.734 167.542V170.436L231.195 166.4Z" fill="white" stroke="black" stroke-width="0.5"/>
<path d="M207.166 162.277V159.383L183.704 163.42V166.313L207.166 162.277Z" fill="white" stroke="black" stroke-width="0.5"/>
<path d="M207.51 167.357L231.445 163.235L207.51 159.113L183.574 163.209L207.51 167.357Z" fill="#26D7A0" stroke="black" stroke-width="0.5"/>
<path d="M183.705 166.4V163.506L207.167 167.543V170.436L183.705 166.4Z" fill="white" stroke="black" stroke-width="0.5"/>
<path d="M277.43 160.347V157.453L300.891 161.489V164.383L277.43 160.347Z" fill="white" stroke="black" stroke-width="0.5"/>
<path d="M301.049 164.469V161.575L277.587 165.612V168.505L301.049 164.469Z" fill="white" stroke="black" stroke-width="0.5"/>
<path d="M276.982 160.347V157.453L253.521 161.489V164.383L276.982 160.347Z" fill="white" stroke="black" stroke-width="0.5"/>
<path d="M277.363 165.427L301.299 161.304L277.363 157.182L253.427 161.279L277.363 165.427Z" fill="white" stroke="black" stroke-width="0.5"/>
<path d="M277.306 161.79L281.939 161.21L277.306 160.631L272.673 161.207L277.306 161.79Z" fill="#F85E60" stroke="black" stroke-width="0.5"/>
<path d="M253.52 164.469V161.575L276.981 165.612V168.505L253.52 164.469Z" fill="white" stroke="black" stroke-width="0.5"/>
<path d="M253.58 164.208V161.314L277.042 165.351V168.244L253.58 164.208Z" fill="white" stroke="black" stroke-width="0.5"/>
<path d="M277.191 168.33V165.436L253.73 169.473V172.366L277.191 168.33Z" fill="white" stroke="black" stroke-width="0.5"/>
<path d="M253.131 164.208V161.314L229.669 165.351V168.244L253.131 164.208Z" fill="white" stroke="black" stroke-width="0.5"/>
<path d="M253.506 169.288L277.441 165.166L253.506 161.043L229.57 165.14L253.506 169.288Z" fill="white" stroke="black" stroke-width="0.5"/>
<path d="M229.67 168.33V165.437L253.131 169.473V172.367L229.67 168.33Z" fill="white" stroke="black" stroke-width="0.5"/>
<path d="M324.625 163.341V160.448L348.087 164.484V167.378L324.625 163.341Z" fill="white" stroke="black" stroke-width="0.5"/>
<path d="M348.086 167.463V164.57L324.624 168.606V171.5L348.086 167.463Z" fill="white" stroke="black" stroke-width="0.5"/>
<path d="M324.176 163.341V160.448L300.714 164.484V167.378L324.176 163.341Z" fill="white" stroke="black" stroke-width="0.5"/>
<path d="M324.4 168.422L348.336 164.299L324.4 160.177L300.464 164.273L324.4 168.422Z" fill="white" stroke="black" stroke-width="0.5"/>
<path d="M300.715 167.463V164.57L324.176 168.606V171.5L300.715 167.463Z" fill="white" stroke="black" stroke-width="0.5"/>
<path d="M300.762 167.456V164.562L324.223 168.599V171.492L300.762 167.456Z" fill="white" stroke="black" stroke-width="0.5"/>
<path d="M324.223 171.579V168.685L300.761 172.722V175.615L324.223 171.579Z" fill="white" stroke="black" stroke-width="0.5"/>
<path d="M300.312 167.456V164.562L276.851 168.599V171.492L300.312 167.456Z" fill="white" stroke="black" stroke-width="0.5"/>
<path d="M300.537 172.536L324.473 168.414L300.537 164.291L276.601 168.388L300.537 172.536Z" fill="#26D7A0" stroke="black" stroke-width="0.5"/>
<path d="M276.852 171.579V168.685L300.313 172.722V175.615L276.852 171.579Z" fill="white" stroke="black" stroke-width="0.5"/>
<path d="M276.896 171.571V168.677L300.358 172.713V175.607L276.896 171.571Z" fill="white" stroke="black" stroke-width="0.5"/>
<path d="M300.357 175.693V172.799L276.896 176.835V179.729L300.357 175.693Z" fill="white" stroke="black" stroke-width="0.5"/>
<path d="M276.447 171.571V168.677L252.986 172.713V175.607L276.447 171.571Z" fill="white" stroke="black" stroke-width="0.5"/>
<path d="M276.672 176.651L300.607 172.528L276.672 168.406L252.736 172.503L276.672 176.651Z" fill="#0A1624" stroke="black" stroke-width="0.5"/>
<path d="M252.986 175.693V172.799L276.448 176.835V179.729L252.986 175.693Z" fill="white" stroke="black" stroke-width="0.5"/>
<path d="M229.557 168.841V165.947L253.018 169.984V172.877L229.557 168.841Z" fill="white" stroke="black" stroke-width="0.5"/>
<path d="M253.119 172.963V170.07L229.658 174.106V177L253.119 172.963Z" fill="white" stroke="black" stroke-width="0.5"/>
<path d="M229.107 168.841V165.947L205.646 169.984V172.877L229.107 168.841Z" fill="white" stroke="black" stroke-width="0.5"/>
<path d="M229.433 173.921L253.369 169.798L229.433 165.676L205.498 169.773L229.433 173.921Z" fill="#0A1624" stroke="black" stroke-width="0.5"/>
<path d="M205.646 172.963V170.07L229.108 174.106V177L205.646 172.963Z" fill="white" stroke="black" stroke-width="0.5"/>
<path d="M181.375 167.296V164.403L204.837 168.439V171.333L181.375 167.296Z" fill="white" stroke="black" stroke-width="0.5"/>
<path d="M204.918 171.419V168.525L181.456 172.562V175.455L204.918 171.419Z" fill="white" stroke="black" stroke-width="0.5"/>
<path d="M180.928 167.296V164.403L157.466 168.439V171.333L180.928 167.296Z" fill="white" stroke="black" stroke-width="0.5"/>
<path d="M181.232 172.377L205.168 168.254L181.232 164.132L157.296 168.228L181.232 172.377Z" fill="white" stroke="black" stroke-width="0.5"/>
<path d="M157.467 171.419V168.525L180.928 172.562V175.455L157.467 171.419Z" fill="white" stroke="black" stroke-width="0.5"/>
<path d="M205.607 173.088V170.195L229.069 174.231V177.125L205.607 173.088Z" fill="white" stroke="black" stroke-width="0.5"/>
<path d="M229.131 177.21V174.317L205.669 178.353V181.247L229.131 177.21Z" fill="white" stroke="black" stroke-width="0.5"/>
<path d="M205.158 173.088V170.195L181.697 174.231V177.125L205.158 173.088Z" fill="white" stroke="black" stroke-width="0.5"/>
<path d="M205.445 178.169L229.381 174.046L205.445 169.924L181.509 174.02L205.445 178.169Z" fill="white" stroke="black" stroke-width="0.5"/>
<path d="M181.697 177.211V174.317L205.159 178.353V181.247L181.697 177.211Z" fill="white" stroke="black" stroke-width="0.5"/>
<path d="M253.307 175.685V172.791L276.768 176.828V179.721L253.307 175.685Z" fill="white" stroke="black" stroke-width="0.5"/>
<path d="M276.77 179.807V176.914L253.308 180.95V183.844L276.77 179.807Z" fill="white" stroke="black" stroke-width="0.5"/>
<path d="M252.859 175.685V172.791L229.398 176.828V179.721L252.859 175.685Z" fill="white" stroke="black" stroke-width="0.5"/>
<path d="M253.084 180.765L277.02 176.643L253.084 172.521L229.148 176.617L253.084 180.765Z" fill="white" stroke="black" stroke-width="0.5"/>
<path d="M229.396 179.808V176.914L252.858 180.95V183.844L229.396 179.808Z" fill="white" stroke="black" stroke-width="0.5"/>
<path d="M229.443 179.8V176.906L252.905 180.942V183.836L229.443 179.8Z" fill="white" stroke="black" stroke-width="0.5"/>
<path d="M252.904 183.922V181.028L229.443 185.065V187.958L252.904 183.922Z" fill="white" stroke="black" stroke-width="0.5"/>
<path d="M228.994 179.8V176.906L205.533 180.942V183.836L228.994 179.8Z" fill="white" stroke="black" stroke-width="0.5"/>
<path d="M229.219 184.88L253.154 180.757L229.219 176.635L205.283 180.732L229.219 184.88Z" fill="#26D7A0" stroke="black" stroke-width="0.5"/>
<path d="M205.533 183.922V181.028L228.995 185.065V187.958L205.533 183.922Z" fill="white" stroke="black" stroke-width="0.5"/>
<path d="M205.533 183.914V181.02L228.995 185.057V187.95L205.533 183.914Z" fill="white" stroke="black" stroke-width="0.5"/>
<path d="M228.994 188.036V185.143L205.533 189.179V192.073L228.994 188.036Z" fill="white" stroke="black" stroke-width="0.5"/>
<path d="M205.084 183.914V181.02L181.622 185.057V187.95L205.084 183.914Z" fill="white" stroke="black" stroke-width="0.5"/>
<path d="M205.308 188.994L229.244 184.872L205.308 180.749L181.373 184.846L205.308 188.994Z" fill="white" stroke="black" stroke-width="0.5"/>
<path d="M181.623 188.036V185.143L205.085 189.179V192.073L181.623 188.036Z" fill="white" stroke="black" stroke-width="0.5"/>
<path d="M86.0371 163.341V160.448L62.5756 164.484V167.378L86.0371 163.341Z" fill="white" stroke="black" stroke-width="0.5"/>
<path d="M62.5762 167.464V164.57L86.0377 168.606V171.5L62.5762 167.464Z" fill="white" stroke="black" stroke-width="0.5"/>
<path d="M86.4863 163.341V160.448L109.948 164.484V167.378L86.4863 163.341Z" fill="white" stroke="black" stroke-width="0.5"/>
<path d="M86.262 168.422L62.3262 164.299L86.262 160.177L110.198 164.274L86.262 168.422Z" fill="white" stroke="black" stroke-width="0.5"/>
<path d="M109.949 167.464V164.57L86.4877 168.606V171.5L109.949 167.464Z" fill="white" stroke="black" stroke-width="0.5"/>
<path d="M109.9 167.456V164.562L86.4388 168.599V171.492L109.9 167.456Z" fill="white" stroke="black" stroke-width="0.5"/>
<path d="M86.4395 171.579V168.685L109.901 172.721V175.615L86.4395 171.579Z" fill="white" stroke="black" stroke-width="0.5"/>
<path d="M110.35 167.456V164.562L133.811 168.599V171.492L110.35 167.456Z" fill="white" stroke="black" stroke-width="0.5"/>
<path d="M110.125 172.536L86.1895 168.414L110.125 164.291L134.061 168.388L110.125 172.536Z" fill="white" stroke="black" stroke-width="0.5"/>
<path d="M133.811 171.579V168.685L110.349 172.721V175.615L133.811 171.579Z" fill="white" stroke="black" stroke-width="0.5"/>
<path d="M133.766 171.571V168.677L110.304 172.713V175.607L133.766 171.571Z" fill="white" stroke="black" stroke-width="0.5"/>
<path d="M110.305 175.693V172.799L133.766 176.835V179.729L110.305 175.693Z" fill="white" stroke="black" stroke-width="0.5"/>
<path d="M134.215 171.571V168.677L157.676 172.713V175.607L134.215 171.571Z" fill="white" stroke="black" stroke-width="0.5"/>
<path d="M133.99 176.651L110.055 172.528L133.99 168.406L157.926 172.502L133.99 176.651Z" fill="white" stroke="black" stroke-width="0.5"/>
<path d="M157.676 175.693V172.799L134.214 176.835V179.729L157.676 175.693Z" fill="white" stroke="black" stroke-width="0.5"/>
<path d="M157.355 175.685V172.791L133.894 176.828V179.721L157.355 175.685Z" fill="white" stroke="black" stroke-width="0.5"/>
<path d="M133.895 179.807V176.914L157.356 180.95V183.844L133.895 179.807Z" fill="white" stroke="black" stroke-width="0.5"/>
<path d="M157.805 175.685V172.791L181.266 176.828V179.721L157.805 175.685Z" fill="white" stroke="black" stroke-width="0.5"/>
<path d="M157.58 180.766L133.645 176.643L157.58 172.521L181.516 176.618L157.58 180.766Z" fill="white" stroke="black" stroke-width="0.5"/>
<path d="M181.266 179.807V176.914L157.804 180.95V183.844L181.266 179.807Z" fill="white" stroke="black" stroke-width="0.5"/>
<path d="M157.355 171.544V168.65L133.894 172.686V175.58L157.355 171.544Z" fill="white" stroke="black" stroke-width="0.5"/>
<path d="M133.895 175.666V172.772L157.356 176.809V179.702L133.895 175.666Z" fill="white" stroke="black" stroke-width="0.5"/>
<path d="M157.805 171.544V168.65L181.266 172.686V175.58L157.805 171.544Z" fill="white" stroke="black" stroke-width="0.5"/>
<path d="M157.58 176.624L133.645 172.502L157.58 168.379L181.516 172.476L157.58 176.624Z" fill="#0A1624" stroke="black" stroke-width="0.5"/>
<path d="M181.266 175.666V172.772L157.804 176.809V179.702L181.266 175.666Z" fill="white" stroke="black" stroke-width="0.5"/>
<path d="M157.355 166.524V163.63L133.894 167.667V170.56L157.355 166.524Z" fill="white" stroke="black" stroke-width="0.5"/>
<path d="M133.895 170.646V167.753L157.356 171.789V174.683L133.895 170.646Z" fill="white" stroke="black" stroke-width="0.5"/>
<path d="M157.805 166.524V163.63L181.266 167.667V170.56L157.805 166.524Z" fill="white" stroke="black" stroke-width="0.5"/>
<path d="M157.58 171.605L133.645 167.482L157.58 163.36L181.516 167.456L157.58 171.605Z" fill="#26D7A0" stroke="black" stroke-width="0.5"/>
<path d="M181.266 170.646V167.753L157.804 171.789V174.683L181.266 170.646Z" fill="white" stroke="black" stroke-width="0.5"/>
<path d="M181.219 179.8V176.906L157.757 180.942V183.836L181.219 179.8Z" fill="white" stroke="black" stroke-width="0.5"/>
<path d="M157.758 183.922V181.028L181.219 185.065V187.958L157.758 183.922Z" fill="white" stroke="black" stroke-width="0.5"/>
<path d="M181.668 179.8V176.906L205.13 180.942V183.836L181.668 179.8Z" fill="white" stroke="black" stroke-width="0.5"/>
<path d="M181.444 184.88L157.508 180.757L181.444 176.635L205.379 180.732L181.444 184.88Z" fill="white" stroke="black" stroke-width="0.5"/>
<path d="M205.129 183.922V181.028L181.667 185.065V187.958L205.129 183.922Z" fill="white" stroke="black" stroke-width="0.5"/>
<path d="M205.129 183.914V181.02L181.667 185.057V187.95L205.129 183.914Z" fill="white" stroke="black" stroke-width="0.5"/>
<path d="M181.668 188.036V185.143L205.13 189.179V192.073L181.668 188.036Z" fill="white" stroke="black" stroke-width="0.5"/>
<path d="M205.578 183.914V181.02L229.04 185.057V187.95L205.578 183.914Z" fill="white" stroke="black" stroke-width="0.5"/>
<path d="M205.354 188.994L181.418 184.872L205.354 180.749L229.29 184.846L205.354 188.994Z" fill="white" stroke="black" stroke-width="0.5"/>
<path d="M229.039 188.036V185.143L205.578 189.179V192.073L229.039 188.036Z" fill="white" stroke="black" stroke-width="0.5"/>
<path d="M97.3206 143.343L108.117 145.719L115.573 137.557L104.777 135.181L97.3206 143.343Z" fill="white"/>
<path d="M104.834 135.363L115.258 137.657L108.06 145.538L97.6358 143.243L104.834 135.363ZM104.777 135.181L97.3206 143.343L108.117 145.719L115.573 137.557L104.777 135.181Z" fill="url(#paint16_linear_398_4347)"/>
<path d="M97.3184 143.344L100.555 153.554L111.352 155.93L108.115 145.72L97.3184 143.344Z" fill="white"/>
<path d="M108.117 145.718L111.354 155.929L118.81 147.767L115.574 137.556L108.117 145.718Z" fill="url(#paint17_linear_398_4347)"/>
<path d="M115.502 137.879L118.624 147.726L111.425 155.607L108.304 145.759L115.502 137.879ZM115.574 137.556L108.117 145.718L111.354 155.929L118.81 147.767L115.574 137.556Z" fill="url(#paint18_linear_398_4347)"/>
<path d="M97.5622 143.566L107.986 145.86L111.108 155.708L100.684 153.414L97.5622 143.566ZM97.3184 143.344L100.555 153.554L111.352 155.93L108.115 145.72L97.3184 143.344Z" fill="url(#paint19_linear_398_4347)"/>
<defs>
<linearGradient id="paint0_linear_398_4347" x1="58.4392" y1="42.566" x2="61.4026" y2="23.6488" gradientUnits="userSpaceOnUse">
<stop stop-color="#4D938A"/>
<stop offset="0.55" stop-color="#205178"/>
<stop offset="1" stop-color="#00216C"/>
</linearGradient>
<linearGradient id="paint1_linear_398_4347" x1="69.4223" y1="24.905" x2="67.9406" y2="34.3636" gradientUnits="userSpaceOnUse">
<stop stop-color="#0E2036"/>
<stop offset="1" stop-color="#050C12"/>
</linearGradient>
<linearGradient id="paint2_linear_398_4347" x1="67.9421" y1="34.3625" x2="69.4238" y2="24.9039" gradientUnits="userSpaceOnUse">
<stop stop-color="#4D938A"/>
<stop offset="0.55" stop-color="#205178"/>
<stop offset="1" stop-color="#00216C"/>
</linearGradient>
<linearGradient id="paint3_linear_398_4347" x1="66.4616" y1="43.8237" x2="67.9433" y2="34.3651" gradientUnits="userSpaceOnUse">
<stop stop-color="#4D938A"/>
<stop offset="0.55" stop-color="#205178"/>
<stop offset="1" stop-color="#00216C"/>
</linearGradient>
<linearGradient id="paint4_linear_398_4347" x1="309.065" y1="20.2473" x2="327.009" y2="5.19158" gradientUnits="userSpaceOnUse">
<stop stop-color="#4D938A"/>
<stop offset="0.55" stop-color="#205178"/>
<stop offset="1" stop-color="#00216C"/>
</linearGradient>
<linearGradient id="paint5_linear_398_4347" x1="324.419" y1="20.3291" x2="315.447" y2="27.8569" gradientUnits="userSpaceOnUse">
<stop stop-color="#0E2036"/>
<stop offset="1" stop-color="#050C12"/>
</linearGradient>
<linearGradient id="paint6_linear_398_4347" x1="324.42" y1="20.3292" x2="333.392" y2="12.8014" gradientUnits="userSpaceOnUse">
<stop stop-color="#4D938A"/>
<stop offset="0.55" stop-color="#205178"/>
<stop offset="1" stop-color="#00216C"/>
</linearGradient>
<linearGradient id="paint7_linear_398_4347" x1="315.449" y1="27.8571" x2="324.421" y2="20.3292" gradientUnits="userSpaceOnUse">
<stop stop-color="#4D938A"/>
<stop offset="0.55" stop-color="#205178"/>
<stop offset="1" stop-color="#00216C"/>
</linearGradient>
<linearGradient id="paint8_linear_398_4347" x1="34.9115" y1="77.6727" x2="20.0119" y2="106.494" gradientUnits="userSpaceOnUse">
<stop stop-color="#4D938A"/>
<stop offset="0.55" stop-color="#205178"/>
<stop offset="1" stop-color="#00216C"/>
</linearGradient>
<linearGradient id="paint9_linear_398_4347" x1="47.1344" y1="83.9919" x2="39.6846" y2="98.4027" gradientUnits="userSpaceOnUse">
<stop stop-color="#4D938A"/>
<stop offset="0.55" stop-color="#205178"/>
<stop offset="1" stop-color="#00216C"/>
</linearGradient>
<linearGradient id="paint10_linear_398_4347" x1="375.381" y1="92.8688" x2="344.85" y2="96.8" gradientUnits="userSpaceOnUse">
<stop stop-color="#4D938A"/>
<stop offset="0.55" stop-color="#205178"/>
<stop offset="1" stop-color="#00216C"/>
</linearGradient>
<linearGradient id="paint11_linear_398_4347" x1="361.782" y1="107.782" x2="346.517" y2="109.747" gradientUnits="userSpaceOnUse">
<stop stop-color="#4D938A"/>
<stop offset="0.55" stop-color="#205178"/>
<stop offset="1" stop-color="#00216C"/>
</linearGradient>
<linearGradient id="paint12_linear_398_4347" x1="377.048" y1="105.816" x2="361.783" y2="107.782" gradientUnits="userSpaceOnUse">
<stop stop-color="#4D938A"/>
<stop offset="0.55" stop-color="#205178"/>
<stop offset="1" stop-color="#00216C"/>
</linearGradient>
<linearGradient id="paint13_linear_398_4347" x1="360.84" y1="23.8173" x2="390.294" y2="23.5723" gradientUnits="userSpaceOnUse">
<stop stop-color="#4D938A"/>
<stop offset="0.55" stop-color="#205178"/>
<stop offset="1" stop-color="#00216C"/>
</linearGradient>
<linearGradient id="paint14_linear_398_4347" x1="375.67" y1="36.1855" x2="390.397" y2="36.063" gradientUnits="userSpaceOnUse">
<stop stop-color="#4D938A"/>
<stop offset="0.55" stop-color="#205178"/>
<stop offset="1" stop-color="#00216C"/>
</linearGradient>
<linearGradient id="paint15_linear_398_4347" x1="360.946" y1="36.3077" x2="375.673" y2="36.1852" gradientUnits="userSpaceOnUse">
<stop stop-color="#4D938A"/>
<stop offset="0.55" stop-color="#205178"/>
<stop offset="1" stop-color="#00216C"/>
</linearGradient>
<linearGradient id="paint16_linear_398_4347" x1="97.3206" y1="143.343" x2="115.573" y2="137.557" gradientUnits="userSpaceOnUse">
<stop stop-color="#4D938A"/>
<stop offset="0.55" stop-color="#205178"/>
<stop offset="1" stop-color="#00216C"/>
</linearGradient>
<linearGradient id="paint17_linear_398_4347" x1="118.026" y1="145.296" x2="108.899" y2="148.189" gradientUnits="userSpaceOnUse">
<stop stop-color="#0E2036"/>
<stop offset="1" stop-color="#050C12"/>
</linearGradient>
<linearGradient id="paint18_linear_398_4347" x1="108.901" y1="148.19" x2="118.027" y2="145.297" gradientUnits="userSpaceOnUse">
<stop stop-color="#4D938A"/>
<stop offset="0.55" stop-color="#205178"/>
<stop offset="1" stop-color="#00216C"/>
</linearGradient>
<linearGradient id="paint19_linear_398_4347" x1="99.772" y1="151.084" x2="108.898" y2="148.191" gradientUnits="userSpaceOnUse">
<stop stop-color="#4D938A"/>
<stop offset="0.55" stop-color="#205178"/>
<stop offset="1" stop-color="#00216C"/>
</linearGradient>
</defs>
</svg>
