<svg width="150" height="150" viewBox="0 0 172 172" fill="none" xmlns="http://www.w3.org/2000/svg">
    <circle cx="86.044" cy="86" r="54.4383" transform="rotate(-45 86.044 86)" fill="black"/>
    <circle cx="86.043" cy="86" r="60.2794" transform="rotate(-45 86.043 86)" stroke="#F85E60"/>
    <path d="M72.149 71.5288C64.1696 79.5082 64.1696 92.4919 72.149 100.471C80.1285 108.451 93.1122 108.451 101.092 100.471C109.071 92.4919 109.071 79.5082 101.092 71.5288C93.1122 63.5493 80.1285 63.5493 72.149 71.5288ZM98.1974 97.5771C91.8141 103.96 81.4266 103.96 75.0433 97.5771C68.66 91.1938 68.66 80.8063 75.0433 74.423C81.4266 68.0397 91.8141 68.0397 98.1974 74.423C104.581 80.8063 104.581 91.1938 98.1974 97.5771Z" fill="#F85E60"/>
    <path d="M86.62 97.5778L92.3955 86.0138L86.62 74.4238L80.8315 86.0008L86.62 97.5778Z" fill="#F85E60"/>
    </svg>
    