<svg width="1913" height="535" viewBox="0 0 1913 535" fill="none" xmlns="http://www.w3.org/2000/svg">
<ellipse cx="948.5" cy="267.5" rx="267.5" ry="420.5" transform="rotate(90 948.5 267.5)" fill="url(#paint0_radial_434_474)"/>
<path d="M1969 264.5H1712C1681.83 267.167 1621.5 289 1621.5 355C1621.5 437.5 1579.5 426 1427.5 426C1305.9 426 1144.5 426 1079 426C1037 428 953 405.6 953 300V190" stroke="#3A86FF"/>
<path d="M0.5 264.5H194C224.167 267.167 284.5 289 284.5 355C284.5 437.5 326.5 426 478.5 426C600.1 426 761.5 426 827 426C869 428 953 405.6 953 300V190" stroke="#26D7A0"/>
<path d="M0.5 241.5H360.5C390.667 244.167 451 266 451 332C451 414.5 493 403 645 403C766.6 403 761.5 403 827 403C869 405 953 382.6 953 277V167" stroke="#26D7A0"/>
<path d="M1905.5 241.5H1545.5C1515.33 244.167 1455 266 1455 332C1455 414.5 1413 403 1261 403C1139.4 403 1144.5 403 1079 403C1037 405 953 382.6 953 277V167" stroke="#26D7A0"/>
<path d="M4 278.219H487.835C506.323 279.516 543.299 282.108 543.299 322.217C543.299 362.325 603.844 356.734 697 356.734C771.525 356.734 835.636 356.734 875.779 356.734C901.519 357.707 953 346.817 953 295.478V242" stroke="#3A86FF"/>
<path d="M953.389 176.241V122.297L570.25 188.213V242.158L953.389 176.241Z" fill="white" stroke="black" stroke-width="0.5"/>
<path d="M570.25 242.244V188.299L953.388 254.215V308.16L570.25 242.244Z" fill="white" stroke="black" stroke-width="0.5"/>
<path d="M953.063 176.241V122.297L1336.2 188.213V242.158L953.063 176.241Z" fill="white" stroke="black" stroke-width="0.5"/>
<path d="M953.226 254.417L570 188.415L953.226 122.412L1336.45 188.002L953.226 254.417Z" fill="white" stroke="black" stroke-width="0.5"/>
<path d="M1336.2 242.244V188.299L953.064 254.215V308.16L1336.2 242.244Z" fill="white" stroke="black" stroke-width="0.5"/>
<path d="M953.127 125.598V117.297L1014.69 127.888V136.189L953.127 125.598Z" fill="white" stroke="black" stroke-width="0.5"/>
<path d="M1015.3 136.275V127.974L953.738 138.564V146.866L1015.3 136.275Z" fill="white" stroke="black" stroke-width="0.5"/>
<path d="M952.761 125.598V117.297L891.201 127.888V136.189L952.761 125.598Z" fill="white" stroke="black" stroke-width="0.5"/>
<path d="M953.555 138.421L1015.55 127.744L953.555 117.067L891.562 127.677L953.555 138.421Z" fill="white" stroke="black" stroke-width="0.5"/>
<path d="M891.201 136.275V127.974L952.761 138.565V146.866L891.201 136.275Z" fill="white" stroke="black" stroke-width="0.5"/>
<path d="M1019.16 137.598V129.297L1080.72 139.888V148.189L1019.16 137.598Z" fill="white" stroke="black" stroke-width="0.5"/>
<path d="M1081.38 148.275V139.974L1019.82 150.564V158.866L1081.38 148.275Z" fill="white" stroke="black" stroke-width="0.5"/>
<path d="M1018.79 137.598V129.297L957.234 139.888V148.189L1018.79 137.598Z" fill="white" stroke="black" stroke-width="0.5"/>
<path d="M1019.64 150.421L1081.63 139.744L1019.64 129.067L957.643 139.677L1019.64 150.421Z" fill="#26D7A0" stroke="black" stroke-width="0.5"/>
<path d="M957.234 148.275V139.974L1018.79 150.565V158.866L957.234 148.275Z" fill="white" stroke="black" stroke-width="0.5"/>
<path d="M868.13 134.598V126.297L929.69 136.888V145.189L868.13 134.598Z" fill="white" stroke="black" stroke-width="0.5"/>
<path d="M930.762 145.275V136.974L869.202 147.564V155.866L930.762 145.275Z" fill="white" stroke="black" stroke-width="0.5"/>
<path d="M867.763 134.598V126.297L806.203 136.888V145.189L867.763 134.598Z" fill="white" stroke="black" stroke-width="0.5"/>
<path d="M869.019 147.421L931.012 136.744L869.019 126.067L807.026 136.677L869.019 147.421Z" fill="#26D7A0" stroke="black" stroke-width="0.5"/>
<path d="M806.203 145.275V136.974L867.763 147.565V155.866L806.203 145.275Z" fill="white" stroke="black" stroke-width="0.5"/>
<path d="M937.167 149.598V141.297L998.727 151.888V160.189L937.167 149.598Z" fill="white" stroke="black" stroke-width="0.5"/>
<path d="M999.498 160.275V151.974L937.938 162.564V170.866L999.498 160.275Z" fill="white" stroke="black" stroke-width="0.5"/>
<path d="M936.801 149.598V141.297L875.241 151.888V160.189L936.801 149.598Z" fill="white" stroke="black" stroke-width="0.5"/>
<path d="M937.755 162.421L999.748 151.744L937.755 141.067L875.762 151.677L937.755 162.421Z" fill="white" stroke="black" stroke-width="0.5"/>
<path d="M875.241 160.275V151.974L936.801 162.565V170.866L875.241 160.275Z" fill="white" stroke="black" stroke-width="0.5"/>
<path d="M799.162 147.598V139.297L860.722 149.888V158.189L799.162 147.598Z" fill="white" stroke="black" stroke-width="0.5"/>
<path d="M861.738 158.275V149.974L800.179 160.564V168.866L861.738 158.275Z" fill="white" stroke="black" stroke-width="0.5"/>
<path d="M798.796 147.598V139.297L737.236 149.888V158.189L798.796 147.598Z" fill="white" stroke="black" stroke-width="0.5"/>
<path d="M799.995 160.421L861.988 149.744L799.995 139.067L738.003 149.677L799.995 160.421Z" fill="white" stroke="black" stroke-width="0.5"/>
<path d="M800 148L811 150L800 152L789 150.013L800 148Z" fill="#F85E60" stroke="black" stroke-width="0.5"/>
<path d="M737.236 158.275V149.974L798.796 160.565V168.866L737.236 158.275Z" fill="white" stroke="black" stroke-width="0.5"/>
<path d="M869.173 162.598V154.297L930.732 164.888V173.189L869.173 162.598Z" fill="white" stroke="black" stroke-width="0.5"/>
<path d="M931.706 173.275V164.974L870.146 175.564V183.866L931.706 173.275Z" fill="white" stroke="black" stroke-width="0.5"/>
<path d="M868.807 162.598V154.297L807.247 164.888V173.189L868.807 162.598Z" fill="white" stroke="black" stroke-width="0.5"/>
<path d="M869.963 175.421L931.956 164.744L869.963 154.067L807.97 164.677L869.963 175.421Z" fill="white" stroke="black" stroke-width="0.5"/>
<path d="M807.247 173.275V164.974L868.807 175.565V183.866L807.247 173.275Z" fill="white" stroke="black" stroke-width="0.5"/>
<path d="M802.145 175.598V167.297L863.704 177.888V186.189L802.145 175.598Z" fill="white" stroke="black" stroke-width="0.5"/>
<path d="M864.655 186.275V177.974L803.096 188.564V196.866L864.655 186.275Z" fill="white" stroke="black" stroke-width="0.5"/>
<path d="M801.778 175.598V167.297L740.219 177.888V186.189L801.778 175.598Z" fill="white" stroke="black" stroke-width="0.5"/>
<path d="M802.912 188.421L864.905 177.744L802.912 167.067L740.919 177.677L802.912 188.421Z" fill="white" stroke="black" stroke-width="0.5"/>
<path d="M740.219 186.275V177.974L801.778 188.565V196.866L740.219 186.275Z" fill="white" stroke="black" stroke-width="0.5"/>
<path d="M1078.07 152.598V144.297L1139.63 154.888V163.189L1078.07 152.598Z" fill="white" stroke="black" stroke-width="0.5"/>
<path d="M1140.2 163.275V154.974L1078.64 165.564V173.866L1140.2 163.275Z" fill="white" stroke="black" stroke-width="0.5"/>
<path d="M1077.71 152.598V144.297L1016.15 154.888V163.189L1077.71 152.598Z" fill="white" stroke="black" stroke-width="0.5"/>
<path d="M1078.45 165.421L1140.45 154.744L1078.45 144.067L1016.46 154.677L1078.45 165.421Z" fill="white" stroke="black" stroke-width="0.5"/>
<path d="M1016.15 163.275V154.974L1077.71 165.565V173.866L1016.15 163.275Z" fill="white" stroke="black" stroke-width="0.5"/>
<path d="M1033.15 159.598V151.297L1094.71 161.888V170.189L1033.15 159.598Z" fill="white" stroke="black" stroke-width="0.5"/>
<path d="M1095.16 170.275V161.974L1033.6 172.564V180.866L1095.16 170.275Z" fill="white" stroke="black" stroke-width="0.5"/>
<path d="M1032.79 159.598V151.297L971.227 161.888V170.189L1032.79 159.598Z" fill="white" stroke="black" stroke-width="0.5"/>
<path d="M1033.42 172.421L1095.41 161.744L1033.42 151.067L971.426 161.677L1033.42 172.421Z" fill="white" stroke="black" stroke-width="0.5"/>
<path d="M971.227 170.275V161.974L1032.79 172.565V180.866L971.227 170.275Z" fill="white" stroke="black" stroke-width="0.5"/>
<path d="M960.106 172.598V164.297L1021.67 174.888V183.189L960.106 172.598Z" fill="white" stroke="black" stroke-width="0.5"/>
<path d="M1021.97 183.275V174.974L960.415 185.564V193.866L1021.97 183.275Z" fill="white" stroke="black" stroke-width="0.5"/>
<path d="M959.739 172.598V164.297L898.18 174.888V183.189L959.739 172.598Z" fill="white" stroke="black" stroke-width="0.5"/>
<path d="M960.232 185.421L1022.22 174.744L960.232 164.067L898.239 174.677L960.232 185.421Z" fill="#26D7A0" stroke="black" stroke-width="0.5"/>
<path d="M898.18 183.275V174.974L959.739 185.565V193.866L898.18 183.275Z" fill="white" stroke="black" stroke-width="0.5"/>
<path d="M1140.92 167.598V159.297L1202.48 169.888V178.189L1140.92 167.598Z" fill="white" stroke="black" stroke-width="0.5"/>
<path d="M1202.89 178.275V169.974L1141.33 180.564V188.866L1202.89 178.275Z" fill="white" stroke="black" stroke-width="0.5"/>
<path d="M1140.56 167.598V159.297L1079 169.888V178.189L1140.56 167.598Z" fill="white" stroke="black" stroke-width="0.5"/>
<path d="M1141.15 180.421L1203.14 169.744L1141.15 159.067L1079.15 169.677L1141.15 180.421Z" fill="white" stroke="black" stroke-width="0.5"/>
<path d="M1141 171L1153 169.5L1141 168L1129 169.491L1141 171Z" fill="#F85E60" stroke="black" stroke-width="0.5"/>
<path d="M1079 178.275V169.974L1140.56 180.565V188.866L1079 178.275Z" fill="white" stroke="black" stroke-width="0.5"/>
<path d="M1079.15 177.598V169.297L1140.71 179.888V188.189L1079.15 177.598Z" fill="white" stroke="black" stroke-width="0.5"/>
<path d="M1141.1 188.275V179.974L1079.54 190.564V198.866L1141.1 188.275Z" fill="white" stroke="black" stroke-width="0.5"/>
<path d="M1078.78 177.598V169.297L1017.22 179.888V188.189L1078.78 177.598Z" fill="white" stroke="black" stroke-width="0.5"/>
<path d="M1079.36 190.421L1141.35 179.744L1079.36 169.067L1017.36 179.677L1079.36 190.421Z" fill="white" stroke="black" stroke-width="0.5"/>
<path d="M1017.22 188.275V179.974L1078.78 190.565V198.866L1017.22 188.275Z" fill="white" stroke="black" stroke-width="0.5"/>
<path d="M1263.16 175.355V167.053L1324.72 177.644V185.945L1263.16 175.355Z" fill="white" stroke="black" stroke-width="0.5"/>
<path d="M1324.72 186.031V177.73L1263.16 188.321V196.622L1324.72 186.031Z" fill="white" stroke="black" stroke-width="0.5"/>
<path d="M1262.79 175.355V167.053L1201.23 177.644V185.945L1262.79 175.355Z" fill="white" stroke="black" stroke-width="0.5"/>
<path d="M1262.97 188.177L1324.97 177.5L1262.97 166.824L1200.98 177.434L1262.97 188.177Z" fill="white" stroke="black" stroke-width="0.5"/>
<path d="M1201.23 186.031V177.73L1262.79 188.321V196.622L1201.23 186.031Z" fill="white" stroke="black" stroke-width="0.5"/>
<path d="M1201.35 186.011V177.71L1262.91 188.301V196.602L1201.35 186.011Z" fill="white" stroke="black" stroke-width="0.5"/>
<path d="M1262.91 196.688V188.387L1201.35 198.978V207.279L1262.91 196.688Z" fill="white" stroke="black" stroke-width="0.5"/>
<path d="M1200.98 186.011V177.71L1139.42 188.301V196.602L1200.98 186.011Z" fill="white" stroke="black" stroke-width="0.5"/>
<path d="M1201.17 198.834L1263.16 188.157L1201.17 177.48L1139.17 188.09L1201.17 198.834Z" fill="#26D7A0" stroke="black" stroke-width="0.5"/>
<path d="M1139.42 196.688V188.387L1200.98 198.978V207.279L1139.42 196.688Z" fill="white" stroke="black" stroke-width="0.5"/>
<path d="M1139.54 196.668V188.366L1201.1 198.957V207.258L1139.54 196.668Z" fill="white" stroke="black" stroke-width="0.5"/>
<path d="M1201.1 207.344V199.043L1139.54 209.634V217.935L1201.1 207.344Z" fill="white" stroke="black" stroke-width="0.5"/>
<path d="M1139.17 196.668V188.366L1077.62 198.957V207.258L1139.17 196.668Z" fill="white" stroke="black" stroke-width="0.5"/>
<path d="M1139.36 209.49L1201.35 198.813L1139.36 188.137L1077.37 198.747L1139.36 209.49Z" fill="#0A1624" stroke="black" stroke-width="0.5"/>
<path d="M1077.62 207.344V199.043L1139.18 209.634V217.935L1077.62 207.344Z" fill="white" stroke="black" stroke-width="0.5"/>
<path d="M1016.93 189.598V181.297L1078.49 191.888V200.189L1016.93 189.598Z" fill="white" stroke="black" stroke-width="0.5"/>
<path d="M1078.76 200.275V191.974L1017.2 202.564V210.866L1078.76 200.275Z" fill="white" stroke="black" stroke-width="0.5"/>
<path d="M1016.57 189.598V181.297L955.009 191.888V200.189L1016.57 189.598Z" fill="white" stroke="black" stroke-width="0.5"/>
<path d="M1017.01 202.421L1079.01 191.744L1017.01 181.067L955.02 191.677L1017.01 202.421Z" fill="#0A1624" stroke="black" stroke-width="0.5"/>
<path d="M955.009 200.275V191.974L1016.57 202.565V210.866L955.009 200.275Z" fill="white" stroke="black" stroke-width="0.5"/>
<path d="M892.148 185.598V177.297L953.708 187.888V196.189L892.148 185.598Z" fill="white" stroke="black" stroke-width="0.5"/>
<path d="M953.916 196.275V187.974L892.356 198.564V206.866L953.916 196.275Z" fill="white" stroke="black" stroke-width="0.5"/>
<path d="M891.781 185.598V177.297L830.222 187.888V196.189L891.781 185.598Z" fill="white" stroke="black" stroke-width="0.5"/>
<path d="M892.173 198.421L954.166 187.744L892.173 177.067L830.18 187.677L892.173 198.421Z" fill="white" stroke="black" stroke-width="0.5"/>
<path d="M830.222 196.275V187.974L891.781 198.565V206.866L830.222 196.275Z" fill="white" stroke="black" stroke-width="0.5"/>
<path d="M954.909 200.598V192.297L1016.47 202.888V211.189L954.909 200.598Z" fill="white" stroke="black" stroke-width="0.5"/>
<path d="M1016.63 211.275V202.974L955.069 213.564V221.866L1016.63 211.275Z" fill="white" stroke="black" stroke-width="0.5"/>
<path d="M954.542 200.598V192.297L892.982 202.888V211.189L954.542 200.598Z" fill="white" stroke="black" stroke-width="0.5"/>
<path d="M954.886 213.421L1016.88 202.744L954.886 192.067L892.893 202.677L954.886 213.421Z" fill="white" stroke="black" stroke-width="0.5"/>
<path d="M892.982 211.275V202.974L954.542 213.565V221.866L892.982 211.275Z" fill="white" stroke="black" stroke-width="0.5"/>
<path d="M1078.45 207.324V199.023L1140 209.614V217.915L1078.45 207.324Z" fill="white" stroke="black" stroke-width="0.5"/>
<path d="M1140.01 218.001V209.7L1078.45 220.291V228.592L1140.01 218.001Z" fill="white" stroke="black" stroke-width="0.5"/>
<path d="M1078.08 207.324V199.023L1016.52 209.614V217.915L1078.08 207.324Z" fill="white" stroke="black" stroke-width="0.5"/>
<path d="M1078.26 220.147L1140.26 209.47L1078.26 198.793L1016.27 209.403L1078.26 220.147Z" fill="white" stroke="black" stroke-width="0.5"/>
<path d="M1016.52 218.001V209.7L1078.08 220.291V228.592L1016.52 218.001Z" fill="white" stroke="black" stroke-width="0.5"/>
<path d="M1016.64 217.981V209.679L1078.2 220.27V228.571L1016.64 217.981Z" fill="white" stroke="black" stroke-width="0.5"/>
<path d="M1078.2 228.657V220.356L1016.64 230.947V239.248L1078.2 228.657Z" fill="white" stroke="black" stroke-width="0.5"/>
<path d="M1016.27 217.981V209.679L954.712 220.27V228.571L1016.27 217.981Z" fill="white" stroke="black" stroke-width="0.5"/>
<path d="M1016.45 230.803L1078.45 220.126L1016.45 209.449L954.461 220.06L1016.45 230.803Z" fill="#26D7A0" stroke="black" stroke-width="0.5"/>
<path d="M954.712 228.657V220.356L1016.27 230.947V239.248L954.712 228.657Z" fill="white" stroke="black" stroke-width="0.5"/>
<path d="M954.711 228.637V220.336L1016.27 230.927V239.228L954.711 228.637Z" fill="white" stroke="black" stroke-width="0.5"/>
<path d="M1016.27 239.314V231.013L954.711 241.603V249.905L1016.27 239.314Z" fill="white" stroke="black" stroke-width="0.5"/>
<path d="M954.344 228.637V220.336L892.784 230.927V239.228L954.344 228.637Z" fill="white" stroke="black" stroke-width="0.5"/>
<path d="M954.528 241.46L1016.52 230.783L954.528 220.106L892.535 230.716L954.528 241.46Z" fill="white" stroke="black" stroke-width="0.5"/>
<path d="M892.785 239.314V231.013L954.345 241.603V249.905L892.785 239.314Z" fill="white" stroke="black" stroke-width="0.5"/>
<path d="M646.019 175.355V167.054L584.459 177.644V185.946L646.019 175.355Z" fill="white" stroke="black" stroke-width="0.5"/>
<path d="M584.459 186.032V177.73L646.019 188.321V196.622L584.459 186.032Z" fill="white" stroke="black" stroke-width="0.5"/>
<path d="M646.385 175.355V167.054L707.944 177.644V185.946L646.385 175.355Z" fill="white" stroke="black" stroke-width="0.5"/>
<path d="M646.202 188.177L584.209 177.501L646.202 166.824L708.195 177.434L646.202 188.177Z" fill="white" stroke="black" stroke-width="0.5"/>
<path d="M707.945 186.032V177.73L646.386 188.321V196.622L707.945 186.032Z" fill="white" stroke="black" stroke-width="0.5"/>
<path d="M707.825 186.011V177.71L646.266 188.301V196.602L707.825 186.011Z" fill="white" stroke="black" stroke-width="0.5"/>
<path d="M646.266 196.688V188.387L707.825 198.978V207.279L646.266 196.688Z" fill="white" stroke="black" stroke-width="0.5"/>
<path d="M708.191 186.011V177.71L769.751 188.301V196.602L708.191 186.011Z" fill="white" stroke="black" stroke-width="0.5"/>
<path d="M708.009 198.834L646.016 188.157L708.009 177.48L770.001 188.09L708.009 198.834Z" fill="white" stroke="black" stroke-width="0.5"/>
<path d="M769.752 196.688V188.387L708.192 198.978V207.279L769.752 196.688Z" fill="white" stroke="black" stroke-width="0.5"/>
<path d="M769.633 196.668V188.367L708.073 198.957V207.259L769.633 196.668Z" fill="white" stroke="black" stroke-width="0.5"/>
<path d="M708.073 207.345V199.043L769.633 209.634V217.935L708.073 207.345Z" fill="white" stroke="black" stroke-width="0.5"/>
<path d="M769.999 196.668V188.367L831.559 198.957V207.259L769.999 196.668Z" fill="white" stroke="black" stroke-width="0.5"/>
<path d="M769.816 209.49L707.823 198.814L769.816 188.137L831.809 198.747L769.816 209.49Z" fill="white" stroke="black" stroke-width="0.5"/>
<path d="M831.559 207.345V199.043L769.999 209.634V217.935L831.559 207.345Z" fill="white" stroke="black" stroke-width="0.5"/>
<path d="M830.729 207.324V199.023L769.17 209.614V217.915L830.729 207.324Z" fill="white" stroke="black" stroke-width="0.5"/>
<path d="M769.17 218.001V209.7L830.73 220.291V228.592L769.17 218.001Z" fill="white" stroke="black" stroke-width="0.5"/>
<path d="M831.096 207.324V199.023L892.655 209.614V217.915L831.096 207.324Z" fill="white" stroke="black" stroke-width="0.5"/>
<path d="M830.913 220.147L768.92 209.47L830.913 198.793L892.906 209.403L830.913 220.147Z" fill="white" stroke="black" stroke-width="0.5"/>
<path d="M892.655 218.001V209.7L831.096 220.291V228.592L892.655 218.001Z" fill="white" stroke="black" stroke-width="0.5"/>
<path d="M830.729 196.598V188.297L769.17 198.888V207.189L830.729 196.598Z" fill="white" stroke="black" stroke-width="0.5"/>
<path d="M769.17 207.275V198.974L830.73 209.565V217.866L769.17 207.275Z" fill="white" stroke="black" stroke-width="0.5"/>
<path d="M831.096 196.598V188.297L892.655 198.888V207.189L831.096 196.598Z" fill="white" stroke="black" stroke-width="0.5"/>
<path d="M830.913 209.421L768.92 198.744L830.913 188.067L892.906 198.677L830.913 209.421Z" fill="#0A1624" stroke="black" stroke-width="0.5"/>
<path d="M892.655 207.275V198.974L831.096 209.565V217.866L892.655 207.275Z" fill="white" stroke="black" stroke-width="0.5"/>
<path d="M830.729 183.598V175.297L769.17 185.888V194.189L830.729 183.598Z" fill="white" stroke="black" stroke-width="0.5"/>
<path d="M769.17 194.275V185.974L830.73 196.565V204.866L769.17 194.275Z" fill="white" stroke="black" stroke-width="0.5"/>
<path d="M831.096 183.598V175.297L892.655 185.888V194.189L831.096 183.598Z" fill="white" stroke="black" stroke-width="0.5"/>
<path d="M830.913 196.421L768.92 185.744L830.913 175.067L892.906 185.677L830.913 196.421Z" fill="#26D7A0" stroke="black" stroke-width="0.5"/>
<path d="M892.655 194.275V185.974L831.096 196.565V204.866L892.655 194.275Z" fill="white" stroke="black" stroke-width="0.5"/>
<path d="M892.536 217.981V209.68L830.977 220.27V228.572L892.536 217.981Z" fill="white" stroke="black" stroke-width="0.5"/>
<path d="M830.977 228.658V220.356L892.536 230.947V239.248L830.977 228.658Z" fill="white" stroke="black" stroke-width="0.5"/>
<path d="M892.902 217.981V209.68L954.462 220.27V228.572L892.902 217.981Z" fill="white" stroke="black" stroke-width="0.5"/>
<path d="M892.719 230.803L830.727 220.127L892.719 209.45L954.712 220.06L892.719 230.803Z" fill="white" stroke="black" stroke-width="0.5"/>
<path d="M954.462 228.658V220.356L892.902 230.947V239.248L954.462 228.658Z" fill="white" stroke="black" stroke-width="0.5"/>
<path d="M954.464 228.637V220.336L892.904 230.927V239.228L954.464 228.637Z" fill="white" stroke="black" stroke-width="0.5"/>
<path d="M892.904 239.314V231.013L954.464 241.604V249.905L892.904 239.314Z" fill="white" stroke="black" stroke-width="0.5"/>
<path d="M954.831 228.637V220.336L1016.39 230.927V239.228L954.831 228.637Z" fill="white" stroke="black" stroke-width="0.5"/>
<path d="M954.647 241.46L892.654 230.783L954.647 220.106L1016.64 230.716L954.647 241.46Z" fill="white" stroke="black" stroke-width="0.5"/>
<path d="M1016.39 239.314V231.013L954.831 241.604V249.905L1016.39 239.314Z" fill="white" stroke="black" stroke-width="0.5"/>
<defs>
<radialGradient id="paint0_radial_434_474" cx="0" cy="0" r="1" gradientUnits="userSpaceOnUse" gradientTransform="translate(948.5 267.5) rotate(90) scale(420.5 267.5)">
<stop offset="0.0001" stop-color="#9423D9" stop-opacity="0.23"/>
<stop offset="1" stop-color="#3D87FD" stop-opacity="0"/>
</radialGradient>
</defs>
</svg>
