<svg width="253" height="196" viewBox="0 0 253 196" fill="none" xmlns="http://www.w3.org/2000/svg">
<rect x="0.5" y="147.5" width="119" height="48" stroke="#43DCA5"/>
<line y1="156.5" x2="120" y2="156.5" stroke="#43DCA5"/>
<circle cx="6.07516" cy="152.063" r="1.01266" fill="#43DCA5"/>
<circle cx="11.1396" cy="152.063" r="1.01266" fill="#43DCA5"/>
<circle cx="15.1904" cy="152.063" r="1.01266" fill="#43DCA5"/>
<rect x="11.5" y="166.5" width="18" height="18" stroke="#26D7A0"/>
<path d="M15 176.5L18 179.5L26.5 171" stroke="#26D7A0"/>
<line x1="40" y1="171.5" x2="119" y2="171.5" stroke="#43DCA5"/>
<line x1="40" y1="181.5" x2="68" y2="181.5" stroke="#43DCA5"/>
<rect x="130.5" y="147.5" width="119" height="48" stroke="#43DCA5"/>
<line x1="130" y1="156.5" x2="250" y2="156.5" stroke="#43DCA5"/>
<circle cx="136.075" cy="152.063" r="1.01266" fill="#43DCA5"/>
<circle cx="141.14" cy="152.063" r="1.01266" fill="#43DCA5"/>
<circle cx="145.19" cy="152.063" r="1.01266" fill="#43DCA5"/>
<rect x="145.5" y="166.5" width="18" height="18" stroke="#26D7A0"/>
<path d="M149 176.5L152 179.5L160.5 171" stroke="#26D7A0"/>
<line x1="174" y1="171.5" x2="253" y2="171.5" stroke="#43DCA5"/>
<line x1="174" y1="181.5" x2="202" y2="181.5" stroke="#43DCA5"/>
<rect x="33.5" y="92.5" width="89" height="48" stroke="#43DCA5"/>
<line x1="33" y1="101.5" x2="123" y2="101.5" stroke="#43DCA5"/>
<circle cx="39.0752" cy="97.0632" r="1.01266" fill="#43DCA5"/>
<circle cx="44.1396" cy="97.0632" r="1.01266" fill="#43DCA5"/>
<circle cx="48.1904" cy="97.0632" r="1.01266" fill="#43DCA5"/>
<rect x="44.5" y="111.5" width="18" height="18" stroke="#26D7A0"/>
<path d="M48 121.5L51 124.5L59.5 116" stroke="#26D7A0"/>
<line x1="73" y1="116.5" x2="113" y2="116.5" stroke="#43DCA5"/>
<line x1="73" y1="126.5" x2="101" y2="126.5" stroke="#43DCA5"/>
<rect x="77.5" y="38.5" width="89" height="48" stroke="#43DCA5"/>
<line x1="77" y1="47.5" x2="167" y2="47.5" stroke="#43DCA5"/>
<circle cx="83.0752" cy="43.0632" r="1.01266" fill="#43DCA5"/>
<circle cx="88.1396" cy="43.0632" r="1.01266" fill="#43DCA5"/>
<circle cx="92.1904" cy="43.0632" r="1.01266" fill="#43DCA5"/>
<rect x="88.5" y="57.5" width="18" height="18" stroke="#26D7A0"/>
<path d="M92 67.5L95 70.5L103.5 62" stroke="#26D7A0"/>
<line x1="117" y1="62.5" x2="157" y2="62.5" stroke="#43DCA5"/>
<line x1="117" y1="72.5" x2="145" y2="72.5" stroke="#43DCA5"/>
<rect x="92.1934" y="0.5" width="59.6122" height="32" stroke="#43DCA5"/>
<line x1="91.6934" y1="6.23462" x2="152.306" y2="6.23462" stroke="#43DCA5"/>
<circle cx="95.7855" cy="3.41002" r="0.681994" fill="#43DCA5"/>
<circle cx="99.1957" cy="3.41002" r="0.681994" fill="#43DCA5"/>
<circle cx="101.922" cy="3.41002" r="0.681994" fill="#43DCA5"/>
<rect x="99.6016" y="13.2959" width="11.7959" height="11.7959" stroke="#26D7A0"/>
<path d="M101.797 19.8674L103.817 21.8878L109.542 16.1633" stroke="#26D7A0"/>
<line x1="118.633" y1="16.3367" x2="145.572" y2="16.3367" stroke="#43DCA5"/>
<line x1="118.633" y1="23.0713" x2="137.49" y2="23.0713" stroke="#43DCA5"/>
<rect x="127.5" y="92.5" width="89" height="48" stroke="#43DCA5"/>
<line x1="127" y1="101.5" x2="217" y2="101.5" stroke="#43DCA5"/>
<circle cx="133.075" cy="97.0632" r="1.01266" fill="#43DCA5"/>
<circle cx="138.14" cy="97.0632" r="1.01266" fill="#43DCA5"/>
<circle cx="142.19" cy="97.0632" r="1.01266" fill="#43DCA5"/>
<rect x="138.5" y="111.5" width="18" height="18" stroke="#26D7A0"/>
<path d="M142 121.5L145 124.5L153.5 116" stroke="#26D7A0"/>
<line x1="167" y1="116.5" x2="207" y2="116.5" stroke="#43DCA5"/>
<line x1="167" y1="126.5" x2="195" y2="126.5" stroke="#43DCA5"/>
</svg>
