<svg width="340" height="279" viewBox="0 0 340 279" fill="none" xmlns="http://www.w3.org/2000/svg">
<path d="M321.544 131.743L323.358 130.942L322.4 131.226C323.358 130.942 323.358 130.942 323.358 130.941L323.358 130.94L323.356 130.934L323.35 130.915L323.329 130.844C323.31 130.782 323.281 130.692 323.243 130.573C323.167 130.336 323.052 129.987 322.893 129.532C322.576 128.621 322.086 127.285 321.389 125.568C319.994 122.133 317.771 117.177 314.451 111.056C307.944 99.0637 297.221 82.6059 280.252 64.3889L284.155 63.0583C284.405 63.2043 284.777 63.4254 285.258 63.7237C286.227 64.3248 287.641 65.2396 289.403 66.486C292.928 68.9789 297.846 72.7976 303.396 78.087C314.465 88.6358 328.04 105.029 338.089 128.418C338.089 128.427 338.088 128.436 338.088 128.446C338.084 128.607 338.078 128.848 338.067 129.168C338.046 129.806 338.008 130.756 337.945 131.995C337.817 134.471 337.583 138.103 337.16 142.711C336.313 151.929 334.705 165.051 331.665 180.657C325.597 211.803 313.828 252.808 291.029 292.396C291.008 292.407 290.986 292.417 290.964 292.428L290.837 292.491C290.531 292.642 290.072 292.866 289.465 293.146C288.251 293.705 286.441 294.487 284.088 295.341C279.382 297.049 272.505 299.046 263.881 300.12C246.734 302.256 222.656 300.751 194.981 286.038L194.942 285.809C194.861 285.348 194.744 284.674 194.597 283.822C194.303 282.119 193.888 279.708 193.406 276.873C192.512 271.616 191.388 264.906 190.373 258.561C208.86 263.006 224.019 262.148 234.648 260.128C240.101 259.092 244.361 257.75 247.264 256.662C248.716 256.119 249.83 255.639 250.585 255.292C250.962 255.119 251.25 254.979 251.445 254.882C251.543 254.833 251.618 254.794 251.669 254.768C251.695 254.754 251.715 254.744 251.729 254.736L251.745 254.728L251.75 254.725L251.752 254.724C251.753 254.724 251.753 254.723 251.279 253.843L251.753 254.723L251.22 252.845C199.185 255.917 143.724 235.358 107.983 203.582L107.976 203.577C85.8473 184.229 70.3122 164.913 57.6714 141.085L55.7883 141.576L56.788 141.554C55.7883 141.576 55.7883 141.577 55.7883 141.577L55.7884 141.579L55.7885 141.585L55.789 141.603L55.7912 141.669C55.7933 141.725 55.7968 141.807 55.8025 141.913C55.8137 142.125 55.8336 142.436 55.8682 142.838C55.9374 143.642 56.0655 144.815 56.3017 146.304C56.774 149.283 57.6787 153.534 59.4092 158.656C62.7824 168.64 69.2912 181.927 81.8394 195.551C75.7479 197.961 69.2266 200.432 64.1026 202.346C61.3495 203.375 59.0009 204.242 57.3407 204.852C56.5106 205.157 55.8527 205.398 55.4024 205.562L55.1665 205.648C28.5873 189.037 15.2443 168.937 8.53794 152.988C5.1654 144.968 3.46877 137.991 2.61545 133.027C2.18883 130.546 1.97316 128.569 1.86419 127.217C1.80971 126.542 1.7819 126.023 1.76773 125.675C1.76381 125.579 1.76093 125.496 1.75882 125.427C24.6449 85.8708 54.2818 55.1644 78.2279 34.3311C90.2231 23.8953 100.784 15.942 108.343 10.5998C112.122 7.92885 115.151 5.91092 117.232 4.56206C118.273 3.88764 119.077 3.38051 119.619 3.04268C119.89 2.87377 120.096 2.74718 120.234 2.66318C120.241 2.65857 120.249 2.65409 120.256 2.64974C145.661 -0.270311 166.646 3.29028 181.285 7.58327C188.625 9.73589 194.368 12.0723 198.27 13.8668C200.221 14.764 201.711 15.5256 202.71 16.0608C203.196 16.3208 203.565 16.5274 203.815 16.67L204.239 19.1337C178.72 12.838 158.139 11.5657 143.847 11.8897C136.563 12.0548 130.913 12.6346 127.077 13.1751C125.159 13.4453 123.694 13.7056 122.705 13.8994C122.21 13.9963 121.835 14.0766 121.581 14.1331C121.454 14.1613 121.357 14.1837 121.291 14.1992L121.216 14.2172L121.195 14.2221L121.189 14.2236L121.188 14.224C121.187 14.2242 121.186 14.2243 121.428 15.1948L121.186 14.2243L121.388 16.194C203.3 19.4283 280.37 63.6185 321.544 131.743ZM290.87 292.672L291.733 293.17C291.713 293.174 291.605 293.227 291.412 293.322C291.277 293.389 291.101 293.476 290.884 293.581C290.819 293.478 290.767 293.374 290.742 293.282C290.741 293.076 290.82 292.77 290.87 292.672ZM102.699 116.463L102.692 116.475L102.685 116.488C93.6567 132.125 98.1376 151.612 112.638 159.984C127.39 168.501 146.259 162.487 155.284 146.856L155.289 146.846L155.294 146.837C160.462 137.434 161.24 128.488 159.062 120.93C156.888 113.385 151.79 107.299 145.34 103.565C138.89 99.8317 131.063 98.4369 123.413 100.303C115.75 102.173 108.339 107.297 102.699 116.463ZM193.709 169.005L193.701 169.018L193.693 169.031C184.665 184.669 189.146 204.155 203.647 212.527C218.402 221.046 237.267 215.031 246.292 199.399L246.301 199.384L246.309 199.368C251.352 189.88 252.07 180.902 249.875 173.341C247.683 165.793 242.607 159.729 236.189 156.025C229.771 152.32 221.99 150.964 214.375 152.853C206.748 154.745 199.362 159.874 193.709 169.005Z" stroke="url(#paint0_linear_343_2733)" stroke-width="2"/>
<defs>
<linearGradient id="paint0_linear_343_2733" x1="51" y1="38.1385" x2="326.247" y2="217.662" gradientUnits="userSpaceOnUse">
<stop stop-color="#27D89E"/>
<stop offset="1" stop-color="#3A86FF"/>
</linearGradient>
</defs>
</svg>
