<svg id="eJYd75aQ4Ok1" xmlns="http://www.w3.org/2000/svg" xmlns:xlink="http://www.w3.org/1999/xlink" viewBox="0 0 1920 1153" shape-rendering="geometricPrecision" text-rendering="geometricPrecision"><g clip-path="url(#eJYd75aQ4Ok62)"><g><path d="M-159,115h578c58.333,1,175,37.4,175,175s0,123.5,0,305" fill="none" stroke="#cacccd"/><path d="M-14,187.5h578c58.333,1,175,37.4,175,175s0,535,0,716.5" fill="none" stroke="#cacccd"/><path d="M74,239.5h578c58.333,1,175,37.4,175,175s0,535,0,716.5" fill="none" stroke="#cacccd"/><path d="M22,239.5h578c58.333,1,175,37.4,175,175s0,535,0,716.5" fill="none" stroke="#cacccd"/><path d="M-29,239.5h578c58.333,1,175,37.4,175,175s0,535,0,716.5" fill="none" stroke="#cacccd"/><path d="M-76,239.5h578c58.333,1,175,37.4,175,175s0-1,0,180.5" fill="none" stroke="#cacccd"/><path d="M-52,262.5h578c58.333,1,175,37.4,175,175s0-24,0,157.5" fill="none" stroke="#cacccd"/><path d="M-14,275.5h578c58.333,1,175,37.4,175,175s0,535,0,716.5" fill="none" stroke="#cacccd"/><path d="M-3,205.5h578c58.333,1,175,37.4,175,175s0,535,0,716.5" fill="none" stroke="#cacccd"/><path d="M-3,129.5h578c58.333,1,175,37.4,175,175s0,535,0,716.5" fill="none" stroke="#cacccd"/><path d="M-68,148.5h578c58.333,1,175,37.4,175,175s0,90,0,271.5" fill="none" stroke="#cacccd"/><path d="M-29,148.5h578c58.333,1,175,37.4,175,175s0,535,0,716.5" fill="none" stroke="#cacccd"/><path d="M-15,221.5h701c58.333,1,175,37.4,175,175s0,535,0,716.5" fill="none" stroke="#000"/><path d="M38,148.5h578c58.333,1,175,37.4,175,175s0,535,0,716.5" fill="none" stroke="#000"/><path d="M-3,170.5h578c58.333,1,175,37.4,175,175s0,535,0,716.5" fill="none" stroke="#000"/><path d="M1982,115h-578c-58.33,1-175,37.4-175,175s0,535,0,716.5" fill="none" stroke="#cacccd"/><path d="M1843,148.5h-578c-58.33,1-175,37.4-175,175s0,535,0,716.5" fill="none" stroke="#cacccd"/><path d="M1896,221.5h-701c-58.33,1-175,37.4-175,175s0,535,0,716.5" fill="none" stroke="#000"/><path d="M1807,239.5h-578c-58.33,1-175,37.4-175,175s0,535,0,716.5" fill="none" stroke="#cacccd"/><path d="M1859,239.5h-578c-58.33,1-175,37.4-175,175s0,535,0,716.5" fill="none" stroke="#cacccd"/><path d="M1910,239.5h-578c-58.33,1-175,37.4-175,175s0,535,0,716.5" fill="none" stroke="#cacccd"/><path d="M1957,239.5h-578c-58.33,1-175,37.4-175,175s0,535,0,716.5" fill="none" stroke="#cacccd"/><path d="M1933,262.5h-578c-58.33,1-175,37.4-175,175s0,535,0,716.5" fill="none" stroke="#cacccd"/><path d="M1895,275.5h-578c-58.33,1-175,37.4-175,175s0,535,0,716.5" fill="none" stroke="#cacccd"/><path d="M1884,205.5h-578c-58.33,1-175,37.4-175,175s0,535,0,716.5" fill="none" stroke="#cacccd"/><path d="M1884,170.5h-578c-58.33,1-175,37.4-175,175s0,535,0,716.5" fill="none" stroke="#cacccd"/><path d="M1884,129.5h-578c-58.33,1-175,37.4-175,175s0,535,0,716.5" fill="none" stroke="#000"/><path d="M1949,148.5h-578c-58.33,1-175,37.4-175,175s0,535,0,716.5" fill="none" stroke="#cacccd"/><path d="M1910,148.5h-578c-58.33,1-175,37.4-175,175s0,535,0,716.5" fill="none" stroke="#cacccd"/><path d="M1895,187.5h-578c-58.33,1-175,37.4-175,175s0,535,0,716.5" fill="none" stroke="#000"/><path d="M960.359,169c0,94,0,169.5,0,195.5c0,62-39.486,178.5-178.5,178.5-162.432,0-147.5,104-147.5,147.5c0,38,0,20.333,0,167" fill="none" stroke="#0b1922"/><path d="M1314,90c0,56.932,0,102.66,0,118.407c0,37.552-23.96,108.112-108.29,108.112-98.55,0-89.49,62.989-89.49,89.335c0,23.015,0,313.315,0,402.146" fill="none" stroke="#000"/><rect width="79" height="25" rx="12.5" ry="12.5" transform="translate(594 32)"/><path d="M611.648,49.12c-.576,0-1.072-.096-1.488-.288-.408-.192-.724-.468-.948-.828s-.34-.788-.348-1.284h1.08c0,.44.148.788.444,1.044.304.256.724.384,1.26.384.504,0,.896-.124,1.176-.372.288-.248.432-.592.432-1.032c0-.352-.096-.66-.288-.924-.184-.264-.452-.448-.804-.552l-1.188-.372c-.6-.184-1.064-.492-1.392-.924-.32-.432-.48-.94-.48-1.524c0-.472.104-.88.312-1.224.216-.352.516-.624.9-.816.384-.2.836-.3,1.356-.3.768,0,1.384.216,1.848.648.464.424.7.992.708,1.704h-1.08c0-.432-.132-.768-.396-1.008-.256-.248-.62-.372-1.092-.372-.464,0-.828.112-1.092.336-.256.224-.384.536-.384.936c0,.36.096.672.288.936s.468.452.828.564l1.2.384c.584.184,1.036.496,1.356.936s.48.956.48,1.548c0,.48-.112.9-.336,1.26s-.54.64-.948.84c-.4.2-.868.3-1.404.3Zm7.147,0c-.52,0-.976-.104-1.368-.312-.384-.208-.684-.5-.9-.876-.208-.384-.312-.828-.312-1.332v-1.8c0-.512.104-.956.312-1.332.216-.376.516-.668.9-.876.392-.208.848-.312,1.368-.312s.972.104,1.356.312c.392.208.692.5.9.876.216.376.324.82.324,1.332v1.164h-4.104v.636c0,.52.132.92.396,1.2.264.272.64.408,1.128.408.416,0,.752-.072,1.008-.216.256-.152.412-.376.468-.672h1.08c-.072.552-.344.992-.816,1.32-.464.32-1.044.48-1.74.48Zm1.524-3.876v-.444c0-.52-.132-.92-.396-1.2-.256-.28-.632-.42-1.128-.42-.488,0-.864.14-1.128.42s-.396.68-.396,1.2v.348h3.132l-.084.096ZM623.723,49v-6.6h1.056v1.26h.252l-.348.78c0-.712.152-1.248.456-1.608.312-.368.772-.552,1.38-.552.696,0,1.248.22,1.656.66.416.432.624,1.02.624,1.764v.396h-1.08v-.3c0-.52-.128-.916-.384-1.188-.248-.28-.604-.42-1.068-.42-.456,0-.816.14-1.08.42-.256.28-.384.676-.384,1.188v4.2h-1.08Zm8.731,0l-2.208-6.6h1.104l1.464,4.44c.088.264.168.52.24.768.072.24.124.428.156.564.04-.136.096-.324.168-.564.072-.248.148-.504.228-.768l1.428-4.44h1.092L633.918,49h-1.464Zm5.347,0v-.984h2.34v-4.632h-2.04v-.984h3.12v5.616h2.22v.984h-5.64Zm2.76-7.788c-.264,0-.472-.068-.624-.204s-.228-.32-.228-.552c0-.24.076-.428.228-.564.152-.144.36-.216.624-.216s.472.072.624.216c.152.136.228.324.228.564c0,.232-.076.416-.228.552s-.36.204-.624.204Zm7.064,7.908c-.528,0-.992-.1-1.392-.3-.392-.2-.696-.488-.912-.864-.216-.384-.324-.836-.324-1.356v-1.8c0-.528.108-.98.324-1.356s.52-.664.912-.864c.4-.2.864-.3,1.392-.3.76,0,1.372.204,1.836.612s.708.964.732,1.668h-1.08c-.024-.424-.168-.748-.432-.972-.256-.232-.608-.348-1.056-.348-.472,0-.848.136-1.128.408-.28.264-.42.644-.42,1.14v1.812c0,.496.14.88.42,1.152s.656.408,1.128.408c.448,0,.8-.116,1.056-.348.264-.232.408-.556.432-.972h1.08c-.024.704-.268,1.26-.732,1.668s-1.076.612-1.836.612Zm7.147,0c-.52,0-.976-.104-1.368-.312-.384-.208-.684-.5-.9-.876-.208-.384-.312-.828-.312-1.332v-1.8c0-.512.104-.956.312-1.332.216-.376.516-.668.9-.876.392-.208.848-.312,1.368-.312s.972.104,1.356.312c.392.208.692.5.9.876.216.376.324.82.324,1.332v1.164h-4.104v.636c0,.52.132.92.396,1.2.264.272.64.408,1.128.408.416,0,.752-.072,1.008-.216.256-.152.412-.376.468-.672h1.08c-.072.552-.344.992-.816,1.32-.464.32-1.044.48-1.74.48Zm1.524-3.876v-.444c0-.52-.132-.92-.396-1.2-.256-.28-.632-.42-1.128-.42-.488,0-.864.14-1.128.42s-.396.68-.396,1.2v.348h3.132l-.084.096Z" fill="#fff"/><rect width="57" height="25" rx="12.5" ry="12.5" transform="translate(1285 65)"/><path d="M1300.14,82v-8.772h5.16v.984h-4.1v2.916h3.79v.984h-3.77v3.888h-1.08Zm10.56,0c-.39,0-.72-.076-1.01-.228s-.51-.368-.67-.648-.24-.608-.24-.984v-5.916h-2.22v-.984h3.3v6.9c0,.272.07.488.22.648.16.152.36.228.62.228h2.1v.984h-2.1Zm6.29.096c-.53,0-.98-.1-1.37-.3-.38-.2-.68-.488-.9-.864-.21-.384-.31-.836-.31-1.356v-1.752c0-.528.1-.98.31-1.356.22-.376.52-.664.9-.864.39-.2.84-.3,1.37-.3s.98.1,1.37.3c.38.2.68.488.89.864s.32.824.32,1.344v1.764c0,.52-.11.972-.32,1.356-.21.376-.51.664-.89.864-.39.2-.84.3-1.37.3Zm0-.96c.47,0,.84-.132,1.1-.396.27-.264.4-.652.4-1.164v-1.752c0-.512-.13-.9-.4-1.164-.26-.264-.63-.396-1.1-.396-.46,0-.83.132-1.1.396s-.4.652-.4,1.164v1.752c0,.512.13.9.4,1.164s.64.396,1.1.396Zm5.07.864l-1.05-6.6h.96l.66,4.68c.02.176.04.368.07.576.03.2.05.368.07.504.02-.136.04-.304.07-.504.04-.208.07-.4.1-.576l.73-4.68h1.03l.73,4.68c.03.176.06.368.09.576.04.2.07.368.08.504.02-.136.04-.304.07-.504.04-.208.08-.4.1-.576l.68-4.68h.92l-1.11,6.6h-1.19l-.7-4.56c-.04-.224-.07-.448-.11-.672s-.07-.4-.09-.528c-.01.128-.04.304-.07.528s-.07.448-.11.672l-.74,4.56h-1.19Z" fill="#fff"/><g id="eJYd75aQ4Ok40" opacity="0"><rect width="93" height="25" rx="12.5" ry="12.5" transform="translate(914 40)" fill="#f85e60"/><path d="M931.648,57.12c-.528,0-.988-.1-1.38-.3-.384-.2-.684-.488-.9-.864-.208-.384-.312-.836-.312-1.356v-3.96c0-.528.104-.98.312-1.356.216-.376.516-.664.9-.864.392-.2.852-.3,1.38-.3s.984.104,1.368.312c.384.2.68.488.888.864s.312.824.312,1.344h-1.08c0-.496-.132-.876-.396-1.14-.256-.272-.62-.408-1.092-.408s-.844.132-1.116.396c-.264.264-.396.644-.396,1.14v3.972c0,.496.132.88.396,1.152.272.264.644.396,1.116.396s.836-.132,1.092-.396c.264-.272.396-.656.396-1.152h1.08c0,.512-.104.96-.312,1.344-.208.376-.504.668-.888.876-.384.2-.84.3-1.368.3Zm7.147-.024c-.528,0-.984-.1-1.368-.3s-.684-.488-.9-.864c-.208-.384-.312-.836-.312-1.356v-1.752c0-.528.104-.98.312-1.356.216-.376.516-.664.9-.864s.84-.3,1.368-.3.984.1,1.368.3.68.488.888.864c.216.376.324.824.324,1.344v1.764c0,.52-.108.972-.324,1.356-.208.376-.504.664-.888.864s-.84.3-1.368.3Zm0-.96c.472,0,.84-.132,1.104-.396s.396-.652.396-1.164v-1.752c0-.512-.132-.9-.396-1.164s-.632-.396-1.104-.396c-.464,0-.832.132-1.104.396-.264.264-.396.652-.396,1.164v1.752c0,.512.132.9.396,1.164.272.264.64.396,1.104.396Zm4.388.864v-6.6h.948v.792h.216l-.168.288c0-.368.096-.66.288-.876.2-.216.468-.324.804-.324.368,0,.652.136.852.408s.3.656.3,1.152l-.324-.648h.504l-.228.288c0-.368.1-.66.3-.876.208-.216.48-.324.816-.324.416,0,.736.156.96.468.232.312.348.724.348,1.236v5.016h-.996v-5.028c0-.272-.06-.484-.18-.636-.112-.152-.28-.228-.504-.228-.216,0-.388.076-.516.228-.12.144-.18.352-.18.624v5.04h-.864v-5.028c0-.28-.064-.492-.192-.636-.12-.152-.292-.228-.516-.228s-.392.076-.504.228c-.112.144-.168.352-.168.624v5.04h-.996Zm7.507,2.16v-8.76h1.08v1.26h.216l-.216.252c0-.504.164-.9.492-1.188.336-.296.776-.444,1.32-.444.664,0,1.192.22,1.584.66.4.432.6,1.028.6,1.788v1.932c0,.504-.092.94-.276,1.308-.176.368-.428.652-.756.852-.32.2-.704.3-1.152.3-.536,0-.972-.148-1.308-.444s-.504-.692-.504-1.188l.216.252h-.24l.024,1.5v1.92h-1.08Zm2.532-2.976c.456,0,.812-.136,1.068-.408.264-.272.396-.664.396-1.176v-1.8c0-.512-.132-.904-.396-1.176-.256-.272-.612-.408-1.068-.408-.44,0-.792.14-1.056.42s-.396.668-.396,1.164v1.8c0,.496.132.884.396,1.164s.616.42,1.056.42Zm7.159.912c-.528,0-.984-.1-1.368-.3s-.684-.488-.9-.864c-.208-.384-.312-.836-.312-1.356v-1.752c0-.528.104-.98.312-1.356.216-.376.516-.664.9-.864s.84-.3,1.368-.3.984.1,1.368.3.68.488.888.864c.216.376.324.824.324,1.344v1.764c0,.52-.108.972-.324,1.356-.208.376-.504.664-.888.864s-.84.3-1.368.3Zm0-.96c.472,0,.84-.132,1.104-.396s.396-.652.396-1.164v-1.752c0-.512-.132-.9-.396-1.164s-.632-.396-1.104-.396c-.464,0-.832.132-1.104.396-.264.264-.396.652-.396,1.164v1.752c0,.512.132.9.396,1.164.272.264.64.396,1.104.396Zm4.7.864v-6.6h1.08v1.26h.228l-.228.252c0-.52.156-.92.468-1.2.312-.288.744-.432,1.296-.432.664,0,1.192.204,1.584.612s.588.964.588,1.668v4.44h-1.08v-4.32c0-.472-.128-.832-.384-1.08-.248-.256-.588-.384-1.02-.384-.448,0-.804.136-1.068.408-.256.272-.384.664-.384,1.176v4.2h-1.08Zm9.691.12c-.52,0-.976-.104-1.368-.312-.384-.208-.684-.5-.9-.876-.208-.384-.312-.828-.312-1.332v-1.8c0-.512.104-.956.312-1.332.216-.376.516-.668.9-.876.392-.208.848-.312,1.368-.312s.972.104,1.356.312c.392.208.692.5.9.876.216.376.324.82.324,1.332v1.164h-4.104v.636c0,.52.132.92.396,1.2.264.272.64.408,1.128.408.416,0,.752-.072,1.008-.216.256-.152.412-.376.468-.672h1.08c-.072.552-.344.992-.816,1.32-.464.32-1.044.48-1.74.48Zm1.524-3.876v-.444c0-.52-.132-.92-.396-1.2-.256-.28-.632-.42-1.128-.42-.488,0-.864.14-1.128.42s-.396.68-.396,1.2v.348h3.132l-.084.096ZM979.471,57v-6.6h1.08v1.26h.228l-.228.252c0-.52.156-.92.468-1.2.312-.288.744-.432,1.296-.432.664,0,1.192.204,1.584.612s.588.964.588,1.668v4.44h-1.08v-4.32c0-.472-.128-.832-.384-1.08-.248-.256-.588-.384-1.02-.384-.448,0-.804.136-1.068.408-.256.272-.384.664-.384,1.176v4.2h-1.08Zm10.412,0c-.568,0-1.012-.152-1.332-.456-.312-.304-.468-.732-.468-1.284v-3.876h-1.86v-.984h1.86v-1.86h1.08v1.86h2.64v.984h-2.64v3.876c0,.504.24.756.72.756h1.8v.984h-1.8Z" fill="#fff"/><g opacity="0.1"><rect width="131" height="49" rx="24.5" ry="24.5" transform="translate(892 28)" fill="#f85e60"/></g></g><path d="M960,320.5v354.5" fill="none" stroke="#000"/><rect width="50" height="25" rx="12.5" ry="12.5" transform="translate(783 83)"/><path d="M797.6,100l2.28-8.76h1.452L803.6,100h-1.092l-.576-2.328h-2.652L798.704,100h-1.104Zm1.896-3.24h2.208l-.672-2.7c-.128-.512-.228-.94-.3-1.284s-.116-.568-.132-.672c-.016.104-.06.328-.132.672s-.172.768-.3,1.272l-.672,2.712Zm5.803,3.24v-8.76h2.82c.544,0,1.016.108,1.416.324.4.208.708.504.924.888.224.384.336.84.336,1.368c0,.52-.112.976-.336,1.368-.216.384-.524.684-.924.9-.4.208-.872.312-1.416.312h-1.74v3.6h-1.08Zm1.08-4.572h1.74c.472,0,.848-.144,1.128-.432.288-.296.432-.688.432-1.176c0-.496-.144-.888-.432-1.176-.28-.288-.656-.432-1.128-.432h-1.74v3.216ZM812.651,100v-.984h1.788v-6.792h-1.788v-.984h4.68v.984h-1.788v6.792h1.788v.984h-4.68Z" fill="#fff"/><path d="M808,109v556" fill="none" stroke="#0b1922"/><path d="M1069,405v437" fill="none" stroke="#000"/><path d="M1064,405h-16c-14,0-42.5,3.7-42.5,42.5s0,151.167,0,202.5" fill="none" stroke="#000"/><path d="M-37,372c55.2,0,513.167,0,551.5,0c9,.167,27,5.8,27,27s-18,26.833-27,27h-149.5c-9.833.167-29.5,6.3-29.5,29.5s21,30.667,31.5,31.5h81c9.333-.333,28,4.8,28,28s18.333,28,27.5,27.5h290" fill="none" stroke="#000"/><path d="M2026.5,487.534c-55.2,0-513.17,0-551.5,0-9-.166-27-5.8-27-27s18-26.833,27-27h149.5c9.83-.166,29.5-6.3,29.5-29.5s-21-30.666-31.5-31.5h-81c-9.33.334-28-4.8-28-28s-18.33-28-27.5-27.5h-290" fill="none" stroke="#000"/><path d="M634,55c0,94,0,169.5,0,195.5c0,62,39.486,178.5,178.5,178.5C974.933,429,960,533,960,576.5c0,38,0,20.333,0,167" fill="none" stroke="#0b1922"/><circle r="5" transform="translate(808 375)"/><circle r="5" transform="translate(1314 188)"/><circle r="5" transform="translate(634 221)"/><circle r="5" transform="translate(634 148)"/><circle r="5" transform="translate(1529 129)"/><circle r="5" transform="translate(369 129)"/><circle r="5" transform="translate(898 445)"/><circle r="5" transform="translate(1137 250)"/></g><clipPath id="eJYd75aQ4Ok62"><rect width="1923" height="595" rx="0" ry="0" transform="translate(-3 0)" fill="#fff"/></clipPath></g><g id="eJYd75aQ4Ok64" transform="matrix(0 0 0 0 958.778321 1049.5)"><g><circle r="5" transform="translate(1270 562)"/><circle r="51" transform="translate(959.5 1049.5)" fill="none" stroke="#f85e60"/><circle r="31.5" transform="translate(959.5 1049.5)" opacity="0.1" fill="#f85e60"/></g><circle r="103" transform="translate(959.5 1049.5)" opacity="0.2" fill="none" stroke="#f85e60"/></g><path id="eJYd75aQ4Ok70" d="M960.001,65v247c-.001,43.5,6.5,93.5,93.499,93.5c82.8,0,113.5,0,118.5,0c32.67-.833,98,17.6,98,98s0-5.167,0,73.5c0,120-67,133-192,133s-117.999,91-117.999,118c0,24.5,0,202,0,221" opacity="0" fill="none" stroke="#f85e60" stroke-width="3"/><g id="eJYd75aQ4Ok71" transform="translate(.000001 0)"><circle r="54.4383" transform="matrix(.707107-.707107 0.707107 0.707107 960.044445 195.0002)"/><circle r="60.2794" transform="matrix(.707107-.707107 0.707107 0.707107 960.042738 194.999907)" fill="none" stroke="#f85e60"/><path d="M946.149,180.529c-7.979,7.979-7.979,20.963,0,28.942c7.98,7.98,20.963,7.98,28.943,0c7.979-7.979,7.979-20.963,0-28.942-7.98-7.98-20.963-7.98-28.943,0Zm26.048,26.048c-6.383,6.383-16.77,6.383-23.154,0-6.383-6.383-6.383-16.771,0-23.154c6.384-6.383,16.771-6.383,23.154,0c6.384,6.383,6.384,16.771,0,23.154Z" fill="#f85e60"/><path d="M960.62,206.578l5.776-11.564-5.776-11.59-5.789,11.577l5.789,11.577Z" fill="#f85e60"/></g><circle r="5" transform="translate(1069 406)"/><circle r="5" transform="translate(960 317)" fill="#f85e60"/>
<script><![CDATA[
!function(t,n){"object"==typeof exports&&"undefined"!=typeof module?module.exports=n():"function"==typeof define&&define.amd?define(n):((t="undefined"!=typeof globalThis?globalThis:t||self).__SVGATOR_PLAYER__=t.__SVGATOR_PLAYER__||{},t.__SVGATOR_PLAYER__["5c7f360c"]=n())}(this,(function(){"use strict";function t(t,n){var e=Object.keys(t);if(Object.getOwnPropertySymbols){var r=Object.getOwnPropertySymbols(t);n&&(r=r.filter((function(n){return Object.getOwnPropertyDescriptor(t,n).enumerable}))),e.push.apply(e,r)}return e}function n(n){for(var e=1;e<arguments.length;e++){var r=null!=arguments[e]?arguments[e]:{};e%2?t(Object(r),!0).forEach((function(t){o(n,t,r[t])})):Object.getOwnPropertyDescriptors?Object.defineProperties(n,Object.getOwnPropertyDescriptors(r)):t(Object(r)).forEach((function(t){Object.defineProperty(n,t,Object.getOwnPropertyDescriptor(r,t))}))}return n}function e(t){return(e="function"==typeof Symbol&&"symbol"==typeof Symbol.iterator?function(t){return typeof t}:function(t){return t&&"function"==typeof Symbol&&t.constructor===Symbol&&t!==Symbol.prototype?"symbol":typeof t})(t)}function r(t,n){if(!(t instanceof n))throw new TypeError("Cannot call a class as a function")}function i(t,n){for(var e=0;e<n.length;e++){var r=n[e];r.enumerable=r.enumerable||!1,r.configurable=!0,"value"in r&&(r.writable=!0),Object.defineProperty(t,r.key,r)}}function u(t,n,e){return n&&i(t.prototype,n),e&&i(t,e),t}function o(t,n,e){return n in t?Object.defineProperty(t,n,{value:e,enumerable:!0,configurable:!0,writable:!0}):t[n]=e,t}function a(t){return(a=Object.setPrototypeOf?Object.getPrototypeOf:function(t){return t.__proto__||Object.getPrototypeOf(t)})(t)}function l(t,n){return(l=Object.setPrototypeOf||function(t,n){return t.__proto__=n,t})(t,n)}function s(){if("undefined"==typeof Reflect||!Reflect.construct)return!1;if(Reflect.construct.sham)return!1;if("function"==typeof Proxy)return!0;try{return Boolean.prototype.valueOf.call(Reflect.construct(Boolean,[],(function(){}))),!0}catch(t){return!1}}function f(t,n,e){return(f=s()?Reflect.construct:function(t,n,e){var r=[null];r.push.apply(r,n);var i=new(Function.bind.apply(t,r));return e&&l(i,e.prototype),i}).apply(null,arguments)}function c(t,n){if(n&&("object"==typeof n||"function"==typeof n))return n;if(void 0!==n)throw new TypeError("Derived constructors may only return object or undefined");return function(t){if(void 0===t)throw new ReferenceError("this hasn't been initialised - super() hasn't been called");return t}(t)}function h(t,n,e){return(h="undefined"!=typeof Reflect&&Reflect.get?Reflect.get:function(t,n,e){var r=function(t,n){for(;!Object.prototype.hasOwnProperty.call(t,n)&&null!==(t=a(t)););return t}(t,n);if(r){var i=Object.getOwnPropertyDescriptor(r,n);return i.get?i.get.call(e):i.value}})(t,n,e||t)}function v(t){return function(t){if(Array.isArray(t))return y(t)}(t)||function(t){if("undefined"!=typeof Symbol&&null!=t[Symbol.iterator]||null!=t["@@iterator"])return Array.from(t)}(t)||function(t,n){if(!t)return;if("string"==typeof t)return y(t,n);var e=Object.prototype.toString.call(t).slice(8,-1);"Object"===e&&t.constructor&&(e=t.constructor.name);if("Map"===e||"Set"===e)return Array.from(t);if("Arguments"===e||/^(?:Ui|I)nt(?:8|16|32)(?:Clamped)?Array$/.test(e))return y(t,n)}(t)||function(){throw new TypeError("Invalid attempt to spread non-iterable instance.\nIn order to be iterable, non-array objects must have a [Symbol.iterator]() method.")}()}function y(t,n){(null==n||n>t.length)&&(n=t.length);for(var e=0,r=new Array(n);e<n;e++)r[e]=t[e];return r}Number.isInteger||(Number.isInteger=function(t){return"number"==typeof t&&isFinite(t)&&Math.floor(t)===t}),Number.EPSILON||(Number.EPSILON=2220446049250313e-31);var g=d(Math.pow(10,-6));function d(t){var n=arguments.length>1&&void 0!==arguments[1]?arguments[1]:6;if(Number.isInteger(t))return t;var e=Math.pow(10,n);return Math.round((+t+Number.EPSILON)*e)/e}function p(t,n){var e=arguments.length>2&&void 0!==arguments[2]?arguments[2]:g;return Math.abs(t-n)<e}var m=Math.PI/180;function b(t){return t}function w(t,n,e){var r=1-e;return 3*e*r*(t*r+n*e)+e*e*e}function x(){var t=arguments.length>0&&void 0!==arguments[0]?arguments[0]:0,n=arguments.length>1&&void 0!==arguments[1]?arguments[1]:0,e=arguments.length>2&&void 0!==arguments[2]?arguments[2]:1,r=arguments.length>3&&void 0!==arguments[3]?arguments[3]:1;return t<0||t>1||e<0||e>1?null:p(t,n)&&p(e,r)?b:function(i){if(i<=0)return t>0?i*n/t:0===n&&e>0?i*r/e:0;if(i>=1)return e<1?1+(i-1)*(r-1)/(e-1):1===e&&t<1?1+(i-1)*(n-1)/(t-1):1;for(var u,o=0,a=1;o<a;){var l=w(t,e,u=(o+a)/2);if(p(i,l))break;l<i?o=u:a=u}return w(n,r,u)}}function A(){return 1}function k(t){return 1===t?1:0}function _(){var t=arguments.length>0&&void 0!==arguments[0]?arguments[0]:1,n=arguments.length>1&&void 0!==arguments[1]?arguments[1]:0;if(1===t){if(0===n)return k;if(1===n)return A}var e=1/t;return function(t){return t>=1?1:(t+=n*e)-t%e}}var S=Math.sin,O=Math.cos,j=Math.acos,M=Math.asin,P=Math.tan,E=Math.atan2,I=Math.PI/180,R=180/Math.PI,F=Math.sqrt,N=function(){function t(){var n=arguments.length>0&&void 0!==arguments[0]?arguments[0]:1,e=arguments.length>1&&void 0!==arguments[1]?arguments[1]:0,i=arguments.length>2&&void 0!==arguments[2]?arguments[2]:0,u=arguments.length>3&&void 0!==arguments[3]?arguments[3]:1,o=arguments.length>4&&void 0!==arguments[4]?arguments[4]:0,a=arguments.length>5&&void 0!==arguments[5]?arguments[5]:0;r(this,t),this.m=[n,e,i,u,o,a],this.i=null,this.w=null,this.s=null}return u(t,[{key:"determinant",get:function(){var t=this.m;return t[0]*t[3]-t[1]*t[2]}},{key:"isIdentity",get:function(){if(null===this.i){var t=this.m;this.i=1===t[0]&&0===t[1]&&0===t[2]&&1===t[3]&&0===t[4]&&0===t[5]}return this.i}},{key:"point",value:function(t,n){var e=this.m;return{x:e[0]*t+e[2]*n+e[4],y:e[1]*t+e[3]*n+e[5]}}},{key:"translateSelf",value:function(){var t=arguments.length>0&&void 0!==arguments[0]?arguments[0]:0,n=arguments.length>1&&void 0!==arguments[1]?arguments[1]:0;if(!t&&!n)return this;var e=this.m;return e[4]+=e[0]*t+e[2]*n,e[5]+=e[1]*t+e[3]*n,this.w=this.s=this.i=null,this}},{key:"rotateSelf",value:function(){var t=arguments.length>0&&void 0!==arguments[0]?arguments[0]:0;if(t%=360){var n=S(t*=I),e=O(t),r=this.m,i=r[0],u=r[1];r[0]=i*e+r[2]*n,r[1]=u*e+r[3]*n,r[2]=r[2]*e-i*n,r[3]=r[3]*e-u*n,this.w=this.s=this.i=null}return this}},{key:"scaleSelf",value:function(){var t=arguments.length>0&&void 0!==arguments[0]?arguments[0]:1,n=arguments.length>1&&void 0!==arguments[1]?arguments[1]:1;if(1!==t||1!==n){var e=this.m;e[0]*=t,e[1]*=t,e[2]*=n,e[3]*=n,this.w=this.s=this.i=null}return this}},{key:"skewSelf",value:function(t,n){if(n%=360,(t%=360)||n){var e=this.m,r=e[0],i=e[1],u=e[2],o=e[3];t&&(t=P(t*I),e[2]+=r*t,e[3]+=i*t),n&&(n=P(n*I),e[0]+=u*n,e[1]+=o*n),this.w=this.s=this.i=null}return this}},{key:"resetSelf",value:function(){var t=arguments.length>0&&void 0!==arguments[0]?arguments[0]:1,n=arguments.length>1&&void 0!==arguments[1]?arguments[1]:0,e=arguments.length>2&&void 0!==arguments[2]?arguments[2]:0,r=arguments.length>3&&void 0!==arguments[3]?arguments[3]:1,i=arguments.length>4&&void 0!==arguments[4]?arguments[4]:0,u=arguments.length>5&&void 0!==arguments[5]?arguments[5]:0,o=this.m;return o[0]=t,o[1]=n,o[2]=e,o[3]=r,o[4]=i,o[5]=u,this.w=this.s=this.i=null,this}},{key:"recomposeSelf",value:function(){var t=arguments.length>0&&void 0!==arguments[0]?arguments[0]:null,n=arguments.length>1&&void 0!==arguments[1]?arguments[1]:null,e=arguments.length>2&&void 0!==arguments[2]?arguments[2]:null,r=arguments.length>3&&void 0!==arguments[3]?arguments[3]:null,i=arguments.length>4&&void 0!==arguments[4]?arguments[4]:null;return this.isIdentity||this.resetSelf(),t&&(t.x||t.y)&&this.translateSelf(t.x,t.y),n&&this.rotateSelf(n),e&&(e.x&&this.skewSelf(e.x,0),e.y&&this.skewSelf(0,e.y)),!r||1===r.x&&1===r.y||this.scaleSelf(r.x,r.y),i&&(i.x||i.y)&&this.translateSelf(i.x,i.y),this}},{key:"decompose",value:function(){var t=arguments.length>0&&void 0!==arguments[0]?arguments[0]:0,n=arguments.length>1&&void 0!==arguments[1]?arguments[1]:0,e=this.m,r=e[0]*e[0]+e[1]*e[1],i=[[e[0],e[1]],[e[2],e[3]]],u=F(r);if(0===u)return{origin:{x:d(e[4]),y:d(e[5])},translate:{x:d(t),y:d(n)},scale:{x:0,y:0},skew:{x:0,y:0},rotate:0};i[0][0]/=u,i[0][1]/=u;var o=e[0]*e[3]-e[1]*e[2]<0;o&&(u=-u);var a=i[0][0]*i[1][0]+i[0][1]*i[1][1];i[1][0]-=i[0][0]*a,i[1][1]-=i[0][1]*a;var l=F(i[1][0]*i[1][0]+i[1][1]*i[1][1]);if(0===l)return{origin:{x:d(e[4]),y:d(e[5])},translate:{x:d(t),y:d(n)},scale:{x:d(u),y:0},skew:{x:0,y:0},rotate:0};i[1][0]/=l,i[1][1]/=l,a/=l;var s=0;return i[1][1]<0?(s=j(i[1][1])*R,i[0][1]<0&&(s=360-s)):s=M(i[0][1])*R,o&&(s=-s),a=E(a,F(i[0][0]*i[0][0]+i[0][1]*i[0][1]))*R,o&&(a=-a),{origin:{x:d(e[4]),y:d(e[5])},translate:{x:d(t),y:d(n)},scale:{x:d(u),y:d(l)},skew:{x:d(a),y:0},rotate:d(s)}}},{key:"clone",value:function(){var t=this.m;return new this.constructor(t[0],t[1],t[2],t[3],t[4],t[5])}},{key:"toString",value:function(){var t=arguments.length>0&&void 0!==arguments[0]?arguments[0]:" ";if(null===this.s){var n=this.m.map((function(t){return d(t)}));1===n[0]&&0===n[1]&&0===n[2]&&1===n[3]?this.s="translate("+n[4]+t+n[5]+")":this.s="matrix("+n.join(t)+")"}return this.s}}],[{key:"create",value:function(t){return t?Array.isArray(t)?f(this,v(t)):t instanceof this?t.clone():(new this).recomposeSelf(t.origin,t.rotate,t.skew,t.scale,t.translate):new this}}]),t}();function T(t,n,e){return t>=.5?e:n}function q(t,n,e){return 0===t||n===e?n:t*(e-n)+n}function B(t,n,e){var r=q(t,n,e);return r<=0?0:r}function L(t,n,e){var r=q(t,n,e);return r<=0?0:r>=1?1:r}function C(t,n,e){return 0===t?n:1===t?e:{x:q(t,n.x,e.x),y:q(t,n.y,e.y)}}function D(t,n,e){var r=function(t,n,e){return Math.round(q(t,n,e))}(t,n,e);return r<=0?0:r>=255?255:r}function z(t,n,e){return 0===t?n:1===t?e:{r:D(t,n.r,e.r),g:D(t,n.g,e.g),b:D(t,n.b,e.b),a:q(t,null==n.a?1:n.a,null==e.a?1:e.a)}}function V(t,n){for(var e=[],r=0;r<t;r++)e.push(n);return e}function G(t,n){if(--n<=0)return t;var e=(t=Object.assign([],t)).length;do{for(var r=0;r<e;r++)t.push(t[r])}while(--n>0);return t}var Y,$=function(){function t(n){r(this,t),this.list=n,this.length=n.length}return u(t,[{key:"setAttribute",value:function(t,n){for(var e=this.list,r=0;r<this.length;r++)e[r].setAttribute(t,n)}},{key:"removeAttribute",value:function(t){for(var n=this.list,e=0;e<this.length;e++)n[e].removeAttribute(t)}},{key:"style",value:function(t,n){for(var e=this.list,r=0;r<this.length;r++)e[r].style[t]=n}}]),t}(),U=/-./g,Q=function(t,n){return n.toUpperCase()};function H(t){return"function"==typeof t?t:T}function J(t){return t?"function"==typeof t?t:Array.isArray(t)?function(t){var n=arguments.length>1&&void 0!==arguments[1]?arguments[1]:b;if(!Array.isArray(t))return n;switch(t.length){case 1:return _(t[0])||n;case 2:return _(t[0],t[1])||n;case 4:return x(t[0],t[1],t[2],t[3])||n}return n}(t,null):function(t,n){var e=arguments.length>2&&void 0!==arguments[2]?arguments[2]:b;switch(t){case"linear":return b;case"steps":return _(n.steps||1,n.jump||0)||e;case"bezier":case"cubic-bezier":return x(n.x1||0,n.y1||0,n.x2||0,n.y2||0)||e}return e}(t.type,t.value,null):null}function Z(t,n,e){var r=arguments.length>3&&void 0!==arguments[3]&&arguments[3],i=n.length-1;if(t<=n[0].t)return r?[0,0,n[0].v]:n[0].v;if(t>=n[i].t)return r?[i,1,n[i].v]:n[i].v;var u,o=n[0],a=null;for(u=1;u<=i;u++){if(!(t>n[u].t)){a=n[u];break}o=n[u]}return null==a?r?[i,1,n[i].v]:n[i].v:o.t===a.t?r?[u,1,a.v]:a.v:(t=(t-o.t)/(a.t-o.t),o.e&&(t=o.e(t)),r?[u,t,e(t,o.v,a.v)]:e(t,o.v,a.v))}function K(t,n){var e=arguments.length>2&&void 0!==arguments[2]?arguments[2]:null;return t&&t.length?"function"!=typeof n?null:("function"!=typeof e&&(e=null),function(r){var i=Z(r,t,n);return null!=i&&e&&(i=e(i)),i}):null}function W(t,n){return t.t-n.t}function X(t,n,r,i,u){var o,a="@"===r[0],l="#"===r[0],s=Y[r],f=T;switch(a?(o=r.substr(1),r=o.replace(U,Q)):l&&(r=r.substr(1)),e(s)){case"function":if(f=s(i,u,Z,J,r,a,n,t),l)return f;break;case"string":f=K(i,H(s));break;case"object":if((f=K(i,H(s.i),s.f))&&"function"==typeof s.u)return s.u(n,f,r,a,t)}return f?function(t,n,e){if(arguments.length>3&&void 0!==arguments[3]&&arguments[3])return t instanceof $?function(r){return t.style(n,e(r))}:function(r){return t.style[n]=e(r)};if(Array.isArray(n)){var r=n.length;return function(i){var u=e(i);if(null==u)for(var o=0;o<r;o++)t[o].removeAttribute(n);else for(var a=0;a<r;a++)t[a].setAttribute(n,u)}}return function(r){var i=e(r);null==i?t.removeAttribute(n):t.setAttribute(n,i)}}(n,r,f,a):null}function tt(t,n,r,i){if(!i||"object"!==e(i))return null;var u=null,o=null;return Array.isArray(i)?o=function(t){if(!t||!t.length)return null;for(var n=0;n<t.length;n++)t[n].e&&(t[n].e=J(t[n].e));return t.sort(W)}(i):(o=i.keys,u=i.data||null),o?X(t,n,r,o,u):null}function nt(t,n,e){if(!e)return null;var r=[];for(var i in e)if(e.hasOwnProperty(i)){var u=tt(t,n,i,e[i]);u&&r.push(u)}return r.length?r:null}function et(t,n){if(!n.settings.duration||n.settings.duration<0)return null;var e,r,i,u,o,a=function(t,n){if(!n)return null;var e=[];if(Array.isArray(n))for(var r=n.length,i=0;i<r;i++){var u=n[i];if(2===u.length){var o=null;if("string"==typeof u[0])o=t.getElementById(u[0]);else if(Array.isArray(u[0])){o=[];for(var a=0;a<u[0].length;a++)if("string"==typeof u[0][a]){var l=t.getElementById(u[0][a]);l&&o.push(l)}o=o.length?1===o.length?o[0]:new $(o):null}if(o){var s=nt(t,o,u[1]);s&&(e=e.concat(s))}}}else for(var f in n)if(n.hasOwnProperty(f)){var c=t.getElementById(f);if(c){var h=nt(t,c,n[f]);h&&(e=e.concat(h))}}return e.length?e:null}(t,n.elements);return a?(e=a,r=n.settings,i=r.duration,u=e.length,o=null,function(t,n){var a=r.iterations||1/0,l=(r.alternate&&a%2==0)^r.direction>0?i:0,s=t%i,f=1+(t-s)/i;n*=r.direction,r.alternate&&f%2==0&&(n=-n);var c=!1;if(f>a)s=l,c=!0,-1===r.fill&&(s=r.direction>0?0:i);else if(n<0&&(s=i-s),s===o)return!1;o=s;for(var h=0;h<u;h++)e[h](s);return c}):null}function rt(t,n){if(Y=n,!t||!t.root||!Array.isArray(t.animations))return null;var e=function(t){for(var n=document.getElementsByTagName("svg"),e=0;e<n.length;e++)if(n[e].id===t.root&&!n[e].svgatorAnimation)return n[e].svgatorAnimation=!0,n[e];return null}(t);if(!e)return null;var r=t.animations.map((function(t){return et(e,t)})).filter((function(t){return!!t}));return r.length?{svg:e,animations:r,animationSettings:t.animationSettings,options:t.options||void 0}:null}function it(t){return+("0x"+(t.replace(/[^0-9a-fA-F]+/g,"")||27))}function ut(t,n,e){return!t||!e||n>t.length?t:t.substring(0,n)+ut(t.substring(n+1),e,e)}function ot(t){var n=arguments.length>1&&void 0!==arguments[1]?arguments[1]:27;return!t||t%n?t%n:ot(t/n,n)}function at(t,n,e){if(t&&t.length){var r=it(e),i=it(n),u=ot(r)+5,o=ut(t,ot(r,5),u);return o=o.replace(/\x7c$/g,"==").replace(/\x2f$/g,"="),o=function(t,n,e){var r=+("0x"+t.substring(0,4));t=t.substring(4);for(var i=n%r+e%27,u=[],o=0;o<t.length;o+=2)if("|"!==t[o]){var a=+("0x"+t[o]+t[o+1])-i;u.push(a)}else{var l=+("0x"+t.substring(o+1,o+1+4))-i;o+=3,u.push(l)}return String.fromCharCode.apply(String,u)}(o=(o=atob(o)).replace(/[\x41-\x5A]/g,""),i,r),o=JSON.parse(o)}}var lt=[{key:"alternate",def:!1},{key:"fill",def:1},{key:"iterations",def:0},{key:"direction",def:1},{key:"speed",def:1},{key:"fps",def:100}],st=function(){function t(n,e){var i=this,u=arguments.length>2&&void 0!==arguments[2]?arguments[2]:null;r(this,t),this._id=0,this._running=!1,this._rollingBack=!1,this._animations=n,this._settings=e,(!u||u<"2022-05-02")&&delete this._settings.speed,lt.forEach((function(t){i._settings[t.key]=i._settings[t.key]||t.def})),this.duration=e.duration,this.offset=e.offset||0,this.rollbackStartOffset=0}return u(t,[{key:"alternate",get:function(){return this._settings.alternate}},{key:"fill",get:function(){return this._settings.fill}},{key:"iterations",get:function(){return this._settings.iterations}},{key:"direction",get:function(){return this._settings.direction}},{key:"speed",get:function(){return this._settings.speed}},{key:"fps",get:function(){return this._settings.fps}},{key:"maxFiniteDuration",get:function(){return this.iterations>0?this.iterations*this.duration:this.duration}},{key:"_apply",value:function(t){for(var n=arguments.length>1&&void 0!==arguments[1]?arguments[1]:{},e=this._animations,r=e.length,i=0,u=0;u<r;u++)n[u]?i++:(n[u]=e[u](t,1),n[u]&&i++);return i}},{key:"_rollback",value:function(t){var n=this,e=1/0,r=null;this.rollbackStartOffset=t,this._rollingBack=!0,this._running=!0;this._id=window.requestAnimationFrame((function i(u){if(n._rollingBack){null==r&&(r=u);var o=Math.round(t-(u-r)*n.speed);if(o>n.duration&&e!==1/0){var a=!!n.alternate&&o/n.duration%2>1,l=o%n.duration;o=(l+=a?n.duration:0)||n.duration}var s=(n.fps?1e3/n.fps:0)*n.speed,f=Math.max(0,o);f<e-s&&(n.offset=f,e=f,n._apply(f));var c=n.iterations>0&&-1===n.fill&&o>=n.maxFiniteDuration;(o<=0||n.offset<o||c)&&n.stop(),n._id=window.requestAnimationFrame(i)}}))}},{key:"_start",value:function(){var t=this,n=arguments.length>0&&void 0!==arguments[0]?arguments[0]:0,e=-1/0,r=null,i={};this._running=!0;var u=function u(o){null==r&&(r=o);var a=Math.round((o-r)*t.speed+n),l=(t.fps?1e3/t.fps:0)*t.speed;if(a>e+l&&!t._rollingBack&&(t.offset=a,e=a,t._apply(a,i)===t._animations.length))return void t.pause(!0);t._id=window.requestAnimationFrame(u)};this._id=window.requestAnimationFrame(u)}},{key:"_pause",value:function(){this._id&&window.cancelAnimationFrame(this._id),this._running=!1}},{key:"play",value:function(){if(!this._running)return this._rollingBack?this._rollback(this.offset):this._start(this.offset)}},{key:"stop",value:function(){this._pause(),this.offset=0,this.rollbackStartOffset=0,this._rollingBack=!1,this._apply(0)}},{key:"reachedToEnd",value:function(){return this.iterations>0&&this.offset>=this.iterations*this.duration}},{key:"restart",value:function(){var t=arguments.length>0&&void 0!==arguments[0]&&arguments[0];this.stop(t),this.play(t)}},{key:"pause",value:function(){this._pause()}},{key:"reverse",value:function(){this.direction=-this.direction}}],[{key:"build",value:function(t,n){delete t.animationSettings,t.options=at(t.options,t.root,"5c7f360c"),t.animations.map((function(n){n.settings=at(n.s,t.root,"5c7f360c"),delete n.s,t.animationSettings||(t.animationSettings=n.settings)}));var e=t.version;if(!(t=rt(t,n)))return null;var r=t.options||{},i=new this(t.animations,t.animationSettings,e);return{el:t.svg,options:r,player:i}}},{key:"push",value:function(t){return this.build(t)}},{key:"init",value:function(){var t=this,n=window.__SVGATOR_PLAYER__&&window.__SVGATOR_PLAYER__["5c7f360c"];Array.isArray(n)&&n.splice(0).forEach((function(n){return t.build(n)}))}}]),t}();function ft(t){return d(t)+""}function ct(t){var n=arguments.length>1&&void 0!==arguments[1]?arguments[1]:" ";return t&&t.length?t.map(ft).join(n):""}function ht(t){if(!t)return"transparent";if(null==t.a||t.a>=1){var n=function(t){return 1===(t=parseInt(t).toString(16)).length?"0"+t:t},e=function(t){return t.charAt(0)===t.charAt(1)},r=n(t.r),i=n(t.g),u=n(t.b);return e(r)&&e(i)&&e(u)&&(r=r.charAt(0),i=i.charAt(0),u=u.charAt(0)),"#"+r+i+u}return"rgba("+t.r+","+t.g+","+t.b+","+t.a+")"}function vt(t){return t?"url(#"+t+")":"none"}!function(){for(var t=0,n=["ms","moz","webkit","o"],e=0;e<n.length&&!window.requestAnimationFrame;++e)window.requestAnimationFrame=window[n[e]+"RequestAnimationFrame"],window.cancelAnimationFrame=window[n[e]+"CancelAnimationFrame"]||window[n[e]+"CancelRequestAnimationFrame"];window.requestAnimationFrame||(window.requestAnimationFrame=function(n){var e=Date.now(),r=Math.max(0,16-(e-t)),i=window.setTimeout((function(){n(e+r)}),r);return t=e+r,i},window.cancelAnimationFrame=window.clearTimeout)}();var yt={f:null,i:function(t,n,e){return 0===t?n:1===t?e:{x:B(t,n.x,e.x),y:B(t,n.y,e.y)}},u:function(t,n){return function(e){var r=n(e);t.setAttribute("rx",ft(r.x)),t.setAttribute("ry",ft(r.y))}}},gt={f:null,i:function(t,n,e){return 0===t?n:1===t?e:{width:B(t,n.width,e.width),height:B(t,n.height,e.height)}},u:function(t,n){return function(e){var r=n(e);t.setAttribute("width",ft(r.width)),t.setAttribute("height",ft(r.height))}}};Object.freeze({M:2,L:2,Z:0,H:1,V:1,C:6,Q:4,T:2,S:4,A:7});var dt={},pt=null;function mt(t){var n=function(){if(pt)return pt;if("object"!==("undefined"==typeof document?"undefined":e(document))||!document.createElementNS)return{};var t=document.createElementNS("http://www.w3.org/2000/svg","svg");return t&&t.style?(t.style.position="absolute",t.style.opacity="0.01",t.style.zIndex="-9999",t.style.left="-9999px",t.style.width="1px",t.style.height="1px",pt={svg:t}):{}}().svg;if(!n)return function(t){return null};var r=document.createElementNS(n.namespaceURI,"path");r.setAttributeNS(null,"d",t),r.setAttributeNS(null,"fill","none"),r.setAttributeNS(null,"stroke","none"),n.appendChild(r);var i=r.getTotalLength();return function(t){var n=r.getPointAtLength(i*t);return{x:n.x,y:n.y}}}function bt(t){return dt[t]?dt[t]:dt[t]=mt(t)}function wt(t,n,e,r){if(!t||!r)return!1;var i=["M",t.x,t.y];if(n&&e&&(i.push("C"),i.push(n.x),i.push(n.y),i.push(e.x),i.push(e.y)),n?!e:e){var u=n||e;i.push("Q"),i.push(u.x),i.push(u.y)}return n||e||i.push("L"),i.push(r.x),i.push(r.y),i.join(" ")}function xt(t,n,e,r){var i=arguments.length>4&&void 0!==arguments[4]?arguments[4]:1,u=wt(t,n,e,r),o=bt(u);try{return o(i)}catch(t){return null}}function At(t,n,e){return t+(n-t)*e}function kt(t,n,e){var r=arguments.length>3&&void 0!==arguments[3]&&arguments[3],i={x:At(t.x,n.x,e),y:At(t.y,n.y,e)};return r&&(i.a=_t(t,n)),i}function _t(t,n){return Math.atan2(n.y-t.y,n.x-t.x)}function St(t,n,e,r){var i=1-r;return i*i*t+2*i*r*n+r*r*e}function Ot(t,n,e,r){return 2*(1-r)*(n-t)+2*r*(e-n)}function jt(t,n,e,r){var i=arguments.length>4&&void 0!==arguments[4]&&arguments[4],u=xt(t,n,null,e,r);return u||(u={x:St(t.x,n.x,e.x,r),y:St(t.y,n.y,e.y,r)}),i&&(u.a=Mt(t,n,e,r)),u}function Mt(t,n,e,r){return Math.atan2(Ot(t.y,n.y,e.y,r),Ot(t.x,n.x,e.x,r))}function Pt(t,n,e,r,i){var u=i*i;return i*u*(r-t+3*(n-e))+3*u*(t+e-2*n)+3*i*(n-t)+t}function Et(t,n,e,r,i){var u=1-i;return 3*(u*u*(n-t)+2*u*i*(e-n)+i*i*(r-e))}function It(t,n,e,r,i){var u=arguments.length>5&&void 0!==arguments[5]&&arguments[5],o=xt(t,n,e,r,i);return o||(o={x:Pt(t.x,n.x,e.x,r.x,i),y:Pt(t.y,n.y,e.y,r.y,i)}),u&&(o.a=Rt(t,n,e,r,i)),o}function Rt(t,n,e,r,i){return Math.atan2(Et(t.y,n.y,e.y,r.y,i),Et(t.x,n.x,e.x,r.x,i))}function Ft(t,n,e){var r=arguments.length>3&&void 0!==arguments[3]&&arguments[3];if(Tt(n)){if(qt(e))return jt(n,e.start,e,t,r)}else if(Tt(e)){if(Bt(n))return jt(n,n.end,e,t,r)}else{if(Bt(n))return qt(e)?It(n,n.end,e.start,e,t,r):jt(n,n.end,e,t,r);if(qt(e))return jt(n,e.start,e,t,r)}return kt(n,e,t,r)}function Nt(t,n,e){var r=Ft(t,n,e,!0);return r.a=function(t){return arguments.length>1&&void 0!==arguments[1]&&arguments[1]?t+Math.PI:t}(r.a)/m,r}function Tt(t){return!t.type||"corner"===t.type}function qt(t){return null!=t.start&&!Tt(t)}function Bt(t){return null!=t.end&&!Tt(t)}var Lt=new N;var Ct={f:ft,i:q},Dt={f:ft,i:L};function zt(t,n,e){return t.map((function(t){return function(t,n,e){var r=t.v;if(!r||"g"!==r.t||r.s||!r.v||!r.r)return t;var i=e.getElementById(r.r),u=i&&i.querySelectorAll("stop")||[];return r.s=r.v.map((function(t,n){var e=u[n]&&u[n].getAttribute("offset");return{c:t,o:e=d(parseInt(e)/100)}})),delete r.v,t}(t,0,e)}))}var Vt={gt:"gradientTransform",c:{x:"cx",y:"cy"},rd:"r",f:{x:"x1",y:"y1"},to:{x:"x2",y:"y2"}};function Gt(t,n,r,i,u,o,a,l){return zt(t,0,l),n=function(t,n,e){for(var r,i,u,o=t.length-1,a={},l=0;l<=o;l++)(r=t[l]).e&&(r.e=n(r.e)),r.v&&"g"===(i=r.v).t&&i.r&&(u=e.getElementById(i.r))&&(a[i.r]={e:u,s:u.querySelectorAll("stop")});return a}(t,i,l),function(i){var u=r(i,t,Yt);if(!u)return"none";if("c"===u.t)return ht(u.v);if("g"===u.t){if(!n[u.r])return vt(u.r);var o=n[u.r];return function(t,n){for(var e=t.s,r=e.length;r<n.length;r++){var i=e[e.length-1].cloneNode();i.id=Qt(i.id),t.e.appendChild(i),e=t.s=t.e.querySelectorAll("stop")}for(var u=0,o=e.length,a=n.length-1;u<o;u++)e[u].setAttribute("stop-color",ht(n[Math.min(u,a)].c)),e[u].setAttribute("offset",n[Math.min(u,a)].o)}(o,u.s),Object.keys(Vt).forEach((function(t){if(void 0!==u[t])if("object"!==e(Vt[t])){var n,r="gt"===t?(n=u[t],Array.isArray(n)?"matrix("+n.join(" ")+")":""):u[t],i=Vt[t];o.e.setAttribute(i,r)}else Object.keys(Vt[t]).forEach((function(n){if(void 0!==u[t][n]){var e=u[t][n],r=Vt[t][n];o.e.setAttribute(r,e)}}))})),vt(u.r)}return"none"}}function Yt(t,e,r){if(0===t)return e;if(1===t)return r;if(e&&r){var i=e.t;if(i===r.t)switch(e.t){case"c":return{t:i,v:z(t,e.v,r.v)};case"g":if(e.r===r.r){var u={t:i,s:$t(t,e.s,r.s),r:e.r};return e.gt&&r.gt&&(u.gt=function(t,n,e){var r=n.length;if(r!==e.length)return T(t,n,e);for(var i=new Array(r),u=0;u<r;u++)i[u]=q(t,n[u],e[u]);return i}(t,e.gt,r.gt)),e.c?(u.c=C(t,e.c,r.c),u.rd=B(t,e.rd,r.rd)):e.f&&(u.f=C(t,e.f,r.f),u.to=C(t,e.to,r.to)),u}}if("c"===e.t&&"g"===r.t||"c"===r.t&&"g"===e.t){var o="c"===e.t?e:r,a="g"===e.t?n({},e):n({},r),l=a.s.map((function(t){return{c:o.v,o:t.o}}));return a.s="c"===e.t?$t(t,l,a.s):$t(t,a.s,l),a}}return T(t,e,r)}function $t(t,n,e){if(n.length===e.length)return n.map((function(n,r){return Ut(t,n,e[r])}));for(var r=Math.max(n.length,e.length),i=[],u=0;u<r;u++){var o=Ut(t,n[Math.min(u,n.length-1)],e[Math.min(u,e.length-1)]);i.push(o)}return i}function Ut(t,n,e){return{o:L(t,n.o,e.o||0),c:z(t,n.c,e.c||{})}}function Qt(t){return t.replace(/-fill-([0-9]+)$/,(function(t,n){return"-fill-"+(+n+1)}))}var Ht={fill:Gt,"fill-opacity":Dt,stroke:Gt,"stroke-opacity":Dt,"stroke-width":Ct,"stroke-dashoffset":{f:ft,i:q},"stroke-dasharray":{f:function(t){var n=arguments.length>1&&void 0!==arguments[1]?arguments[1]:" ";return t&&t.length>0&&(t=t.map((function(t){return d(t,4)}))),ct(t,n)},i:function(t,n,e){var r,i,u,o=n.length,a=e.length;if(o!==a)if(0===o)n=V(o=a,0);else if(0===a)a=o,e=V(o,0);else{var l=(u=(r=o)*(i=a)/function(t,n){for(var e;n;)e=n,n=t%n,t=e;return t||1}(r,i))<0?-u:u;n=G(n,Math.floor(l/o)),e=G(e,Math.floor(l/a)),o=a=l}for(var s=[],f=0;f<o;f++)s.push(d(B(t,n[f],e[f])));return s}},opacity:Dt,transform:function(t,n,r,i){if(!(t=function(t,n){if(!t||"object"!==e(t))return null;var r=!1;for(var i in t)t.hasOwnProperty(i)&&(t[i]&&t[i].length?(t[i].forEach((function(t){t.e&&(t.e=n(t.e))})),r=!0):delete t[i]);return r?t:null}(t,i)))return null;var u=function(e,i,u){var o=arguments.length>3&&void 0!==arguments[3]?arguments[3]:null;return t[e]?r(i,t[e],u):n&&n[e]?n[e]:o};return n&&n.a&&t.o?function(n){var e=r(n,t.o,Nt);return Lt.recomposeSelf(e,u("r",n,q,0)+e.a,u("k",n,C),u("s",n,C),u("t",n,C)).toString()}:function(t){return Lt.recomposeSelf(u("o",t,Ft,null),u("r",t,q,0),u("k",t,C),u("s",t,C),u("t",t,C)).toString()}},r:Ct,"#size":gt,"#radius":yt,_:function(t,n){if(Array.isArray(t))for(var e=0;e<t.length;e++)this[t[e]]=n;else this[t]=n}},Jt=function(t){!function(t,n){if("function"!=typeof n&&null!==n)throw new TypeError("Super expression must either be null or a function");t.prototype=Object.create(n&&n.prototype,{constructor:{value:t,writable:!0,configurable:!0}}),n&&l(t,n)}(o,t);var n,e,i=(n=o,e=s(),function(){var t,r=a(n);if(e){var i=a(this).constructor;t=Reflect.construct(r,arguments,i)}else t=r.apply(this,arguments);return c(this,t)});function o(){return r(this,o),i.apply(this,arguments)}return u(o,null,[{key:"build",value:function(t){var n=h(a(o),"build",this).call(this,t,Ht);if(!n)return null;n.el,n.options,function(t,n,e){t.play()}(n.player)}}]),o}(st);return Jt.init(),Jt}));
(function(s,i,o,w,a,b){w[o]=w[o]||{};w[o][s]=w[o][s]||[];w[o][s].push(i);})('5c7f360c',{"root":"eJYd75aQ4Ok1","version":"2022-05-04","animations":[{"elements":{"eJYd75aQ4Ok40":{"opacity":[{"t":0,"v":0},{"t":3000,"v":1}]},"eJYd75aQ4Ok64":{"transform":{"data":{"o":{"x":958.778321,"y":1049.5,"type":"corner"},"t":{"x":-958.778321,"y":-1049.5}},"keys":{"s":[{"t":0,"v":{"x":0,"y":0}},{"t":3000,"v":{"x":1,"y":1}}]}}},"eJYd75aQ4Ok70":{"opacity":[{"t":0,"v":0},{"t":3000,"v":1}]},"eJYd75aQ4Ok71":{"transform":{"data":{"o":{"x":960.042786,"y":194.999916,"type":"corner"},"t":{"x":-960.042785,"y":-194.999916}},"keys":{"r":[{"t":0,"v":0},{"t":3000,"v":360.942318}]}}}},"s":"MQDA1Mzk0M2I3ZDhlOGII3YThkODI4OEg4NzNLiNTM0YzQ5NDlKNDk0LNTNiN2Q4MjhiN2U3YUzhkODI4ODg3M2I1MzMRhNDUzYjgyOGQ3ZThDiN2E4ZDgyODg4N1g4UYzNiNTM0YTQ1M2I3ZDjgyODU4NTNiNTM0YTEQ1M2I3YUE4NThkN2VFZOGI4N1g3YThkN2VPYM2I1MzdmRjdhODU4YIzdlNDUzYjhjODk3ZTUdlN2QzYjUzNGE5Ng|P"}],"options":"MGDAxMDg4MmY4MDgxNmHU3ZjgxMmY0NzJmNzlFOQjdjNmU3MTJmOGE/O"},'__SVGATOR_PLAYER__',window)
]]></script>
</svg>
