<svg width="78" height="56" viewBox="0 0 78 56" fill="none" xmlns="http://www.w3.org/2000/svg">
<path d="M68.375 6.95241C58.8176 -0.19961 49.6605 0.00139779 49.6605 0.00139779L48.7247 1.07066C60.087 4.47944 65.3674 9.49211 65.3674 9.49211C49.1108 0.541865 28.4046 0.606087 11.4958 9.49211C11.4958 9.49211 16.9764 4.21171 29.0076 0.802923L28.3395 0.000562602C28.3395 0.000562602 19.2492 -0.19961 9.625 6.95158C9.625 6.95158 0 24.2624 0 45.5842C0 45.5842 5.61486 55.2092 20.386 55.6771C20.386 55.6771 22.8589 52.7362 24.864 50.1965C16.3758 47.6568 13.1672 42.3764 13.1672 42.3764C18.5002 45.7134 23.8923 47.8019 30.6123 49.1272C41.5451 51.3775 55.1444 49.0638 65.3015 42.3764C65.3015 42.3764 61.9594 47.7902 53.2035 50.2632C55.2086 52.7362 57.6149 55.6103 57.6149 55.6103C72.386 55.1424 78 45.5174 78 45.585C77.9992 24.2632 68.375 6.95241 68.375 6.95241ZM26.5346 39.3688C22.7914 39.3688 19.7171 36.0935 19.7171 32.0166C19.9906 22.2523 33.147 22.2823 33.3522 32.0166C33.3522 36.0935 30.3438 39.3688 26.5346 39.3688ZM50.9299 39.3688C47.1867 39.3688 44.1123 36.0935 44.1123 32.0166C44.4126 22.2715 57.4047 22.2673 57.7475 32.0166C57.7475 36.0935 54.7399 39.3688 50.9299 39.3688Z" fill="#5966F3"/>
</svg>
