<svg width="18" height="17" viewBox="0 0 18 17" fill="none" xmlns="http://www.w3.org/2000/svg">
<path d="M0.228257 5.52935H4.08587V17H0.228257V5.52935ZM2.18289 0C0.862586 0 0 0.856471 0 1.98062C0 3.08164 0.837343 3.96301 2.1324 3.96301H2.157C3.50254 3.96301 4.34049 3.0816 4.34049 1.98062C4.31524 0.856471 3.50259 0 2.18289 0ZM13.5574 5.25989C11.5097 5.25989 10.5924 6.37278 10.0806 7.15324V5.52935H6.22183C6.27291 6.60543 6.22183 17 6.22183 17H10.0806V10.594C10.0806 10.2509 10.1058 9.90906 10.2074 9.66328C10.4868 8.97835 11.1216 8.26908 12.1866 8.26908C13.5838 8.26908 14.1418 9.32145 14.1418 10.8628V17H18V10.4225C18 6.89924 16.0971 5.25989 13.5574 5.25989Z" fill="#0B1922"/>
</svg>
