<svg width="20" height="17" viewBox="0 0 20 17" fill="none" xmlns="http://www.w3.org/2000/svg">
<path d="M6.28961 16.251C13.8368 16.251 17.9648 9.99824 17.9648 4.57582C17.9648 4.39824 17.9648 4.22145 17.9528 4.04543C18.7559 3.46453 19.4491 2.74535 20 1.92145C19.2511 2.25328 18.4566 2.47086 17.6432 2.56703C18.4996 2.05437 19.141 1.24742 19.4472 0.297422C18.6418 0.775352 17.7605 1.11223 16.8416 1.29344C16.0657 0.468398 14.9821 0 13.8497 0C11.5965 0 9.74246 1.85406 9.74246 4.10719C9.74246 4.41977 9.77816 4.73137 9.84879 5.03582C6.55121 4.87055 3.47457 3.31078 1.39199 0.748633C0.309023 2.61293 0.869375 5.02895 2.66238 6.22621C2.00945 6.20687 1.37055 6.0307 0.8 5.71262V5.76461C0.800547 7.71047 2.18465 9.40176 4.09199 9.78703C3.48793 9.95176 2.85398 9.97582 2.23922 9.85742C2.77543 11.5248 4.32168 12.6741 6.07281 12.707C4.62008 13.8487 2.82449 14.4689 0.976797 14.467C0.650313 14.4664 0.324141 14.4466 0 14.4078C1.87633 15.6119 4.06016 16.2508 6.28961 16.2478" fill="#0B1922"/>
</svg>
