<svg width="274" height="95" viewBox="0 0 274 95" fill="none" xmlns="http://www.w3.org/2000/svg">
<rect x="0.5" y="0.5" width="273" height="94" fill="white" stroke="black"/>
<g clip-path="url(#clip0_421_495)">
<path d="M182.329 30H102V66.9657H182.329V30Z" fill="black"/>
<path d="M112.664 55.9754H119.147C122.282 55.9754 123.114 55.4423 123.988 54.5892C124.406 54.1765 124.738 53.685 124.965 53.1433C125.192 52.6015 125.309 52.0202 125.311 51.4329C125.311 49.9187 124.82 48.4259 122.943 47.7221C123.552 47.4713 124.063 47.0307 124.402 46.4659C124.74 45.9011 124.887 45.2421 124.82 44.5871C124.82 43.009 123.86 40.6631 120.107 40.6631H112.664V55.9754ZM115.735 49.2363H119.808C120.96 49.2363 122.112 49.7481 122.112 51.0917C122.112 52.6485 121.216 53.3309 119.659 53.3309H115.735V49.2363ZM115.735 43.3076H119.403C120.853 43.3076 121.749 43.6914 121.749 44.9497C121.749 46.1653 120.747 46.6558 119.488 46.6558H115.735V43.3076ZM134.332 52.6485C134.186 53.033 133.921 53.3607 133.576 53.5834C133.23 53.8061 132.822 53.9119 132.412 53.8854C130.002 53.8854 129.832 51.9661 129.746 51.113H137.531V50.5798C137.531 45.3975 134.438 44.3312 132.199 44.3312C127.23 44.3312 126.761 48.7031 126.761 50.068C126.761 54.7385 129.213 56.274 132.412 56.274C133.533 56.3304 134.639 56.0014 135.547 55.3419C136.455 54.6823 137.11 53.7318 137.403 52.6485H134.332ZM129.832 49.1723C130.002 47.6795 130.749 46.7838 132.156 46.7838C133.116 46.7838 134.289 47.3382 134.46 49.1723H129.832ZM144.559 44.9163V47.2487H142.56V51.7059C142.542 52.2324 142.561 52.7595 142.618 53.2833C142.657 53.4341 142.749 53.5655 142.878 53.653C143.024 53.7537 143.198 53.8048 143.375 53.7987C143.78 53.7676 144.178 53.6716 144.552 53.5143L144.802 55.7842C144.069 56.0859 143.283 56.2347 142.49 56.2214C142.002 56.2287 141.517 56.1383 141.064 55.9555C140.694 55.8191 140.371 55.5807 140.132 55.2681C139.911 54.9247 139.77 54.536 139.72 54.1307C139.639 53.4467 139.607 52.7577 139.626 52.0691V47.248H138.283V44.9156H139.621V42.7182L142.557 41.0121V44.917L144.559 44.9163ZM151.49 44.9163V47.2487H149.491V51.7059C149.473 52.2324 149.492 52.7595 149.549 53.2833C149.588 53.4341 149.68 53.5655 149.809 53.653C149.955 53.7537 150.129 53.8048 150.307 53.7987C150.711 53.7676 151.109 53.6716 151.483 53.5143L151.733 55.7842C151 56.0859 150.214 56.2347 149.421 56.2214C148.933 56.2287 148.448 56.1383 147.995 55.9555C147.625 55.8191 147.302 55.5807 147.063 55.2681C146.842 54.9247 146.701 54.536 146.651 54.1307C146.57 53.4467 146.538 52.7577 146.557 52.0691V47.248H145.214V44.9156H146.557V42.7182L149.494 41.0121V44.917L151.49 44.9163ZM159.881 52.6485C159.735 53.033 159.47 53.3607 159.125 53.5834C158.779 53.8061 158.371 53.9119 157.961 53.8854C155.551 53.8854 155.381 51.9661 155.295 51.113H163.08V50.5798C163.08 45.3975 159.987 44.3312 157.748 44.3312C152.779 44.3312 152.31 48.7031 152.31 50.068C152.31 54.7385 154.762 56.274 157.961 56.274C159.082 56.3304 160.188 56.0014 161.096 55.3419C162.004 54.6823 162.659 53.7318 162.952 52.6485H159.881ZM155.381 49.1723C155.551 47.6795 156.298 46.7838 157.705 46.7838C158.665 46.7838 159.838 47.3382 160.009 49.1723H155.381ZM164.871 55.9754H167.857V50.068C167.857 48.8098 168.283 47.3596 170.608 47.3596C170.893 47.352 171.178 47.3662 171.461 47.4022V44.3739C171.27 44.3491 171.078 44.3348 170.885 44.3312C169.072 44.3312 168.39 45.4402 167.771 46.5918H167.729V44.6298H164.871V55.9754Z" fill="white"/>
</g>
<defs>
<clipPath id="clip0_421_495">
<rect width="80.3293" height="36.9657" fill="white" transform="translate(102 30)"/>
</clipPath>
</defs>
</svg>
