<svg width="81" height="37" viewBox="0 0 81 37" fill="none" xmlns="http://www.w3.org/2000/svg">
<g clip-path="url(#clip0_118_245)">
<path d="M80.3293 0H0V36.9657H80.3293V0Z" fill="black"/>
<path d="M10.6641 25.9754H17.1473C20.2823 25.9754 21.114 25.4423 21.9884 24.5892C22.4062 24.1765 22.7382 23.685 22.9651 23.1433C23.192 22.6015 23.3095 22.0202 23.3106 21.4329C23.3106 19.9187 22.8201 18.4259 20.9434 17.7221C21.5521 17.4713 22.0635 17.0307 22.4017 16.4659C22.7398 15.9011 22.8866 15.2421 22.8201 14.5871C22.8201 13.009 21.8604 10.6631 18.107 10.6631H10.6641V25.9754ZM13.7351 19.2363H17.8084C18.96 19.2363 20.1116 19.7481 20.1116 21.0917C20.1116 22.6485 19.2159 23.3309 17.6591 23.3309H13.7351V19.2363ZM13.7351 13.3076H17.4032C18.8534 13.3076 19.7491 13.6914 19.7491 14.9497C19.7491 16.1653 18.7468 16.6558 17.4885 16.6558H13.7351V13.3076ZM32.3316 22.6485C32.1863 23.033 31.9214 23.3607 31.5759 23.5834C31.2304 23.8061 30.8224 23.9119 30.4123 23.8854C28.0024 23.8854 27.8318 21.9661 27.7465 21.113H35.5306V20.5798C35.5306 15.3975 32.4383 14.3312 30.199 14.3312C25.23 14.3312 24.7608 18.7031 24.7608 20.068C24.7608 24.7385 27.2133 26.274 30.4123 26.274C31.533 26.3304 32.6393 26.0014 33.5472 25.3419C34.4551 24.6823 35.1099 23.7318 35.4026 22.6485H32.3316ZM27.8318 19.1723C28.0024 17.6795 28.7488 16.7838 30.1564 16.7838C31.116 16.7838 32.289 17.3382 32.4596 19.1723H27.8318ZM42.5591 14.9163V17.2487H40.5601V21.7059C40.5417 22.2324 40.561 22.7595 40.6176 23.2833C40.6565 23.4341 40.749 23.5655 40.8778 23.653C41.0238 23.7537 41.1982 23.8048 41.3754 23.7987C41.7803 23.7676 42.1776 23.6716 42.5519 23.5143L42.8022 25.7842C42.0694 26.0859 41.2827 26.2347 40.4904 26.2214C40.0019 26.2287 39.5168 26.1383 39.0637 25.9555C38.6943 25.8191 38.3711 25.5807 38.1317 25.2681C37.9106 24.9247 37.7699 24.536 37.7201 24.1307C37.6388 23.4467 37.6074 22.7577 37.6263 22.0691V17.248H36.2827V14.9156H37.6206V12.7182L40.5572 11.0121V14.917L42.5591 14.9163ZM49.4901 14.9163V17.2487H47.4911V21.7059C47.4728 22.2324 47.4921 22.7595 47.5487 23.2833C47.5876 23.4341 47.6801 23.5655 47.8089 23.653C47.9548 23.7537 48.1293 23.8048 48.3065 23.7987C48.7114 23.7676 49.1087 23.6716 49.483 23.5143L49.7332 25.7842C49.0005 26.0859 48.2138 26.2347 47.4215 26.2214C46.9329 26.2287 46.4478 26.1383 45.9947 25.9555C45.6254 25.8191 45.3022 25.5807 45.0628 25.2681C44.8417 24.9247 44.701 24.536 44.6512 24.1307C44.5698 23.4467 44.5385 22.7577 44.5573 22.0691V17.248H43.2138V14.9156H44.5573V12.7182L47.494 11.0121V14.917L49.4901 14.9163ZM57.8806 22.6485C57.7353 23.033 57.4704 23.3607 57.1249 23.5834C56.7793 23.8061 56.3714 23.9119 55.9613 23.8854C53.5514 23.8854 53.3808 21.9661 53.2955 21.113H61.0796V20.5798C61.0796 15.3975 57.9873 14.3312 55.748 14.3312C50.7789 14.3312 50.3098 18.7031 50.3098 20.068C50.3098 24.7385 52.7623 26.274 55.9613 26.274C57.082 26.3304 58.1883 26.0014 59.0962 25.3419C60.0041 24.6823 60.6589 23.7318 60.9516 22.6485H57.8806ZM53.3808 19.1723C53.5514 17.6795 54.2978 16.7838 55.7053 16.7838C56.665 16.7838 57.838 17.3382 58.0086 19.1723H53.3808ZM62.871 25.9754H65.8567V20.068C65.8567 18.8098 66.2832 17.3596 68.6078 17.3596C68.8928 17.352 69.178 17.3662 69.4608 17.4022V14.3739C69.2698 14.3491 69.0776 14.3348 68.885 14.3312C67.0723 14.3312 66.3898 15.4402 65.7714 16.5918H65.7287V14.6298H62.871V25.9754Z" fill="white"/>
</g>
<defs>
<clipPath id="clip0_118_245">
<rect width="80.3293" height="36.9657" fill="white"/>
</clipPath>
</defs>
</svg>
