<svg width="155" height="22" viewBox="0 0 155 22" fill="none" xmlns="http://www.w3.org/2000/svg">
<path d="M46.3367 0C44.0408 0 42.2665 0.871423 40.9098 2.28589C38.927 4.35319 38.9251 6.9638 38.9251 10.6632C38.9251 14.2538 38.8226 16.8676 40.9098 19.0437C42.3708 20.567 44.0408 21.3264 46.3367 21.3264C46.9629 21.3264 47.4833 21.2185 48.0051 21.1097H54.7872L52.8056 17.5176C53.7449 15.6679 53.7453 13.4921 53.7453 10.6632C53.7453 7.07261 53.7434 4.46199 51.7606 2.28589C50.4039 0.762618 48.6326 0 46.3367 0ZM87.4543 0C85.1584 0 83.384 0.762618 82.0274 2.28589C79.9402 4.46199 80.0426 7.07261 80.0426 10.6632C80.0426 14.3626 80.0445 16.9764 82.0274 19.0437C83.384 20.4582 85.1584 21.3264 87.4543 21.3264C89.7502 21.3264 91.5214 20.567 92.8781 19.0437C94.8609 16.8676 94.8628 14.2538 94.8628 10.6632C94.8628 6.9638 94.8609 4.35319 92.8781 2.28589C91.4171 0.871423 89.7502 0 87.4543 0ZM7.72175 0.10993C3.33867 0.10993 0.731861 2.72181 0.731861 6.42119C0.731861 8.16207 1.25325 9.57724 2.19248 10.5565C3.02735 11.4269 4.38361 12.0783 6.05336 12.296L8.45361 12.6225C9.39285 12.8401 9.81001 12.9503 10.2274 13.3856C10.6449 13.8208 10.8539 14.3634 10.8539 15.125C10.8539 16.8659 9.6021 17.7375 7.3062 17.7375C5.5321 17.7375 3.758 17.3004 2.50569 15.9948L0 18.6072C1.98282 20.6745 4.27979 21.3264 7.3062 21.3264C11.4806 21.3264 14.8202 19.0409 14.8202 15.0151C14.8202 13.1654 14.2977 11.6445 13.2541 10.5565C12.4193 9.68604 11.2717 9.14131 9.39325 8.9237L6.99299 8.59715C6.15812 8.37954 5.53116 8.16263 5.11372 7.72741C4.69629 7.29219 4.4873 6.74859 4.4873 6.20456C4.4873 4.79009 5.53224 3.59211 7.61942 3.59211C8.87173 3.59211 10.4358 3.69937 11.6881 5.00503L14.1938 2.50252C12.524 0.761634 10.4351 0.10993 7.72175 0.10993ZM20.4549 0.219859V21.1097H33.709V17.5176H24.4212V12.4059H32.3507V8.70708H24.4212V3.80874H33.709V0.219859L20.4549 0.219859ZM59.5877 0.219859V13.9287C59.5877 18.3897 62.9294 21.3264 66.9994 21.3264C71.0694 21.3264 74.3025 18.3897 74.3025 13.9287V0.219859H70.4416V13.8188C70.4416 16.2125 69.0866 17.6275 66.9994 17.6275C64.9122 17.6275 63.5541 16.2125 63.5541 13.8188V0.219859L59.5877 0.219859ZM100.603 0.219859V21.1097H104.464V0.219859L100.603 0.219859ZM116.673 0.219859L109.367 21.1097H113.438L114.691 17.4109H121.787L122.934 21.1097H127.006L119.7 0.219859L116.673 0.219859ZM46.2313 3.70204C47.2749 3.70204 48.2152 4.13558 48.737 4.78841C49.4675 5.65885 49.6735 6.63739 49.6735 10.6632C49.6735 14.689 49.4675 15.6707 48.737 16.5412C48.2152 17.194 47.2749 17.6275 46.2313 17.6275C45.1877 17.6275 44.2474 17.194 43.7256 16.5412C42.9951 15.6707 42.786 14.689 42.786 10.6632C42.786 6.63739 42.9951 5.65885 43.7256 4.78841C44.2474 4.13558 45.1877 3.70204 46.2313 3.70204ZM87.4543 3.70204C88.4979 3.70204 89.4351 4.13558 89.9569 4.78841C90.6874 5.65885 90.8965 6.63739 90.8965 10.6632C90.8965 14.689 90.6874 15.6707 89.9569 16.5412C89.4351 17.194 88.4979 17.6275 87.4543 17.6275C86.4107 17.6275 85.4704 17.194 84.9486 16.5412C84.2181 15.6707 84.0089 14.689 84.0089 10.6632C84.0089 6.63739 84.2181 5.65885 84.9486 4.78841C85.4704 4.13558 86.4107 3.70204 87.4543 3.70204ZM118.239 6.31126L120.745 13.9287H115.733L118.239 6.31126Z" fill="black"/>
<path d="M134.935 0.219859V19.2603L137.441 16.6479V0.219859H134.935ZM139.947 0.219859V14.0387L142.449 11.4262V0.219859H139.947ZM144.955 0.219859V8.81377L147.461 6.20456V0.219859H144.955ZM149.963 0.219859V5.44152H154.972V0.219859H149.963ZM149.234 8.05397L146.729 10.6632H154.972V8.05397H149.234ZM144.223 13.2756L141.721 15.8881H154.972V13.2756H144.223ZM139.215 18.4973L136.709 21.1097H154.972V18.4973H139.215Z" fill="#50B848"/>
</svg>
