<svg width="274" height="95" viewBox="0 0 274 95" fill="none" xmlns="http://www.w3.org/2000/svg">
<rect x="0.5" y="0.5" width="273" height="94" fill="white" stroke="black"/>
<path d="M106.337 39C104.041 39 102.266 39.8714 100.91 41.2859C98.927 43.3532 98.9251 45.9638 98.9251 49.6632C98.9251 53.2538 98.8226 55.8676 100.91 58.0437C102.371 59.567 104.041 60.3264 106.337 60.3264C106.963 60.3264 107.483 60.2185 108.005 60.1097H114.787L112.806 56.5176C113.745 54.6679 113.745 52.4921 113.745 49.6632C113.745 46.0726 113.743 43.462 111.761 41.2859C110.404 39.7626 108.633 39 106.337 39ZM147.454 39C145.158 39 143.384 39.7626 142.027 41.2859C139.94 43.462 140.043 46.0726 140.043 49.6632C140.043 53.3626 140.045 55.9764 142.027 58.0437C143.384 59.4582 145.158 60.3264 147.454 60.3264C149.75 60.3264 151.521 59.567 152.878 58.0437C154.861 55.8676 154.863 53.2538 154.863 49.6632C154.863 45.9638 154.861 43.3532 152.878 41.2859C151.417 39.8714 149.75 39 147.454 39ZM67.7218 39.1099C63.3387 39.1099 60.7319 41.7218 60.7319 45.4212C60.7319 47.1621 61.2533 48.5772 62.1925 49.5565C63.0274 50.4269 64.3836 51.0783 66.0534 51.296L68.4536 51.6225C69.3928 51.8401 69.81 51.9503 70.2274 52.3856C70.6449 52.8208 70.8539 53.3634 70.8539 54.125C70.8539 55.8659 69.6021 56.7375 67.3062 56.7375C65.5321 56.7375 63.758 56.3004 62.5057 54.9948L60 57.6072C61.9828 59.6745 64.2798 60.3264 67.3062 60.3264C71.4806 60.3264 74.8202 58.0409 74.8202 54.0151C74.8202 52.1654 74.2977 50.6445 73.2541 49.5565C72.4193 48.686 71.2717 48.1413 69.3932 47.9237L66.993 47.5971C66.1581 47.3795 65.5312 47.1626 65.1137 46.7274C64.6963 46.2922 64.4873 45.7486 64.4873 45.2046C64.4873 43.7901 65.5322 42.5921 67.6194 42.5921C68.8717 42.5921 70.4358 42.6994 71.6881 44.005L74.1938 41.5025C72.524 39.7616 70.4351 39.1099 67.7218 39.1099ZM80.4549 39.2199V60.1097H93.709V56.5176H84.4212V51.4059H92.3507V47.7071H84.4212V42.8087H93.709V39.2199L80.4549 39.2199ZM119.588 39.2199V52.9287C119.588 57.3897 122.929 60.3264 126.999 60.3264C131.069 60.3264 134.302 57.3897 134.302 52.9287V39.2199H130.442V52.8188C130.442 55.2125 129.087 56.6275 126.999 56.6275C124.912 56.6275 123.554 55.2125 123.554 52.8188V39.2199L119.588 39.2199ZM160.603 39.2199V60.1097H164.464V39.2199L160.603 39.2199ZM176.673 39.2199L169.367 60.1097H173.438L174.691 56.4109H181.787L182.934 60.1097H187.006L179.7 39.2199L176.673 39.2199ZM106.231 42.702C107.275 42.702 108.215 43.1356 108.737 43.7884C109.467 44.6588 109.674 45.6374 109.674 49.6632C109.674 53.689 109.467 54.6707 108.737 55.5412C108.215 56.194 107.275 56.6275 106.231 56.6275C105.188 56.6275 104.247 56.194 103.726 55.5412C102.995 54.6707 102.786 53.689 102.786 49.6632C102.786 45.6374 102.995 44.6588 103.726 43.7884C104.247 43.1356 105.188 42.702 106.231 42.702ZM147.454 42.702C148.498 42.702 149.435 43.1356 149.957 43.7884C150.687 44.6588 150.897 45.6374 150.897 49.6632C150.897 53.689 150.687 54.6707 149.957 55.5412C149.435 56.194 148.498 56.6275 147.454 56.6275C146.411 56.6275 145.47 56.194 144.949 55.5412C144.218 54.6707 144.009 53.689 144.009 49.6632C144.009 45.6374 144.218 44.6588 144.949 43.7884C145.47 43.1356 146.411 42.702 147.454 42.702ZM178.239 45.3113L180.745 52.9287H175.733L178.239 45.3113Z" fill="black"/>
<path d="M194.935 39.2199V58.2603L197.441 55.6479V39.2199H194.935ZM199.947 39.2199V53.0387L202.449 50.4262V39.2199H199.947ZM204.955 39.2199V47.8138L207.461 45.2046V39.2199H204.955ZM209.963 39.2199V44.4415H214.972V39.2199H209.963ZM209.234 47.054L206.729 49.6632H214.972V47.054H209.234ZM204.223 52.2756L201.721 54.8881H214.972V52.2756H204.223ZM199.215 57.4973L196.709 60.1097H214.972V57.4973H199.215Z" fill="#50B848"/>
</svg>
